<?xml version="1.0" standalone="no"?>
<!DOCTYPE svg PUBLIC "-//W3C//DTD SVG 20010904//EN"
 "http://www.w3.org/TR/2001/REC-SVG-20010904/DTD/svg10.dtd">
<svg version="1.0" xmlns="http://www.w3.org/2000/svg"
 width="700.000000pt" height="700.000000pt" viewBox="0 0 700.000000 700.000000"
 preserveAspectRatio="xMidYMid meet">
<metadata>
Created by potrace 1.11, written by Peter Selinger 2001-2013
</metadata>
<g transform="translate(0.000000,700.000000) scale(0.100000,-0.100000)"
fill="#000000" stroke="none">
<path d="M3137 6801 c-62 -32 -173 -94 -247 -138 -74 -44 -214 -125 -310 -180
-96 -55 -260 -150 -365 -210 -104 -61 -372 -215 -595 -343 -223 -128 -441
-254 -485 -280 -44 -26 -147 -87 -230 -135 -295 -173 -316 -187 -345 -227 -68
-93 -64 18 -62 -1635 1 -1606 -2 -1525 52 -1565 56 -41 98 -29 292 85 53 31
99 57 102 57 2 0 14 -21 27 -47 25 -54 96 -164 113 -175 13 -9 26 0 -147 -102
-119 -70 -151 -94 -164 -121 -25 -52 -6 -101 54 -143 27 -19 345 -205 708
-414 363 -209 750 -432 860 -496 694 -401 1017 -582 1055 -592 96 -26 178 0
370 117 63 39 133 80 155 92 22 12 56 31 75 42 55 33 700 409 750 437 25 14
149 86 275 160 127 74 248 145 270 157 22 13 81 47 130 75 50 29 115 67 145
85 332 192 598 352 613 368 38 44 34 102 -11 146 -15 14 -89 62 -164 105
l-137 79 34 41 c18 23 50 73 71 111 20 39 39 72 40 73 1 2 42 -19 89 -47 48
-28 88 -51 90 -51 2 0 30 -16 62 -35 120 -72 211 -23 214 116 1 30 1 703 0
1496 -1 1561 2 1471 -55 1562 -34 53 -104 100 -411 275 -137 78 -324 185 -415
238 -648 374 -931 538 -970 560 -184 104 -768 440 -780 448 -40 27 -95 52
-119 55 -14 1 -42 -6 -62 -16 -50 -25 -71 -72 -69 -157 1 -37 1 -99 1 -138
l-1 -72 -77 5 c-43 3 -103 1 -133 -4 l-55 -9 1 145 c1 187 -14 228 -96 251
-28 8 -44 3 -143 -49z m416 -1841 c21 0 26 -3 21 -12 -6 -10 -4 -10 7 -2 20
15 59 15 60 1 1 -18 -1 -136 -4 -190 -1 -26 2 -47 7 -47 5 0 3 -6 -3 -14 -6
-7 -9 -20 -6 -28 3 -8 7 -223 9 -478 2 -456 3 -466 24 -507 34 -65 77 -109
155 -156 60 -37 575 -335 642 -372 90 -49 137 -80 142 -91 2 -7 11 -10 18 -8
7 3 22 -3 33 -13 10 -10 25 -19 33 -21 8 -2 21 -9 29 -16 8 -7 23 -16 32 -19
16 -6 16 -9 -5 -40 -18 -28 -25 -32 -37 -23 -13 10 -13 9 -1 -7 12 -15 11 -20
-5 -40 -11 -12 -23 -25 -27 -28 -5 -3 -8 -9 -8 -13 4 -28 -1 -38 -15 -32 -13
5 -14 4 -6 -7 9 -10 8 -18 -3 -33 -12 -15 -16 -16 -23 -6 -5 8 -13 14 -18 14
-22 -1 -154 80 -148 90 4 7 2 8 -4 4 -7 -4 -171 84 -374 200 -502 287 -480
276 -552 281 -82 7 -159 -20 -289 -101 -56 -34 -172 -102 -257 -151 -85 -49
-192 -111 -238 -137 -46 -27 -88 -45 -94 -42 -6 4 -8 3 -5 -3 4 -6 -11 -18
-33 -28 -22 -10 -40 -21 -40 -25 0 -4 -17 -15 -39 -24 -21 -10 -58 -31 -82
-46 -23 -16 -46 -27 -51 -24 -4 3 -8 0 -8 -5 0 -39 -39 35 -43 81 -1 9 -5 14
-9 12 -4 -3 -8 0 -8 7 0 6 -18 38 -40 70 -37 54 -40 64 -17 60 4 0 7 3 7 8 0
5 15 16 33 25 17 9 47 26 65 37 18 10 38 17 43 14 5 -4 9 0 9 8 0 17 54 42 69
32 7 -4 8 0 4 11 -4 11 -3 15 4 11 6 -4 13 -4 15 1 3 7 114 75 188 116 19 10
47 27 62 37 14 11 28 19 31 19 2 0 82 46 178 102 96 56 194 113 219 127 64 37
82 51 113 92 60 80 60 83 62 565 1 243 5 446 9 453 4 6 4 11 -1 11 -9 0 -8
162 1 185 3 8 2 15 -3 15 -13 0 5 91 20 101 8 6 39 7 69 4 30 -4 68 -6 83 -5z"/>
<path d="M3495 4860 c3 -5 8 -10 11 -10 2 0 4 5 4 10 0 6 -5 10 -11 10 -5 0
-7 -4 -4 -10z"/>
<path d="M3610 4819 c0 -5 5 -7 10 -4 6 3 10 8 10 11 0 2 -4 4 -10 4 -5 0 -10
-5 -10 -11z"/>
<path d="M3420 4806 c0 -2 8 -10 18 -17 15 -13 16 -12 3 4 -13 16 -21 21 -21
13z"/>
<path d="M3433 4753 c0 -9 4 -10 14 -2 7 6 13 12 13 14 0 1 -6 2 -13 2 -8 0
-14 -6 -14 -14z"/>
<path d="M3424 4722 c4 -3 14 -7 22 -8 9 -1 13 0 10 4 -4 3 -14 7 -22 8 -9 1
-13 0 -10 -4z"/>
<path d="M3429 4683 c-13 -16 -12 -17 4 -4 16 13 21 21 13 21 -2 0 -10 -8 -17
-17z"/>
<path d="M2539 3108 c-5 -18 -6 -38 -1 -34 7 8 12 36 6 36 -2 0 -4 -1 -5 -2z"/>
<path d="M2455 3060 c3 -5 8 -10 11 -10 2 0 4 5 4 10 0 6 -5 10 -11 10 -5 0
-7 -4 -4 -10z"/>
<path d="M4496 3038 c3 -5 10 -6 15 -3 13 9 11 12 -6 12 -8 0 -12 -4 -9 -9z"/>
<path d="M2310 3016 c0 -2 8 -10 18 -17 15 -13 16 -12 3 4 -13 16 -21 21 -21
13z"/>
<path d="M4509 3003 c-13 -16 -12 -17 4 -4 9 7 17 15 17 17 0 8 -8 3 -21 -13z"/>
<path d="M4610 2979 c0 -5 5 -7 10 -4 6 3 10 8 10 11 0 2 -4 4 -10 4 -5 0 -10
-5 -10 -11z"/>
<path d="M2370 2939 c0 -5 5 -7 10 -4 6 3 10 8 10 11 0 2 -4 4 -10 4 -5 0 -10
-5 -10 -11z"/>
<path d="M2490 2939 c0 -5 5 -7 10 -4 6 3 10 8 10 11 0 2 -4 4 -10 4 -5 0 -10
-5 -10 -11z"/>
<path d="M4435 2920 c3 -5 8 -10 11 -10 2 0 4 5 4 10 0 6 -5 10 -11 10 -5 0
-7 -4 -4 -10z"/>
<path d="M4580 2926 c0 -2 8 -10 18 -17 15 -13 16 -12 3 4 -13 16 -21 21 -21
13z"/>
<path d="M4670 2920 c0 -5 5 -10 11 -10 5 0 7 5 4 10 -3 6 -8 10 -11 10 -2 0
-4 -4 -4 -10z"/>
<path d="M2335 2900 c-3 -5 -1 -10 4 -10 6 0 11 5 11 10 0 6 -2 10 -4 10 -3 0
-8 -4 -11 -10z"/>
<path d="M2390 2896 c0 -2 8 -10 18 -17 15 -13 16 -12 3 4 -13 16 -21 21 -21
13z"/>
<path d="M2466 2882 c-3 -5 1 -9 9 -9 8 0 15 4 15 9 0 4 -4 8 -9 8 -6 0 -12
-4 -15 -8z"/>
<path d="M4670 2879 c0 -5 5 -7 10 -4 6 3 10 8 10 11 0 2 -4 4 -10 4 -5 0 -10
-5 -10 -11z"/>
<path d="M2476 2847 c3 -10 9 -15 12 -12 3 3 0 11 -7 18 -10 9 -11 8 -5 -6z"/>
<path d="M4635 2840 c3 -5 8 -10 11 -10 2 0 4 5 4 10 0 6 -5 10 -11 10 -5 0
-7 -4 -4 -10z"/>
<path d="M2415 2820 c-3 -5 -1 -10 4 -10 6 0 11 5 11 10 0 6 -2 10 -4 10 -3 0
-8 -4 -11 -10z"/>
<path d="M4610 2820 c0 -5 5 -10 11 -10 5 0 7 5 4 10 -3 6 -8 10 -11 10 -2 0
-4 -4 -4 -10z"/>
</g>
</svg>
