<?xml version="1.0" encoding="UTF-8" standalone="no"?>
<!-- Created with Inkscape (http://www.inkscape.org/) -->

<svg
   xmlns:dc="http://purl.org/dc/elements/1.1/"
   xmlns:cc="http://creativecommons.org/ns#"
   xmlns:rdf="http://www.w3.org/1999/02/22-rdf-syntax-ns#"
   xmlns:svg="http://www.w3.org/2000/svg"
   xmlns="http://www.w3.org/2000/svg"
   xmlns:sodipodi="http://sodipodi.sourceforge.net/DTD/sodipodi-0.dtd"
   xmlns:inkscape="http://www.inkscape.org/namespaces/inkscape"
   width="210mm"
   height="297mm"
   viewBox="0 0 210 297"
   version="1.1"
   id="svg2154"
   inkscape:version="0.92.4 (5da689c313, 2019-01-14)"
   sodipodi:docname="data scientist.svg">
  <defs
     id="defs2148">
    <linearGradient
       gradientUnits="userSpaceOnUse"
       y2="43.42"
       x2="635.22"
       y1="545.34"
       x1="635.22"
       id="3cf802be-0480-4c68-848a-073112220499"
       gradientTransform="translate(-481.01661,827.63608)">
      <stop
         id="stop8903"
         stop-opacity="0.25"
         stop-color="gray"
         offset="0" />
      <stop
         id="stop8905"
         stop-opacity="0.12"
         stop-color="gray"
         offset="0.54" />
      <stop
         id="stop8907"
         stop-opacity="0.1"
         stop-color="gray"
         offset="1" />
    </linearGradient>
  </defs>
  <sodipodi:namedview
     id="base"
     pagecolor="#ffffff"
     bordercolor="#666666"
     borderopacity="1.0"
     inkscape:pageopacity="0.0"
     inkscape:pageshadow="2"
     inkscape:zoom="0.24748737"
     inkscape:cx="-513.71572"
     inkscape:cy="1129.4961"
     inkscape:document-units="mm"
     inkscape:current-layer="g9457"
     showgrid="false"
     inkscape:window-width="1680"
     inkscape:window-height="987"
     inkscape:window-x="-8"
     inkscape:window-y="-8"
     inkscape:window-maximized="1" />
  <metadata
     id="metadata2151">
    <rdf:RDF>
      <cc:Work
         rdf:about="">
        <dc:format>image/svg+xml</dc:format>
        <dc:type
           rdf:resource="http://purl.org/dc/dcmitype/StillImage" />
        <dc:title></dc:title>
      </cc:Work>
    </rdf:RDF>
  </metadata>
  <g
     inkscape:label="Ebene 1"
     inkscape:groupmode="layer"
     id="layer1">
    <g
       id="g8901"
       transform="matrix(0.26458333,0,0,0.26458333,-33.261901,-322.28762)">
      <rect
         id="rect8734"
         height="144.25739"
         width="231.23613"
         y="1384.9602"
         x="34.741058"
         style="fill:#f2f2f2;stroke-width:0.53035802" />
      <rect
         id="rect8736"
         stroke-miterlimit="10"
         height="144.25739"
         width="231.23613"
         y="1370.9059"
         x="49.325897"
         style="fill:none;stroke:#3f3d56;stroke-width:1.06071603;stroke-miterlimit:10" />
      <path
         id="path8738"
         d="m 200.46101,1478.0212 a 49.853659,49.853659 0 0 0 -35.25183,-85.1054 v 49.8536 z"
         inkscape:connector-curvature="0"
         style="fill:#3f3d56;stroke-width:0.53035802" />
      <path
         id="path8740"
         d="m 165.20918,1392.9158 a 49.859615,49.859615 0 0 0 -23.84916,93.6422 l 23.84916,-43.7886 z"
         inkscape:connector-curvature="0"
         style="fill:#008fe1;stroke-width:0.53035802" />
      <path
         id="path8742"
         d="m 200.46101,1478.0212 -35.25183,-35.2518 -23.84916,43.7886 a 49.879689,49.879689 0 0 0 59.10099,-8.5368 z"
         inkscape:connector-curvature="0"
         style="fill:#575a89;stroke-width:0.53035802" />
      <rect
         id="rect8744"
         height="9.5464449"
         width="9.5464449"
         y="1485.1979"
         x="58.076843"
         style="fill:#008fe1;stroke-width:0.53035802" />
      <rect
         id="rect8746"
         height="9.5464449"
         width="9.5464449"
         y="1485.1979"
         x="71.86615"
         style="fill:#3f3d56;stroke-width:0.53035802" />
      <rect
         id="rect8748"
         height="9.5464449"
         width="9.5464449"
         y="1485.1979"
         x="85.655426"
         style="fill:#575a89;stroke-width:0.53035802" />
      <rect
         id="rect8750"
         height="1.5910742"
         width="39.246498"
         y="1487.3195"
         x="223.01819"
         style="fill:#3f3d56;stroke-width:0.53035802" />
      <rect
         id="rect8752"
         height="1.5910742"
         width="39.246498"
         y="1492.0927"
         x="223.01819"
         style="fill:#3f3d56;stroke-width:0.53035802" />
      <rect
         id="rect8754"
         height="1.5910742"
         width="39.246498"
         y="1496.8658"
         x="223.01819"
         style="fill:#3f3d56;stroke-width:0.53035802" />
      <rect
         id="rect8756"
         height="144.25739"
         width="131.52881"
         y="1585.9659"
         x="107.40012"
         style="fill:#f2f2f2;stroke-width:0.53035802" />
      <rect
         id="rect8758"
         stroke-miterlimit="10"
         height="144.25739"
         width="131.52881"
         y="1572.1766"
         x="120.65909"
         style="fill:none;stroke:#3f3d56;stroke-width:1.06071603;stroke-miterlimit:10" />
      <rect
         id="rect8760"
         height="7.0916462"
         width="7.0916462"
         y="1700.1597"
         x="127.55377"
         style="fill:#008fe1;stroke-width:0.53035802" />
      <rect
         id="rect8762"
         height="7.0916462"
         width="7.0916462"
         y="1700.1597"
         x="137.79724"
         style="fill:#3f3d56;stroke-width:0.53035802" />
      <rect
         id="rect8764"
         height="7.0916462"
         width="7.0916462"
         y="1700.1597"
         x="148.04071"
         style="fill:#575a89;stroke-width:0.53035802" />
      <rect
         id="rect8766"
         height="1.1180531"
         width="27.578619"
         y="1703.2397"
         x="207.10742"
         style="fill:#3f3d56;stroke-width:0.53035802" />
      <rect
         id="rect8768"
         height="1.1180531"
         width="27.578619"
         y="1706.5938"
         x="207.10742"
         style="fill:#3f3d56;stroke-width:0.53035802" />
      <rect
         id="rect8770"
         height="1.1180531"
         width="27.578619"
         y="1709.948"
         x="207.10742"
         style="fill:#3f3d56;stroke-width:0.53035802" />
      <path
         id="path8772"
         d="m 186.4235,1597.634 v 11.6679 a 35.003633,35.003633 0 0 1 24.75132,59.7549 l 8.25042,8.2505 A 46.67151,46.67151 0 0 0 186.4235,1597.634 Z"
         inkscape:connector-curvature="0"
         style="fill:#3f3d56;stroke-width:0.53035802" />
      <path
         id="path8774"
         d="m 219.42524,1677.3073 -8.25042,-8.2505 a 34.99485,34.99485 0 0 1 -45.92902,3.1141 l -7.06211,9.2923 a 46.670318,46.670318 0 0 0 61.24155,-4.1559 z"
         inkscape:connector-curvature="0"
         style="fill:#575a89;stroke-width:0.53035802" />
      <path
         id="path8776"
         d="m 151.41986,1644.3056 a 35.003633,35.003633 0 0 1 35.00364,-35.0037 v -11.6679 a 46.671054,46.671054 0 0 0 -28.23981,83.8292 l 7.06212,-9.2923 a 34.942642,34.942642 0 0 1 -13.82595,-27.8653 z"
         inkscape:connector-curvature="0"
         style="fill:#008fe1;stroke-width:0.53035802" />
      <rect
         id="rect8812"
         height="144.25739"
         width="131.52881"
         y="1495.8052"
         x="303.63266"
         style="fill:#f2f2f2;stroke-width:0.53035802" />
      <rect
         id="rect8814"
         stroke-miterlimit="10"
         height="144.25739"
         width="131.52881"
         y="1482.0159"
         x="316.89157"
         style="fill:none;stroke:#3f3d56;stroke-width:1.06071603;stroke-miterlimit:10" />
      <polyline
         id="polyline8816"
         stroke-miterlimit="10"
         points="556 227.5 556 435.5 757 435.5"
         style="fill:none;stroke:#3f3d56;stroke-width:2;stroke-miterlimit:10"
         transform="matrix(0.53035808,0,0,0.53035808,34.741086,1370.3756)" />
      <rect
         id="rect8818"
         height="38.18578"
         width="23.866114"
         y="1562.6304"
         x="335.45413"
         style="fill:#575a89;stroke-width:0.53035802" />
      <rect
         id="rect8820"
         height="64.173325"
         width="23.866114"
         y="1536.6427"
         x="369.9274"
         style="fill:#3f3d56;stroke-width:0.53035802" />
      <rect
         id="rect8822"
         height="94.403732"
         width="23.866114"
         y="1506.4124"
         x="404.4006"
         style="fill:#008fe1;stroke-width:0.53035802" />
      <rect
         id="rect8824"
         height="7.0916462"
         width="7.0916462"
         y="1609.9988"
         x="328.02908"
         style="fill:#008fe1;stroke-width:0.53035802" />
      <rect
         id="rect8826"
         height="7.0916462"
         width="7.0916462"
         y="1609.9988"
         x="338.27255"
         style="fill:#3f3d56;stroke-width:0.53035802" />
      <rect
         id="rect8828"
         height="7.0916462"
         width="7.0916462"
         y="1609.9988"
         x="348.51602"
         style="fill:#575a89;stroke-width:0.53035802" />
      <rect
         id="rect8830"
         height="1.1180531"
         width="27.578619"
         y="1613.0787"
         x="407.58273"
         style="fill:#3f3d56;stroke-width:0.53035802" />
      <rect
         id="rect8832"
         height="1.1180531"
         width="27.578619"
         y="1616.433"
         x="407.58273"
         style="fill:#3f3d56;stroke-width:0.53035802" />
      <rect
         id="rect8834"
         height="1.1180531"
         width="27.578619"
         y="1619.7871"
         x="407.58273"
         style="fill:#3f3d56;stroke-width:0.53035802" />
      <g
         id="g9457"
         transform="translate(480.00755,474.02588)">
        <polygon
           id="polygon8916"
           points="179.42,600.33 158.46,512.87 396.32,482.04 168.55,402.86 188.67,398.08 554.92,457.83 534.75,594.32 505.92,669.33 435.45,690.5 93.17,688.83 59.16,609.06 "
           style="fill:#008fe1"
           transform="translate(-242.43661,901.05608)" />
        <path
           id="path8920"
           d="m -146.21661,1556.1461 c 0,0 -13.4,16.49 -6.8,34.85 0,0 10.92,-4.37 12.11,-26.63 z"
           inkscape:connector-curvature="0"
           style="fill:#008fe1" />
        <path
           id="path8990"
           d="m 388.29339,1527.9961 c 0,0 -22.67,27.67 -4.67,69.5 l -181,78.5 -17.37,3.64 -8,-35 5.35,-44.17 v -24.14 z"
           inkscape:connector-curvature="0"
           style="fill:#d5d6db" />
        <polygon
           id="polygon8992"
           points="435.45,690.5 59.16,609.06 309.68,563.39 641.63,616.27 "
           style="fill:#008fe1"
           transform="translate(-242.43661,901.05608)" />
        <polygon
           id="polygon8994"
           points="435.45,690.5 59.16,609.06 309.68,563.39 641.63,616.27 "
           style="fill:#008fe1"
           transform="translate(-242.43661,901.05608)" />
        <path
           id="path8996"
           d="m -183.27661,1510.1061 c 0,0 -23.43,44.39 3.57,85.39 l 371.5,80.5 c 0,0 -23.06,-35.36 1.19,-84.44 z"
           inkscape:connector-curvature="0"
           style="fill:#008fe1" />
        <path
           id="path8998"
           d="m -183.27661,1510.1061 c 0,0 -23.43,44.39 3.57,85.39 l 371.5,80.5 c 0,0 -23.06,-35.36 1.19,-84.44 z"
           inkscape:connector-curvature="0"
           style="opacity:0.1" />
        <path
           id="path9002"
           d="m 191.79339,1675.9961 207.4,-88.5 c 0,0 11.6,2.5 4.1,11 -7.5,8.5 -207.5,86 -207.5,86 l -375.5,-89 z"
           inkscape:connector-curvature="0"
           style="fill:#008fe1" />
        <path
           id="path9004"
           d="m 191.79339,1675.9961 207.4,-88.5 c 0,0 11.6,2.5 4.1,11 -7.5,8.5 -207.5,86 -207.5,86 l -375.5,-89 z"
           inkscape:connector-curvature="0"
           style="opacity:0.1" />
        <rect
           id="rect9008"
           transform="rotate(-18.45)"
           height="1"
           width="94.57"
           y="1603.8076"
           x="-343.30231"
           style="opacity:0.1" />
        <rect
           id="rect9010"
           transform="rotate(-20.82)"
           height="1"
           width="115.23"
           y="1595.7527"
           x="-412.2175"
           style="opacity:0.1" />
        <rect
           id="rect9012"
           transform="rotate(-22.26)"
           height="1"
           width="133.56"
           y="1593.9037"
           x="-455.22882"
           style="opacity:0.1" />
        <rect
           id="rect9014"
           transform="rotate(-24.31)"
           height="1"
           width="153.74001"
           y="1584.8158"
           x="-514.08252"
           style="opacity:0.1" />
        <rect
           id="rect9016"
           transform="rotate(-23.61)"
           height="1"
           width="168.14999"
           y="1595.1567"
           x="-495.29855"
           style="opacity:0.1" />
        <rect
           id="rect9018"
           transform="rotate(-23.36)"
           height="1"
           width="201.22"
           y="1604.5028"
           x="-488.91257"
           style="opacity:0.1" />
        <polygon
           id="polygon9020"
           points="291.23,643.94 152.23,613.94 328.23,576.94 435.45,597.44 "
           style="opacity:0.3;fill:#ffffff"
           transform="translate(-242.43661,901.05608)" />
        <path
           id="path9022"
           d="m 399.19339,1517.3261 c 0,0 9.1,3.67 3.76,9.34 -5.34,5.67 -209.97,64.89 -209.97,64.89 z"
           inkscape:connector-curvature="0"
           style="fill:#008fe1" />
        <path
           id="path9024"
           d="m 487.58339,1431.8161 c 0,0 -22.66,27.66 -4.66,69.5 l -181,78.5 -17.37,3.66 -8,-35 5.43,-44.16 v -24.17 z"
           inkscape:connector-curvature="0"
           style="fill:#d5d6db" />
        <polygon
           id="polygon9026"
           points="534.75,594.32 158.46,512.87 408.97,467.21 740.93,520.09 "
           style="fill:#3a3768"
           transform="translate(-242.43661,901.05608)" />
        <path
           id="path9028"
           d="m -84.016614,1413.9261 c 0,0 -23.439996,44.39 3.56,85.39 l 371.500004,80.5 c 0,0 -23.05,-35.39 1.23,-84.45 z"
           inkscape:connector-curvature="0"
           style="fill:#3a3768" />
        <path
           id="path9030"
           d="m -84.016614,1413.9261 c 0,0 -23.439996,44.39 3.56,85.39 l 371.500004,80.5 c 0,0 -23.05,-35.39 1.23,-84.45 l -117.48,-25.43 z"
           inkscape:connector-curvature="0"
           style="opacity:0.1" />
        <path
           id="path9034"
           d="m 291.08339,1579.8161 207.41,-88.5 c 0,0 11.59,2.5 4.09,11 -7.5,8.5 -207.5,86 -207.5,86 l -375.500004,-89 z"
           inkscape:connector-curvature="0"
           style="fill:#3a3768" />
        <path
           id="path9036"
           d="m 291.08339,1579.8161 207.41,-88.5 c 0,0 11.59,2.5 4.09,11 -7.5,8.5 -207.5,86 -207.5,86 l -375.500004,-89 z"
           inkscape:connector-curvature="0"
           style="opacity:0.1" />
        <path
           id="path9038"
           d="m 274.08339,1504.3161 c 0,0 -20,24 0,60"
           inkscape:connector-curvature="0"
           style="opacity:0.1" />
        <rect
           id="rect9040"
           transform="rotate(-18.45)"
           height="1"
           width="94.57"
           y="1544.0067"
           x="-218.67307"
           style="opacity:0.1" />
        <rect
           id="rect9042"
           transform="rotate(-20.82)"
           height="1"
           width="115.23"
           y="1541.1569"
           x="-285.2085"
           style="opacity:0.1" />
        <rect
           id="rect9044"
           transform="rotate(-22.26)"
           height="1"
           width="133.56"
           y="1542.4983"
           x="-326.89627"
           style="opacity:0.1" />
        <rect
           id="rect9046"
           transform="rotate(-24.31)"
           height="1"
           width="153.74001"
           y="1538.0406"
           x="-383.98352"
           style="opacity:0.1" />
        <rect
           id="rect9048"
           transform="rotate(-23.61)"
           height="1"
           width="168.14999"
           y="1546.7783"
           x="-365.7887"
           style="opacity:0.1" />
        <rect
           id="rect9050"
           transform="rotate(-23.36)"
           height="1"
           width="201.22"
           y="1555.5627"
           x="-359.60806"
           style="opacity:0.1" />
        <polygon
           id="polygon9052"
           points="390.53,547.76 251.53,517.76 427.53,480.76 534.75,501.26 "
           style="opacity:0.45;fill:#ffffff"
           transform="translate(-242.43661,901.05608)" />
        <path
           id="path9054"
           d="m 498.49339,1421.1461 c 0,0 9.09,3.67 3.76,9.33 -5.33,5.66 -209.94,64.89 -209.94,64.89 z"
           inkscape:connector-curvature="0"
           style="fill:#3a3768" />
        <path
           id="path9056"
           d="m 496.98339,1321.7861 c 0,0 -22.67,49.67 -4.67,91.5 l -181,56.5 -17.33,3.67 -8,-35 5.35,-44.17 v -24.17 z"
           inkscape:connector-curvature="0"
           style="fill:#d5d6db" />
        <polygon
           id="polygon9058"
           points="544.18,484.29 167.89,402.85 418.41,357.18 750.37,410.06 "
           style="fill:#008fe1"
           transform="translate(-242.43661,901.05608)" />
        <path
           id="path9060"
           d="m -74.546614,1303.8961 c 0,0 -23.47,44.39 3.53,85.39 l 371.500004,80.5 c 0,0 -23.06,-35.39 1.22,-84.44 z"
           inkscape:connector-curvature="0"
           style="fill:#008fe1" />
        <path
           id="path9062"
           d="m -74.546614,1303.8961 c 0,0 -23.47,44.39 3.53,85.39 l 371.500004,80.5 c 0,0 -23.06,-35.39 1.22,-84.44 z"
           inkscape:connector-curvature="0"
           style="opacity:0.1" />
        <path
           id="path9066"
           d="m 300.52339,1469.7861 207.4,-66.5 c 0,0 11.6,2.5 4.1,11 -7.5,8.5 -207.5,64 -207.5,64 l -375.500004,-89 z"
           inkscape:connector-curvature="0"
           style="fill:#008fe1" />
        <path
           id="path9068"
           d="m 300.52339,1469.7861 207.4,-66.5 c 0,0 11.6,2.5 4.1,11 -7.5,8.5 -207.5,64 -207.5,64 l -375.500004,-89 z"
           inkscape:connector-curvature="0"
           style="opacity:0.1" />
        <path
           id="path9070"
           d="m 283.52339,1394.2861 c 0,0 -20,24 0,60"
           inkscape:connector-curvature="0"
           style="opacity:0.1" />
        <rect
           id="rect9074"
           transform="rotate(-20.82)"
           height="1"
           width="115.23"
           y="1441.6683"
           x="-237.28151"
           style="opacity:0.1" />
        <rect
           id="rect9076"
           transform="rotate(-22.26)"
           height="1"
           width="133.56"
           y="1444.2467"
           x="-276.49457"
           style="opacity:0.1" />
        <rect
           id="rect9078"
           transform="rotate(-24.31)"
           height="1"
           width="153.74001"
           y="1441.6525"
           x="-330.08316"
           style="opacity:0.1" />
        <rect
           id="rect9080"
           transform="rotate(-23.61)"
           height="1"
           width="168.14999"
           y="1449.7496"
           x="-313.06903"
           style="opacity:0.1" />
        <rect
           id="rect9082"
           transform="rotate(-23.36)"
           height="1"
           width="201.22"
           y="1458.3097"
           x="-307.31787"
           style="opacity:0.1" />
        <polygon
           id="polygon9084"
           points="399.96,437.73 260.96,407.73 436.96,370.73 544.18,391.23 "
           style="opacity:0.3;fill:#ffffff"
           transform="translate(-242.43661,901.05608)" />
        <path
           id="path9086"
           d="m 507.92339,1311.1161 c 0,0 9.1,3.67 3.76,9.34 -5.34,5.67 -209.94,64.89 -209.94,64.89 z"
           inkscape:connector-curvature="0"
           style="fill:#008fe1" />
        <path
           id="path9112"
           d="m 322.52339,1248.3461 c -6.54,-17.77 -42.54,-19.44 -58.16,-14.91 -11.1,3.23 -34.5,6.87 -47,8.7 l -0.81,-0.77 c 1.62,-0.48 1.66,-1.66 1.46,-3.41 a 53.37,53.37 0 0 1 0.1,-6.92 c 7.66,2.38 14.48,-3.25 14.48,-3.25 v 0 c 9,-4 6.58,-21.12 8.3,-25.8 1.29,-3.5 2.68,-24.12 3.3,-34.4 h 0.13 l 0.07,-3.45 c 0.09,-1.49 0.13,-2.36 0.13,-2.36 0,0 0.88,-25.14 2.6,-30.23 1.6,-4.68 2.9,-28.26 3.1,-32 0,-0.32 0,-0.49 0,-0.49 l -0.13,-2.18 c 0.09,-1.59 0.13,-3.36 0.12,-5.22 0,-8.55 -0.89,-19.32 -1,-21.06 0,-0.25 0,-0.55 0,-0.91 0.07,-3.65 -0.39,-21.93 -15.94,-28.84 -5.73,-2.56 -12.62,-5.61 -19.29,-8.58 -1.72,-14.85 -5.65,-29.62 -5.31,-44.58002 0,-2.25 0.2,-4.5 0.42,-6.74 0,0.65 -0.07,1.31 -0.08,2 0,1.45 0,2.91 0,4.36 0.59,-18.71 7.66,-37.52 7,-55.83 -0.06,1.79 -0.19,3.59 -0.36,5.39 a 58.13,58.13 0 0 0 -1.92,-18.39 c -0.6,-2.11 -1.41,-4.29 -3.14,-5.7 a 12.93,12.93 0 0 0 -5.48,-2.17 110.21,110.21 0 0 0 -14.39,-2.68 22.22,22.22 0 0 0 -3.24,-6.29 c -10.14,-13.92 -25.16,-27 -42.92,-30 -8.91,-1.5 -19.16,-0.25 -25.22,6.12 a 18.92,18.92 0 0 0 -1.78,1.8 c -3.26,3.89 -4.66,9 -8,12.88 -0.22,0.26 -0.47,0.5 -0.71,0.75 -6.54,5.85 -16.730004,7.07 -24.000004,12.32 a 28.81,28.81 0 0 0 -3.59,3.13 60.88,60.88 0 0 0 -7.84,9.53 c -3.27,4.6 -6.63,9.39 -7.67,14.88 -2.09,11 5.4,21.43 6.79,32.5 3.1,24.77 -24.31,46.75002 -19.12,71.19002 a 32.6,32.6 0 0 0 8.82,15.83 c -10.69,9.68 -19.79,19.07 -19.79,19.07 v 0.56 h -1.69 l 0.17,2 h -0.17 l 0.93,10.85 -0.93,15.8 c 0,0 0,0.17 0,0.49 v 0.08 0.43 c 0,0 0,0.17 0,0.49 h 0.06 c 0.31,5.79 1.54,26.61 3,31 1.72,5.09 2.59,30.23 2.59,30.23 0,0 1.9,35.53 3.64,40.23 1.74,4.7 -0.73,21.77 8.3,25.8 v 0 a 19,19 0 0 0 9.07,3.76 c -0.46,3.74 -0.17,6.45 1.32,7.3 a 4.36,4.36 0 0 0 2.1,0.6 22.29,22.29 0 0 0 -1.63,2.85 42.36,42.36 0 0 1 -10.48,-2.47 c -9.7,-4 -41.89,-13 -51.2399997,-6.67 -9.35,6.33 -31.8500003,12.07 -21.4600003,37.55 10.3900003,25.48 15.2300003,26.12 15.2300003,26.12 a 37,37 0 0 1 8.31,8.35 c 3.1199997,4.69 32.1899997,15.42 39.4599997,15.42 a 71.19,71.19 0 0 1 9.25,0.46 c 0,0 -7.89,6.92 -6.84,10.94 1.05,4.02 -2.4,36.2 -2.4,36.2 0,0 8,8.06 11.42,-2.51 l 0.12,0.16 c 0.64,0.87 4.1,4.8 10.61,-0.16 a 59.48,59.48 0 0 1 8.46,-5.36 l 31.520004,-4.46 a 89.24,89.24 0 0 1 9.87,-0.07 c 5,0.41 9.91,-2.55 13,-4.84 6.53,2.48 13.87,5.19 17.36,6.18 7.08,2 39.62,10.73 47.23,8 a 10.57,10.57 0 0 0 4.1,-2.92 l 7.26,0.23 -3.4,0.68 c 0,0 6.62,0.11 15.62,0.23 l -0.38,0.22 11.29,-0.1 c 16.52,0.15 35.08,0.2 37.52,-0.35 3.82,-0.85 23.67,-0.25 29.52,0 h 1.63 c 0,0 21.81,-4.35 12.81,-26.48 -6.92,-17 -28.19,-21.94 -37.63,-23.3 2.66,-0.53 4.95,-0.94 6.47,-1.18 6.59,-1 19.39,-7 20.43,-9.05 1.04,-2.05 11.77,-8 14.54,-11.39 2.77,-3.39 10.68,-27.42 4.11,-45.19 z m -180.65,49.73 -1.07,0.35 -0.72,0.24 -1.38,1.36 c -1.1,-0.74 -2.28,-1.52 -3.51,-2.32 2.17,0.13 4.4,0.26 6.68,0.37 z m 95.31,28.18 z"
           inkscape:connector-curvature="0"
           style="fill:url(#3cf802be-0480-4c68-848a-073112220499)" />
        <path
           id="path9114"
           d="m 205.63339,1192.6361 c 0,0 15.3,40 24,36 8.7,-4 6.34,-21 8,-25.66 1.66,-4.66 3.5,-40 3.5,-40 0,0 0.84,-25 2.5,-30.06 1.54,-4.65 2.79,-28.1 3,-31.79 0,-0.32 0,-0.49 0,-0.49 l -1.65,-29 -9.34,-2.33 -21.66,8 -3,17.13 -1.17,6.69 -0.5,2.85 z"
           inkscape:connector-curvature="0"
           style="fill:#be6f72" />
        <path
           id="path9116"
           d="m 210.67339,1185.9361 c 0,0 14.6,11.95 19,13 4.4,1.05 7.1,10.37 7.1,10.37"
           inkscape:connector-curvature="0"
           style="opacity:0.1" />
        <path
           id="path9118"
           d="m 85.983386,1194.3861 c 0,0 -15.3,40 -24,36 -8.7,-4 -6.34,-21 -8,-25.66 -1.66,-4.66 -3.5,-40 -3.5,-40 0,0 -0.84,-25 -2.5,-30.06 -1.54,-4.65 -2.79,-28.1 -3,-31.79 0,-0.32 0,-0.49 0,-0.49 l 1.66,-29 9.34,-2.33 21.66,8 3,17.13 1.17,6.69 0.5,2.85 z"
           inkscape:connector-curvature="0"
           style="fill:#be6f72" />
        <rect
           id="rect9120"
           height="53.23"
           width="34.150002"
           y="980.32605"
           x="151.46341"
           style="fill:#3e373a" />
        <rect
           id="rect9122"
           height="53.23"
           width="34.150002"
           y="980.32605"
           x="151.46341"
           style="opacity:0.1" />
        <path
           id="path9124"
           d="m 79.983386,1234.2261 c 0,0 -11.67,12.83 -7.34,15.16 4.33,2.33 32.340004,46 32.340004,46 0,0 92,11.33 109.35,-5.67 17.35,-17 17,-47.37 17,-47.37 0,0 -13.94,3 -15.46,1.37 -1.52,-1.63 -9.87,-9.49 -9.87,-9.49 0,0 -118.020004,-7.16 -126.020004,0 z"
           inkscape:connector-curvature="0"
           style="fill:#4b4b5b" />
        <path
           id="path9126"
           d="m 79.983386,1234.2261 c 0,0 -11.67,12.83 -7.34,15.16 4.33,2.33 32.340004,46 32.340004,46 0,0 92,11.33 109.35,-5.67 17.35,-17 17,-47.37 17,-47.37 0,0 -13.94,3 -15.46,1.37 -1.52,-1.63 -9.87,-9.49 -9.87,-9.49 0,0 -118.020004,-7.16 -126.020004,0 z"
           inkscape:connector-curvature="0"
           style="opacity:0.02000002" />
        <path
           id="path9128"
           d="m 245.60339,1072.0561 -30,24 -9.07,0.66 -3.33,0.24 -55.93,4.1 -58.000004,-4.24 -8.63,-0.63 -11,-0.8 -23,-22 c 0,0 16.28,-17.44 30.54,-29.21 5.62,-4.65 10.93,-8.41 14.8,-9.89 l 0.66,-0.23 a 16.46,16.46 0 0 0 6.34,-4.42 c 11.260004,-11.61 21.670004,-40.26002 21.670004,-40.26002 0,0 49.67,-25.66 43.67,8 -6,33.66002 22.33,25.34002 22.33,25.34002 l 9.34,4.26 3.69,1.69 9.41,4.31 21.23,9.74 c 16.66,7.67 15.28,29.34 15.28,29.34 z"
           inkscape:connector-curvature="0"
           style="fill:#be6f72" />
        <circle
           id="circle9130"
           r="44.669998"
           cy="972.11609"
           cx="144.94339"
           style="opacity:0.1" />
        <path
           id="path9132"
           d="M 245.67339,1103.8761 H 44.983386 c 0,-0.32 0,-0.49 0,-0.49 l 1.66,-29 c 0,0 16.28,-17.44 30.54,-29.21 l 126.000004,-5 5.86,-6.18 21.23,9.74 c 16.67,7.66 15.33,29.33 15.33,29.33 0,0 2.28,25.11 0.07,30.81 z"
           inkscape:connector-curvature="0"
           style="opacity:0.1" />
        <path
           id="path9134"
           d="M 245.67339,1102.8761 H 44.983386 c 0,-0.32 0,-0.49 0,-0.49 l 1.66,-29 c 0,0 16.28,-17.44 30.54,-29.21 l 126.000004,-5 5.86,-6.18 21.23,9.74 c 16.67,7.66 15.33,29.33 15.33,29.33 0,0 2.28,25.11 0.07,30.81 z"
           inkscape:connector-curvature="0"
           style="fill:#e7c7ca" />
        <path
           id="path9136"
           d="m 112.77339,1021.5561 c 0,0 31.66,40.34 73.83,-0.83 42.17,-41.17002 4.67,91.83 4.67,91.83 l -91,10.8 z"
           inkscape:connector-curvature="0"
           style="opacity:0.1" />
        <path
           id="path9138"
           d="m 112.77339,1023.5561 c 0,0 31.66,40.34 73.83,-0.83 42.17,-41.17002 4.67,91.83 4.67,91.83 l -91,10.8 z"
           inkscape:connector-curvature="0"
           style="fill:#e7c7ca" />
        <path
           id="path9140"
           d="m 199.63339,1030.6361 3.35,51.09 3.59,17 2.74,13 c 0,0 7,100 5,105 -2,5 1,9 1.42,11.66 0.42,2.66 -0.42,9.34 -0.09,12.34 0.33,3 0,4.33 -7.66,3.26 -7.66,-1.07 -18.34,-2.93 -18.34,-2.93 0,0 -27,2 -36.33,-1.33 -9.33,-3.33 -27,-3.34 -27,-3.34 0,0 -26.670004,0.67 -35.330004,-0.33 -8.66,-1 -13.34,10.67 -19,7.33 -5.66,-3.34 6.66,-35.66 10.66,-45 4,-9.34 -5.33,-33 -5.33,-33 l 12,-66.57 2.67,-15.09 v -47.44 l 0.66,-0.23 a 16.46,16.46 0 0 0 6.34,-4.42 l 3.000004,47.74 94,3.34 v -53.73"
           inkscape:connector-curvature="0"
           style="opacity:0.1" />
        <path
           id="path9142"
           d="m 199.63339,1028.6361 3.35,51.09 3.59,17 2.74,13 c 0,0 7,100 5,105 -2,5 1,9 1.42,11.66 0.42,2.66 -0.42,9.34 -0.09,12.34 0.33,3 0,4.33 -7.66,3.26 -7.66,-1.07 -18.34,-2.93 -18.34,-2.93 0,0 -27,2 -36.33,-1.33 -9.33,-3.33 -27,-3.34 -27,-3.34 0,0 -26.670004,0.67 -35.330004,-0.33 -8.66,-1 -13.34,10.67 -19,7.33 -5.66,-3.34 6.66,-35.66 10.66,-45 4,-9.34 -5.33,-33 -5.33,-33 l 12,-66.57 2.67,-15.09 v -47.44 l 0.66,-0.23 a 16.46,16.46 0 0 0 6.34,-4.42 l 3.000004,47.74 94,3.34 v -53.73"
           inkscape:connector-curvature="0"
           style="fill:#e7c7ca" />
        <path
           id="path9144"
           d="m 210.44339,922.01608 c -0.57,-2.09 -1.36,-4.26 -3,-5.66 a 12.28,12.28 0 0 0 -5.28,-2.16 104.32,104.32 0 0 0 -13.88,-2.66 22.22,22.22 0 0 0 -3,-6.23 c -9.8,-13.84 -24.3,-26.89 -41.36,-29.84 -8.93,-1.55 -19.28,-0.16 -25,6.88 -3.14,3.87 -4.49,9 -7.66,12.8 -6.11,7.38 -17.140004,8.29 -24.840004,14 -4.11,3 -7.09,7.35 -10,11.57 -3.15,4.57 -6.39,9.33 -7.39,14.79 -2,10.91 5.21,21.31 6.54,32.32 3,24.63 -23.4,46.48002 -18.41,70.78002 2.91,14.17 16,24.15 29.54,29.21 4.77,1.79 10.22,3.57 12.45,8.15 1.000004,2 1.170004,4.31 2.110004,6.33 3.16,6.74 13.55,7 19.13,2.09 5.58,-4.91 7.34,-12.85 8,-20.26 2.68,-32.36 -10.28,-64.33002 -8.77,-96.77002 0.45,-9.81 3.21,-20.94 12,-25.38 11.83,-6 26.06,4 39.08,2.09 a 77.53,77.53 0 0 1 3.74,47.31 c -2.07,8.63002 -5.65,17.00002 -5.91,25.90002 -0.39,13.55 6.92,25.93 13.24,37.91 a 20.17,20.17 0 0 1 2.67,7.31 17.62,17.62 0 0 1 -1.43,7.65 c -3.57,9.61 -9.73,18.53 -10.43,28.76 a 4.65,4.65 0 0 0 0.75,3.42 4.3,4.3 0 0 0 2.58,1.16 c 10.8,1.85 20.14,-7.72 25.41,-17.33 a 81.24,81.24 0 0 0 10.02,-34.52 c 1.09,-20.36 -6.21,-40.39 -5.76,-60.77002 0.52,-23.17 10.99,-46.5 4.86,-68.85 z"
           inkscape:connector-curvature="0"
           style="opacity:0.1" />
        <path
           id="path9146"
           d="m 211.44339,921.01608 c -0.57,-2.09 -1.36,-4.26 -3,-5.66 a 12.28,12.28 0 0 0 -5.28,-2.16 104.32,104.32 0 0 0 -13.88,-2.66 22.22,22.22 0 0 0 -3,-6.23 c -9.8,-13.84 -24.3,-26.89 -41.36,-29.84 -8.93,-1.55 -19.28,-0.16 -25,6.88 -3.14,3.87 -4.49,9 -7.66,12.8 -6.11,7.38 -17.140004,8.29 -24.840004,14 -4.11,3 -7.09,7.35 -10,11.57 -3.15,4.57 -6.39,9.33 -7.39,14.79 -2,10.91 5.21,21.31 6.54,32.32 3,24.63 -23.4,46.48002 -18.41,70.78002 2.91,14.17 16,24.15 29.54,29.21 4.77,1.79 10.22,3.57 12.450004,8.15 1,2 1.17,4.31 2.11,6.33 3.16,6.74 13.55,7 19.13,2.09 5.58,-4.91 7.34,-12.85 8,-20.26 2.68,-32.36 -10.28,-64.33002 -8.77,-96.77002 0.45,-9.81 3.21,-20.94 12,-25.38 11.83,-6 26.06,4 39.08,2.09 a 77.53,77.53 0 0 1 3.74,47.31 c -2.07,8.63 -5.65,17.00002 -5.91,25.90002 -0.39,13.55 6.92,25.93 13.24,37.91 a 20.17,20.17 0 0 1 2.67,7.31 17.62,17.62 0 0 1 -1.43,7.65 c -3.57,9.61 -9.73,18.53 -10.43,28.76 a 4.65,4.65 0 0 0 0.75,3.42 4.3,4.3 0 0 0 2.58,1.16 c 10.8,1.85 20.14,-7.72 25.41,-17.33 a 81.24,81.24 0 0 0 10.02,-34.52 c 1.09,-20.36 -6.21,-40.39 -5.76,-60.77002 0.52,-23.17 10.99,-46.5 4.86,-68.85 z"
           inkscape:connector-curvature="0"
           style="fill:#3e373a" />
        <polygon
           id="polygon9148"
           points="585.38,467.47 581.79,492.73 621.46,494 615.77,464.58 "
           style="fill:#c3c7d9"
           transform="translate(-392.43661,871.05608)" />
        <path
           id="path9150"
           d="m 312.27339,1294.0561 c -2.67,3.33 -13,9.33 -14,11.33 -1,2 -13.33,8 -19.67,9 -6.34,1 -26.33,5.34 -30,7.67 -2.63,1.68 -23.74,7 -37.61,9.95 a 106.75,106.75 0 0 1 -11.39,2.05 c -6,0.33 -71.66,-22 -71.66,-22 l 12.66,-13 0.7,-0.24 c 3.58,-1.21 20.12,-6.8 29.3,-9.46 10.34,-3 22.34,-15.33 22.34,-15.33 0,0 17.66,-6 20,-6.67 2.34,-0.67 -6,-23.33 -6,-23.33 0,0 38.33,-5.32 53.33,-9.83 15,-4.51 49.67,-2.84 56,14.83 6.33,17.67 -1.29,41.7 -4,45.03 z"
           inkscape:connector-curvature="0"
           style="fill:#4b4b5b" />
        <path
           id="path9152"
           d="m 137.60339,1350.3861 c 0,0 -7.66,8 -15.33,7.34 -7.67,-0.66 -34.490004,2 -34.490004,2 a 53.77,53.77 0 0 0 -13.51,7.83 c -6.27,4.94 -9.6,1 -10.22,0.16 l -0.11,-0.16 c -3.34,10.51 -11,2.5 -11,2.5 0,0 3.33,-32 2.31,-36 -1.02,-4 6.59,-10.87 6.59,-10.87 l 9,-2.29 22.8,-5.84 32.670004,11.33 z"
           inkscape:connector-curvature="0"
           style="fill:#e7c7ca" />
        <path
           id="path9154"
           d="m 70.803386,1320.8961 -6.75,46.82 -0.11,-0.16 c -3.34,10.51 -11,2.5 -11,2.5 0,0 3.33,-32 2.31,-36 -1.02,-4 6.59,-10.87 6.59,-10.87 z"
           inkscape:connector-curvature="0"
           style="opacity:0.1" />
        <path
           id="path9156"
           d="m 117.98339,1187.7161 c 0,0 17.66,6 33,0"
           inkscape:connector-curvature="0"
           style="opacity:0.1" />
        <path
           id="path9158"
           d="m 178.27339,1199.0561 c 0,0 7.33,3.66 13,0"
           inkscape:connector-curvature="0"
           style="opacity:0.1" />
        <path
           id="path9160"
           d="m 178.27339,1207.7361 c 0,0 12.33,1.65 14.67,-1.68"
           inkscape:connector-curvature="0"
           style="opacity:0.1" />
        <path
           id="path9162"
           d="m 174.27339,1226.3861 c 0,0 23.16,-3 28.91,-7"
           inkscape:connector-curvature="0"
           style="opacity:0.1" />
        <path
           id="path9164"
           d="m 103.60339,1219.3861 c 0,0 13,7.33 22.67,7"
           inkscape:connector-curvature="0"
           style="opacity:0.1" />
        <path
           id="path9166"
           d="m 210.98339,1332.0061 a 106.75,106.75 0 0 1 -11.39,2.05 c -6,0.33 -71.66,-22 -71.66,-22 l 12.66,-13 0.7,-0.24 c 2,1.41 3.64,2.62 4.81,3.54 5.51,4.34 10.83,-1.33 12.83,-1.33 2,0 19.33,14.33 19.33,14.33 0,0 16,3.67 18.67,7 2.67,3.33 12,2.67 13.66,5 0.5,0.72 0.56,2.49 0.39,4.65 z"
           inkscape:connector-curvature="0"
           style="opacity:0.1" />
        <path
           id="path9168"
           d="m 87.783386,1245.3861 c 0,0 -16.18,0.93 -25.51,-3 -9.33,-3.93 -40.33,-13 -49.33,-6.63 -8.9999997,6.37 -30.67,12 -20.6699997,37.34 10,25.34 14.67,26 14.67,26 a 36.1,36.1 0 0 1 7.9999997,8.3 c 3,4.67 31,15.33 38,15.33 7,0 19.33,0 36.66,12 17.330004,12 33.000004,13.34 33.000004,13.34 0,0 22,9 28.85,11 6.85,2 38.15,10.66 45.49,8 7.34,-2.66 12,-19.34 12,-19.34 0,0 3.33,-15 1.66,-17.33 -1.67,-2.33 -11,-1.67 -13.66,-5 -2.66,-3.33 -18.67,-7 -18.67,-7 0,0 -17.29,-14.34 -19.29,-14.34 -2,0 -7.32,5.66 -12.83,1.33 a 292.69,292.69 0 0 0 -34.51,-22 c -12.660004,-6.67 -23.860004,-38 -23.860004,-38 z"
           inkscape:connector-curvature="0"
           style="fill:#4b4b5b" />
        <path
           id="path9170"
           d="m 55.253386,1255.0561 a 19.1,19.1 0 0 1 16.39,4.33 c 8,6.67 34.920004,20.06 34.920004,20.06"
           inkscape:connector-curvature="0"
           style="opacity:0.1" />
        <path
           id="path9172"
           d="m 255.27339,1254.6361 c 0,0 -35.67,5.4 -42.33,12.73"
           inkscape:connector-curvature="0"
           style="opacity:0.1" />
        <path
           id="path9174"
           d="m 296.27339,1365.0561 h -1.57 c -5.64,-0.2 -24.75,-0.8 -28.43,0 -4.33,1 -61.67,0 -61.67,0 l 11.21,-2.33 c 0,0 -4.16,-14.58 -1.52,-15.79 0,0 -15,-9.88 -3.69,-16.55 11.31,-6.67 23.5,-3.86 23.5,-3.86 l 28.39,-9.62 5.45,-1.85 c 0,0 32,1.67 40.66,23.67 8.66,22 -12.33,26.33 -12.33,26.33 z"
           inkscape:connector-curvature="0"
           style="fill:#e7c7ca" />
        <path
           id="path9176"
           d="m 296.27339,1365.0561 h -1.57 c 9.31,-7.68 30.37,-31.06 -32.21,-48.1 l 5.45,-1.85 c 0,0 32,1.67 40.66,23.67 8.66,22 -12.33,26.28 -12.33,26.28 z"
           inkscape:connector-curvature="0"
           style="opacity:0.1" />
        <circle
           id="circle9178"
           r="1.75"
           cy="1337.3861"
           cx="237.44339"
           style="fill:#4b4b5b" />
        <circle
           id="circle9180"
           r="1.75"
           cy="1340.2761"
           cx="227.27341"
           style="fill:#4b4b5b" />
        <g
           id="g9194"
           style="opacity:0.1"
           transform="translate(-392.43661,871.05608)">
          <path
             id="path9182"
             transform="translate(-88.58,-43.42)"
             d="M 658.74,142.83 A 77.59,77.59 0 0 0 653,110.69 c -13,1.94 -27.24,-8.09 -39.08,-2.09 -8.76,4.44 -11.51,15.57 -12,25.38 -0.12,2.59 -0.14,5.18 -0.09,7.77 0,-0.92 0,-1.85 0.09,-2.77 0.46,-9.81 3.21,-20.94 12,-25.38 11.84,-6 26.06,4 39.08,2.09 a 77.38,77.38 0 0 1 5.74,27.14 z"
             inkscape:connector-curvature="0" />
          <path
             id="path9184"
             transform="translate(-88.58,-43.42)"
             d="m 558,141 a 33.32,33.32 0 0 0 -0.13,-6.54 c -1.06,-8.8 -5.87,-17.21 -6.74,-25.79 -1.12,10.35 5.47,20.29 6.74,30.79 C 558,140 558,140.48 558,141 Z"
             inkscape:connector-curvature="0" />
          <path
             id="path9186"
             transform="translate(-88.58,-43.42)"
             d="m 610.69,230.74 c -0.62,7.42 -2.37,15.35 -8,20.27 -5.63,4.92 -16,4.65 -19.13,-2.09 -1,-2 -1.15,-4.33 -2.12,-6.33 -2.22,-4.58 -7.68,-6.36 -12.45,-8.15 -13.55,-5.07 -26.62,-15 -29.53,-29.21 a 30.68,30.68 0 0 1 -0.53,-3.9 31.52,31.52 0 0 0 0.53,8.9 c 2.91,14.17 16,24.14 29.53,29.21 4.77,1.79 10.23,3.57 12.45,8.15 1,2 1.17,4.31 2.12,6.33 3.15,6.74 13.54,7 19.13,2.09 5.59,-4.91 7.33,-12.85 8,-20.27 A 114.29,114.29 0 0 0 611,224 c 0,2.27 -0.13,4.51 -0.31,6.74 z"
             inkscape:connector-curvature="0" />
          <path
             id="path9188"
             transform="translate(-88.58,-43.42)"
             d="m 687.93,157.49 c 0,1.45 0,2.89 0,4.33 0.56,-18.6 7.38,-37.3 6.71,-55.51 -0.52,16.84 -6.33,34.06 -6.71,51.18 z"
             inkscape:connector-curvature="0" />
          <path
             id="path9190"
             transform="translate(-88.58,-43.42)"
             d="m 666.47,232.73 a 12.89,12.89 0 0 0 0.23,-3.61 20,20 0 0 0 -2.67,-7.31 c -5.78,-11 -12.37,-22.26 -13.15,-34.47 0,0.52 -0.07,1 -0.08,1.56 -0.4,13.54 6.91,25.93 13.23,37.91 a 24,24 0 0 1 2.44,5.92 z"
             inkscape:connector-curvature="0" />
          <path
             id="path9192"
             transform="translate(-88.58,-43.42)"
             d="m 693.68,218.26 a 81.37,81.37 0 0 1 -10.09,34.52 c -5.28,9.61 -14.61,19.18 -25.42,17.33 a 4.25,4.25 0 0 1 -2.58,-1.17 2.5,2.5 0 0 1 -0.47,-0.78 c -0.12,0.78 -0.22,1.57 -0.28,2.37 a 4.61,4.61 0 0 0 0.75,3.41 4.25,4.25 0 0 0 2.58,1.17 c 10.81,1.85 20.14,-7.72 25.42,-17.33 a 81.37,81.37 0 0 0 10.09,-34.52 c 0.12,-2.34 0.13,-4.67 0.06,-7 -0.02,0.67 -0.02,1.33 -0.06,2 z"
             inkscape:connector-curvature="0" />
        </g>
        <path
           id="path9196"
           stroke-miterlimit="10"
           d="m 214.29339,1346.9361 c 0,0 25.31,10.62 42,-12.88"
           inkscape:connector-curvature="0"
           style="opacity:0.1;fill:none;stroke:#000000;stroke-miterlimit:10" />
        <path
           id="path9198"
           stroke-miterlimit="10"
           d="m 219.27339,1365.4961 c 0,0 20.67,-13.44 47,-0.44"
           inkscape:connector-curvature="0"
           style="opacity:0.1;fill:none;stroke:#000000;stroke-miterlimit:10" />
        <path
           id="path9200"
           stroke-miterlimit="10"
           d="m 80.913386,1362.4461 c 0,0 8.68,-19.58 31.860004,-4.65"
           inkscape:connector-curvature="0"
           style="opacity:0.1;fill:none;stroke:#000000;stroke-miterlimit:10" />
        <path
           id="path9202"
           d="m 52.773386,1072.8861 17.7,-16 c 0,0 68.630004,-4.5 71.470004,18.83 0,0 24.33,-27.66 75.5,-21.5 l 21.65,17.24 -59.84,26.26 -58.15,20.17 -42.830004,-19.17 z"
           inkscape:connector-curvature="0"
           style="opacity:0.1" />
        <path
           id="path9204"
           d="m 52.773386,1073.8861 17.7,-16 c 0,0 68.630004,-4.5 71.470004,18.83 0,0 24.33,-27.66 75.5,-21.5 l 21.65,17.24 -59.84,26.26 -58.15,20.17 -42.830004,-19.17 z"
           inkscape:connector-curvature="0"
           style="fill:#d5d6db" />
        <polygon
           id="polygon9206"
           points="524.54,207.83 437.38,204.83 445.21,298.5 528.21,302.67 524.61,209.4 "
           style="opacity:0.1"
           transform="translate(-392.43661,871.05608)" />
        <polygon
           id="polygon9208"
           points="524.54,205.83 437.38,202.83 445.21,296.5 528.21,300.67 524.61,207.4 "
           style="fill:#008fe1"
           transform="translate(-392.43661,871.05608)" />
        <polygon
           id="polygon9210"
           points="633.38,297.67 635.33,202.83 549.71,215.67 549.71,309.76 "
           style="opacity:0.1"
           transform="translate(-392.43661,871.05608)" />
        <polygon
           id="polygon9212"
           points="633.38,295.67 635.33,200.83 549.71,213.67 549.71,307.76 "
           style="fill:#008fe1"
           transform="translate(-392.43661,871.05608)" />
        <polygon
           id="polygon9214"
           points="615.11,239.75 615.14,223.79 568.89,228.93 569.9,244.69 "
           style="opacity:0.3;fill:#ffffff"
           transform="translate(-392.43661,871.05608)" />
        <path
           id="path9216"
           d="m 57.273386,1217.7161 4.71,12.67 c 0,0 7,6 14.66,3 7.66,-3 14.34,-4.49 17.67,-7.41 3.33,-2.92 8.000004,-17.59 8.000004,-17.59 0,0 4.67,-16 9.33,-20 4.66,-4 17,-59.11 0,-53.72 -17.000004,5.39 -30.000004,55.39 -30.000004,55.39 0,0 -3,3.66 -7.33,4 -4.33,0.34 -13,-0.67 -14.67,3 -1.67,3.67 -7.37,13.33 -2.37,20.66 z"
           inkscape:connector-curvature="0"
           style="fill:#be6f72" />
        <path
           id="path9218"
           d="m 157.27339,1086.7161 a 28.8,28.8 0 0 1 -25.11,-6.26 l 3.61,93.26 c 0,0 8.5,9.2 21.5,7.1 z"
           inkscape:connector-curvature="0"
           style="opacity:0.1" />
        <path
           id="path9220"
           d="m 157.27339,1084.7161 a 28.8,28.8 0 0 1 -25.11,-6.26 l 3.61,93.26 c 0,0 8.5,9.2 21.5,7.1 z"
           inkscape:connector-curvature="0"
           style="fill:#008fe1" />
        <path
           id="path9222"
           d="m 157.27339,1084.7161 a 28.8,28.8 0 0 1 -25.11,-6.26 l 3.61,93.26 c 0,0 8.5,9.2 21.5,7.1 z"
           inkscape:connector-curvature="0"
           style="opacity:0.1" />
        <path
           id="path9224"
           d="m 159.27339,1074.2061 c 0,0 34.83,-10.65 43.91,-9.15"
           inkscape:connector-curvature="0"
           style="opacity:0.1" />
        <path
           id="path9226"
           d="m 120.31339,1069.5561 c 0,0 -33.760004,-8 -39.400004,-5.73"
           inkscape:connector-curvature="0"
           style="opacity:0.1" />
        <path
           id="path9228"
           d="m 181.23339,1075.5361 c 0,0 23.29,-8.54 31.71,-4.48"
           inkscape:connector-curvature="0"
           style="opacity:0.1" />
        <path
           id="path9230"
           d="m 169.50339,1289.7661 a 76.56,76.56 0 0 1 11.48,-7.13 c 6,-2.89 17,-10.39 17,-10.39"
           inkscape:connector-curvature="0"
           style="opacity:0.1" />
        <path
           id="path9232"
           d="m 80.913386,1187.7161 c 0,0 -14.61,11.95 -19,13 -4.39,1.05 -7.1,10.37 -7.1,10.37"
           inkscape:connector-curvature="0"
           style="opacity:0.1" />
        <path
           id="path9234"
           d="m 234.30339,1215.9361 -4.66,12.7 c 0,0 -7,6 -14.67,3 -7.67,-3 -14.33,-4.49 -17.67,-7.41 -3.34,-2.92 -8,-17.59 -8,-17.59 0,0 -4.66,-16 -9.33,-20 -4.67,-4 -17,-59.11 0,-53.72 17,5.39 30,55.39 30,55.39 0,0 3,3.66 7.33,4 4.33,0.34 13,-0.67 14.67,3 1.67,3.67 7.33,13.33 2.33,20.63 z"
           inkscape:connector-curvature="0"
           style="fill:#be6f72" />
        <path
           id="path9236"
           d="m 226.13339,1192.5761 c 0,0 9.55,6.14 9.51,13.48"
           inkscape:connector-curvature="0"
           style="opacity:0.1" />
        <circle
           id="circle9238"
           r="44.669998"
           cy="969.92609"
           cx="145.10336"
           style="fill:#be6f72" />
        <path
           id="path9240"
           d="m 117.05339,957.93608 c 5.42,-0.85 10.17,-4 15.35,-5.81 11.59,-4.07 24.41,-1.28 36.14,2.39 4.5,1.41 9.07,3 13.79,3 4.72,0 9.73,-1.93 12.14,-6 2.22,-3.74 1.79,-8.6 -0.08,-12.53 -1.87,-3.93 -5,-7.09 -8.16,-10.07 -10.4,-9.82 -23.3,-19 -37.57,-18 -5.74,0.41 -11.23,2.46 -16.51,4.73 a 182,182 0 0 0 -19.38,9.76 c -4.81,2.79 -13.720004,6.52 -16.490004,11.62 -6.3,11.49 10.970004,22.45 20.770004,20.91 z"
           inkscape:connector-curvature="0"
           style="fill:#3e373a" />
        <path
           id="path9242"
           d="m 194.47339,947.31608 c -2.41,4.07 -7.42,6 -12.14,6 -4.72,0 -9.29,-1.53 -13.8,-2.94 -11.73,-3.67 -24.54,-6.47 -36.14,-2.39 -5.17,1.81 -9.93,5 -15.35,5.8 -7.9,1.24 -20.620004,-5.64 -22.000004,-14.39 -1.55,10.11 13.200004,18.77 22.000004,17.39 5.42,-0.85 10.18,-4 15.35,-5.8 11.6,-4.08 24.41,-1.28 36.14,2.39 4.51,1.41 9.07,3 13.8,2.94 4.73,-0.06 9.73,-1.92 12.14,-6 a 11.71,11.71 0 0 0 1.4,-7.31 10.78,10.78 0 0 1 -1.4,4.31 z"
           inkscape:connector-curvature="0"
           style="opacity:0.1" />
      </g>
    </g>
  </g>
</svg>
