<?xml version="1.0" encoding="UTF-8" standalone="no"?>
<!-- Created with Inkscape (http://www.inkscape.org/) -->

<svg
   xmlns:dc="http://purl.org/dc/elements/1.1/"
   xmlns:cc="http://creativecommons.org/ns#"
   xmlns:rdf="http://www.w3.org/1999/02/22-rdf-syntax-ns#"
   xmlns:svg="http://www.w3.org/2000/svg"
   xmlns="http://www.w3.org/2000/svg"
   xmlns:xlink="http://www.w3.org/1999/xlink"
   xmlns:sodipodi="http://sodipodi.sourceforge.net/DTD/sodipodi-0.dtd"
   xmlns:inkscape="http://www.inkscape.org/namespaces/inkscape"
   width="90.290283mm"
   height="113.42939mm"
   viewBox="0 0 90.290281 113.42939"
   version="1.1"
   id="svg15219"
   inkscape:version="0.92.4 (5da689c313, 2019-01-14)"
   sodipodi:docname="database.svg">
  <defs
     id="defs15213">
    <linearGradient
       inkscape:collect="always"
       id="linearGradient13135">
      <stop
         style="stop-color:#dce5ea;stop-opacity:1"
         offset="0"
         id="stop13131" />
      <stop
         style="stop-color:#ecf1f4;stop-opacity:1"
         offset="1"
         id="stop13133" />
    </linearGradient>
    <linearGradient
       gradientTransform="matrix(0.87716465,0,0,0.87716467,-3.2826896,-31.181258)"
       inkscape:collect="always"
       xlink:href="#linearGradient13135"
       id="linearGradient46930-7"
       x1="-26.123772"
       y1="45.950459"
       x2="-38.026043"
       y2="45.280491"
       gradientUnits="userSpaceOnUse" />
    <linearGradient
       inkscape:collect="always"
       xlink:href="#linearGradient13135"
       id="linearGradient47009"
       gradientUnits="userSpaceOnUse"
       x1="-29.260382"
       y1="-9.2923517"
       x2="-35.731491"
       y2="-10.614985"
       gradientTransform="matrix(0.87716465,0,0,0.87716467,-3.1986877,-3.079234)" />
    <linearGradient
       gradientTransform="matrix(0.87716471,0,0,0.87716468,-3.2826872,-17.649686)"
       inkscape:collect="always"
       xlink:href="#linearGradient13135"
       id="linearGradient46930-7-5"
       x1="-26.123772"
       y1="45.950459"
       x2="-38.026043"
       y2="45.280491"
       gradientUnits="userSpaceOnUse" />
    <linearGradient
       gradientTransform="matrix(0.87716471,0,0,0.87716468,-3.2826872,-4.1181136)"
       inkscape:collect="always"
       xlink:href="#linearGradient13135"
       id="linearGradient46930-7-3"
       x1="-26.123772"
       y1="45.950459"
       x2="-38.026043"
       y2="45.280491"
       gradientUnits="userSpaceOnUse" />
  </defs>
  <sodipodi:namedview
     id="base"
     pagecolor="#ffffff"
     bordercolor="#666666"
     borderopacity="1.0"
     inkscape:pageopacity="0.0"
     inkscape:pageshadow="2"
     inkscape:zoom="0.69999999"
     inkscape:cx="138.92015"
     inkscape:cy="162.08235"
     inkscape:document-units="mm"
     inkscape:current-layer="g47509"
     showgrid="false"
     inkscape:window-width="1680"
     inkscape:window-height="987"
     inkscape:window-x="-8"
     inkscape:window-y="-8"
     inkscape:window-maximized="1"
     fit-margin-top="0"
     fit-margin-left="0"
     fit-margin-right="0"
     fit-margin-bottom="0" />
  <metadata
     id="metadata15216">
    <rdf:RDF>
      <cc:Work
         rdf:about="">
        <dc:format>image/svg+xml</dc:format>
        <dc:type
           rdf:resource="http://purl.org/dc/dcmitype/StillImage" />
        <dc:title></dc:title>
      </cc:Work>
    </rdf:RDF>
  </metadata>
  <g
     inkscape:label="Ebene 1"
     inkscape:groupmode="layer"
     id="layer1"
     transform="translate(-57.529216,-88.398978)">
    <g
       style="fill:#000012;fill-opacity:1"
       id="g24563"
       transform="matrix(4.2136219,0,0,1.9159004,224.33168,119.77859)"
       inkscape:export-xdpi="96"
       inkscape:export-ydpi="96">
      <g
         id="g47509">
        <path
           sodipodi:nodetypes="cccccsccc"
           id="path4692-5-9"
           d="m -19.16932,-8.0125426 c 0,-4.4569794 -4.12242,-7.0987824 -9.959442,-7.0977764 l -4.4e-5,1.2e-5 c -5.837035,0.0012 -9.566149,2.643983 -9.566149,7.0998964 -0.01079,14.001108 -0.0507,27.8964636 -0.0507,42.2594256 0,2.41396 2.114502,7.317989 9.826586,7.00667 7.712091,-0.311304 9.831867,-4.591838 9.831867,-7.00667 0,-16.577668 -0.05325,-29.8903736 -0.08219,-42.2615576 z"
           style="fill:#ffffff;fill-opacity:1;stroke-width:1.32071054;stroke-miterlimit:4;stroke-dasharray:none"
           inkscape:connector-curvature="0" />
        <path
           sodipodi:nodetypes="ccccccc"
           id="path4692-5"
           d="m -19.118226,-0.15611194 c 0,-6.63656626 -4.338903,-12.01723406 -9.867677,-12.01723406 -5.525271,0.0027 -9.86592,5.3838439 -9.86592,12.02042807 V 26.730763 c 0,6.639778 4.340662,12.017252 9.867678,12.017269 5.527016,3.6e-5 9.865919,-5.377455 9.865919,-12.02039 z"
           style="fill:#a1b8c7;fill-opacity:1;stroke-width:1.61199427;stroke-miterlimit:4;stroke-dasharray:none"
           inkscape:connector-curvature="0" />
        <path
           id="path4690-4-5-7"
           d="m -18.883231,-3.3438358 c -0.201752,1.768368 -2.578588,6.420303 -9.991787,6.575961 -7.413199,0.155659 -9.787398,-4.807593 -9.98827,-6.575089 -0.176309,0.321044 -0.278943,0.656117 -0.278943,1.000844 v 9.315533 c 0,2.413959 2.555122,8.2870078 10.267213,7.9756788 7.712097,-0.311305 10.272475,-5.5608468 10.272475,-7.9756788 v -9.315533 c 0,-0.344727 -0.10438,-0.6798 -0.280688,-1.001716 z"
           style="fill:url(#linearGradient46930-7);fill-opacity:1;stroke:#b6c8d3;stroke-width:0.88850045;stroke-miterlimit:4;stroke-dasharray:none;stroke-opacity:1"
           inkscape:connector-curvature="0"
           sodipodi:nodetypes="czcsszssc" />
        <path
           id="path4692"
           d="m -29.000837,1.3059589 c 5.782763,0.04876 10.289994,-3.6118059 10.289994,-8.0687969 0,-4.456981 -4.452972,-8.067661 -10.289994,-8.066643 -5.837035,0.0012 -10.006694,3.612872 -10.006694,8.068787 0,4.455913 4.223937,8.0178959 10.006694,8.0666529 z"
           style="opacity:1;fill:url(#linearGradient47009);fill-opacity:1;stroke:#b6c8d3;stroke-width:0.88850045;stroke-miterlimit:4;stroke-dasharray:none;stroke-opacity:1"
           inkscape:connector-curvature="0"
           sodipodi:nodetypes="zzzzz" />
        <path
           id="path4690-4-5-7-6"
           d="m -18.883231,10.187736 c -0.201752,1.768368 -2.578588,6.420303 -9.991787,6.575961 -7.413199,0.155659 -9.787398,-4.807593 -9.98827,-6.575089 -0.176309,0.321044 -0.278943,0.656117 -0.278943,1.000844 v 9.315533 c 0,2.413959 2.555122,8.287008 10.267213,7.975678 7.712097,-0.311305 10.272475,-5.560846 10.272475,-7.975678 v -9.315533 c 0,-0.344727 -0.10438,-0.6798 -0.280688,-1.001716 z"
           style="fill:url(#linearGradient46930-7-5);fill-opacity:1;stroke:#b6c8d3;stroke-width:0.88850045;stroke-miterlimit:4;stroke-dasharray:none;stroke-opacity:1"
           inkscape:connector-curvature="0"
           sodipodi:nodetypes="czcsszssc" />
        <path
           id="path4690-4-5-7-0"
           d="m -18.883231,23.719308 c -0.201752,1.768368 -2.578588,6.420303 -9.991787,6.575961 -7.413199,0.155659 -9.787398,-4.807593 -9.98827,-6.575089 -0.176309,0.321044 -0.278943,0.656117 -0.278943,1.000844 v 9.315533 c 0,2.41396 2.555122,8.287008 10.267213,7.975678 7.712097,-0.311305 10.272475,-5.560846 10.272475,-7.975678 v -9.315533 c 0,-0.344727 -0.10438,-0.6798 -0.280688,-1.001716 z"
           style="fill:url(#linearGradient46930-7-3);fill-opacity:1;stroke:#b6c8d3;stroke-width:0.88850045;stroke-miterlimit:4;stroke-dasharray:none;stroke-opacity:1"
           inkscape:connector-curvature="0"
           sodipodi:nodetypes="czcsszssc" />
      </g>
    </g>
  </g>
</svg>
