<?xml version="1.0" encoding="UTF-8" standalone="no"?>
<!-- Created with Inkscape (http://www.inkscape.org/) -->

<svg
   xmlns:dc="http://purl.org/dc/elements/1.1/"
   xmlns:cc="http://creativecommons.org/ns#"
   xmlns:rdf="http://www.w3.org/1999/02/22-rdf-syntax-ns#"
   xmlns:svg="http://www.w3.org/2000/svg"
   xmlns="http://www.w3.org/2000/svg"
   xmlns:xlink="http://www.w3.org/1999/xlink"
   xmlns:sodipodi="http://sodipodi.sourceforge.net/DTD/sodipodi-0.dtd"
   xmlns:inkscape="http://www.inkscape.org/namespaces/inkscape"
   width="210mm"
   height="297mm"
   viewBox="0 0 210 297"
   version="1.1"
   id="svg2460"
   inkscape:version="0.92.4 (5da689c313, 2019-01-14)"
   sodipodi:docname="folder math.svg">
  <defs
     id="defs2454">
    <linearGradient
       xlink:href="#f98c7255-8898-49c2-b340-75dadcc4ae5e"
       gradientTransform="translate(123.74,-187.29)"
       y2="464.42001"
       x2="450.42999"
       y1="726.27002"
       x1="450.42999"
       id="7820c60a-6dd2-4e9e-820c-a335a5d419d8" />
    <linearGradient
       gradientUnits="userSpaceOnUse"
       y2="132.32001"
       x2="819.92999"
       y1="598.64001"
       x1="819.92999"
       id="f98c7255-8898-49c2-b340-75dadcc4ae5e">
      <stop
         id="stop1740"
         stop-opacity="0.25"
         stop-color="gray"
         offset="0" />
      <stop
         id="stop1742"
         stop-opacity="0.12"
         stop-color="gray"
         offset="0.54" />
      <stop
         id="stop1744"
         stop-opacity="0.1"
         stop-color="gray"
         offset="1" />
    </linearGradient>
    <linearGradient
       xlink:href="#f98c7255-8898-49c2-b340-75dadcc4ae5e"
       gradientTransform="rotate(90,617.54,562.87)"
       y2="457.32001"
       x2="456.73999"
       y1="719.16998"
       x1="456.73999"
       id="0ab0c4d5-5a87-488b-b190-408bea02e292" />
    <linearGradient
       xlink:href="#f98c7255-8898-49c2-b340-75dadcc4ae5e"
       gradientTransform="rotate(90,643.61,568.06)"
       y2="463.92001"
       x2="476.5"
       y1="725.77002"
       x1="476.5"
       id="4f6991c1-2d70-49f7-ad45-4cbe0a2e669a" />
    <linearGradient
       xlink:href="#f98c7255-8898-49c2-b340-75dadcc4ae5e"
       gradientTransform="rotate(90,629.01,560.64)"
       y2="395.19"
       x2="476.17001"
       y1="658.02002"
       x1="476.17001"
       id="2353f27f-2b2f-460e-adf7-0d1e44be71db" />
    <linearGradient
       gradientUnits="userSpaceOnUse"
       gradientTransform="translate(-3.62 1.57)"
       y2="151.19"
       x2="539.63"
       y1="734.6"
       x1="539.63"
       id="07332201-7176-49c2-9908-6dc4a39c4716">
      <stop
         id="stop17789"
         stop-opacity="0.25"
         stop-color="gray"
         offset="0" />
      <stop
         id="stop17791"
         stop-opacity="0.12"
         stop-color="gray"
         offset="0.54" />
      <stop
         id="stop17793"
         stop-opacity="0.1"
         stop-color="gray"
         offset="1" />
    </linearGradient>
    <linearGradient
       xlink:href="#07332201-7176-49c2-9908-6dc4a39c4716"
       gradientTransform="matrix(0.18289693,0,0,0.18289693,237.72788,156.60991)"
       y2="130.75"
       x2="540.17"
       y1="180.2"
       x1="540.17"
       id="0ee1ab3f-7ba2-4205-9d4a-9606ad702253" />
    <linearGradient
       xlink:href="#07332201-7176-49c2-9908-6dc4a39c4716"
       gradientTransform="matrix(0.18047482,-0.0296669,0.0296669,0.18047482,259.98293,115.97418)"
       y2="82.43"
       x2="540.17"
       y1="140.86"
       x1="540.17"
       id="abca9755-bed1-4a97-b027-7f02ee3ffa09" />
    <linearGradient
       xlink:href="#07332201-7176-49c2-9908-6dc4a39c4716"
       y2="127.12"
       x2="476.4"
       y1="710.53"
       x1="476.4"
       id="2632d424-e666-4ee4-9508-a494957e14ab" />
    <linearGradient
       xlink:href="#07332201-7176-49c2-9908-6dc4a39c4716"
       y2="106.68"
       x2="476.94"
       y1="156.13"
       x1="476.94"
       id="97571ef7-1c83-4e06-b701-c2e47e77dca3"
       gradientTransform="matrix(0.62144298,0,0,0.62144298,1686.506,556.19065)" />
    <linearGradient
       xlink:href="#07332201-7176-49c2-9908-6dc4a39c4716"
       y2="117.95"
       x2="666.86"
       y1="176.39"
       x1="666.86"
       id="7d32e13e-a0c7-49c4-af0e-066a2f8cb76e"
       gradientTransform="matrix(0.60057462,0.15969186,-0.15969186,0.60057462,1382.4037,904.77721)" />
    <linearGradient
       inkscape:collect="always"
       xlink:href="#07332201-7176-49c2-9908-6dc4a39c4716"
       id="linearGradient18233"
       gradientUnits="userSpaceOnUse"
       gradientTransform="matrix(0.18289693,0,0,0.18289693,237.72811,156.60981)"
       x1="539.63"
       y1="734.6"
       x2="539.63"
       y2="151.19" />
    <linearGradient
       inkscape:collect="always"
       xlink:href="#07332201-7176-49c2-9908-6dc4a39c4716"
       id="linearGradient8454"
       x1="476.4"
       y1="710.53"
       x2="476.4"
       y2="127.12"
       gradientTransform="matrix(0.18778958,0,0,0.18778958,-57.709213,54.360029)" />
    <linearGradient
       inkscape:collect="always"
       xlink:href="#07332201-7176-49c2-9908-6dc4a39c4716"
       id="linearGradient8456"
       gradientTransform="matrix(0.18778958,0,0,0.18778958,-57.709343,54.360033)"
       x1="476.94"
       y1="156.13"
       x2="476.94"
       y2="106.68" />
    <linearGradient
       inkscape:collect="always"
       xlink:href="#07332201-7176-49c2-9908-6dc4a39c4716"
       id="linearGradient8458"
       gradientTransform="matrix(0.18127476,0.04903454,-0.04903454,0.18127476,-101.40726,17.290776)"
       x1="666.86"
       y1="176.39"
       x2="666.86"
       y2="117.95" />
  </defs>
  <sodipodi:namedview
     id="base"
     pagecolor="#ffffff"
     bordercolor="#666666"
     borderopacity="1.0"
     inkscape:pageopacity="0.0"
     inkscape:pageshadow="2"
     inkscape:zoom="0.35000001"
     inkscape:cx="367.05944"
     inkscape:cy="1086.4094"
     inkscape:document-units="mm"
     inkscape:current-layer="g8640"
     showgrid="false"
     inkscape:window-width="1680"
     inkscape:window-height="987"
     inkscape:window-x="-8"
     inkscape:window-y="-8"
     inkscape:window-maximized="1" />
  <metadata
     id="metadata2457">
    <rdf:RDF>
      <cc:Work
         rdf:about="">
        <dc:format>image/svg+xml</dc:format>
        <dc:type
           rdf:resource="http://purl.org/dc/dcmitype/StillImage" />
        <dc:title />
      </cc:Work>
    </rdf:RDF>
  </metadata>
  <g
     inkscape:label="Ebene 1"
     inkscape:groupmode="layer"
     id="layer1">
    <path
       id="path1870"
       d="m 47.186158,219.02218 a 3.6380208,3.6380208 0 0 1 -0.81227,-2.77019 l 11.678708,-95.55956 0.968375,-7.9375 a 3.6644792,3.6644792 0 0 1 3.608917,-3.21734 l 34.207979,-0.22754 a 3.6591875,3.6591875 0 0 0 3.635373,-3.75973 l -0.0132,-0.36248 a 3.6618333,3.6618333 0 0 1 3.65919,-3.78618 h 35.9463 a 3.6591875,3.6591875 0 0 1 3.65918,3.65125 3.90525,3.90525 0 0 1 -0.0318,0.49212 3.6591875,3.6591875 0 0 0 3.53484,4.14338 l 34.52283,0.88106 a 3.6565417,3.6565417 0 0 1 3.51367,4.27567 l -17.25877,100.80624 -0.32544,1.905 a 3.5798125,3.5798125 0 0 1 -0.52917,1.36525 z"
       inkscape:connector-curvature="0"
       style="fill:#b6c8d3;stroke-width:0.26458332;fill-opacity:1" />
    <path
       id="path2066"
       d="m 167.1456,218.90576 a 2.7278542,2.7278542 0 0 1 -1.75154,0.61912 l -118.207902,-0.5027 a 3.6380208,3.6380208 0 0 1 -0.81227,-2.77019 l 11.678708,-95.55956 7.323667,-0.0794 a 2.7675417,2.7675417 0 0 1 2.69875,2.04258 l 1.367895,5.04825 a 2.7675417,2.7675417 0 0 0 2.735792,2.04258 l 29.22852,-0.70114 a 2.7675417,2.7675417 0 0 0 2.7014,-2.76754 v -3.34434 a 2.7675417,2.7675417 0 0 1 2.73579,-2.76754 l 40.50242,-0.43656 a 2.7675417,2.7675417 0 0 1 2.74373,2.24631 l 17.91229,93.6625 0.11642,0.60325 a 2.7516667,2.7516667 0 0 1 -0.97367,2.66436 z"
       inkscape:connector-curvature="0"
       style="opacity:0.1;stroke-width:0.26458332" />
    <g
       id="g8640"
       transform="translate(136.7028,4.6461352)">
      <g
         id="g8662"
         transform="translate(-420.33252,-36.647777)">
        <rect
           style="fill:#e0e0e0;stroke-width:0.18289693"
           x="296.46011"
           y="182.39456"
           width="79.929619"
           height="110.43683"
           transform="rotate(-9.3349379)"
           id="rect17805" />
        <rect
           id="rect17807"
           transform="rotate(-9.3349375)"
           height="106.7039"
           width="77.228226"
           y="184.26199"
           x="297.81155"
           style="fill:url(#linearGradient18233);stroke-width:0.18289693" />
        <rect
           style="fill:#fafafa;stroke-width:0.18289693"
           x="298.79382"
           y="185.04718"
           width="75.262085"
           height="104.34636"
           transform="rotate(-9.3349379)"
           id="rect17811" />
        <rect
           style="fill:url(#0ee1ab3f-7ba2-4205-9d4a-9606ad702253);stroke-width:0.18289693"
           x="317.85526"
           y="180.52361"
           width="37.336578"
           height="9.0442533"
           transform="rotate(-9.3349379)"
           id="rect17813" />
        <path
           style="fill:url(#abca9755-bed1-4a97-b027-7f02ee3ffa09);stroke-width:0.18289693"
           inkscape:connector-curvature="0"
           d="m 359.91478,114.83033 c -2.84447,0.46817 -4.76259,3.20797 -4.28294,6.11889 0.47964,2.91091 3.17229,4.89454 6.01126,4.42604 2.83899,-0.46849 4.76259,-3.20798 4.28294,-6.11889 -0.47965,-2.91092 -3.16682,-4.89428 -6.01126,-4.42604 z m 1.36717,8.32459 a 3.0836421,3.0836421 0 1 1 2.4716,-3.54244 3.0470629,3.0470629 0 0 1 -2.4716,3.54244 z"
           id="path17815" />
        <rect
           style="fill:#008fe1;stroke-width:0.18289693"
           x="318.24847"
           y="180.13567"
           width="36.550121"
           height="8.6455383"
           transform="rotate(-9.3349379)"
           id="rect17817" />
        <path
           style="fill:#008fe1;stroke-width:0.18289693"
           inkscape:connector-curvature="0"
           d="m 359.91478,114.83033 a 5.1083112,5.1083112 0 1 0 5.86965,4.21225 5.1083112,5.1083112 0 0 0 -5.86965,-4.21225 z m 1.30634,7.95542 a 2.9482986,2.9482986 0 1 1 2.43109,-3.38691 2.9482986,2.9482986 0 0 1 -2.43109,3.38691 z"
           id="path17819" />
      </g>
      <g
         id="g8653"
         transform="translate(-10.860686,6.3384951)">
        <rect
           id="rect17821-9"
           height="113.39111"
           width="82.067802"
           y="76.314606"
           x="-9.2801514"
           style="fill:#e0e0e0;stroke-width:0.18778957"
           transform="rotate(15.13619)" />
        <rect
           transform="rotate(15.13619)"
           style="fill:url(#linearGradient8454);stroke-width:0.18778957"
           x="-7.8924251"
           y="78.231842"
           width="79.294151"
           height="109.55832"
           id="rect17823-5" />
        <rect
           id="rect17827-6"
           height="107.1377"
           width="77.275398"
           y="79.039436"
           x="-6.8840022"
           style="fill:#ffffff;stroke-width:0.18778957"
           transform="rotate(15.13619)" />
        <rect
           id="rect17829-8"
           height="9.2861948"
           width="38.335365"
           y="74.393494"
           x="12.687439"
           style="fill:url(#linearGradient8456);stroke-width:0.18778957"
           transform="rotate(15.13619)" />
        <path
           id="path17831-8"
           d="m 13.691526,71.380366 c -2.85688,-0.772772 -5.8149398,0.971623 -6.6063798,3.897407 -0.79113,2.925857 0.88389,5.923488 3.7407698,6.696286 2.85693,0.772827 5.815,-0.97162 6.60642,-3.8974 0.79113,-2.925848 -0.88391,-5.923519 -3.74081,-6.696293 z m -2.25952,8.353115 a 3.1661319,3.1661319 0 1 1 3.81046,-2.24917 3.1285743,3.1285743 0 0 1 -3.80652,2.234681 z"
           inkscape:connector-curvature="0"
           style="fill:url(#linearGradient8458);stroke-width:0.18778957" />
        <rect
           id="rect17833-8"
           height="8.8768139"
           width="37.527866"
           y="73.995384"
           x="13.091187"
           style="fill:#008fe1;stroke-width:0.18778957"
           transform="rotate(15.13619)" />
        <path
           id="path17835-4"
           d="m 13.691526,71.380366 a 5.2449628,5.2449628 0 1 0 3.69342,6.43252 5.2449628,5.2449628 0 0 0 -3.69342,-6.43252 z m -2.15997,7.985143 a 3.0271679,3.0271679 0 1 1 3.71814,-2.13797 3.0271679,3.0271679 0 0 1 -3.71573,2.128914 z"
           inkscape:connector-curvature="0"
           style="fill:#008fe1;stroke-width:0.18778957" />
        <polygon
           id="polygon8238"
           points="208.369,243.984 208.369,197.323 720.613,197.323 720.613,195.323 208.369,195.323 208.369,148.662 720.613,148.662 720.613,146.662 208.369,146.662 208.369,100 720.613,100 720.613,98 208.369,98 208.369,51.338 720.613,51.338 720.613,49.338 208.369,49.338 208.369,0 206.369,0 206.369,49.338 139.613,49.338 139.613,51.338 206.369,51.338 206.369,98 139.613,98 139.613,100 206.369,100 206.369,146.662 139.613,146.662 139.613,148.662 206.369,148.662 206.369,195.323 139.613,195.323 139.613,197.323 206.369,197.323 206.369,243.984 139.613,243.984 139.613,245.984 206.369,245.984 206.369,292.646 139.613,292.646 139.613,294.646 206.369,294.646 206.369,341.307 139.613,341.307 139.613,343.307 206.369,343.307 206.369,389.969 139.613,389.969 139.613,391.969 206.369,391.969 206.369,438.63 139.613,438.63 139.613,440.63 206.369,440.63 206.369,487.291 139.613,487.291 139.613,489.291 206.369,489.291 206.369,535.953 139.613,535.953 139.613,537.953 206.369,537.953 206.369,584.614 139.613,584.614 139.613,586.614 206.369,586.614 206.369,633.275 139.613,633.275 139.613,635.275 206.369,635.275 206.369,676 208.369,676 208.369,635.275 720.613,635.275 720.613,633.275 208.369,633.275 208.369,586.614 720.613,586.614 720.613,584.614 208.369,584.614 208.369,537.953 720.613,537.953 720.613,535.953 208.369,535.953 208.369,489.291 720.613,489.291 720.613,487.291 208.369,487.291 208.369,440.63 720.613,440.63 720.613,438.63 208.369,438.63 208.369,391.969 720.613,391.969 720.613,389.969 208.369,389.969 208.369,343.307 720.613,343.307 720.613,341.307 208.369,341.307 208.369,294.646 720.613,294.646 720.613,292.646 208.369,292.646 208.369,245.984 720.613,245.984 720.613,243.984 "
           style="opacity:0.3;fill:#3f3d56"
           transform="matrix(0.12409025,0.03324988,-0.03734125,0.13935944,-45.979444,77.478752)" />
        <path
           id="path8240"
           stroke-miterlimit="10"
           d="m -15.286244,96.518065 a 16.934341,19.018095 15 0 1 -3.26135,1.196281 c -0.71993,0.181275 -1.49819,0.30581 -2.14597,-0.0247 -0.64779,-0.330511 -1.05339,-1.28426 -0.64286,-1.977193 a 1.2273866,1.3784153 15 0 1 1.14026,-0.602166 2.1727264,2.4400782 15 0 1 1.15946,0.521186 3.6081714,4.052153 15 0 1 1.20582,2.080059 c 0.0914,0.426854 0.12647,0.897662 0.37997,1.226533 a 1.9446012,2.1838824 15 0 0 0.76643,0.497813 c 0.66825,0.283531 1.35492,0.570962 2.08456,0.568882 0.72964,-0.002 1.52299,-0.355999 1.90051,-1.070832"
           inkscape:connector-curvature="0"
           style="fill:none;stroke:#3f3d56;stroke-width:0.31069505;stroke-miterlimit:10" />
        <path
           id="path8242"
           stroke-miterlimit="10"
           d="m -9.0660238,94.296306 q -0.85805,3.524968 -1.9646702,6.983124 l 1.5596102,0.0823 c 0.57488,0.0303 1.24098,0.0198 1.63604,-0.47134 0.36834,-0.45792 0.32587,-1.171952 0.0489,-1.664494 -0.27696,-0.492546 -0.73548,-0.815044 -1.18018,-1.122584 l -0.72847,-0.503768"
           inkscape:connector-curvature="0"
           style="fill:none;stroke:#3f3d56;stroke-width:0.31069505;stroke-miterlimit:10" />
        <path
           id="path8244"
           stroke-miterlimit="10"
           d="m -1.8020138,99.002418 c -0.51633,-0.228241 -1.04453,-0.455788 -1.60883,-0.491481 -0.5643,-0.0357 -1.18027,0.150125 -1.57298,0.628337 -0.72536,0.883306 -0.35858,2.308666 0.38371,3.079496 a 3.7776151,4.2424468 15 0 0 2.29679,1.05135"
           inkscape:connector-curvature="0"
           style="fill:none;stroke:#3f3d56;stroke-width:0.31069505;stroke-miterlimit:10" />
      </g>
    </g>
    <path
       id="path2068"
       d="m 146.02391,121.05491 -40.50242,0.43656 a 2.7675417,2.7675417 0 0 0 -2.73844,2.76489 v 3.34698 a 2.7675417,2.7675417 0 0 1 -2.69875,2.7649 l -29.225871,0.70115 a 2.7648958,2.7648958 0 0 1 -2.738437,-2.04259 l -1.373188,-5.0456 a 2.7648958,2.7648958 0 0 0 -2.701395,-2.04259 l -39.039272,0.42069 a 2.7648958,2.7648958 0 0 0 -2.69875,3.22792 l 15.705667,92.43483 a 2.7675417,2.7675417 0 0 0 2.717271,2.30452 l 123.332875,0.52917 a 2.7675417,2.7675417 0 0 0 2.72786,-3.28613 l -18.02342,-94.26839 a 2.7648958,2.7648958 0 0 0 -2.74373,-2.24631 z"
       inkscape:connector-curvature="0"
       style="fill:#dce5ea;stroke-width:0.26458332;fill-opacity:1" />
    <path
       id="path17746"
       d="m 108.66646,180.67058 q 0.92429,4.75069 -0.58576,7.61564 -1.51046,2.86524 -4.48323,2.8655 -2.42142,0 -4.88088,-2.8042 -2.460042,-2.80416 -3.780975,-8.62701 -0.292047,-1.28714 -0.494956,-2.45173 -0.203491,-1.16434 -0.34671,-2.20656 l -1.215337,-10.08274 h -7.080276 q 2.500709,19.12351 2.144871,22.75513 -0.35597,3.63156 -3.175264,3.63166 a 3.7867693,3.0194705 41.76351 0 1 -2.483538,-0.95003 3.5746626,2.8503425 41.763511 0 1 -1.642957,-2.51309 q -0.319564,-1.40917 1.328288,-3.93806 1.648036,-2.52838 1.420415,-4.61232 l -1.422664,-14.37329 h -2.97262 a 5.8995685,4.7041604 41.76351 0 0 -2.270231,0.59759 5.0832797,4.053274 41.763511 0 0 -1.415124,1.39441 l -0.872781,1.96138 H 73.36411 q 0.444288,-4.65804 2.103861,-7.00272 1.65899,-2.3445 4.509611,-2.34447 h 23.414088 l 1.22381,5.39381 h -7.906865 q 0.466778,3.67761 1.10191,7.35515 0.635264,3.67761 1.47693,7.38588 0.570283,2.51327 2.089495,4.07604 1.51895,1.56297 3.26607,1.56292 1.07238,0 2.05436,-0.87348 a 3.5467091,2.8280529 41.76351 0 0 0.81512,-2.2831 q -0.0615,-0.67379 -0.10212,-1.0573 -0.0399,-0.38285 -0.0613,-0.47504 z"
       inkscape:connector-curvature="0"
       style="fill:#008fe1;stroke-width:0.26458332" />
    <path
       id="path17748"
       d="m 108.66646,180.67058 q 0.92429,4.75069 -0.58576,7.61564 -1.51046,2.86524 -4.48323,2.8655 -2.42142,0 -4.88088,-2.8042 -2.460042,-2.80416 -3.780975,-8.62701 -0.292047,-1.28714 -0.494956,-2.45173 -0.203491,-1.16434 -0.34671,-2.20656 l -1.215337,-10.08274 h -7.080276 q 2.500709,19.12351 2.144871,22.75513 -0.35597,3.63156 -3.175264,3.63166 a 3.7867693,3.0194705 41.76351 0 1 -2.483538,-0.95003 3.5746626,2.8503425 41.763511 0 1 -1.642957,-2.51309 q -0.319564,-1.40917 1.328288,-3.93806 1.648036,-2.52838 1.420415,-4.61232 l -1.422664,-14.37329 h -2.97262 a 5.8995685,4.7041604 41.76351 0 0 -2.270231,0.59759 5.0832797,4.053274 41.763511 0 0 -1.415124,1.39441 l -0.872781,1.96138 H 73.36411 q 0.444288,-4.65804 2.103861,-7.00272 1.65899,-2.3445 4.509611,-2.34447 h 23.414088 l 1.22381,5.39381 h -7.906865 q 0.466778,3.67761 1.10191,7.35515 0.635264,3.67761 1.47693,7.38588 0.570283,2.51327 2.089495,4.07604 1.51895,1.56297 3.26607,1.56292 1.07238,0 2.05436,-0.87348 a 3.5467091,2.8280529 41.76351 0 0 0.81512,-2.2831 q -0.0615,-0.67379 -0.10212,-1.0573 -0.0399,-0.38285 -0.0613,-0.47504 z"
       inkscape:connector-curvature="0"
       style="opacity:0.1;stroke-width:0.26458332" />
    <path
       id="path17750"
       d="m 108.44908,179.71305 q 0.92429,4.7507 -0.58576,7.61564 -1.51011,2.86524 -4.48289,2.8655 -2.42142,0 -4.880877,-2.80421 -2.460043,-2.80416 -3.781319,-8.62699 -0.292047,-1.28716 -0.494956,-2.45175 -0.203253,-1.16432 -0.34671,-2.20652 l -1.215337,-10.08276 h -7.07943 q 2.501053,19.1235 2.144871,22.75511 -0.35597,3.63157 -3.175264,3.63169 a 3.7867693,3.0194705 41.76351 0 1 -2.483194,-0.95004 3.574657,2.8503377 41.763511 0 1 -1.642957,-2.5131 q -0.319881,-1.40917 1.328288,-3.93805 1.648036,-2.52839 1.420415,-4.6123 l -1.423008,-14.37331 h -2.97262 a 5.8995685,4.7041604 41.76351 0 0 -2.269887,0.59758 5.0832797,4.053274 41.763511 0 0 -1.415124,1.39441 l -0.872781,1.96138 h -1.072621 q 0.444288,-4.65804 2.103861,-7.00272 1.658646,-2.3445 4.509267,-2.34447 h 23.414093 l 1.2238,5.39382 h -7.90686 q 0.466963,3.6776 1.102254,7.35515 0.634735,3.67763 1.476586,7.38588 0.570283,2.51327 2.08949,4.07604 1.51929,1.563 3.26607,1.56294 1.07239,0 2.05436,-0.87347 a 3.5467091,2.8280529 41.76351 0 0 0.81513,-2.28311 q -0.0612,-0.67382 -0.10213,-1.05734 -0.0399,-0.38284 -0.0613,-0.475 z"
       inkscape:connector-curvature="0"
       style="fill:#008fe1;stroke-width:0.26458332" />
  </g>
</svg>
