<?xml version="1.0" encoding="UTF-8" standalone="no"?>
<!-- Created with Inkscape (http://www.inkscape.org/) -->

<svg
   xmlns:dc="http://purl.org/dc/elements/1.1/"
   xmlns:cc="http://creativecommons.org/ns#"
   xmlns:rdf="http://www.w3.org/1999/02/22-rdf-syntax-ns#"
   xmlns:svg="http://www.w3.org/2000/svg"
   xmlns="http://www.w3.org/2000/svg"
   xmlns:xlink="http://www.w3.org/1999/xlink"
   xmlns:sodipodi="http://sodipodi.sourceforge.net/DTD/sodipodi-0.dtd"
   xmlns:inkscape="http://www.inkscape.org/namespaces/inkscape"
   width="210mm"
   height="297mm"
   viewBox="0 0 210 297"
   version="1.1"
   id="svg2460"
   inkscape:version="0.92.4 (5da689c313, 2019-01-14)"
   sodipodi:docname="folder empty.svg">
  <defs
     id="defs2454">
    <linearGradient
       xlink:href="#f98c7255-8898-49c2-b340-75dadcc4ae5e"
       gradientTransform="translate(123.74,-187.29)"
       y2="464.42001"
       x2="450.42999"
       y1="726.27002"
       x1="450.42999"
       id="7820c60a-6dd2-4e9e-820c-a335a5d419d8" />
    <linearGradient
       gradientUnits="userSpaceOnUse"
       y2="132.32001"
       x2="819.92999"
       y1="598.64001"
       x1="819.92999"
       id="f98c7255-8898-49c2-b340-75dadcc4ae5e">
      <stop
         id="stop1740"
         stop-opacity="0.25"
         stop-color="gray"
         offset="0" />
      <stop
         id="stop1742"
         stop-opacity="0.12"
         stop-color="gray"
         offset="0.54" />
      <stop
         id="stop1744"
         stop-opacity="0.1"
         stop-color="gray"
         offset="1" />
    </linearGradient>
    <linearGradient
       xlink:href="#f98c7255-8898-49c2-b340-75dadcc4ae5e"
       gradientTransform="rotate(90,617.54,562.87)"
       y2="457.32001"
       x2="456.73999"
       y1="719.16998"
       x1="456.73999"
       id="0ab0c4d5-5a87-488b-b190-408bea02e292" />
    <linearGradient
       xlink:href="#f98c7255-8898-49c2-b340-75dadcc4ae5e"
       gradientTransform="rotate(90,643.61,568.06)"
       y2="463.92001"
       x2="476.5"
       y1="725.77002"
       x1="476.5"
       id="4f6991c1-2d70-49f7-ad45-4cbe0a2e669a" />
    <linearGradient
       xlink:href="#f98c7255-8898-49c2-b340-75dadcc4ae5e"
       gradientTransform="rotate(90,629.01,560.64)"
       y2="395.19"
       x2="476.17001"
       y1="658.02002"
       x1="476.17001"
       id="2353f27f-2b2f-460e-adf7-0d1e44be71db" />
  </defs>
  <sodipodi:namedview
     id="base"
     pagecolor="#ffffff"
     bordercolor="#666666"
     borderopacity="1.0"
     inkscape:pageopacity="0.0"
     inkscape:pageshadow="2"
     inkscape:zoom="0.49497475"
     inkscape:cx="-88.818849"
     inkscape:cy="527.48115"
     inkscape:document-units="mm"
     inkscape:current-layer="layer1"
     showgrid="false"
     inkscape:window-width="1680"
     inkscape:window-height="987"
     inkscape:window-x="-8"
     inkscape:window-y="-8"
     inkscape:window-maximized="1" />
  <metadata
     id="metadata2457">
    <rdf:RDF>
      <cc:Work
         rdf:about="">
        <dc:format>image/svg+xml</dc:format>
        <dc:type
           rdf:resource="http://purl.org/dc/dcmitype/StillImage" />
        <dc:title />
      </cc:Work>
    </rdf:RDF>
  </metadata>
  <g
     inkscape:label="Ebene 1"
     inkscape:groupmode="layer"
     id="layer1">
    <path
       id="path1870"
       d="m 47.186158,219.02218 a 3.6380208,3.6380208 0 0 1 -0.81227,-2.77019 l 11.678708,-95.55956 0.968375,-7.9375 a 3.6644792,3.6644792 0 0 1 3.608917,-3.21734 l 34.207979,-0.22754 a 3.6591875,3.6591875 0 0 0 3.635373,-3.75973 l -0.0132,-0.36248 a 3.6618333,3.6618333 0 0 1 3.65919,-3.78618 h 35.9463 a 3.6591875,3.6591875 0 0 1 3.65918,3.65125 3.90525,3.90525 0 0 1 -0.0318,0.49212 3.6591875,3.6591875 0 0 0 3.53484,4.14338 l 34.52283,0.88106 a 3.6565417,3.6565417 0 0 1 3.51367,4.27567 l -17.25877,100.80624 -0.32544,1.905 a 3.5798125,3.5798125 0 0 1 -0.52917,1.36525 z"
       inkscape:connector-curvature="0"
       style="fill:#b6c8d3;stroke-width:0.26458332;fill-opacity:1" />
    <path
       id="path2066"
       d="m 167.1456,218.90576 a 2.7278542,2.7278542 0 0 1 -1.75154,0.61912 l -118.207902,-0.5027 a 3.6380208,3.6380208 0 0 1 -0.81227,-2.77019 l 11.678708,-95.55956 7.323667,-0.0794 a 2.7675417,2.7675417 0 0 1 2.69875,2.04258 l 1.367895,5.04825 a 2.7675417,2.7675417 0 0 0 2.735792,2.04258 l 29.22852,-0.70114 a 2.7675417,2.7675417 0 0 0 2.7014,-2.76754 v -3.34434 a 2.7675417,2.7675417 0 0 1 2.73579,-2.76754 l 40.50242,-0.43656 a 2.7675417,2.7675417 0 0 1 2.74373,2.24631 l 17.91229,93.6625 0.11642,0.60325 a 2.7516667,2.7516667 0 0 1 -0.97367,2.66436 z"
       inkscape:connector-curvature="0"
       style="opacity:0.1;stroke-width:0.26458332" />
    <path
       id="path2068"
       d="m 146.02391,121.05491 -40.50242,0.43656 a 2.7675417,2.7675417 0 0 0 -2.73844,2.76489 v 3.34698 a 2.7675417,2.7675417 0 0 1 -2.69875,2.7649 l -29.225871,0.70115 a 2.7648958,2.7648958 0 0 1 -2.738437,-2.04259 l -1.373188,-5.0456 a 2.7648958,2.7648958 0 0 0 -2.701395,-2.04259 l -39.039272,0.42069 a 2.7648958,2.7648958 0 0 0 -2.69875,3.22792 l 15.705667,92.43483 a 2.7675417,2.7675417 0 0 0 2.717271,2.30452 l 123.332875,0.52917 a 2.7675417,2.7675417 0 0 0 2.72786,-3.28613 l -18.02342,-94.26839 a 2.7648958,2.7648958 0 0 0 -2.74373,-2.24631 z"
       inkscape:connector-curvature="0"
       style="fill:#dce5ea;stroke-width:0.26458332;fill-opacity:1" />
    <circle
       id="circle916"
       r="0.83608335"
       cy="326.68152"
       cx="-148.32457"
       style="opacity:0.1;stroke-width:0.26458332" />
  </g>
</svg>
