<?xml version="1.0" encoding="UTF-8" standalone="no"?>
<!-- Created with Inkscape (http://www.inkscape.org/) -->

<svg
   xmlns:dc="http://purl.org/dc/elements/1.1/"
   xmlns:cc="http://creativecommons.org/ns#"
   xmlns:rdf="http://www.w3.org/1999/02/22-rdf-syntax-ns#"
   xmlns:svg="http://www.w3.org/2000/svg"
   xmlns="http://www.w3.org/2000/svg"
   xmlns:xlink="http://www.w3.org/1999/xlink"
   xmlns:sodipodi="http://sodipodi.sourceforge.net/DTD/sodipodi-0.dtd"
   xmlns:inkscape="http://www.inkscape.org/namespaces/inkscape"
   width="210mm"
   height="297mm"
   viewBox="0 0 210 297"
   version="1.1"
   id="svg2460"
   inkscape:version="0.92.4 (5da689c313, 2019-01-14)"
   sodipodi:docname="folder code.svg">
  <defs
     id="defs2454">
    <linearGradient
       xlink:href="#f98c7255-8898-49c2-b340-75dadcc4ae5e"
       gradientTransform="translate(123.74,-187.29)"
       y2="464.42001"
       x2="450.42999"
       y1="726.27002"
       x1="450.42999"
       id="7820c60a-6dd2-4e9e-820c-a335a5d419d8" />
    <linearGradient
       gradientUnits="userSpaceOnUse"
       y2="132.32001"
       x2="819.92999"
       y1="598.64001"
       x1="819.92999"
       id="f98c7255-8898-49c2-b340-75dadcc4ae5e">
      <stop
         id="stop1740"
         stop-opacity="0.25"
         stop-color="gray"
         offset="0" />
      <stop
         id="stop1742"
         stop-opacity="0.12"
         stop-color="gray"
         offset="0.54" />
      <stop
         id="stop1744"
         stop-opacity="0.1"
         stop-color="gray"
         offset="1" />
    </linearGradient>
    <linearGradient
       xlink:href="#f98c7255-8898-49c2-b340-75dadcc4ae5e"
       gradientTransform="rotate(90,617.54,562.87)"
       y2="457.32001"
       x2="456.73999"
       y1="719.16998"
       x1="456.73999"
       id="0ab0c4d5-5a87-488b-b190-408bea02e292" />
    <linearGradient
       xlink:href="#f98c7255-8898-49c2-b340-75dadcc4ae5e"
       gradientTransform="rotate(90,643.61,568.06)"
       y2="463.92001"
       x2="476.5"
       y1="725.77002"
       x1="476.5"
       id="4f6991c1-2d70-49f7-ad45-4cbe0a2e669a" />
    <linearGradient
       xlink:href="#f98c7255-8898-49c2-b340-75dadcc4ae5e"
       gradientTransform="rotate(90,629.01,560.64)"
       y2="395.19"
       x2="476.17001"
       y1="658.02002"
       x1="476.17001"
       id="2353f27f-2b2f-460e-adf7-0d1e44be71db" />
    <linearGradient
       gradientUnits="userSpaceOnUse"
       gradientTransform="translate(-3.62 1.57)"
       y2="151.19"
       x2="539.63"
       y1="734.6"
       x1="539.63"
       id="07332201-7176-49c2-9908-6dc4a39c4716">
      <stop
         id="stop17789"
         stop-opacity="0.25"
         stop-color="gray"
         offset="0" />
      <stop
         id="stop17791"
         stop-opacity="0.12"
         stop-color="gray"
         offset="0.54" />
      <stop
         id="stop17793"
         stop-opacity="0.1"
         stop-color="gray"
         offset="1" />
    </linearGradient>
    <linearGradient
       xlink:href="#07332201-7176-49c2-9908-6dc4a39c4716"
       gradientTransform="matrix(0.62144298,0,0,0.62144298,1357.0689,901.35042)"
       y2="130.75"
       x2="540.17"
       y1="180.2"
       x1="540.17"
       id="0ee1ab3f-7ba2-4205-9d4a-9606ad702253" />
    <linearGradient
       xlink:href="#07332201-7176-49c2-9908-6dc4a39c4716"
       gradientTransform="matrix(0.62071145,0.03014409,-0.03014409,0.62071145,1311.7516,966.11326)"
       y2="82.43"
       x2="540.17"
       y1="140.86"
       x1="540.17"
       id="abca9755-bed1-4a97-b027-7f02ee3ffa09" />
    <linearGradient
       xlink:href="#07332201-7176-49c2-9908-6dc4a39c4716"
       y2="127.12"
       x2="476.4"
       y1="710.53"
       x1="476.4"
       id="2632d424-e666-4ee4-9508-a494957e14ab" />
    <linearGradient
       xlink:href="#07332201-7176-49c2-9908-6dc4a39c4716"
       y2="106.68"
       x2="476.94"
       y1="156.13"
       x1="476.94"
       id="97571ef7-1c83-4e06-b701-c2e47e77dca3"
       gradientTransform="matrix(0.62144298,0,0,0.62144298,1686.506,556.19065)" />
    <linearGradient
       xlink:href="#07332201-7176-49c2-9908-6dc4a39c4716"
       y2="117.95"
       x2="666.86"
       y1="176.39"
       x1="666.86"
       id="7d32e13e-a0c7-49c4-af0e-066a2f8cb76e"
       gradientTransform="matrix(0.60057462,0.15969186,-0.15969186,0.60057462,1382.4037,904.77721)" />
    <linearGradient
       inkscape:collect="always"
       xlink:href="#07332201-7176-49c2-9908-6dc4a39c4716"
       id="linearGradient18233"
       gradientUnits="userSpaceOnUse"
       gradientTransform="matrix(0.62144297,0,0,0.62144297,2614.2853,472.30705)"
       x1="539.63"
       y1="734.6"
       x2="539.63"
       y2="151.19" />
    <linearGradient
       gradientUnits="userSpaceOnUse"
       y2="219"
       x2="361.1"
       y1="819.7"
       x1="361.1"
       id="fd95d79a-5cd9-41a5-a6ba-ef65272c784a">
      <stop
         id="stop1995"
         stop-opacity="0.25"
         stop-color="gray"
         offset="0" />
      <stop
         id="stop1997"
         stop-opacity="0.12"
         stop-color="gray"
         offset="0.54" />
      <stop
         id="stop1999"
         stop-opacity="0.1"
         stop-color="gray"
         offset="1" />
    </linearGradient>
    <linearGradient
       gradientUnits="userSpaceOnUse"
       x2="194"
       y1="524"
       x1="194"
       id="b5b2e68b-c285-4ac0-b26c-c5e680cf112d">
      <stop
         id="stop2290"
         stop-opacity="0.25"
         stop-color="gray"
         offset="0" />
      <stop
         id="stop2292"
         stop-opacity="0.12"
         stop-color="gray"
         offset="0.54" />
      <stop
         id="stop2294"
         stop-opacity="0.1"
         stop-color="gray"
         offset="1" />
    </linearGradient>
    <linearGradient
       xlink:href="#b5b2e68b-c285-4ac0-b26c-c5e680cf112d"
       y2="261"
       x2="256.5"
       y1="341"
       x1="256.5"
       id="3e855d09-ea58-4275-8d16-3996ecf7bf97" />
    <linearGradient
       xlink:href="#b5b2e68b-c285-4ac0-b26c-c5e680cf112d"
       y2="411"
       x2="698.41"
       y1="686.91"
       x1="698.41"
       id="cf2af733-ecbd-4844-bce5-a175ed323afb" />
    <linearGradient
       xlink:href="#b5b2e68b-c285-4ac0-b26c-c5e680cf112d"
       y2="592.5"
       x2="564"
       y1="592.5"
       x1="521"
       id="41d3ff72-5c81-40b1-a081-9da170d960ca" />
    <linearGradient
       xlink:href="#b5b2e68b-c285-4ac0-b26c-c5e680cf112d"
       y2="506"
       x2="864"
       y1="667"
       x1="864"
       id="861d31c1-c685-4668-90c5-63e7f330b62f" />
    <linearGradient
       xlink:href="#b5b2e68b-c285-4ac0-b26c-c5e680cf112d"
       y2="505"
       x2="587"
       y1="666"
       x1="587"
       id="95aca10b-5f5c-4c4a-b42d-5e0345d77cda" />
    <linearGradient
       xlink:href="#b5b2e68b-c285-4ac0-b26c-c5e680cf112d"
       y2="507"
       x2="818.5"
       y1="672"
       x1="818.5"
       id="447533d7-1588-4f38-833a-a610814ab16b" />
    <linearGradient
       xlink:href="#b5b2e68b-c285-4ac0-b26c-c5e680cf112d"
       y2="503"
       x2="692.5"
       y1="520"
       x1="692.5"
       id="ff2ef3d2-e251-4fff-9ce5-91d443983582" />
    <linearGradient
       xlink:href="#b5b2e68b-c285-4ac0-b26c-c5e680cf112d"
       y2="407"
       x2="696.5"
       y1="492"
       x1="696.5"
       id="3aee67b7-7918-445b-a8b6-3ab74317d2c0" />
    <linearGradient
       xlink:href="#b5b2e68b-c285-4ac0-b26c-c5e680cf112d"
       y2="482"
       x2="696.5"
       y1="503"
       x1="696.5"
       id="6f730dc9-6dcb-4b79-bb23-db206ebc09d2" />
    <linearGradient
       xlink:href="#b5b2e68b-c285-4ac0-b26c-c5e680cf112d"
       y2="438"
       x2="695"
       y1="448"
       x1="695"
       id="fad0dffe-d445-4baa-a242-e8cd9004e0b5" />
    <linearGradient
       gradientUnits="userSpaceOnUse"
       y2="86.11"
       x2="397.74"
       y1="717.25"
       x1="397.74"
       id="27aa7b70-b106-4a00-be67-693c8380e41d">
      <stop
         id="stop2563"
         stop-opacity="0.25"
         stop-color="gray"
         offset="0" />
      <stop
         id="stop2565"
         stop-opacity="0.12"
         stop-color="gray"
         offset="0.54" />
      <stop
         id="stop2567"
         stop-opacity="0.1"
         stop-color="gray"
         offset="1" />
    </linearGradient>
    <linearGradient
       xlink:href="#27aa7b70-b106-4a00-be67-693c8380e41d"
       y2="209.65"
       x2="288.88"
       y1="378.44"
       x1="288.88"
       id="46a816da-c484-41ec-8a6f-fbf14454d910" />
    <linearGradient
       xlink:href="#27aa7b70-b106-4a00-be67-693c8380e41d"
       y2="223.1"
       x2="288.88"
       y1="328.29"
       x1="288.88"
       id="32b634d8-28f1-48d9-a868-f602a2cad942" />
    <clipPath
       transform="translate(-140.93 -67.23)"
       id="7a4c6aff-0be0-461b-a111-b3ae1b8fbf73">
      <rect
         fill="#fff"
         height="101.52"
         width="150.6"
         y="291.55"
         x="354.51"
         data-name="&lt;Rectangle&gt;"
         id="8cc91f6d-19b0-43cc-9c18-2faa83ac34ba" />
    </clipPath>
    <linearGradient
       xlink:href="#27aa7b70-b106-4a00-be67-693c8380e41d"
       y2="426.14"
       x2="288.88"
       y1="594.94"
       x1="288.88"
       id="38f1cb81-8fac-4205-a0ff-a33ac00d354c" />
    <linearGradient
       xlink:href="#27aa7b70-b106-4a00-be67-693c8380e41d"
       y2="439.6"
       x2="288.88"
       y1="544.79"
       x1="288.88"
       id="6fc01aaf-135e-403e-a209-43b2a4fe59f1" />
    <clipPath
       transform="translate(-140.93 -67.23)"
       id="79ce363a-d134-40e4-9f82-b96d04a36978">
      <rect
         fill="#fff"
         height="101.52"
         width="150.6"
         y="508.05"
         x="354.51"
         data-name="&lt;Rectangle&gt;"
         id="5b44e697-61fe-43bd-9a58-5f3e41301748" />
    </clipPath>
    <linearGradient
       xlink:href="#27aa7b70-b106-4a00-be67-693c8380e41d"
       gradientTransform="rotate(90,651.765,457.665)"
       y2="129.2"
       x2="671.57"
       y1="760.34"
       x1="671.57"
       id="54803c44-522d-4b9e-9a34-f1f7b43e8483" />
    <linearGradient
       xlink:href="#27aa7b70-b106-4a00-be67-693c8380e41d"
       gradientTransform="rotate(90,648.96,480.55)"
       y2="387.28"
       x2="670.96"
       y1="553.63"
       x1="670.96"
       id="089a6a47-adaa-499b-aefb-cd6464b62fb8" />
    <linearGradient
       xlink:href="#27aa7b70-b106-4a00-be67-693c8380e41d"
       y2="601.05"
       x2="637.66"
       y1="754.12"
       x1="637.66"
       id="fd8d88e0-7826-450d-9e0b-001d1be709c2"
       gradientTransform="matrix(0.26458333,0,0,0.26458333,-574.27776,411.92209)" />
    <linearGradient
       xlink:href="#27aa7b70-b106-4a00-be67-693c8380e41d"
       y2="569.13"
       x2="778.37"
       y1="673.86"
       x1="778.37"
       id="8d1793c5-b76e-44e2-a52e-569460402331"
       gradientTransform="matrix(0.26458333,0,0,0.26458333,-611.56549,394.13415)" />
    <linearGradient
       xlink:href="#27aa7b70-b106-4a00-be67-693c8380e41d"
       y2="713.66"
       x2="778.37"
       y1="774.41"
       x1="778.37"
       id="4745700d-8097-45ff-9f71-625443fc4ad8"
       gradientTransform="matrix(0.26458333,0,0,0.26458333,-611.56549,394.13415)" />
    <linearGradient
       xlink:href="#27aa7b70-b106-4a00-be67-693c8380e41d"
       gradientTransform="rotate(90,648.96,480.55)"
       y2="387.28"
       x2="670.96002"
       y1="553.63"
       x1="670.96002"
       id="089a6a47-adaa-499b-aefb-cd6464b62fb8-2" />
    <linearGradient
       xlink:href="#27aa7b70-b106-4a00-be67-693c8380e41d"
       gradientTransform="rotate(90,651.765,457.665)"
       y2="129.2"
       x2="671.57001"
       y1="760.34003"
       x1="671.57001"
       id="54803c44-522d-4b9e-9a34-f1f7b43e8483-9" />
    <clipPath
       transform="translate(-140.93 -67.23)"
       id="79ce363a-d134-40e4-9f82-b96d04a36978-7">
      <rect
         style="fill:#ffffff"
         height="101.52"
         width="150.60001"
         y="508.04999"
         x="354.51001"
         data-name="&lt;Rectangle&gt;"
         id="5b44e697-61fe-43bd-9a58-5f3e41301748-6" />
    </clipPath>
    <clipPath
       transform="translate(-140.93 -67.23)"
       id="7a4c6aff-0be0-461b-a111-b3ae1b8fbf73-5">
      <rect
         style="fill:#ffffff"
         height="101.52"
         width="150.60001"
         y="291.54999"
         x="354.51001"
         data-name="&lt;Rectangle&gt;"
         id="8cc91f6d-19b0-43cc-9c18-2faa83ac34ba-8" />
    </clipPath>
    <linearGradient
       xlink:href="#07332201-7176-49c2-9908-6dc4a39c4716"
       y2="127.12"
       x2="476.39999"
       y1="710.53003"
       x1="476.39999"
       id="2632d424-e666-4ee4-9508-a494957e14ab-3"
       gradientTransform="matrix(0.62144298,0,0,0.62144298,2847.8514,-172.43242)" />
  </defs>
  <sodipodi:namedview
     id="base"
     pagecolor="#ffffff"
     bordercolor="#666666"
     borderopacity="1.0"
     inkscape:pageopacity="0.0"
     inkscape:pageshadow="2"
     inkscape:zoom="0.22627417"
     inkscape:cx="-439.01725"
     inkscape:cy="968.95185"
     inkscape:document-units="mm"
     inkscape:current-layer="layer1"
     showgrid="false"
     inkscape:window-width="1680"
     inkscape:window-height="987"
     inkscape:window-x="-8"
     inkscape:window-y="-8"
     inkscape:window-maximized="1" />
  <metadata
     id="metadata2457">
    <rdf:RDF>
      <cc:Work
         rdf:about="">
        <dc:format>image/svg+xml</dc:format>
        <dc:type
           rdf:resource="http://purl.org/dc/dcmitype/StillImage" />
        <dc:title />
      </cc:Work>
    </rdf:RDF>
  </metadata>
  <g
     inkscape:label="Ebene 1"
     inkscape:groupmode="layer"
     id="layer1">
    <path
       id="path1870"
       d="m 47.186158,219.02218 a 3.6380208,3.6380208 0 0 1 -0.81227,-2.77019 l 11.678708,-95.55956 0.968375,-7.9375 a 3.6644792,3.6644792 0 0 1 3.608917,-3.21734 l 34.207979,-0.22754 a 3.6591875,3.6591875 0 0 0 3.635373,-3.75973 l -0.0132,-0.36248 a 3.6618333,3.6618333 0 0 1 3.65919,-3.78618 h 35.9463 a 3.6591875,3.6591875 0 0 1 3.65918,3.65125 3.90525,3.90525 0 0 1 -0.0318,0.49212 3.6591875,3.6591875 0 0 0 3.53484,4.14338 l 34.52283,0.88106 a 3.6565417,3.6565417 0 0 1 3.51367,4.27567 l -17.25877,100.80624 -0.32544,1.905 a 3.5798125,3.5798125 0 0 1 -0.52917,1.36525 z"
       inkscape:connector-curvature="0"
       style="fill:#b6c8d3;stroke-width:0.26458332;fill-opacity:1" />
    <path
       id="path2066"
       d="m 167.1456,218.90576 a 2.7278542,2.7278542 0 0 1 -1.75154,0.61912 l -118.207902,-0.5027 a 3.6380208,3.6380208 0 0 1 -0.81227,-2.77019 l 11.678708,-95.55956 7.323667,-0.0794 a 2.7675417,2.7675417 0 0 1 2.69875,2.04258 l 1.367895,5.04825 a 2.7675417,2.7675417 0 0 0 2.735792,2.04258 l 29.22852,-0.70114 a 2.7675417,2.7675417 0 0 0 2.7014,-2.76754 v -3.34434 a 2.7675417,2.7675417 0 0 1 2.73579,-2.76754 l 40.50242,-0.43656 a 2.7675417,2.7675417 0 0 1 2.74373,2.24631 l 17.91229,93.6625 0.11642,0.60325 a 2.7516667,2.7516667 0 0 1 -0.97367,2.66436 z"
       inkscape:connector-curvature="0"
       style="opacity:0.1;stroke-width:0.26458332" />
    <g
       id="g17909"
       transform="matrix(0.29329983,-0.02436457,0.02436457,0.29329983,-1082.3654,-239.85251)">
      <g
         id="g4943"
         transform="translate(944.42536,773.93136)">
        <rect
           style="fill:#e0e0e0;stroke-width:0.62144297"
           x="2813.8435"
           y="559.91797"
           width="271.58301"
           height="375.23972"
           transform="rotate(2.7803146)"
           id="rect17805" />
        <rect
           id="rect17807"
           transform="rotate(2.7803158)"
           height="362.55603"
           width="262.4043"
           y="566.263"
           x="2818.4355"
           style="fill:url(#linearGradient18233);stroke-width:0.62144297" />
        <rect
           style="fill:#fafafa;stroke-width:0.62144297"
           x="2821.7729"
           y="568.93097"
           width="255.72377"
           height="354.54565"
           transform="rotate(2.7803146)"
           id="rect17811" />
        <rect
           style="fill:#e0e0e0;stroke-width:0.64973962"
           x="2847.4968"
           y="560.02527"
           width="209.80743"
           height="3.1772268"
           transform="rotate(3.2817238)"
           id="rect2651" />
        <rect
           style="fill:#e0e0e0;stroke-width:0.64973962"
           x="2847.5032"
           y="596.5863"
           width="189.14569"
           height="3.1772268"
           transform="rotate(3.2817238)"
           id="rect2661" />
        <rect
           style="fill:#e0e0e0;stroke-width:0.64973962"
           x="2847.4988"
           y="633.14331"
           width="209.80743"
           height="3.1772268"
           transform="rotate(3.2817238)"
           id="rect2665" />
        <rect
           style="fill:#e0e0e0;stroke-width:0.64973962"
           x="2847.499"
           y="651.42181"
           width="209.80743"
           height="3.1772268"
           transform="rotate(3.2817238)"
           id="rect2673" />
        <rect
           style="fill:#e0e0e0;stroke-width:0.64973968"
           x="2849.6902"
           y="577.28497"
           width="189.14569"
           height="3.1772268"
           transform="rotate(3.2817238)"
           id="rect2661-8" />
        <rect
           style="fill:#e0e0e0;stroke-width:0.64973968"
           x="2847.9268"
           y="616.38861"
           width="209.80743"
           height="3.1772268"
           transform="rotate(3.2817238)"
           id="rect2665-0" />
        <rect
           style="fill:#e0e0e0;stroke-width:0.64973962"
           x="2848.9272"
           y="669.02448"
           width="209.80743"
           height="3.1772268"
           transform="rotate(3.281724)"
           id="rect2651-4" />
        <rect
           style="fill:#e0e0e0;stroke-width:0.64973962"
           x="2848.9336"
           y="705.58551"
           width="189.14569"
           height="3.1772268"
           transform="rotate(3.281724)"
           id="rect2661-1" />
        <rect
           style="fill:#e0e0e0;stroke-width:0.64973962"
           x="2848.9292"
           y="742.14252"
           width="209.80743"
           height="3.1772268"
           transform="rotate(3.281724)"
           id="rect2665-7" />
        <rect
           style="fill:#e0e0e0;stroke-width:0.64973962"
           x="2848.9294"
           y="760.42102"
           width="209.80743"
           height="3.1772268"
           transform="rotate(3.281724)"
           id="rect2673-8" />
        <rect
           style="fill:#e0e0e0;stroke-width:0.64973968"
           x="2851.1206"
           y="686.28418"
           width="189.14569"
           height="3.1772268"
           transform="rotate(3.281724)"
           id="rect2661-8-5" />
        <rect
           style="fill:#e0e0e0;stroke-width:0.64973968"
           x="2849.3572"
           y="725.38782"
           width="209.80743"
           height="3.1772268"
           transform="rotate(3.281724)"
           id="rect2665-0-3" />
        <rect
           transform="rotate(14.890315)"
           style="fill:#e0e0e0;stroke-width:0.62144297"
           x="3008.1152"
           y="-99.779106"
           width="271.58301"
           height="375.23972"
           id="rect17821" />
        <rect
           transform="rotate(14.890316)"
           id="rect17823"
           height="362.55603"
           width="262.4043"
           y="-93.434586"
           x="3012.7078"
           style="fill:url(#2632d424-e666-4ee4-9508-a494957e14ab-3);stroke-width:0.62144297" />
        <rect
           transform="rotate(14.890315)"
           style="fill:#ffffff;stroke-width:0.62144297"
           x="3016.0449"
           y="-90.761955"
           width="255.72377"
           height="354.54565"
           id="rect17827" />
        <rect
           style="fill:#e0e0e0;stroke-width:0.64973962"
           x="3035.4951"
           y="-81.008369"
           width="209.80743"
           height="3.1772268"
           transform="rotate(15.171188)"
           id="rect2651-42" />
        <rect
           style="fill:#e0e0e0;stroke-width:0.64973962"
           x="3035.5015"
           y="-44.447369"
           width="189.14569"
           height="3.1772268"
           transform="rotate(15.171188)"
           id="rect2661-85" />
        <rect
           style="fill:#e0e0e0;stroke-width:0.64973962"
           x="3035.4971"
           y="-7.8903151"
           width="209.80743"
           height="3.1772268"
           transform="rotate(15.171188)"
           id="rect2665-8" />
        <rect
           style="fill:#e0e0e0;stroke-width:0.64973962"
           x="3035.4973"
           y="10.388188"
           width="209.80743"
           height="3.1772268"
           transform="rotate(15.171188)"
           id="rect2673-4" />
        <rect
           style="fill:#e0e0e0;stroke-width:0.64973968"
           x="3037.6885"
           y="-63.748699"
           width="189.14569"
           height="3.1772268"
           transform="rotate(15.171188)"
           id="rect2661-8-3" />
        <rect
           style="fill:#e0e0e0;stroke-width:0.64973968"
           x="3035.925"
           y="-24.645016"
           width="209.80743"
           height="3.1772268"
           transform="rotate(15.171188)"
           id="rect2665-0-1" />
        <rect
           style="fill:#e0e0e0;stroke-width:0.64973962"
           x="3036.9255"
           y="27.990757"
           width="209.80743"
           height="3.1772268"
           transform="rotate(15.171188)"
           id="rect2651-4-8" />
        <rect
           style="fill:#e0e0e0;stroke-width:0.64973962"
           x="3036.9319"
           y="64.551796"
           width="189.14569"
           height="3.1772268"
           transform="rotate(15.171188)"
           id="rect2661-1-0" />
        <rect
           style="fill:#e0e0e0;stroke-width:0.64973962"
           x="3036.9275"
           y="101.10883"
           width="209.80743"
           height="3.1772268"
           transform="rotate(15.171188)"
           id="rect2665-7-3" />
        <rect
           style="fill:#e0e0e0;stroke-width:0.64973962"
           x="3036.9277"
           y="119.38725"
           width="209.80743"
           height="3.1772268"
           transform="rotate(15.171188)"
           id="rect2673-8-3" />
        <rect
           style="fill:#e0e0e0;stroke-width:0.64973968"
           x="3039.1189"
           y="45.250431"
           width="189.14569"
           height="3.1772268"
           transform="rotate(15.171188)"
           id="rect2661-8-5-7" />
        <rect
           style="fill:#e0e0e0;stroke-width:0.64973968"
           x="3037.3555"
           y="84.354042"
           width="209.80743"
           height="3.1772268"
           transform="rotate(15.171188)"
           id="rect2665-0-3-0" />
      </g>
    </g>
    <path
       id="path2068"
       d="m 146.02391,121.05491 -40.50242,0.43656 a 2.7675417,2.7675417 0 0 0 -2.73844,2.76489 v 3.34698 a 2.7675417,2.7675417 0 0 1 -2.69875,2.7649 l -29.225871,0.70115 a 2.7648958,2.7648958 0 0 1 -2.738437,-2.04259 l -1.373188,-5.0456 a 2.7648958,2.7648958 0 0 0 -2.701395,-2.04259 l -39.039272,0.42069 a 2.7648958,2.7648958 0 0 0 -2.69875,3.22792 l 15.705667,92.43483 a 2.7675417,2.7675417 0 0 0 2.717271,2.30452 l 123.332875,0.52917 a 2.7675417,2.7675417 0 0 0 2.72786,-3.28613 l -18.02342,-94.26839 a 2.7648958,2.7648958 0 0 0 -2.74373,-2.24631 z"
       inkscape:connector-curvature="0"
       style="fill:#dce5ea;stroke-width:0.26458332;fill-opacity:1" />
    <g
       transform="matrix(0.22940336,0,0.03205472,0.22940336,-141.53625,46.722274)"
       id="g1993">
      <g
         id="g18231"
         transform="translate(-2656.6118,-328.91565)">
        <path
           id="path18097"
           d="m 3785.48,872.67274 c 0,0 -18.2028,-13.82049 -19.5844,-8.75437 -1.3817,5.06612 13.3561,16.58001 13.3561,16.58001 z"
           inkscape:connector-curvature="0"
           style="fill:#ffb9b9;stroke-width:0.59122235" />
        <path
           id="path18099"
           d="m 3785.48,872.67274 c 0,0 -18.2028,-13.82049 -19.5844,-8.75437 -1.3817,5.06612 13.3561,16.58001 13.3561,16.58001 z"
           inkscape:connector-curvature="0"
           style="opacity:0.1;stroke-width:0.59122235" />
        <polygon
           transform="matrix(0.59122232,0,0,0.59122232,3273.7577,646.32176)"
           id="polygon18111"
           points="818,390.294 719.6,292.194 749.6,262.294 878,390.294 749.6,518.294 719.6,488.394 "
           style="fill:#008fe1" />
        <path
           id="path18137"
           d="m 3533.0678,881.21061 h 23.6489 v -23.64889 h -23.6489 z m 118.7174,-23.64889 h -23.6489 v 23.64889 h 23.6489 z m -71.1832,23.64889 h 23.6489 v -23.64889 h -23.6489 z"
           inkscape:connector-curvature="0"
           style="fill:#008fe1;stroke-width:0.59122235" />
        <polygon
           transform="matrix(0.59122232,0,0,0.59122232,3273.7577,646.32176)"
           id="polygon18147"
           points="285.9,389.294 384.3,291.194 354.3,261.294 226,389.294 354.4,517.294 384.4,487.394 "
           style="fill:#008fe1" />
      </g>
    </g>
  </g>
</svg>
