<?xml version="1.0" encoding="UTF-8" standalone="no"?>
<!-- Created with Inkscape (http://www.inkscape.org/) -->

<svg
   xmlns:dc="http://purl.org/dc/elements/1.1/"
   xmlns:cc="http://creativecommons.org/ns#"
   xmlns:rdf="http://www.w3.org/1999/02/22-rdf-syntax-ns#"
   xmlns:svg="http://www.w3.org/2000/svg"
   xmlns="http://www.w3.org/2000/svg"
   xmlns:xlink="http://www.w3.org/1999/xlink"
   xmlns:sodipodi="http://sodipodi.sourceforge.net/DTD/sodipodi-0.dtd"
   xmlns:inkscape="http://www.inkscape.org/namespaces/inkscape"
   width="210mm"
   height="297mm"
   viewBox="0 0 210 297"
   version="1.1"
   id="svg2460"
   inkscape:version="0.92.4 (5da689c313, 2019-01-14)"
   sodipodi:docname="folder chart.svg">
  <defs
     id="defs2454">
    <marker
       inkscape:stockid="Arrow2Mend"
       orient="auto"
       refY="0.0"
       refX="0.0"
       id="Arrow2Mend"
       style="overflow:visible;"
       inkscape:isstock="true">
      <path
         id="path3980"
         style="fill-rule:evenodd;stroke-width:0.625;stroke-linejoin:round;stroke:#b7b6cc;stroke-opacity:1;fill:#b7b6cc;fill-opacity:1"
         d="M 8.7185878,4.0337352 L -2.2072895,0.016013256 L 8.7185884,-4.0017078 C 6.9730900,-1.6296469 6.9831476,1.6157441 8.7185878,4.0337352 z "
         transform="scale(0.6) rotate(180) translate(0,0)" />
    </marker>
    <marker
       inkscape:stockid="Arrow2Mstart"
       orient="auto"
       refY="0.0"
       refX="0.0"
       id="Arrow2Mstart"
       style="overflow:visible"
       inkscape:isstock="true">
      <path
         id="path3977"
         style="fill-rule:evenodd;stroke-width:0.625;stroke-linejoin:round;stroke:#b7b6cc;stroke-opacity:1;fill:#b7b6cc;fill-opacity:1"
         d="M 8.7185878,4.0337352 L -2.2072895,0.016013256 L 8.7185884,-4.0017078 C 6.9730900,-1.6296469 6.9831476,1.6157441 8.7185878,4.0337352 z "
         transform="scale(0.6) translate(0,0)" />
    </marker>
    <marker
       inkscape:stockid="Arrow1Lstart"
       orient="auto"
       refY="0.0"
       refX="0.0"
       id="Arrow1Lstart"
       style="overflow:visible"
       inkscape:isstock="true">
      <path
         id="path3953"
         d="M 0.0,0.0 L 5.0,-5.0 L -12.5,0.0 L 5.0,5.0 L 0.0,0.0 z "
         style="fill-rule:evenodd;stroke:#b7b6cc;stroke-width:1pt;stroke-opacity:1;fill:#b7b6cc;fill-opacity:1"
         transform="scale(0.8) translate(12.5,0)" />
    </marker>
    <marker
       inkscape:stockid="Arrow1Lend"
       orient="auto"
       refY="0.0"
       refX="0.0"
       id="marker11116"
       style="overflow:visible;"
       inkscape:isstock="true">
      <path
         id="path11114"
         d="M 0.0,0.0 L 5.0,-5.0 L -12.5,0.0 L 5.0,5.0 L 0.0,0.0 z "
         style="fill-rule:evenodd;stroke:#b7b6cc;stroke-width:1pt;stroke-opacity:1;fill:#b7b6cc;fill-opacity:1"
         transform="scale(0.8) rotate(180) translate(12.5,0)" />
    </marker>
    <marker
       inkscape:stockid="Arrow1Sstart"
       orient="auto"
       refY="0.0"
       refX="0.0"
       id="Arrow1Sstart"
       style="overflow:visible"
       inkscape:isstock="true">
      <path
         id="path3965"
         d="M 0.0,0.0 L 5.0,-5.0 L -12.5,0.0 L 5.0,5.0 L 0.0,0.0 z "
         style="fill-rule:evenodd;stroke:#b7b6cc;stroke-width:1pt;stroke-opacity:1;fill:#b7b6cc;fill-opacity:1"
         transform="scale(0.2) translate(6,0)" />
    </marker>
    <marker
       inkscape:isstock="true"
       style="overflow:visible;"
       id="marker6312"
       refX="0.0"
       refY="0.0"
       orient="auto"
       inkscape:stockid="Arrow1Send">
      <path
         transform="scale(0.2) rotate(180) translate(6,0)"
         style="fill-rule:evenodd;stroke:#b7b6cc;stroke-width:1pt;stroke-opacity:1;fill:#b7b6cc;fill-opacity:1"
         d="M 0.0,0.0 L 5.0,-5.0 L -12.5,0.0 L 5.0,5.0 L 0.0,0.0 z "
         id="path6310" />
    </marker>
    <marker
       inkscape:stockid="Arrow1Mend"
       orient="auto"
       refY="0.0"
       refX="0.0"
       id="Arrow1Mend"
       style="overflow:visible;"
       inkscape:isstock="true">
      <path
         id="path3962"
         d="M 0.0,0.0 L 5.0,-5.0 L -12.5,0.0 L 5.0,5.0 L 0.0,0.0 z "
         style="fill-rule:evenodd;stroke:#b7b6cc;stroke-width:1pt;stroke-opacity:1;fill:#b7b6cc;fill-opacity:1"
         transform="scale(0.4) rotate(180) translate(10,0)" />
    </marker>
    <marker
       inkscape:stockid="Arrow1Lend"
       orient="auto"
       refY="0.0"
       refX="0.0"
       id="Arrow1Lend"
       style="overflow:visible;"
       inkscape:isstock="true">
      <path
         id="path3956"
         d="M 0.0,0.0 L 5.0,-5.0 L -12.5,0.0 L 5.0,5.0 L 0.0,0.0 z "
         style="fill-rule:evenodd;stroke:#777777;stroke-width:1pt;stroke-opacity:1;fill:#777777;fill-opacity:1"
         transform="scale(0.8) rotate(180) translate(12.5,0)" />
    </marker>
    <marker
       inkscape:stockid="TriangleOutL"
       orient="auto"
       refY="0.0"
       refX="0.0"
       id="TriangleOutL"
       style="overflow:visible"
       inkscape:isstock="true">
      <path
         id="path4095"
         d="M 5.77,0.0 L -2.88,5.0 L -2.88,-5.0 L 5.77,0.0 z "
         style="fill-rule:evenodd;stroke:#777777;stroke-width:1pt;stroke-opacity:1;fill:#777777;fill-opacity:1"
         transform="scale(0.8)" />
    </marker>
    <linearGradient
       xlink:href="#f98c7255-8898-49c2-b340-75dadcc4ae5e"
       gradientTransform="translate(123.74,-187.29)"
       y2="464.42001"
       x2="450.42999"
       y1="726.27002"
       x1="450.42999"
       id="7820c60a-6dd2-4e9e-820c-a335a5d419d8" />
    <linearGradient
       gradientUnits="userSpaceOnUse"
       y2="132.32001"
       x2="819.92999"
       y1="598.64001"
       x1="819.92999"
       id="f98c7255-8898-49c2-b340-75dadcc4ae5e">
      <stop
         id="stop1740"
         stop-opacity="0.25"
         stop-color="gray"
         offset="0" />
      <stop
         id="stop1742"
         stop-opacity="0.12"
         stop-color="gray"
         offset="0.54" />
      <stop
         id="stop1744"
         stop-opacity="0.1"
         stop-color="gray"
         offset="1" />
    </linearGradient>
    <linearGradient
       xlink:href="#f98c7255-8898-49c2-b340-75dadcc4ae5e"
       gradientTransform="rotate(90,617.54,562.87)"
       y2="457.32001"
       x2="456.73999"
       y1="719.16998"
       x1="456.73999"
       id="0ab0c4d5-5a87-488b-b190-408bea02e292" />
    <linearGradient
       xlink:href="#f98c7255-8898-49c2-b340-75dadcc4ae5e"
       gradientTransform="rotate(90,643.61,568.06)"
       y2="463.92001"
       x2="476.5"
       y1="725.77002"
       x1="476.5"
       id="4f6991c1-2d70-49f7-ad45-4cbe0a2e669a" />
    <linearGradient
       xlink:href="#f98c7255-8898-49c2-b340-75dadcc4ae5e"
       gradientTransform="rotate(90,629.01,560.64)"
       y2="395.19"
       x2="476.17001"
       y1="658.02002"
       x1="476.17001"
       id="2353f27f-2b2f-460e-adf7-0d1e44be71db" />
    <linearGradient
       gradientUnits="userSpaceOnUse"
       y2="86.11"
       x2="397.74"
       y1="717.25"
       x1="397.74"
       id="27aa7b70-b106-4a00-be67-693c8380e41d">
      <stop
         id="stop3398"
         stop-opacity="0.25"
         stop-color="gray"
         offset="0" />
      <stop
         id="stop3400"
         stop-opacity="0.12"
         stop-color="gray"
         offset="0.54" />
      <stop
         id="stop3402"
         stop-opacity="0.1"
         stop-color="gray"
         offset="1" />
    </linearGradient>
    <linearGradient
       xlink:href="#27aa7b70-b106-4a00-be67-693c8380e41d"
       y2="209.65"
       x2="288.88"
       y1="378.44"
       x1="288.88"
       id="46a816da-c484-41ec-8a6f-fbf14454d910" />
    <linearGradient
       xlink:href="#27aa7b70-b106-4a00-be67-693c8380e41d"
       y2="223.1"
       x2="288.88"
       y1="328.29"
       x1="288.88"
       id="32b634d8-28f1-48d9-a868-f602a2cad942" />
    <clipPath
       transform="translate(-140.93 -67.23)"
       id="7a4c6aff-0be0-461b-a111-b3ae1b8fbf73">
      <rect
         fill="#fff"
         height="101.52"
         width="150.6"
         y="291.55"
         x="354.51"
         data-name="&lt;Rectangle&gt;"
         id="8cc91f6d-19b0-43cc-9c18-2faa83ac34ba" />
    </clipPath>
    <linearGradient
       xlink:href="#27aa7b70-b106-4a00-be67-693c8380e41d"
       y2="426.14"
       x2="288.88"
       y1="594.94"
       x1="288.88"
       id="38f1cb81-8fac-4205-a0ff-a33ac00d354c" />
    <linearGradient
       xlink:href="#27aa7b70-b106-4a00-be67-693c8380e41d"
       y2="439.6"
       x2="288.88"
       y1="544.79"
       x1="288.88"
       id="6fc01aaf-135e-403e-a209-43b2a4fe59f1" />
    <clipPath
       transform="translate(-140.93 -67.23)"
       id="79ce363a-d134-40e4-9f82-b96d04a36978">
      <rect
         fill="#fff"
         height="101.52"
         width="150.6"
         y="508.05"
         x="354.51"
         data-name="&lt;Rectangle&gt;"
         id="5b44e697-61fe-43bd-9a58-5f3e41301748" />
    </clipPath>
    <linearGradient
       xlink:href="#27aa7b70-b106-4a00-be67-693c8380e41d"
       gradientTransform="rotate(90,651.765,457.665)"
       y2="129.2"
       x2="671.57"
       y1="760.34"
       x1="671.57"
       id="54803c44-522d-4b9e-9a34-f1f7b43e8483" />
    <linearGradient
       xlink:href="#27aa7b70-b106-4a00-be67-693c8380e41d"
       gradientTransform="rotate(90,648.96,480.55)"
       y2="387.28"
       x2="670.96"
       y1="553.63"
       x1="670.96"
       id="089a6a47-adaa-499b-aefb-cd6464b62fb8" />
    <linearGradient
       xlink:href="#27aa7b70-b106-4a00-be67-693c8380e41d"
       y2="601.05"
       x2="637.66"
       y1="754.12"
       x1="637.66"
       id="fd8d88e0-7826-450d-9e0b-001d1be709c2"
       gradientTransform="matrix(0.26458333,0,0,0.26458333,76.602897,88.95868)" />
    <linearGradient
       xlink:href="#27aa7b70-b106-4a00-be67-693c8380e41d"
       y2="569.13"
       x2="778.37"
       y1="673.86"
       x1="778.37"
       id="8d1793c5-b76e-44e2-a52e-569460402331"
       gradientTransform="matrix(0.26458333,0,0,0.26458333,39.315168,71.170743)" />
    <linearGradient
       xlink:href="#27aa7b70-b106-4a00-be67-693c8380e41d"
       y2="713.66"
       x2="778.37"
       y1="774.41"
       x1="778.37"
       id="4745700d-8097-45ff-9f71-625443fc4ad8"
       gradientTransform="matrix(0.26458333,0,0,0.26458333,39.315168,71.170743)" />
    <linearGradient
       inkscape:collect="always"
       xlink:href="#27aa7b70-b106-4a00-be67-693c8380e41d"
       id="linearGradient3654"
       gradientUnits="userSpaceOnUse"
       x1="397.74"
       y1="717.25"
       x2="397.74"
       y2="86.11" />
    <linearGradient
       xlink:href="#27aa7b70-b106-4a00-be67-693c8380e41d"
       gradientTransform="rotate(90,32.472786,101.62808)"
       y2="387.28"
       x2="670.96002"
       y1="553.63"
       x1="670.96002"
       id="089a6a47-adaa-499b-aefb-cd6464b62fb8-0" />
    <marker
       inkscape:stockid="Arrow1Mend"
       orient="auto"
       refY="0"
       refX="0"
       id="Arrow1Mend-1"
       style="overflow:visible"
       inkscape:isstock="true">
      <path
         inkscape:connector-curvature="0"
         id="path3962-3"
         d="M 0,0 5,-5 -12.5,0 5,5 Z"
         style="fill:#b7b6cc;fill-opacity:1;fill-rule:evenodd;stroke:#b7b6cc;stroke-width:1.00000003pt;stroke-opacity:1"
         transform="matrix(-0.4,0,0,-0.4,-4,0)" />
    </marker>
    <linearGradient
       gradientUnits="userSpaceOnUse"
       x2="213.62"
       y1="486"
       x1="213.62"
       id="9b3bd20d-94b1-4b89-8689-3658f931a37a">
      <stop
         id="stop11400"
         stop-opacity="0.25"
         stop-color="gray"
         offset="0" />
      <stop
         id="stop11402"
         stop-opacity="0.12"
         stop-color="gray"
         offset="0.54" />
      <stop
         id="stop11404"
         stop-opacity="0.1"
         stop-color="gray"
         offset="1" />
    </linearGradient>
    <linearGradient
       xlink:href="#9b3bd20d-94b1-4b89-8689-3658f931a37a"
       y2="362"
       x2="227.62"
       y1="373"
       x1="227.62"
       id="3648b6f2-24b3-4612-9b51-2b94a6a7f037"
       gradientTransform="translate(32.324882,169.70563)" />
    <linearGradient
       xlink:href="#9b3bd20d-94b1-4b89-8689-3658f931a37a"
       y2="418"
       x2="227.62"
       y1="429"
       x1="227.62"
       id="b464c917-b78b-4380-985f-dbae11a5e44a"
       gradientTransform="translate(32.324882,169.70563)" />
    <linearGradient
       xlink:href="#9b3bd20d-94b1-4b89-8689-3658f931a37a"
       y2="418"
       x2="329.62"
       y1="429"
       x1="329.62"
       id="72466b91-2539-4c80-b1ac-c07906bc8925"
       gradientTransform="translate(32.324882,169.70563)" />
    <linearGradient
       xlink:href="#9b3bd20d-94b1-4b89-8689-3658f931a37a"
       y2="72"
       x2="336.62"
       y1="83"
       x1="336.62"
       id="78890ed7-d917-4391-91b4-37ee3fc8ca06"
       gradientTransform="translate(32.324882,169.70563)" />
    <linearGradient
       xlink:href="#9b3bd20d-94b1-4b89-8689-3658f931a37a"
       y2="87"
       x2="336.62"
       y1="98"
       x1="336.62"
       id="d0ac5340-3428-4a2e-9340-0c5bb4adc0ec"
       gradientTransform="translate(32.324882,169.70563)" />
    <linearGradient
       xlink:href="#9b3bd20d-94b1-4b89-8689-3658f931a37a"
       y2="102"
       x2="336.62"
       y1="113"
       x1="336.62"
       id="7bf349c6-21a0-4377-b038-17309d0b4fe9"
       gradientTransform="translate(32.324882,169.70563)" />
    <linearGradient
       xlink:href="#9b3bd20d-94b1-4b89-8689-3658f931a37a"
       y2="117"
       x2="336.62"
       y1="128"
       x1="336.62"
       id="310c22dd-2978-41dd-b208-5581767f53d7"
       gradientTransform="translate(32.324882,169.70563)" />
    <linearGradient
       xlink:href="#9b3bd20d-94b1-4b89-8689-3658f931a37a"
       y2="182"
       x2="214.12"
       y1="332"
       x1="214.12"
       id="9f8eec2a-ad59-4d16-9789-23c241b0441e"
       gradientTransform="translate(32.324882,169.70563)" />
    <linearGradient
       xlink:href="#9b3bd20d-94b1-4b89-8689-3658f931a37a"
       gradientTransform="translate(-168.42527,96.842493)"
       y2="283.3"
       x2="383.9"
       y1="435.3"
       x1="383.9"
       id="f597f65b-8391-4099-8606-ddd6c1074545" />
    <linearGradient
       xlink:href="#9b3bd20d-94b1-4b89-8689-3658f931a37a"
       gradientTransform="translate(-168.43541,96.845261)"
       y2="307.3"
       x2="442.9"
       y1="321.3"
       x1="442.9"
       id="536b70eb-a08e-4f57-b7a7-caae76ee659a" />
    <linearGradient
       xlink:href="#9b3bd20d-94b1-4b89-8689-3658f931a37a"
       gradientTransform="translate(-168.42709,96.839667)"
       y2="303.3"
       x2="484.9"
       y1="317.3"
       x1="484.9"
       id="6a8945d3-e2ea-4790-bfb4-dc06924cb8b4" />
    <linearGradient
       xlink:href="#9b3bd20d-94b1-4b89-8689-3658f931a37a"
       y2="413.16"
       x2="547.96"
       y1="413.42"
       x1="547.96"
       id="1fa4c350-6ac8-4471-a2c1-5350628064fb" />
    <linearGradient
       xlink:href="#9b3bd20d-94b1-4b89-8689-3658f931a37a"
       y2="408.48"
       x2="517.63"
       y1="581.29"
       x1="517.63"
       id="4c1eb33a-694b-43df-a00c-843591e6cad6" />
    <linearGradient
       xlink:href="#9b3bd20d-94b1-4b89-8689-3658f931a37a"
       y2="423.02"
       x2="191.31"
       y1="423.33"
       x1="191.31"
       id="dca23823-ed36-4339-a791-14813e0bdcff" />
    <linearGradient
       xlink:href="#9b3bd20d-94b1-4b89-8689-3658f931a37a"
       y2="417.36"
       x2="228.23"
       y1="619.83"
       x1="228.23"
       id="88a18300-a7c9-44fe-be2f-c3664a6015d6" />
    <linearGradient
       xlink:href="#9b3bd20d-94b1-4b89-8689-3658f931a37a"
       y2="163.05"
       x2="692"
       y1="659.05"
       x1="692"
       id="9a3d7bb1-47c0-4ca8-a076-fba8f746a389" />
    <linearGradient
       xlink:href="#9b3bd20d-94b1-4b89-8689-3658f931a37a"
       y2="241.68"
       x2="595.12"
       y1="395.68"
       x1="595.12"
       id="89aca64f-6823-4107-b0e5-363f57c50e19"
       gradientTransform="translate(-10.101526,-6.0609153)" />
    <linearGradient
       xlink:href="#9b3bd20d-94b1-4b89-8689-3658f931a37a"
       y2="318.68"
       x2="788.12"
       y1="472.68"
       x1="788.12"
       id="244838b0-6b94-4a4f-974c-f4ebcd2d6e43"
       gradientTransform="translate(-10.101526,-6.0609153)" />
    <linearGradient
       xlink:href="#9b3bd20d-94b1-4b89-8689-3658f931a37a"
       y2="508.68"
       x2="696.12"
       y1="614.68"
       x1="696.12"
       id="a95129aa-3a9b-452b-80f4-39c8b969ae6a" />
    <linearGradient
       xlink:href="#9b3bd20d-94b1-4b89-8689-3658f931a37a"
       y2="351.15"
       x2="749.12"
       y1="475.15"
       x1="749.12"
       id="09992bb0-0588-4d4c-95c8-1ad271d94435"
       gradientTransform="translate(-164.60153,-100.54092)" />
    <linearGradient
       xlink:href="#9b3bd20d-94b1-4b89-8689-3658f931a37a"
       y2="344.68"
       x2="790.62"
       y1="362.68"
       x1="790.62"
       id="e976fbab-c7be-4f98-b33a-a56658b85843"
       gradientTransform="translate(-10.101526,-6.0609153)" />
    <linearGradient
       xlink:href="#9b3bd20d-94b1-4b89-8689-3658f931a37a"
       y2="677.68"
       x2="760.62"
       y1="699.68"
       x1="760.62"
       id="294b6eda-21ba-4cef-8333-d7c4aaac1d9e" />
    <linearGradient
       xlink:href="#9b3bd20d-94b1-4b89-8689-3658f931a37a"
       y2="566.68"
       x2="607.62"
       y1="687.68"
       x1="607.62"
       id="065b80c5-77d7-4835-9968-dbf0ab7011d1" />
    <linearGradient
       xlink:href="#9b3bd20d-94b1-4b89-8689-3658f931a37a"
       y2="648.68"
       x2="608.62"
       y1="648.68"
       x1="608.62"
       id="2a3369eb-9ffa-44ee-b4f3-0d72059a1e3a" />
    <linearGradient
       xlink:href="#9b3bd20d-94b1-4b89-8689-3658f931a37a"
       y2="590.68"
       x2="482.12"
       y1="645.68"
       x1="482.12"
       id="327d5fd3-480a-4895-a6c0-ce7eb7e65eff" />
    <linearGradient
       xlink:href="#9b3bd20d-94b1-4b89-8689-3658f931a37a"
       y2="677.68"
       x2="459.62"
       y1="699.68"
       x1="459.62"
       id="47ebed85-0f1a-4564-9c94-c36bbc13acdd" />
    <linearGradient
       xlink:href="#9b3bd20d-94b1-4b89-8689-3658f931a37a"
       y2="708.79"
       x2="600.65"
       y1="708.79"
       x1="486.35"
       id="2b699f83-9fbb-4b6d-8a24-a3f0d4476570" />
    <linearGradient
       xlink:href="#9b3bd20d-94b1-4b89-8689-3658f931a37a-5"
       y2="344.67999"
       x2="790.62"
       y1="362.67999"
       x1="790.62"
       id="e976fbab-c7be-4f98-b33a-a56658b85843-7"
       gradientTransform="translate(-246.28731,694.13835)" />
    <linearGradient
       gradientUnits="userSpaceOnUse"
       x2="213.62"
       y1="486"
       x1="213.62"
       id="9b3bd20d-94b1-4b89-8689-3658f931a37a-5">
      <stop
         id="stop11400-1"
         stop-opacity="0.25"
         stop-color="gray"
         offset="0" />
      <stop
         id="stop11402-3"
         stop-opacity="0.12"
         stop-color="gray"
         offset="0.54" />
      <stop
         id="stop11404-8"
         stop-opacity="0.1"
         stop-color="gray"
         offset="1" />
    </linearGradient>
    <linearGradient
       xlink:href="#9b3bd20d-94b1-4b89-8689-3658f931a37a-5"
       y2="351.14999"
       x2="749.12"
       y1="475.14999"
       x1="749.12"
       id="09992bb0-0588-4d4c-95c8-1ad271d94435-4"
       gradientTransform="translate(-400.78731,599.65834)" />
    <linearGradient
       gradientUnits="userSpaceOnUse"
       x2="213.62"
       y1="486"
       x1="213.62"
       id="linearGradient12103">
      <stop
         id="stop12097"
         stop-opacity="0.25"
         stop-color="gray"
         offset="0" />
      <stop
         id="stop12099"
         stop-opacity="0.12"
         stop-color="gray"
         offset="0.54" />
      <stop
         id="stop12101"
         stop-opacity="0.1"
         stop-color="gray"
         offset="1" />
    </linearGradient>
    <linearGradient
       xlink:href="#9b3bd20d-94b1-4b89-8689-3658f931a37a-5"
       y2="318.67999"
       x2="788.12"
       y1="472.67999"
       x1="788.12"
       id="244838b0-6b94-4a4f-974c-f4ebcd2d6e43-6"
       gradientTransform="translate(-246.28731,694.13835)" />
    <linearGradient
       gradientUnits="userSpaceOnUse"
       x2="213.62"
       y1="486"
       x1="213.62"
       id="linearGradient12112">
      <stop
         id="stop12106"
         stop-opacity="0.25"
         stop-color="gray"
         offset="0" />
      <stop
         id="stop12108"
         stop-opacity="0.12"
         stop-color="gray"
         offset="0.54" />
      <stop
         id="stop12110"
         stop-opacity="0.1"
         stop-color="gray"
         offset="1" />
    </linearGradient>
    <linearGradient
       xlink:href="#9b3bd20d-94b1-4b89-8689-3658f931a37a-5"
       y2="241.67999"
       x2="595.12"
       y1="395.67999"
       x1="595.12"
       id="89aca64f-6823-4107-b0e5-363f57c50e19-3"
       gradientTransform="translate(-246.28731,694.13835)" />
    <linearGradient
       gradientUnits="userSpaceOnUse"
       x2="213.62"
       y1="486"
       x1="213.62"
       id="linearGradient12121">
      <stop
         id="stop12115"
         stop-opacity="0.25"
         stop-color="gray"
         offset="0" />
      <stop
         id="stop12117"
         stop-opacity="0.12"
         stop-color="gray"
         offset="0.54" />
      <stop
         id="stop12119"
         stop-opacity="0.1"
         stop-color="gray"
         offset="1" />
    </linearGradient>
  </defs>
  <sodipodi:namedview
     id="base"
     pagecolor="#ffffff"
     bordercolor="#666666"
     borderopacity="1.0"
     inkscape:pageopacity="0.0"
     inkscape:pageshadow="2"
     inkscape:zoom="0.49497475"
     inkscape:cx="-21.363275"
     inkscape:cy="665.19479"
     inkscape:document-units="mm"
     inkscape:current-layer="layer1"
     showgrid="false"
     inkscape:window-width="1680"
     inkscape:window-height="987"
     inkscape:window-x="-8"
     inkscape:window-y="-8"
     inkscape:window-maximized="1" />
  <metadata
     id="metadata2457">
    <rdf:RDF>
      <cc:Work
         rdf:about="">
        <dc:format>image/svg+xml</dc:format>
        <dc:type
           rdf:resource="http://purl.org/dc/dcmitype/StillImage" />
        <dc:title></dc:title>
      </cc:Work>
    </rdf:RDF>
  </metadata>
  <g
     inkscape:label="Ebene 1"
     inkscape:groupmode="layer"
     id="layer1">
    <path
       id="path1870"
       d="m 47.186158,219.02218 a 3.6380208,3.6380208 0 0 1 -0.81227,-2.77019 l 11.678708,-95.55956 0.968375,-7.9375 a 3.6644792,3.6644792 0 0 1 3.608917,-3.21734 l 34.207979,-0.22754 a 3.6591875,3.6591875 0 0 0 3.635373,-3.75973 l -0.0132,-0.36248 a 3.6618333,3.6618333 0 0 1 3.65919,-3.78618 h 35.9463 a 3.6591875,3.6591875 0 0 1 3.65918,3.65125 3.90525,3.90525 0 0 1 -0.0318,0.49212 3.6591875,3.6591875 0 0 0 3.53484,4.14338 l 34.52283,0.88106 a 3.6565417,3.6565417 0 0 1 3.51367,4.27567 l -17.25877,100.80624 -0.32544,1.905 a 3.5798125,3.5798125 0 0 1 -0.52917,1.36525 z"
       inkscape:connector-curvature="0"
       style="fill:#b6c8d3;stroke-width:0.26458332;fill-opacity:1" />
    <path
       id="path2066"
       d="m 167.1456,218.90576 a 2.7278542,2.7278542 0 0 1 -1.75154,0.61912 l -118.207902,-0.5027 a 3.6380208,3.6380208 0 0 1 -0.81227,-2.77019 l 11.678708,-95.55956 7.323667,-0.0794 a 2.7675417,2.7675417 0 0 1 2.69875,2.04258 l 1.367895,5.04825 a 2.7675417,2.7675417 0 0 0 2.735792,2.04258 l 29.22852,-0.70114 a 2.7675417,2.7675417 0 0 0 2.7014,-2.76754 v -3.34434 a 2.7675417,2.7675417 0 0 1 2.73579,-2.76754 l 40.50242,-0.43656 a 2.7675417,2.7675417 0 0 1 2.74373,2.24631 l 17.91229,93.6625 0.11642,0.60325 a 2.7516667,2.7516667 0 0 1 -0.97367,2.66436 z"
       inkscape:connector-curvature="0"
       style="opacity:0.1;stroke-width:0.26458332" />
    <circle
       id="circle916"
       r="0.83608335"
       cy="326.68152"
       cx="-148.32457"
       style="opacity:0.1;stroke-width:0.26458332" />
    <g
       id="g3814"
       transform="matrix(0.17940602,0,0,0.17940602,19.735058,80.44807)">
      <g
         id="g3424"
         style="opacity:0.5">
        <rect
           id="rect3422"
           height="631.14001"
           width="469.69"
           y="86.110001"
           x="162.89999"
           style="fill:url(#linearGradient3654)" />
      </g>
      <rect
         id="rect3426"
         height="609.12"
         width="455.01001"
         y="94.669998"
         x="169.02"
         style="fill:#f2f2f2" />
      <rect
         id="rect3428"
         height="4.8899999"
         width="156.56"
         y="120.36"
         x="204.49001"
         style="fill:#e0e0e0" />
      <rect
         id="rect3430"
         height="4.8899999"
         width="156.56"
         y="142.37"
         x="204.49001"
         style="opacity:0.7;fill:#008fe1" />
      <rect
         id="rect3432"
         height="4.8899999"
         width="156.56"
         y="120.36"
         x="384.29001"
         style="fill:#e0e0e0" />
      <rect
         id="rect3434"
         height="4.8899999"
         width="156.56"
         y="259.79999"
         x="408.75"
         style="fill:#e0e0e0" />
      <rect
         id="rect3436"
         height="4.8899999"
         width="156.56"
         y="273.25"
         x="412.42001"
         style="fill:#e0e0e0" />
      <rect
         id="rect3438"
         height="4.8899999"
         width="156.56"
         y="286.70001"
         x="419.76001"
         style="fill:#e0e0e0" />
      <rect
         id="rect3440"
         height="4.8899999"
         width="156.56"
         y="476.29001"
         x="408.75"
         style="fill:#e0e0e0" />
      <rect
         id="rect3442"
         height="4.8899999"
         width="156.56"
         y="489.75"
         x="412.42001"
         style="fill:#e0e0e0" />
      <rect
         id="rect3444"
         height="4.8899999"
         width="156.56"
         y="503.20001"
         x="419.76001"
         style="fill:#e0e0e0" />
      <g
         id="g3448"
         style="opacity:0.5">
        <rect
           id="rect3446"
           height="168.78999"
           width="166.35001"
           y="209.64999"
           x="205.71001"
           style="fill:url(#46a816da-c484-41ec-8a6f-fbf14454d910)" />
      </g>
      <rect
         id="rect3450"
         height="161.45"
         width="163.72"
         y="213.32001"
         x="206.75999"
         style="fill:#f5f5f5" />
      <g
         id="g3454"
         style="opacity:0.5">
        <rect
           id="rect3452"
           height="105.19"
           width="152.7"
           y="223.10001"
           x="212.53"
           style="fill:url(#32b634d8-28f1-48d9-a868-f602a2cad942)" />
      </g>
      <rect
         height="101.52"
         width="150.60001"
         y="224.32001"
         x="213.58"
         data-name="&lt;Rectangle&gt;"
         id="689f37f3-cc41-448d-b172-63ec123bc985"
         style="fill:#ffffff" />
      <g
         id="g3461"
         clip-path="url(#7a4c6aff-0be0-461b-a111-b3ae1b8fbf73)">
        <polygon
           id="polygon3457"
           points="343.93,236.56 409.98,341.75 195.93,334.41 200.82,322.18 238.74,263.46 254.64,289.15 288.88,253.68 318.24,289.15 "
           style="opacity:0.4;fill:#008fe1" />
        <circle
           id="circle3459"
           r="11.01"
           cy="239"
           cx="230.17"
           style="opacity:0.4;fill:#008fe1" />
      </g>
      <g
         id="g3465"
         style="opacity:0.5">
        <rect
           id="rect3463"
           height="168.78999"
           width="166.35001"
           y="426.14001"
           x="205.71001"
           style="fill:url(#38f1cb81-8fac-4205-a0ff-a33ac00d354c)" />
      </g>
      <rect
         id="rect3467"
         height="161.45"
         width="163.72"
         y="429.81"
         x="206.75999"
         style="fill:#f5f5f5" />
      <g
         id="g3471"
         style="opacity:0.5">
        <rect
           id="rect3469"
           height="105.19"
           width="152.7"
           y="439.60001"
           x="212.53"
           style="fill:url(#6fc01aaf-135e-403e-a209-43b2a4fe59f1)" />
      </g>
      <rect
         height="101.52"
         width="150.60001"
         y="440.82001"
         x="213.58"
         data-name="&lt;Rectangle&gt;"
         id="b429ac3a-f8a8-4171-bcce-5b6c002c0714"
         style="fill:#ffffff" />
      <g
         id="g3478"
         clip-path="url(#79ce363a-d134-40e4-9f82-b96d04a36978)">
        <polygon
           id="polygon3474"
           points="343.93,453.05 409.98,558.24 195.93,550.9 200.82,538.67 238.74,479.96 254.64,505.65 288.88,470.18 318.24,505.65 "
           style="opacity:0.4;fill:#bdbdbd" />
        <circle
           id="circle3476"
           r="11.01"
           cy="455.5"
           cx="230.17"
           style="opacity:0.4;fill:#bdbdbd" />
      </g>
      <g
         id="g3482"
         style="opacity:0.5">
        <rect
           id="rect3480"
           transform="rotate(-78.76,553.21646,529.70407)"
           height="469.69"
           width="631.14001"
           y="242.63"
           x="349.09"
           style="fill:url(#54803c44-522d-4b9e-9a34-f1f7b43e8483)" />
      </g>
      <rect
         id="rect3484"
         transform="rotate(-78.76,552.48649,527.06578)"
         height="455.01001"
         width="609.12"
         y="247.33"
         x="359.37"
         style="fill:#ffffff" />
      <rect
         id="rect3486"
         transform="rotate(11.24,956.24791,-549.97929)"
         height="4.8899999"
         width="322.91"
         y="197.22"
         x="523.5"
         style="fill:#e0e0e0" />
      <rect
         id="rect3488"
         transform="rotate(11.24,866.05579,-96.406865)"
         height="4.8899999"
         width="322.91"
         y="650.70001"
         x="433.35999"
         style="fill:#e0e0e0" />
      <rect
         id="rect3490"
         transform="rotate(11.24,824.5628,-75.958058)"
         height="4.8899999"
         width="249.52"
         y="671.14001"
         x="428.57999"
         style="fill:#e0e0e0" />
      <rect
         id="rect3492"
         transform="rotate(11.24,742.3078,-63.605719)"
         height="4.8899999"
         width="92.959999"
         y="683.46997"
         x="424.60001"
         style="opacity:0.7;fill:#008fe1" />
      <rect
         id="rect3494"
         transform="rotate(11.24,871.53478,-538.10331)"
         height="4.8899999"
         width="161.45"
         y="209.08"
         x="519.57001"
         style="opacity:0.7;fill:#008fe1" />
      <rect
         id="rect3496"
         transform="rotate(11.24,929.67152,-497.85638)"
         height="4.8899999"
         width="291.10999"
         y="249.31"
         x="512.84003"
         style="fill:#e0e0e0" />
      <rect
         id="rect3498"
         transform="rotate(11.24,816.17717,-491.71588)"
         height="4.8899999"
         width="70.940002"
         y="255.44"
         x="509.47"
         style="opacity:0.7;fill:#3ad29f" />
      <rect
         id="rect3500"
         transform="rotate(11.24,934.27868,-439.56743)"
         height="4.8899999"
         width="322.91"
         y="307.59"
         x="501.56"
         style="fill:#e0e0e0" />
      <g
         id="g3504"
         style="opacity:0.5">
        <rect
           id="rect3502"
           transform="rotate(-78.76,547.60369,554.77623)"
           height="289.88"
           width="166.35001"
           y="357.60001"
           x="575.87"
           style="fill:url(#089a6a47-adaa-499b-aefb-cd6464b62fb8)" />
      </g>
      <rect
         id="rect3506"
         transform="rotate(11.24,930.43927,-247.623)"
         height="162.67999"
         width="286.22"
         y="420.60999"
         x="516.06"
         style="fill:#ffffff" />
      <rect
         id="rect3508"
         transform="rotate(11.24,928.78387,-411.98987)"
         height="4.8899999"
         width="322.91"
         y="335.17999"
         x="496.07999"
         style="fill:#e0e0e0" />
      <rect
         id="rect3510"
         transform="rotate(11.24,836.82783,-266.21773)"
         height="118.64"
         width="35.470001"
         y="424.01999"
         x="547.85999"
         style="fill:#008fe1" />
      <rect
         id="rect3512"
         transform="rotate(11.24,895.39486,-234.6321)"
         height="79.5"
         width="35.470001"
         y="475.19"
         x="606.42999"
         style="fill:#3ad29f" />
      <rect
         id="rect3514"
         transform="rotate(11.24,954.25837,-204.20431)"
         height="42.810001"
         width="35.470001"
         y="523.92999"
         x="665.22998"
         style="fill:#f55f44" />
      <rect
         id="rect3516"
         transform="rotate(11.24,1020.9169,-213.4315)"
         height="86.839996"
         width="35.470001"
         y="492.72"
         x="731.90997"
         style="fill:#fdd835" />
    </g>
    <path
       id="path2068"
       d="m 146.02391,121.05491 -40.50242,0.43656 a 2.7675417,2.7675417 0 0 0 -2.73844,2.76489 v 3.34698 a 2.7675417,2.7675417 0 0 1 -2.69875,2.7649 l -29.225871,0.70115 a 2.7648958,2.7648958 0 0 1 -2.738437,-2.04259 l -1.373188,-5.0456 a 2.7648958,2.7648958 0 0 0 -2.701395,-2.04259 l -39.039272,0.42069 a 2.7648958,2.7648958 0 0 0 -2.69875,3.22792 l 15.705667,92.43483 a 2.7675417,2.7675417 0 0 0 2.717271,2.30452 l 123.332875,0.52917 a 2.7675417,2.7675417 0 0 0 2.72786,-3.28613 l -18.02342,-94.26839 a 2.7648958,2.7648958 0 0 0 -2.74373,-2.24631 z"
       inkscape:connector-curvature="0"
       style="fill:#dce5ea;stroke-width:0.26458332;fill-opacity:1" />
    <g
       id="g12079"
       transform="matrix(0.26458333,0,0,0.26458333,-369.10523,-52.575655)">
      <g
         id="g12275"
         transform="matrix(1.0787829,0,0.16532382,1,1088.9327,-187.77986)">
        <rect
           style="fill:url(#89aca64f-6823-4107-b0e5-363f57c50e19-3)"
           x="276.33273"
           y="935.81836"
           width="145"
           height="154"
           id="rect11706" />
        <rect
           style="fill:#ffffff"
           x="279.33273"
           y="940.81836"
           width="139"
           height="144"
           id="rect11708" />
        <rect
           style="fill:url(#244838b0-6b94-4a4f-974c-f4ebcd2d6e43-6)"
           x="469.33273"
           y="1012.8184"
           width="145"
           height="154"
           id="rect11710" />
        <rect
           style="fill:#ffffff"
           x="472.33273"
           y="1017.8184"
           width="139"
           height="144"
           id="rect11712" />
        <path
           style="fill:url(#09992bb0-0588-4d4c-95c8-1ad271d94435-4)"
           inkscape:connector-curvature="0"
           d="m 395.30268,972.36834 a 62.000001,62.000001 0 1 0 15,40.44996 61.840001,61.840001 0 0 0 -15,-40.44996 z m -25,77.46996 a 43.000001,43.000001 0 1 1 21.08,-37 42.810001,42.810001 0 0 1 -21.05,37 z"
           id="path11720" />
        <path
           style="fill:#ff5252"
           inkscape:connector-curvature="0"
           d="m 379.38268,986.07834 13.65,-11.75 a 58.850001,58.850001 0 0 0 -44.7,-20.51 v 18 a 40.910001,40.910001 0 0 1 31.05,14.26 z"
           id="path11722" />
        <path
           style="fill:#69f0ae"
           inkscape:connector-curvature="0"
           d="m 348.33268,1053.8083 a 40.740001,40.740001 0 0 1 -16.92,-3.67 l -7.43,16.41 a 59.000001,59.000001 0 0 0 54.49,-3 l -9.2,-15.49 a 40.740001,40.740001 0 0 1 -20.94,5.75 z"
           id="path11724" />
        <path
           style="fill:#ff9800"
           inkscape:connector-curvature="0"
           d="m 407.33268,1012.8083 a 58.750001,58.750001 0 0 0 -14.3,-38.48996 l -13.65,11.75 a 40.930001,40.930001 0 0 1 -10.11,61.99996 l 9.2,15.49 a 59.000001,59.000001 0 0 0 28.86,-50.75 z"
           id="path11726" />
        <path
           style="fill:#008fe1"
           inkscape:connector-curvature="0"
           d="m 307.33268,1012.8083 a 41.000001,41.000001 0 0 1 41,-40.99996 v -18 a 59.000001,59.000001 0 0 0 -24.35,112.73996 l 7.43,-16.41 a 41.000001,41.000001 0 0 1 -24.08,-37.33 z"
           id="path11728" />
        <rect
           style="fill:url(#e976fbab-c7be-4f98-b33a-a56658b85843-7)"
           x="491.33273"
           y="1038.8184"
           width="106"
           height="18"
           id="rect11730" />
        <rect
           style="fill:#008fe1"
           x="492.33273"
           y="1039.8184"
           width="104"
           height="16"
           id="rect11732" />
        <rect
           style="fill:#ff5252"
           x="492.33273"
           y="1066.8184"
           width="76"
           height="16"
           id="rect11734" />
        <rect
           style="fill:#69f0ae"
           x="492.33273"
           y="1093.8184"
           width="52"
           height="16"
           id="rect11736" />
        <rect
           style="fill:#ff9800"
           x="492.33273"
           y="1120.8184"
           width="94"
           height="16"
           id="rect11738" />
        <rect
           style="fill:#f5f5f5"
           x="279.33273"
           y="1113.8184"
           width="149"
           height="9"
           id="rect11740" />
        <rect
           style="fill:#f5f5f5"
           x="279.33273"
           y="1128.8184"
           width="84"
           height="9"
           id="rect11742" />
        <rect
           style="fill:#f5f5f5"
           x="378.33273"
           y="1128.8184"
           width="29"
           height="9"
           id="rect11744" />
        <rect
           style="fill:#f5f5f5"
           x="378.33273"
           y="1161.8184"
           width="29"
           height="9"
           id="rect11746" />
        <rect
           style="fill:#f5f5f5"
           x="279.33273"
           y="1158.8184"
           width="84"
           height="9"
           id="rect11748" />
        <rect
           style="fill:#f5f5f5"
           x="279.33273"
           y="1143.8184"
           width="149"
           height="9"
           id="rect11750" />
        <rect
           style="fill:#f5f5f5"
           x="467.33273"
           y="936.81836"
           width="149"
           height="9"
           id="rect11752" />
        <rect
           style="fill:#f5f5f5"
           x="467.33273"
           y="951.81836"
           width="84"
           height="9"
           id="rect11754" />
        <rect
           style="fill:#f5f5f5"
           x="566.3327"
           y="951.81836"
           width="29"
           height="9"
           id="rect11756" />
        <rect
           style="fill:#f5f5f5"
           x="566.3327"
           y="984.81836"
           width="29"
           height="9"
           id="rect11758" />
        <rect
           style="fill:#f5f5f5"
           x="467.33273"
           y="981.81836"
           width="84"
           height="9"
           id="rect11760" />
        <rect
           style="fill:#f5f5f5"
           x="467.33273"
           y="966.81836"
           width="149"
           height="9"
           id="rect11762" />
      </g>
    </g>
  </g>
</svg>
