<?xml version="1.0" encoding="UTF-8" standalone="no"?>
<!-- Created with Inkscape (http://www.inkscape.org/) -->

<svg
   xmlns:dc="http://purl.org/dc/elements/1.1/"
   xmlns:cc="http://creativecommons.org/ns#"
   xmlns:rdf="http://www.w3.org/1999/02/22-rdf-syntax-ns#"
   xmlns:svg="http://www.w3.org/2000/svg"
   xmlns="http://www.w3.org/2000/svg"
   xmlns:xlink="http://www.w3.org/1999/xlink"
   xmlns:sodipodi="http://sodipodi.sourceforge.net/DTD/sodipodi-0.dtd"
   xmlns:inkscape="http://www.inkscape.org/namespaces/inkscape"
   width="28.306641mm"
   height="28.304689mm"
   viewBox="0 0 28.306641 28.30469"
   version="1.1"
   id="svg8243"
   sodipodi:docname="rian.svg"
   inkscape:version="0.92.4 (5da689c313, 2019-01-14)">
  <defs
     id="defs8237">
    <linearGradient
       inkscape:collect="always"
       id="linearGradient46896">
      <stop
         style="stop-color:#b6c8d3;stop-opacity:1"
         offset="0"
         id="stop46892" />
      <stop
         style="stop-color:#c6d4dd;stop-opacity:1"
         offset="1"
         id="stop46894" />
    </linearGradient>
    <linearGradient
       inkscape:collect="always"
       xlink:href="#linearGradient46896"
       id="linearGradient2293-5-2"
       x1="41.614494"
       y1="214.91046"
       x2="16.32023"
       y2="203.31096"
       gradientUnits="userSpaceOnUse"
       gradientTransform="translate(94.213961,-57.707819)" />
  </defs>
  <sodipodi:namedview
     id="base"
     pagecolor="#ffffff"
     bordercolor="#666666"
     borderopacity="1.0"
     inkscape:pageopacity="0.0"
     inkscape:pageshadow="2"
     inkscape:zoom="1"
     inkscape:cx="-362.89049"
     inkscape:cy="83.910465"
     inkscape:document-units="mm"
     inkscape:current-layer="layer1"
     showgrid="false"
     inkscape:window-width="1680"
     inkscape:window-height="987"
     inkscape:window-x="-8"
     inkscape:window-y="-8"
     inkscape:window-maximized="1"
     fit-margin-top="0"
     fit-margin-left="0"
     fit-margin-right="0"
     fit-margin-bottom="0" />
  <metadata
     id="metadata8240">
    <rdf:RDF>
      <cc:Work
         rdf:about="">
        <dc:format>image/svg+xml</dc:format>
        <dc:type
           rdf:resource="http://purl.org/dc/dcmitype/StillImage" />
        <dc:title></dc:title>
      </cc:Work>
    </rdf:RDF>
  </metadata>
  <g
     inkscape:label="Ebene 1"
     inkscape:groupmode="layer"
     id="layer1"
     transform="translate(-109.07477,-134.44423)">
    <path
       style="color:#000000;font-style:normal;font-variant:normal;font-weight:normal;font-stretch:normal;font-size:medium;line-height:normal;font-family:sans-serif;font-variant-ligatures:normal;font-variant-position:normal;font-variant-caps:normal;font-variant-numeric:normal;font-variant-alternates:normal;font-feature-settings:normal;text-indent:0;text-align:start;text-decoration:none;text-decoration-line:none;text-decoration-style:solid;text-decoration-color:#000000;letter-spacing:normal;word-spacing:normal;text-transform:none;writing-mode:lr-tb;direction:ltr;text-orientation:mixed;dominant-baseline:auto;baseline-shift:baseline;text-anchor:start;white-space:normal;shape-padding:0;clip-rule:nonzero;display:inline;overflow:visible;visibility:visible;opacity:1;isolation:auto;mix-blend-mode:normal;color-interpolation:sRGB;color-interpolation-filters:linearRGB;solid-color:#000000;solid-opacity:1;vector-effect:none;fill:url(#linearGradient2293-5-2);fill-opacity:1;fill-rule:nonzero;stroke:none;stroke-width:6.61458349;stroke-linecap:round;stroke-linejoin:round;stroke-miterlimit:4;stroke-dasharray:none;stroke-dashoffset:0;stroke-opacity:1;color-rendering:auto;image-rendering:auto;shape-rendering:auto;text-rendering:auto;enable-background:accumulate"
       d="m 112.38336,134.44423 c -1.82674,-5.4e-4 -3.30805,1.47989 -3.30859,3.30664 v 21.69141 c 5.4e-4,1.82675 1.48185,3.30718 3.30859,3.30664 h 21.68946 c 1.82674,5.3e-4 3.30805,-1.47989 3.30859,-3.30664 v -21.69141 c -5.4e-4,-1.82675 -1.48185,-3.30718 -3.30859,-3.30664 z"
       id="rect2266-5-4"
       inkscape:connector-curvature="0"
       sodipodi:nodetypes="ccccccccc" />
    <g
       transform="translate(58.816187,-29.832666)"
       id="g2487">
      <path
         style="fill:#ffffff;fill-opacity:1;stroke-width:0.06775732"
         d="m 64.859584,169.19982 -0.976258,1.04715 a 5.8162883,5.8162883 0 0 0 -1.231867,-0.64836 l 0.295126,-1.38707 -1.333486,-0.28349 -0.285498,1.34294 a 5.8162883,5.8162883 0 0 0 -1.670068,0.0279 l -0.438223,-1.34824 -1.29624,0.42139 0.42492,1.30761 a 5.8162883,5.8162883 0 0 0 -1.589298,0.99309 l -1.125134,-1.04896 -0.831767,0.89207 1.129054,1.05272 a 5.8162883,5.8162883 0 0 0 -0.80544,1.50674 l -1.39354,-0.27094 -0.259947,1.33787 1.345167,0.26145 a 5.8162883,5.8162883 0 0 0 0.07783,1.76501 l -1.317577,0.37869 0.375936,1.31041 1.36585,-0.39218 a 5.8162883,5.8162883 0 0 0 0.725505,1.18929 l -0.971586,1.04199 0.997096,0.9297 0.945479,-1.01403 a 5.8162883,5.8162883 0 0 0 1.523998,0.85769 l -0.295059,1.38914 1.333467,0.2834 0.285878,-1.34325 a 5.8162883,5.8162883 0 0 0 1.766143,-0.0458 l 0.35528,1.32611 1.316793,-0.35329 -0.366536,-1.36738 a 5.8162883,5.8162883 0 0 0 1.447873,-0.90988 l 1.126213,1.04999 0.831809,-0.89212 -1.121209,-1.04532 a 5.8223864,5.8223864 0 0 0 0.876741,-1.65885 l 1.334127,0.33244 0.330061,-1.3229 -1.382924,-0.34435 a 5.8223864,5.8223864 0 0 0 -0.08716,-1.66487 l 1.324172,-0.37988 -0.375987,-1.31044 -1.367217,0.39229 a 5.8223864,5.8223864 0 0 0 -0.960415,-1.46145 l 0.945403,-1.01402 z m -1.083568,2.42451 a 4.6644137,4.6644137 0 1 1 -6.591936,0.23012 4.6644137,4.6644137 0 0 1 6.591936,-0.23012 z"
         id="path65804-2-9-5-3"
         inkscape:connector-curvature="0" />
      <path
         style="fill:#ffffff;fill-opacity:1;stroke-width:0.05186997"
         d="m 71.615992,178.45192 -0.53196,0.95814 a 4.4525187,4.4525187 0 0 0 -1.03487,-0.2543 l -0.03684,-1.08497 -1.043005,0.0356 0.03583,1.05044 a 4.4525187,4.4525187 0 0 0 -1.235606,0.32904 l -0.57447,-0.92075 -0.885233,0.5524 0.55712,0.89301 a 4.4525187,4.4525187 0 0 0 -0.997412,1.03126 l -1.02955,-0.57162 -0.453252,0.81637 1.033145,0.57361 a 4.4525187,4.4525187 0 0 0 -0.320433,1.268 l -1.085328,0.056 0.05385,1.04198 1.047722,-0.0541 a 4.4525187,4.4525187 0 0 0 0.383644,1.29695 l -0.908986,0.52457 0.521282,0.9041 0.942298,-0.54352 a 4.4525187,4.4525187 0 0 0 0.758568,0.74961 l -0.529446,0.9536 0.912406,0.50657 0.515179,-0.9279 a 4.4525187,4.4525187 0 0 0 1.290603,0.35579 l 0.03729,1.08652 1.043007,-0.0356 -0.03563,-1.05077 a 4.4525187,4.4525187 0 0 0 1.303646,-0.36012 l 0.50876,0.91959 0.913076,-0.50549 -0.52479,-0.94828 a 4.4525187,4.4525187 0 0 0 0.907712,-0.94325 l 1.03054,0.57216 0.453251,-0.81637 -1.02595,-0.5696 a 4.457187,4.457187 0 0 0 0.344999,-1.39429 l 1.05252,6.3e-4 9.74e-4,-1.04378 -1.091,-4.6e-4 a 4.457187,4.457187 0 0 0 -0.372096,-1.22078 l 0.913617,-0.52669 -0.52124,-0.90417 -0.943331,0.54381 a 4.457187,4.457187 0 0 0 -0.983365,-0.90837 l 0.515179,-0.92791 z m -0.357363,2.00124 a 3.5707288,3.5707288 0 1 1 -4.854879,1.38801 3.5707288,3.5707288 0 0 1 4.854879,-1.38801 z"
         id="path65804-2-9-5-1-1"
         inkscape:connector-curvature="0" />
      <path
         style="fill:#ffffff;fill-opacity:1;stroke-width:0.0308355"
         d="m 72.018703,171.85507 -0.316254,0.56962 a 2.6469194,2.6469194 0 0 0 -0.615192,-0.15116 l -0.0219,-0.64503 -0.620018,0.0212 0.02129,0.62448 a 2.6469194,2.6469194 0 0 0 -0.73456,0.19554 l -0.341501,-0.54732 -0.526209,0.32841 0.331169,0.53085 a 2.6469194,2.6469194 0 0 0 -0.592928,0.61308 l -0.612079,-0.33984 -0.269442,0.4853 0.614187,0.341 a 2.6469194,2.6469194 0 0 0 -0.190452,0.7538 l -0.645204,0.0333 0.032,0.6194 0.62284,-0.0321 a 2.6469194,2.6469194 0 0 0 0.228048,0.77097 l -0.540337,0.31186 0.309821,0.53748 0.560216,-0.32313 a 2.6469194,2.6469194 0 0 0 0.450918,0.44562 l -0.314745,0.5669 0.542434,0.30116 0.30626,-0.55161 a 2.6469194,2.6469194 0 0 0 0.76724,0.21151 l 0.02215,0.64588 0.620048,-0.0211 -0.02117,-0.62468 a 2.6469194,2.6469194 0 0 0 0.774949,-0.21405 l 0.302478,0.54665 0.542829,-0.30054 -0.312001,-0.56368 a 2.6469194,2.6469194 0 0 0 0.539602,-0.56075 l 0.61263,0.34013 0.26944,-0.48529 -0.609849,-0.3386 a 2.6496944,2.6496944 0 0 0 0.205054,-0.82892 l 0.625684,4.3e-4 6.38e-4,-0.62049 -0.648573,-2.9e-4 a 2.6496944,2.6496944 0 0 0 -0.221206,-0.72576 l 0.54315,-0.31314 -0.309917,-0.53745 -0.560827,0.32331 a 2.6496944,2.6496944 0 0 0 -0.584533,-0.54012 l 0.306264,-0.55162 z m -0.212455,1.18977 a 2.1227156,2.1227156 0 1 1 -2.886098,0.82506 2.1227156,2.1227156 0 0 1 2.886098,-0.82506 z"
         id="path65804-2-9-5-19-6"
         inkscape:connector-curvature="0" />
    </g>
  </g>
</svg>
