<?xml version="1.0" encoding="UTF-8" standalone="no"?>
<!-- Created with Inkscape (http://www.inkscape.org/) -->

<svg
   xmlns:dc="http://purl.org/dc/elements/1.1/"
   xmlns:cc="http://creativecommons.org/ns#"
   xmlns:rdf="http://www.w3.org/1999/02/22-rdf-syntax-ns#"
   xmlns:svg="http://www.w3.org/2000/svg"
   xmlns="http://www.w3.org/2000/svg"
   xmlns:xlink="http://www.w3.org/1999/xlink"
   xmlns:sodipodi="http://sodipodi.sourceforge.net/DTD/sodipodi-0.dtd"
   xmlns:inkscape="http://www.inkscape.org/namespaces/inkscape"
   width="27.25527mm"
   height="25.191071mm"
   viewBox="0 0 27.25527 25.191071"
   version="1.1"
   id="svg8243"
   sodipodi:docname="nemoa.svg"
   inkscape:version="0.92.4 (5da689c313, 2019-01-14)">
  <defs
     id="defs8237">
    <linearGradient
       inkscape:collect="always"
       id="linearGradient46896">
      <stop
         style="stop-color:#b6c8d3;stop-opacity:1"
         offset="0"
         id="stop46892" />
      <stop
         style="stop-color:#c6d4dd;stop-opacity:1"
         offset="1"
         id="stop46894" />
    </linearGradient>
    <linearGradient
       inkscape:collect="always"
       xlink:href="#linearGradient46896"
       id="linearGradient12613-7"
       x1="-25.846079"
       y1="76.597244"
       x2="-30.324789"
       y2="69.235565"
       gradientUnits="userSpaceOnUse"
       gradientTransform="matrix(3.6960402,0,0,1.6805601,225.62855,58.901978)" />
  </defs>
  <sodipodi:namedview
     id="base"
     pagecolor="#ffffff"
     bordercolor="#666666"
     borderopacity="1.0"
     inkscape:pageopacity="0.0"
     inkscape:pageshadow="2"
     inkscape:zoom="1"
     inkscape:cx="-145.88337"
     inkscape:cy="195.42127"
     inkscape:document-units="mm"
     inkscape:current-layer="layer1"
     showgrid="false"
     inkscape:window-width="1680"
     inkscape:window-height="987"
     inkscape:window-x="-8"
     inkscape:window-y="-8"
     inkscape:window-maximized="1"
     fit-margin-top="0"
     fit-margin-left="0"
     fit-margin-right="0"
     fit-margin-bottom="0" />
  <metadata
     id="metadata8240">
    <rdf:RDF>
      <cc:Work
         rdf:about="">
        <dc:format>image/svg+xml</dc:format>
        <dc:type
           rdf:resource="http://purl.org/dc/dcmitype/StillImage" />
        <dc:title></dc:title>
      </cc:Work>
    </rdf:RDF>
  </metadata>
  <g
     inkscape:label="Ebene 1"
     inkscape:groupmode="layer"
     id="layer1"
     transform="translate(-109.46976,-167.06175)">
    <path
       style="fill:url(#linearGradient12613-7);fill-opacity:1;stroke-width:0.47463304"
       inkscape:connector-curvature="0"
       d="m 136.72501,169.55504 v 20.19961 c 0,1.37969 -1.06667,2.49817 -2.38245,2.49817 h -22.49035 c -1.31578,0 -2.38245,-1.11848 -2.38245,-2.49817 v -20.19961 c 0.007,-0.43931 0.12532,-0.86878 0.34304,-1.24422 0.42616,-0.77201 1.21192,-1.24784 2.06258,-1.24907 h 22.46721 c 1.31397,-3e-5 2.37987,1.11548 2.38244,2.49329 z"
       id="path66519-1-1-4"
       sodipodi:nodetypes="csccsccccc" />
    <path
       inkscape:connector-curvature="0"
       id="path65804-2-9-5"
       d="m 118.89994,172.87789 -0.34523,1.3894 a 5.8162882,5.8162882 0 0 0 -1.39173,0.0311 l -0.41527,-1.35595 -1.30346,0.39943 0.40227,1.3127 a 5.8162882,5.8162882 0 0 0 -1.44656,0.83509 l -1.03758,-0.96603 -0.92874,0.99762 1.00623,0.93697 a 5.8162882,5.8162882 0 0 0 -0.90745,1.6397 l -1.49286,-0.37093 -0.29419,1.18366 1.49812,0.37233 a 5.8162882,5.8162882 0 0 0 0.0272,1.70829 l -1.34987,0.43956 0.42215,1.29587 1.30297,-0.42438 a 5.8162882,5.8162882 0 0 0 0.9248,1.50534 l -0.96812,0.97065 0.96476,0.96319 1.00378,-1.00587 a 5.8162882,5.8162882 0 0 0 1.21159,0.68761 l -0.34365,1.38262 1.32303,0.32882 0.3344,-1.3455 a 5.8162882,5.8162882 0 0 0 1.74874,0.0101 l 0.41634,1.35774 1.3034,-0.3995 -0.40209,-1.31316 a 5.8162882,5.8162882 0 0 0 1.52186,-0.89739 l 0.95432,0.98694 0.97977,-0.94805 -0.9842,-1.01757 a 5.8162882,5.8162882 0 0 0 0.82419,-1.49831 l 1.49431,0.37132 0.2942,-1.18373 -1.48767,-0.36967 a 5.8223863,5.8223863 0 0 0 -0.0387,-1.87589 l 1.32778,-0.35695 -0.35358,-1.31681 -1.37622,0.37023 a 5.8223863,5.8223863 0 0 0 -0.88435,-1.41327 l 0.97331,-0.97489 -0.96482,-0.96319 -1.00492,1.00663 a 5.8223863,5.8223863 0 0 0 -1.54908,-0.81153 l 0.33434,-1.34545 z m 0.22953,2.64569 a 4.6644137,4.6644137 0 1 1 -5.65154,3.40098 4.6644137,4.6644137 0 0 1 5.65154,-3.40098 z"
       style="fill:#ffffff;fill-opacity:1;stroke-width:0.06775732" />
    <path
       inkscape:connector-curvature="0"
       id="path65804-2-9-5-1"
       d="m 129.29804,177.68726 v 1.0959 a 4.4525185,4.4525185 0 0 0 -1.02821,0.28001 l -0.55887,-0.93069 -0.89461,0.5374 0.54122,0.901 a 4.4525185,4.4525185 0 0 0 -0.92056,0.88744 l -0.94919,-0.52614 -0.50581,0.91265 0.92056,0.51032 a 4.4525185,4.4525185 0 0 0 -0.37144,1.38577 h -1.17759 v 0.93375 h 1.1817 a 4.4525185,4.4525185 0 0 0 0.33535,1.26414 l -0.92171,0.57578 0.55286,0.88485 0.88973,-0.55591 a 4.4525185,4.4525185 0 0 0 0.96496,0.94767 l -0.54008,0.89986 0.89461,0.53741 0.56001,-0.93259 a 4.4525185,4.4525185 0 0 0 1.02707,0.28715 v 1.09072 h 1.0436 v -1.06133 a 4.4525185,4.4525185 0 0 0 1.30106,-0.31541 l 0.56001,0.93184 0.89461,-0.5374 -0.5412,-0.90138 a 4.4525185,4.4525185 0 0 0 0.96495,-0.94766 l 0.89118,0.55703 0.55292,-0.88516 -0.91912,-0.57433 a 4.4525185,4.4525185 0 0 0 0.33574,-1.26528 h 1.17872 v -0.93375 h -1.17347 a 4.4571868,4.4571868 0 0 0 -0.37517,-1.38647 l 0.9205,-0.51037 -0.50581,-0.91303 -0.95407,0.52918 a 4.4571868,4.4571868 0 0 0 -0.9179,-0.8867 l 0.5431,-0.90396 -0.8946,-0.53748 -0.56077,0.93335 a 4.4571868,4.4571868 0 0 0 -1.30068,-0.31685 v -1.06133 z m 0.65898,1.92312 a 3.5707288,3.5707288 0 1 1 -3.5708,3.57013 3.5707288,3.5707288 0 0 1 3.5708,-3.57013 z"
       style="fill:#ffffff;fill-opacity:1;stroke-width:0.05186997" />
    <path
       inkscape:connector-curvature="0"
       id="path65804-2-9-5-19"
       d="m 126.44795,171.72424 v 0.65152 a 2.6469193,2.6469193 0 0 0 -0.61123,0.16646 l -0.33225,-0.5533 -0.53177,0.31952 0.32174,0.53564 a 2.6469193,2.6469193 0 0 0 -0.5473,0.52752 l -0.56424,-0.31274 -0.30065,0.54254 0.54722,0.30337 a 2.6469193,2.6469193 0 0 0 -0.2208,0.82381 h -0.70009 v 0.55508 h 0.7025 a 2.6469193,2.6469193 0 0 0 0.19939,0.75148 l -0.54792,0.34232 0.32864,0.52601 0.52892,-0.33047 a 2.6469193,2.6469193 0 0 0 0.57362,0.56336 l -0.32103,0.53494 0.53177,0.31952 0.33294,-0.55444 a 2.6469193,2.6469193 0 0 0 0.61054,0.17072 v 0.64841 h 0.62043 v -0.63093 a 2.6469193,2.6469193 0 0 0 0.77346,-0.1875 l 0.33288,0.55393 0.53184,-0.31946 -0.32173,-0.53588 a 2.6469193,2.6469193 0 0 0 0.57363,-0.5633 l 0.5298,0.3311 0.3287,-0.52626 -0.54639,-0.34136 a 2.6469193,2.6469193 0 0 0 0.19957,-0.75219 h 0.70072 v -0.55508 h -0.69754 a 2.6496945,2.6496945 0 0 0 -0.22309,-0.82425 l 0.54722,-0.30337 -0.30064,-0.5428 -0.56717,0.31459 a 2.6496945,2.6496945 0 0 0 -0.54569,-0.52715 l 0.32287,-0.53742 -0.53184,-0.31945 -0.33339,0.55489 a 2.6496945,2.6496945 0 0 0 -0.77321,-0.18844 v -0.63094 z m 0.39178,1.14333 a 2.1227156,2.1227156 0 1 1 -2.12279,2.12227 2.1227156,2.1227156 0 0 1 2.12279,-2.12227 z"
       style="fill:#ffffff;fill-opacity:1;stroke-width:0.0308355" />
  </g>
</svg>
