<?xml version="1.0" encoding="UTF-8" standalone="no"?>
<!-- Created with Inkscape (http://www.inkscape.org/) -->

<svg
   xmlns:dc="http://purl.org/dc/elements/1.1/"
   xmlns:cc="http://creativecommons.org/ns#"
   xmlns:rdf="http://www.w3.org/1999/02/22-rdf-syntax-ns#"
   xmlns:svg="http://www.w3.org/2000/svg"
   xmlns="http://www.w3.org/2000/svg"
   xmlns:xlink="http://www.w3.org/1999/xlink"
   xmlns:sodipodi="http://sodipodi.sourceforge.net/DTD/sodipodi-0.dtd"
   xmlns:inkscape="http://www.inkscape.org/namespaces/inkscape"
   width="90.290283mm"
   height="111.31273mm"
   viewBox="0 0 90.290281 111.31273"
   version="1.1"
   id="svg15219"
   inkscape:version="0.92.4 (5da689c313, 2019-01-14)"
   sodipodi:docname="deet-database.svg">
  <defs
     id="defs15213">
    <linearGradient
       gradientTransform="matrix(0.87716465,0,0,0.87716467,-3.2826956,-17.716569)"
       inkscape:collect="always"
       xlink:href="#linearGradient13135"
       id="linearGradient46930-8"
       x1="-26.821499"
       y1="46.089958"
       x2="-37.138023"
       y2="46.256996"
       gradientUnits="userSpaceOnUse" />
    <linearGradient
       inkscape:collect="always"
       id="linearGradient13135">
      <stop
         style="stop-color:#dce5ea;stop-opacity:1"
         offset="0"
         id="stop13131" />
      <stop
         style="stop-color:#ecf1f4;stop-opacity:1"
         offset="1"
         id="stop13133" />
    </linearGradient>
    <linearGradient
       gradientTransform="matrix(0.87716465,0,0,0.87716467,-3.2826896,-31.181258)"
       inkscape:collect="always"
       xlink:href="#linearGradient13135"
       id="linearGradient46930-7"
       x1="-26.123772"
       y1="45.950459"
       x2="-38.026043"
       y2="45.280491"
       gradientUnits="userSpaceOnUse" />
    <linearGradient
       inkscape:collect="always"
       xlink:href="#linearGradient13135"
       id="linearGradient47009"
       gradientUnits="userSpaceOnUse"
       x1="-29.260382"
       y1="-9.2923517"
       x2="-35.731491"
       y2="-10.614985"
       gradientTransform="matrix(0.87716465,0,0,0.87716467,-3.1986877,-3.079234)" />
  </defs>
  <sodipodi:namedview
     id="base"
     pagecolor="#ffffff"
     bordercolor="#666666"
     borderopacity="1.0"
     inkscape:pageopacity="0.0"
     inkscape:pageshadow="2"
     inkscape:zoom="0.69999999"
     inkscape:cx="199.42057"
     inkscape:cy="311.22884"
     inkscape:document-units="mm"
     inkscape:current-layer="g4373"
     showgrid="false"
     inkscape:window-width="1680"
     inkscape:window-height="987"
     inkscape:window-x="-8"
     inkscape:window-y="-8"
     inkscape:window-maximized="1"
     fit-margin-top="0"
     fit-margin-left="0"
     fit-margin-right="0"
     fit-margin-bottom="0" />
  <metadata
     id="metadata15216">
    <rdf:RDF>
      <cc:Work
         rdf:about="">
        <dc:format>image/svg+xml</dc:format>
        <dc:type
           rdf:resource="http://purl.org/dc/dcmitype/StillImage" />
        <dc:title />
      </cc:Work>
    </rdf:RDF>
  </metadata>
  <g
     inkscape:label="Ebene 1"
     inkscape:groupmode="layer"
     id="layer1"
     transform="translate(-57.529216,-90.515642)">
    <g
       style="fill:#000012;fill-opacity:1"
       id="g24563"
       transform="matrix(4.2136219,0,0,1.9159004,224.33168,119.77859)"
       inkscape:export-xdpi="96"
       inkscape:export-ydpi="96">
      <g
         id="g47509">
        <g
           id="g4373">
          <path
             inkscape:connector-curvature="0"
             style="fill:#ffffff;fill-opacity:1;stroke-width:1.32071054;stroke-miterlimit:4;stroke-dasharray:none"
             d="m -19.16932,-8.0125426 c 0,-4.4569794 -4.12242,-7.0987824 -9.959442,-7.0977764 l -4.4e-5,1.2e-5 c -5.837035,0.0012 -9.566149,2.643983 -9.566149,7.0998964 -0.01079,14.001108 -0.0507,27.8964636 -0.0507,42.2594256 0,2.41396 2.114502,7.317989 9.826586,7.00667 7.712091,-0.311304 9.831867,-4.591838 9.831867,-7.00667 0,-16.577668 -0.05325,-29.8903736 -0.08219,-42.2615576 z"
             id="path4692-5-9"
             sodipodi:nodetypes="cccccsccc" />
          <path
             inkscape:connector-curvature="0"
             style="fill:#a1b8c7;fill-opacity:1;stroke-width:1.32071054;stroke-miterlimit:4;stroke-dasharray:none"
             d="m -19.118226,-4.1067036 c 0,-4.454836 -4.338903,-8.0666424 -9.867677,-8.0666424 -5.525271,0.0018 -9.86592,3.6139384 -9.86592,8.0687864 V 13.941277 c 0,4.456992 4.340662,8.066654 9.867678,8.066666 5.527016,2.4e-5 9.865919,-3.60965 9.865919,-8.068761 z"
             id="path4692-5"
             sodipodi:nodetypes="ccccccc" />
          <path
             sodipodi:nodetypes="cczccczcc"
             inkscape:connector-curvature="0"
             style="fill:url(#linearGradient46930-8);fill-opacity:1;stroke:#b6c8d3;stroke-width:0.88850045;stroke-miterlimit:4;stroke-dasharray:none;stroke-opacity:1"
             d="m -18.602543,11.122581 c 0,-0.344726 -0.10438,-0.679812 -0.280688,-1.001728 -0.201752,1.768357 -2.578588,6.420303 -9.991787,6.575962 -7.413199,0.155658 -9.787398,-4.807605 -9.98827,-6.575091 -0.176309,0.321045 -0.278943,0.656131 -0.278943,1.000857 0,7.75714 0,15.514281 0,23.271421 0,2.41396 2.555122,8.28701 10.267213,7.975692 7.712097,-0.311317 10.272475,-5.560861 10.272475,-7.975692 0,-7.75714 0,-15.514281 0,-23.271421 z"
             id="path4690-4-5-1" />
          <path
             sodipodi:nodetypes="czcsszssc"
             inkscape:connector-curvature="0"
             style="fill:url(#linearGradient46930-7);fill-opacity:1;stroke:#b6c8d3;stroke-width:0.88850045;stroke-miterlimit:4;stroke-dasharray:none;stroke-opacity:1"
             d="m -18.883231,-3.3438358 c -0.201752,1.768368 -2.578588,6.420303 -9.991787,6.575961 -7.413199,0.155659 -9.787398,-4.807593 -9.98827,-6.575089 -0.176309,0.321044 -0.278943,0.656117 -0.278943,1.000844 v 9.315533 c 0,2.413959 2.555122,8.2870078 10.267213,7.9756788 7.712097,-0.311305 10.272475,-5.5608468 10.272475,-7.9756788 v -9.315533 c 0,-0.344727 -0.10438,-0.6798 -0.280688,-1.001716 z"
             id="path4690-4-5-7" />
          <path
             sodipodi:nodetypes="zzzzz"
             inkscape:connector-curvature="0"
             style="opacity:1;fill:url(#linearGradient47009);fill-opacity:1;stroke:#b6c8d3;stroke-width:0.88850045;stroke-miterlimit:4;stroke-dasharray:none;stroke-opacity:1"
             d="m -29.000837,1.3059589 c 5.782763,0.04876 10.289994,-3.6118059 10.289994,-8.0687969 0,-4.456981 -4.452972,-8.067661 -10.289994,-8.066643 -5.837035,0.0012 -10.006694,3.612872 -10.006694,8.068787 0,4.455913 4.223937,8.0178959 10.006694,8.0666529 z"
             id="path4692" />
          <g
             transform="matrix(0.23732552,0,0,0.52194781,-36.479022,-63.229295)"
             id="g5153">
            <g
               transform="matrix(0.95694252,0,0,0.95694252,1.1988284,7.5340315)"
               style="stroke:#a1b8c7;stroke-width:1;stroke-miterlimit:4;stroke-dasharray:none;stroke-opacity:1"
               id="g2482-4-0">
              <path
                 id="rect8084-9-0-3-1"
                 transform="matrix(0.26458333,0,0,0.26458333,19.566919,164.27689)"
                 d="m 14.541016,14.070312 c -1.5768,0 -2.845704,1.270838 -2.845704,2.847657 v 11.732422 c 0,1.576781 1.268904,2.845703 2.845704,2.845703 h 11.732422 c 1.576796,0 2.845703,-1.268922 2.845703,-2.845703 v -0.63086 L 52.416016,51.316406 H 29.119141 v -4.115234 c 0,-1.576781 -1.268907,-2.845703 -2.845703,-2.845703 H 14.541016 c -1.5768,0 -2.845704,1.268922 -2.845704,2.845703 v 11.732422 c 0,1.576819 1.268904,2.847656 2.845704,2.847656 h 11.732422 c 1.576796,0 2.845703,-1.270837 2.845703,-2.847656 V 55.095703 H 52.445312 L 29.119141,78.421875 v -0.800781 c 0,-1.576781 -1.268907,-2.845703 -2.845703,-2.845703 H 14.541016 c -1.5768,0 -2.845704,1.268922 -2.845704,2.845703 v 11.732422 c 0,1.576781 1.268904,2.845703 2.845704,2.845703 h 11.732422 c 1.576796,0 2.845703,-1.268922 2.845703,-2.845703 V 83.767578 L 57.789062,55.095703 h 20.076172 v 3.837891 c 0,1.576819 1.270857,2.847656 2.847657,2.847656 h 11.732421 c 1.5768,0 2.845704,-1.270837 2.845704,-2.847656 V 47.201172 c 0,-1.576781 -1.268904,-2.845703 -2.845704,-2.845703 H 80.712891 c -1.5768,0 -2.847657,1.268922 -2.847657,2.845703 v 4.115234 H 57.761719 L 29.119141,22.671875 v -5.753906 c 0,-1.576819 -1.268907,-2.847657 -2.845703,-2.847657 z"
                 style="opacity:1;vector-effect:none;fill:#ffffff;fill-opacity:1;stroke:#a1b8c7;stroke-width:3.77952766;stroke-linecap:butt;stroke-linejoin:miter;stroke-miterlimit:4;stroke-dasharray:none;stroke-dashoffset:0;stroke-opacity:1"
                 inkscape:connector-curvature="0" />
            </g>
            <g
               transform="matrix(0.95694252,0,0,0.95694252,1.1988284,7.5340315)"
               id="g2482-4-1">
              <path
                 id="rect8084-9-0-3-18"
                 transform="matrix(0.26458333,0,0,0.26458333,19.566919,164.27689)"
                 d="m 14.541016,14.070312 c -1.5768,0 -2.845704,1.270838 -2.845704,2.847657 v 11.732422 c 0,1.576781 1.268904,2.845703 2.845704,2.845703 h 11.732422 c 1.576796,0 2.845703,-1.268922 2.845703,-2.845703 v -0.63086 L 52.416016,51.316406 H 29.119141 v -4.115234 c 0,-1.576781 -1.268907,-2.845703 -2.845703,-2.845703 H 14.541016 c -1.5768,0 -2.845704,1.268922 -2.845704,2.845703 v 11.732422 c 0,1.576819 1.268904,2.847656 2.845704,2.847656 h 11.732422 c 1.576796,0 2.845703,-1.270837 2.845703,-2.847656 V 55.095703 H 52.445312 L 29.119141,78.421875 v -0.800781 c 0,-1.576781 -1.268907,-2.845703 -2.845703,-2.845703 H 14.541016 c -1.5768,0 -2.845704,1.268922 -2.845704,2.845703 v 11.732422 c 0,1.576781 1.268904,2.845703 2.845704,2.845703 h 11.732422 c 1.576796,0 2.845703,-1.268922 2.845703,-2.845703 V 83.767578 L 57.789062,55.095703 h 20.076172 v 3.837891 c 0,1.576819 1.270857,2.847656 2.847657,2.847656 h 11.732421 c 1.5768,0 2.845704,-1.270837 2.845704,-2.847656 V 47.201172 c 0,-1.576781 -1.268904,-2.845703 -2.845704,-2.845703 H 80.712891 c -1.5768,0 -2.847657,1.268922 -2.847657,2.845703 v 4.115234 H 57.761719 L 29.119141,22.671875 v -5.753906 c 0,-1.576819 -1.268907,-2.847657 -2.845703,-2.847657 z"
                 style="opacity:1;vector-effect:none;fill:#ffffff;fill-opacity:1;stroke:none;stroke-width:0;stroke-linecap:butt;stroke-linejoin:miter;stroke-miterlimit:4;stroke-dasharray:none;stroke-dashoffset:0;stroke-opacity:1"
                 inkscape:connector-curvature="0" />
            </g>
          </g>
        </g>
      </g>
    </g>
  </g>
</svg>
