<?xml version="1.0" encoding="UTF-8"?>
<svg width="433.49mm" height="254.62mm" version="1.1" viewBox="0 0 433.48889 254.62093" xmlns="http://www.w3.org/2000/svg" xmlns:cc="http://creativecommons.org/ns#" xmlns:dc="http://purl.org/dc/elements/1.1/" xmlns:rdf="http://www.w3.org/1999/02/22-rdf-syntax-ns#" xmlns:xlink="http://www.w3.org/1999/xlink">
<defs>
<marker id="k" overflow="visible" orient="auto">
<path transform="scale(.6)" d="m8.7186 4.0337-10.926-4.0177 10.926-4.0177c-1.7455 2.3721-1.7354 5.6175-6e-7 8.0354z" fill="#4b6a7d" fill-rule="evenodd" stroke="#4b6a7d" stroke-linejoin="round" stroke-width=".625"/>
</marker>
<marker id="l" overflow="visible" orient="auto">
<path transform="scale(-.6)" d="m8.7186 4.0337-10.926-4.0177 10.926-4.0177c-1.7455 2.3721-1.7354 5.6175-6e-7 8.0354z" fill="#4b6a7d" fill-rule="evenodd" stroke="#4b6a7d" stroke-linejoin="round" stroke-width=".625"/>
</marker>
<linearGradient id="a">
<stop stop-color="#dce5ea" offset="0"/>
<stop stop-color="#ecf1f4" offset="1"/>
</linearGradient>
<linearGradient id="b">
<stop stop-color="#b6c8d3" offset="0"/>
<stop stop-color="#c6d4dd" offset="1"/>
</linearGradient>
<linearGradient id="i" x1="819.93" x2="819.93" y1="598.64" y2="132.32" gradientUnits="userSpaceOnUse">
<stop stop-color="#c6d4dd" offset="0"/>
<stop stop-color="#b6c8d3" offset="1"/>
</linearGradient>
<linearGradient id="j" x1="99.385" x2="76.285" y1="129.78" y2="126.78" gradientUnits="userSpaceOnUse" xlink:href="#b"/>
<linearGradient id="h" x1="446.97" x2="355.97" y1="696.57" y2="576.3" gradientTransform="scale(.26458)" gradientUnits="userSpaceOnUse" xlink:href="#b"/>
<linearGradient id="n" x1="86.551" x2="76.285" y1="131.98" y2="126.85" gradientTransform="matrix(1.0262 0 0 1.4865 -2.0599 -43.357)" gradientUnits="userSpaceOnUse" xlink:href="#a"/>
<linearGradient id="o" x1="86.551" x2="76.285" y1="131.98" y2="126.85" gradientTransform="matrix(1.0262 0 0 1.4865 10.742 -43.357)" gradientUnits="userSpaceOnUse" xlink:href="#a"/>
<linearGradient id="m" x1="86.551" x2="76.285" y1="131.98" y2="126.85" gradientTransform="matrix(1.0262 0 0 1.4865 23.493 -31.937)" gradientUnits="userSpaceOnUse" xlink:href="#a"/>
<linearGradient id="r" x1="96.781" x2="92.08" y1="162.2" y2="158.37" gradientTransform="matrix(1.1017 0 0 1.1017 -9.5562 -16.366)" gradientUnits="userSpaceOnUse" xlink:href="#a"/>
<linearGradient id="q" x1="112.75" x2="69.689" y1="79.098" y2="51.098" gradientTransform="matrix(.26458 0 0 .26458 69.972 121.16)" gradientUnits="userSpaceOnUse" xlink:href="#b"/>
<linearGradient id="p" x1="112.75" x2="69.689" y1="79.098" y2="51.098" gradientTransform="matrix(.26458 0 0 .26458 69.972 156.08)" gradientUnits="userSpaceOnUse" xlink:href="#b"/>
<linearGradient id="x" x1="658.24" x2="655.69" y1="542.88" y2="466.27" gradientUnits="userSpaceOnUse" xlink:href="#b"/>
<linearGradient id="v" x1="81.804" x2="81.813" y1="174.13" y2="165.39" gradientUnits="userSpaceOnUse" xlink:href="#b"/>
<linearGradient id="w" x1="95.302" x2="94.767" y1="176.93" y2="165.15" gradientUnits="userSpaceOnUse" xlink:href="#b"/>
<linearGradient id="u" x1="86.551" x2="76.285" y1="131.98" y2="126.85" gradientTransform="matrix(2.2501 0 0 .58445 -95.363 59.169)" gradientUnits="userSpaceOnUse" xlink:href="#a"/>
<linearGradient id="t" x1="86.551" x2="76.285" y1="131.98" y2="126.85" gradientTransform="matrix(3.5001 0 0 .58445 -190.72 65.698)" gradientUnits="userSpaceOnUse" xlink:href="#a"/>
<linearGradient id="s" x1="86.551" x2="76.285" y1="131.98" y2="126.85" gradientTransform="matrix(3.5001 0 0 .58445 -190.72 72.227)" gradientUnits="userSpaceOnUse" xlink:href="#a"/>
<linearGradient id="g" x1="-509.95" x2="-452.17" y1="-208.61" y2="-133.5" gradientTransform="matrix(.65517 0 0 .65049 587.42 273.2)" gradientUnits="userSpaceOnUse" xlink:href="#i"/>
<linearGradient id="f" x1="-551.95" x2="-455.6" y1="-184.21" y2="-248.14" gradientTransform="matrix(.8245 0 0 .81861 673.87 345.73)" gradientUnits="userSpaceOnUse" xlink:href="#i"/>
<linearGradient id="e" x1="-460.78" x2="-490.55" y1="-237.35" y2="-273.89" gradientTransform="matrix(.85657 0 0 .84119 692.92 342.26)" gradientUnits="userSpaceOnUse" xlink:href="#a"/>
<linearGradient id="d" x1="-460.78" x2="-490.55" y1="-237.35" y2="-273.89" gradientTransform="matrix(.85657 0 0 .84119 692.92 371.9)" gradientUnits="userSpaceOnUse" xlink:href="#a"/>
<linearGradient id="c" x1="-464.42" x2="-490.55" y1="-240.69" y2="-273.89" gradientTransform="matrix(.85657 0 0 .84119 692.81 401.88)" gradientUnits="userSpaceOnUse" xlink:href="#a"/>
</defs>
<metadata>
<rdf:RDF>
<cc:Work rdf:about="">
<dc:format>image/svg+xml</dc:format>
<dc:type rdf:resource="http://purl.org/dc/dcmitype/StillImage"/>
<dc:title/>
</cc:Work>
</rdf:RDF>
</metadata>
<g transform="translate(258.32 -29.551)">
<g transform="matrix(.56554 0 0 .56554 -4.4883 157.97)">
<path d="m221.5 92.977c-3.8976 0-5.8552 0.0208-6.4416 1.2022l-10.096 19.737 96.238-0.14798-10.078-19.568c-0.64535-1.2261-2.5756-1.2164-6.5045-1.2226z" fill="url(#g)" stroke-width=".20056"/>
<path d="m213.37 111.94h79.431c9.0196 0.014 9.0223 0.0181 9.0223 8.908v90.175c-0.0196 8.9445-0.12912 8.8784-9.137 8.8784h-79.487c-8.7932 0.0309-8.7896-0.13063-8.7896-9.0501l-1e-5 -90.011c0.0505-8.9212 4e-3 -8.9012 8.9613-8.9012z" fill="url(#f)" stroke-width=".2524"/>
<rect x="208.16" y="115.46" width="90.067" height="27.137" fill="url(#e)" stroke-width=".24606"/>
<rect x="215.56" y="119.5" width="3.4902" height="19.502" fill="#fff" stroke-width=".24606"/>
<g transform="matrix(.22663 0 0 .26715 206.62 107.73)" fill="#fff" opacity=".7">
<rect x="69.81" y="44.05" width="15.4" height="73" fill="#fff"/>
</g>
<g transform="matrix(.22663 0 0 .26715 206.62 107.73)" fill="#fff" opacity=".6">
<rect x="100.22" y="44.05" width="15.4" height="73" fill="#fff"/>
</g>
<g transform="matrix(.22663 0 0 .26715 206.62 107.73)" fill="#fff" opacity=".5">
<rect x="130.62" y="44.05" width="15.4" height="73" fill="#fff"/>
</g>
<g transform="matrix(.22663 0 0 .26715 206.62 107.73)" fill="#fff" opacity=".5">
<rect x="161.02" y="44.05" width="15.4" height="73" fill="#fff"/>
</g>
<g transform="matrix(.22663 0 0 .26715 206.62 107.73)" fill="#fff" opacity=".4">
<rect x="191.42" y="44.05" width="15.4" height="73" fill="#fff"/>
</g>
<circle cx="283.21" cy="129.58" r="3.2732" fill="#b6c8d3" stroke-width=".22663"/>
<rect x="208.16" y="145.1" width="90.067" height="27.137" fill="url(#d)" stroke-width=".24606"/>
<rect x="215.56" y="149.14" width="3.4902" height="19.502" fill="#fff" stroke-width=".24606"/>
<g transform="matrix(.22663 0 0 .26715 206.62 137.37)" fill="#fff" opacity=".7">
<rect x="69.81" y="44.05" width="15.4" height="73" fill="#fff"/>
</g>
<g transform="matrix(.22663 0 0 .26715 206.62 137.37)" fill="#fff" opacity=".6">
<rect x="100.22" y="44.05" width="15.4" height="73" fill="#fff"/>
</g>
<g transform="matrix(.22663 0 0 .26715 206.62 137.37)" fill="#fff" opacity=".5">
<rect x="130.62" y="44.05" width="15.4" height="73" fill="#fff"/>
</g>
<g transform="matrix(.22663 0 0 .26715 206.62 137.37)" fill="#fff" opacity=".5">
<rect x="161.02" y="44.05" width="15.4" height="73" fill="#fff"/>
</g>
<g transform="matrix(.22663 0 0 .26715 206.62 137.37)" fill="#fff" opacity=".4">
<rect x="191.42" y="44.05" width="15.4" height="73" fill="#fff"/>
</g>
<circle cx="283.21" cy="159.22" r="3.2732" fill="#b6c8d3" stroke-width=".22663"/>
<rect x="208.05" y="175.09" width="90.067" height="41.179" fill="url(#c)" stroke-width=".24606"/>
<rect x="215.45" y="179.12" width="3.4902" height="33.182" fill="#fff" stroke-width=".32096"/>
<g transform="matrix(.22663 0 0 .45454 206.51 159.1)" fill="#fff" opacity=".7">
<rect x="69.81" y="44.05" width="15.4" height="73" fill="#fff"/>
</g>
<g transform="matrix(.22663 0 0 .45454 206.51 159.1)" fill="#fff" opacity=".6">
<rect x="100.22" y="44.05" width="15.4" height="73" fill="#fff"/>
</g>
<g transform="matrix(.22663 0 0 .45454 206.51 159.1)" fill="#fff" opacity=".5">
<rect x="130.62" y="44.05" width="15.4" height="73" fill="#fff"/>
</g>
<g transform="matrix(.22663 0 0 .45454 206.51 159.1)" fill="#fff" opacity=".5">
<rect x="161.02" y="44.05" width="15.4" height="73" fill="#fff"/>
</g>
<g transform="matrix(.22663 0 0 .45454 206.51 159.1)" fill="#fff" opacity=".4">
<rect x="191.42" y="44.05" width="15.4" height="73" fill="#fff"/>
</g>
<g transform="matrix(1.4294 0 0 1.4294 143.67 -57.401)" stroke-linecap="square" stroke-opacity=".65161">
<g transform="matrix(.057631 0 0 .057631 84.664 169.05)" clip-path="url(#clip2)" fill="#a1b8c7" opacity=".5" stroke="#000" stroke-width="15.617">
<g fill="#a1b8c7" stroke="#000" stroke-linecap="square" stroke-opacity=".65161" stroke-width="15.617">
<path transform="matrix(4.591 0 0 4.591 -1162.8 -93.105)" d="m287.98 11.568c-6.2037 0-11.297 5.0859-11.297 11.291 0 1.2398 0.27026 2.4043 0.64453 3.5176l-14.643 10.641c-1.8152-1.251-3.9192-2.1289-6.2812-2.1289-6.2037 0-11.291 5.0854-11.291 11.289 0 6.1429 4.9914 11.181 11.113 11.279l5.4414 16.746c-2.8867 2.0492-4.8399 5.3409-4.8398 9.1289 0 6.2037 5.0862 11.293 11.291 11.293 4.9263 0 9.0055-3.2629 10.537-7.6973h18.59c1.4651 4.5456 5.5884 7.9199 10.596 7.9199 6.2052 0 11.289-5.0912 11.289-11.295 0-3.8026-1.9658-7.1022-4.8711-9.1484l5.7266-17.623c6.1085-0.11449 11.082-5.1426 11.082-11.275 0-6.2037-5.0854-11.291-11.289-11.291-2.6056 0-4.899 1.0548-6.8144 2.5508l-14.328-10.412c0.36934-1.1066 0.63477-2.2622 0.63477-3.4941 0-6.2037-5.0873-11.291-11.291-11.291zm6.6797 20.227 14.373 10.445c-0.32127 1.0398-0.55078 2.1211-0.55078 3.2656 0 0.1022 0.0222 0.18685 0.0254 0.28711l-11.277 3.2578c-1.3639-2.1506-3.4019-3.7822-5.8516-4.625l-6e-3 -10.938c1.2029-0.38742 2.2969-0.9506 3.2871-1.6934zm-13.342 0.01367c0.99757 0.74439 2.0991 1.3086 3.3106 1.6934l0.01 10.783c-2.6136 0.76423-4.8025 2.417-6.2598 4.6484l-10.721-3.0898c-0.0386-1.258-0.32386-2.4415-0.7461-3.5664zm-16.609 19.131-0.0664 0.4668-0.11133-0.17773c0.06-0.09596 0.1211-0.19088 0.17774-0.28906zm46.104 1.2051c0.76511 1.0278 1.6796 1.898 2.7422 2.6152l-5.6875 17.506c-9e-3 -3.5e-5 -0.0161-2e-3 -0.0254-2e-3 -1.2073 0-2.3432 0.25388-3.4316 0.60938l-7.7773-11.174c1.3241-1.757 2.2591-3.8154 2.3691-6.1465zm-45.109 0.14844 10.807 3.1172c0.0879 2.5555 1.0457 4.8806 2.5684 6.7344l-7.3691 10.566c-1.1355-0.38942-2.3236-0.66797-3.5898-0.66797-0.0228 0-0.0418 0.0057-0.0645 0.0059l-5.4121-16.656c1.222-0.83218 2.2452-1.8661 3.0606-3.0996zm25.508 13.416 7.7363 11.113c-0.76709 1.0111-1.3465 2.1328-1.7402 3.3672h-18.391c-0.37409-1.2624-0.94077-2.4122-1.7031-3.4492l7.5937-10.889c0.97803 0.27854 1.9884 0.47656 3.0508 0.47656 1.2151 0 2.3587-0.25892 3.4531-0.61914z" color="#000000" color-rendering="auto" dominant-baseline="auto" fill="#a1b8c7" image-rendering="auto" opacity="1" shape-rendering="auto" solid-color="#000000" stroke="none" style="font-feature-settings:normal;font-variant-alternates:normal;font-variant-caps:normal;font-variant-ligatures:normal;font-variant-numeric:normal;font-variant-position:normal;isolation:auto;mix-blend-mode:normal;shape-padding:0;text-decoration-color:#000000;text-decoration-line:none;text-decoration-style:solid;text-indent:0;text-orientation:mixed;text-transform:none;white-space:normal"/>
<title>Strecke b_3</title>
<desc>Strecke b_3: Strecke B, C</desc>
</g>
</g>
<g transform="matrix(.057631 0 0 .057631 84.664 169.05)" clip-path="url(#clip2)" fill="#fff" stroke="#fff" stroke-width="17.352">
<g fill="#fff" stroke="#fff" stroke-linecap="square" stroke-opacity=".65161" stroke-width="17.352">
<path transform="matrix(4.0567 0 0 4.0567 -1740 -2537)" d="m468.19 617.45c-5.9726 0-10.859 4.879-10.859 10.852 0 1.6827 0.3991 3.272 1.0898 4.6973l-18.744 13.621c-1.9236-1.7215-4.4524-2.7793-7.2227-2.7793-5.9726 0-10.852 4.879-10.852 10.852s4.879 10.857 10.852 10.857c0.39976 0 0.7928-0.0257 1.1816-0.0684l7.0371 21.658c-3.4485 1.8218-5.8125 5.4442-5.8125 9.5996 0 5.9726 4.879 10.857 10.852 10.857 5.2382 0 9.6391-3.7574 10.643-8.7109h23.633c0.90478 5.0752 5.3546 8.9629 10.68 8.9629 5.9726 0 10.852-4.8868 10.852-10.859 0-4.1709-2.382-7.8022-5.8516-9.6172l7.3594-22.646c0.37865 0.0404 0.76148 0.0645 1.1504 0.0645 5.9726 0 10.852-4.8868 10.852-10.859s-4.879-10.852-10.852-10.852c-3.0392 0-5.7936 1.2689-7.7695 3.2969l-18.443-13.4c0.683-1.4195 1.0781-3.0001 1.0781-4.6738 0-5.9726-4.879-10.852-10.852-10.852zm7.5762 18.6 18.512 13.451c-0.61187 1.3553-0.96093 2.852-0.96093 4.4297 0 0.59252 0.0618 1.1709 0.15429 1.7383l-15.678 4.5254c-1.4297-3.092-4.2646-5.415-7.6816-6.1152l-0.01-15.1c2.181-0.39262 4.1399-1.4367 5.6641-2.9297zm-15.139 0.0176c1.5338 1.4938 3.504 2.5355 5.6953 2.9199l8e-3 15.006c-3.6111 0.54287-6.6456 2.8731-8.1738 6.0606l-14.898-4.2949c0.0347-0.35137 0.0547-0.70631 0.0547-1.0664 0-1.8441-0.46926-3.5833-1.2891-5.1074zm34.094 23.174c1.0763 1.9036 2.7099 3.4471 4.6758 4.4199l-7.3359 22.578c-0.45748-0.0593-0.92145-0.10156-1.3945-0.10156-1.6574 0-3.224 0.38615-4.6328 1.0566l-10.361-14.883c1.9287-1.9624 3.1249-4.6474 3.125-7.5996 0-0.29086-0.0222-0.57609-0.0449-0.86133zm-52.5 0.15039 14.918 4.3008c-0.0317 0.33628-0.0527 0.67525-0.0527 1.0195 0 3.1195 1.3404 5.9346 3.4629 7.9199l-10.037 14.393c-1.4508-0.72104-3.078-1.1367-4.8008-1.1367-0.48847 0-0.96574 0.0442-1.4375 0.10742l-7.0137-21.586c2.1584-1.0756 3.908-2.8463 4.9609-5.0176zm30.371 15.111 10.357 14.877c-1.5166 1.5355-2.5736 3.5184-2.9648 5.7266h-23.553c-0.34314-2.2453-1.3728-4.2666-2.877-5.8418l10.152-14.559c1.3016 0.55574 2.7311 0.86524 4.2305 0.86524 1.6651 0 3.2404-0.39115 4.6543-1.0684z" color="#000000" color-rendering="auto" dominant-baseline="auto" fill="#fff" image-rendering="auto" shape-rendering="auto" solid-color="#000000" stroke="none" style="font-feature-settings:normal;font-variant-alternates:normal;font-variant-caps:normal;font-variant-ligatures:normal;font-variant-numeric:normal;font-variant-position:normal;isolation:auto;mix-blend-mode:normal;shape-padding:0;text-decoration-color:#000000;text-decoration-line:none;text-decoration-style:solid;text-indent:0;text-orientation:mixed;text-transform:none;white-space:normal"/>
<title>Strecke b_3</title>
<desc>Strecke b_3: Strecke B, C</desc>
</g>
</g>
</g>
</g>
<g transform="matrix(.56554 0 0 .56554 1.2578 -23.031)">
<path d="m221.5 92.977c-3.8976 0-5.8552 0.0208-6.4416 1.2022l-10.096 19.737 96.238-0.14798-10.078-19.568c-0.64535-1.2261-2.5756-1.2164-6.5045-1.2226z" fill="url(#g)" stroke-width=".20056"/>
<path d="m213.37 111.94h79.431c9.0196 0.014 9.0223 0.0181 9.0223 8.908v90.175c-0.0196 8.9445-0.12912 8.8784-9.137 8.8784h-79.487c-8.7932 0.0309-8.7896-0.13063-8.7896-9.0501l-1e-5 -90.011c0.0505-8.9212 4e-3 -8.9012 8.9613-8.9012z" fill="url(#f)" stroke-width=".2524"/>
<rect x="208.16" y="115.46" width="90.067" height="27.137" fill="url(#e)" stroke-width=".24606"/>
<rect x="215.56" y="119.5" width="3.4902" height="19.502" fill="#fff" stroke-width=".24606"/>
<g transform="matrix(.22663 0 0 .26715 206.62 107.73)" fill="#fff" opacity=".7">
<rect x="69.81" y="44.05" width="15.4" height="73" fill="#fff"/>
</g>
<g transform="matrix(.22663 0 0 .26715 206.62 107.73)" fill="#fff" opacity=".6">
<rect x="100.22" y="44.05" width="15.4" height="73" fill="#fff"/>
</g>
<g transform="matrix(.22663 0 0 .26715 206.62 107.73)" fill="#fff" opacity=".5">
<rect x="130.62" y="44.05" width="15.4" height="73" fill="#fff"/>
</g>
<g transform="matrix(.22663 0 0 .26715 206.62 107.73)" fill="#fff" opacity=".5">
<rect x="161.02" y="44.05" width="15.4" height="73" fill="#fff"/>
</g>
<g transform="matrix(.22663 0 0 .26715 206.62 107.73)" fill="#fff" opacity=".4">
<rect x="191.42" y="44.05" width="15.4" height="73" fill="#fff"/>
</g>
<circle cx="283.21" cy="129.58" r="3.2732" fill="#b6c8d3" stroke-width=".22663"/>
<rect x="208.16" y="145.1" width="90.067" height="27.137" fill="url(#d)" stroke-width=".24606"/>
<rect x="215.56" y="149.14" width="3.4902" height="19.502" fill="#fff" stroke-width=".24606"/>
<g transform="matrix(.22663 0 0 .26715 206.62 137.37)" fill="#fff" opacity=".7">
<rect x="69.81" y="44.05" width="15.4" height="73" fill="#fff"/>
</g>
<g transform="matrix(.22663 0 0 .26715 206.62 137.37)" fill="#fff" opacity=".6">
<rect x="100.22" y="44.05" width="15.4" height="73" fill="#fff"/>
</g>
<g transform="matrix(.22663 0 0 .26715 206.62 137.37)" fill="#fff" opacity=".5">
<rect x="130.62" y="44.05" width="15.4" height="73" fill="#fff"/>
</g>
<g transform="matrix(.22663 0 0 .26715 206.62 137.37)" fill="#fff" opacity=".5">
<rect x="161.02" y="44.05" width="15.4" height="73" fill="#fff"/>
</g>
<g transform="matrix(.22663 0 0 .26715 206.62 137.37)" fill="#fff" opacity=".4">
<rect x="191.42" y="44.05" width="15.4" height="73" fill="#fff"/>
</g>
<circle cx="283.21" cy="159.22" r="3.2732" fill="#b6c8d3" stroke-width=".22663"/>
<rect x="208.05" y="175.09" width="90.067" height="41.179" fill="url(#c)" stroke-width=".24606"/>
<rect x="215.45" y="179.12" width="3.4902" height="33.182" fill="#fff" stroke-width=".32096"/>
<g transform="matrix(.22663 0 0 .45454 206.51 159.1)" fill="#fff" opacity=".7">
<rect x="69.81" y="44.05" width="15.4" height="73" fill="#fff"/>
</g>
<g transform="matrix(.22663 0 0 .45454 206.51 159.1)" fill="#fff" opacity=".6">
<rect x="100.22" y="44.05" width="15.4" height="73" fill="#fff"/>
</g>
<g transform="matrix(.22663 0 0 .45454 206.51 159.1)" fill="#fff" opacity=".5">
<rect x="130.62" y="44.05" width="15.4" height="73" fill="#fff"/>
</g>
<g transform="matrix(.22663 0 0 .45454 206.51 159.1)" fill="#fff" opacity=".5">
<rect x="161.02" y="44.05" width="15.4" height="73" fill="#fff"/>
</g>
<g transform="matrix(.22663 0 0 .45454 206.51 159.1)" fill="#fff" opacity=".4">
<rect x="191.42" y="44.05" width="15.4" height="73" fill="#fff"/>
</g>
<g transform="matrix(1.4294 0 0 1.4294 143.67 -57.401)" stroke-linecap="square" stroke-opacity=".65161">
<g transform="matrix(.057631 0 0 .057631 84.664 169.05)" clip-path="url(#clip2)" fill="#a1b8c7" opacity=".5" stroke="#000" stroke-width="15.617">
<g fill="#a1b8c7" stroke="#000" stroke-linecap="square" stroke-opacity=".65161" stroke-width="15.617">
<path transform="matrix(4.591 0 0 4.591 -1162.8 -93.105)" d="m287.98 11.568c-6.2037 0-11.297 5.0859-11.297 11.291 0 1.2398 0.27026 2.4043 0.64453 3.5176l-14.643 10.641c-1.8152-1.251-3.9192-2.1289-6.2812-2.1289-6.2037 0-11.291 5.0854-11.291 11.289 0 6.1429 4.9914 11.181 11.113 11.279l5.4414 16.746c-2.8867 2.0492-4.8399 5.3409-4.8398 9.1289 0 6.2037 5.0862 11.293 11.291 11.293 4.9263 0 9.0055-3.2629 10.537-7.6973h18.59c1.4651 4.5456 5.5884 7.9199 10.596 7.9199 6.2052 0 11.289-5.0912 11.289-11.295 0-3.8026-1.9658-7.1022-4.8711-9.1484l5.7266-17.623c6.1085-0.11449 11.082-5.1426 11.082-11.275 0-6.2037-5.0854-11.291-11.289-11.291-2.6056 0-4.899 1.0548-6.8144 2.5508l-14.328-10.412c0.36934-1.1066 0.63477-2.2622 0.63477-3.4941 0-6.2037-5.0873-11.291-11.291-11.291zm6.6797 20.227 14.373 10.445c-0.32127 1.0398-0.55078 2.1211-0.55078 3.2656 0 0.1022 0.0222 0.18685 0.0254 0.28711l-11.277 3.2578c-1.3639-2.1506-3.4019-3.7822-5.8516-4.625l-6e-3 -10.938c1.2029-0.38742 2.2969-0.9506 3.2871-1.6934zm-13.342 0.01367c0.99757 0.74439 2.0991 1.3086 3.3106 1.6934l0.01 10.783c-2.6136 0.76423-4.8025 2.417-6.2598 4.6484l-10.721-3.0898c-0.0386-1.258-0.32386-2.4415-0.7461-3.5664zm-16.609 19.131-0.0664 0.4668-0.11133-0.17773c0.06-0.09596 0.1211-0.19088 0.17774-0.28906zm46.104 1.2051c0.76511 1.0278 1.6796 1.898 2.7422 2.6152l-5.6875 17.506c-9e-3 -3.5e-5 -0.0161-2e-3 -0.0254-2e-3 -1.2073 0-2.3432 0.25388-3.4316 0.60938l-7.7773-11.174c1.3241-1.757 2.2591-3.8154 2.3691-6.1465zm-45.109 0.14844 10.807 3.1172c0.0879 2.5555 1.0457 4.8806 2.5684 6.7344l-7.3691 10.566c-1.1355-0.38942-2.3236-0.66797-3.5898-0.66797-0.0228 0-0.0418 0.0057-0.0645 0.0059l-5.4121-16.656c1.222-0.83218 2.2452-1.8661 3.0606-3.0996zm25.508 13.416 7.7363 11.113c-0.76709 1.0111-1.3465 2.1328-1.7402 3.3672h-18.391c-0.37409-1.2624-0.94077-2.4122-1.7031-3.4492l7.5937-10.889c0.97803 0.27854 1.9884 0.47656 3.0508 0.47656 1.2151 0 2.3587-0.25892 3.4531-0.61914z" color="#000000" color-rendering="auto" dominant-baseline="auto" fill="#a1b8c7" image-rendering="auto" opacity="1" shape-rendering="auto" solid-color="#000000" stroke="none" style="font-feature-settings:normal;font-variant-alternates:normal;font-variant-caps:normal;font-variant-ligatures:normal;font-variant-numeric:normal;font-variant-position:normal;isolation:auto;mix-blend-mode:normal;shape-padding:0;text-decoration-color:#000000;text-decoration-line:none;text-decoration-style:solid;text-indent:0;text-orientation:mixed;text-transform:none;white-space:normal"/>
<title>Strecke b_3</title>
<desc>Strecke b_3: Strecke B, C</desc>
</g>
</g>
<g transform="matrix(.057631 0 0 .057631 84.664 169.05)" clip-path="url(#clip2)" fill="#fff" stroke="#fff" stroke-width="17.352">
<g fill="#fff" stroke="#fff" stroke-linecap="square" stroke-opacity=".65161" stroke-width="17.352">
<path transform="matrix(4.0567 0 0 4.0567 -1740 -2537)" d="m468.19 617.45c-5.9726 0-10.859 4.879-10.859 10.852 0 1.6827 0.3991 3.272 1.0898 4.6973l-18.744 13.621c-1.9236-1.7215-4.4524-2.7793-7.2227-2.7793-5.9726 0-10.852 4.879-10.852 10.852s4.879 10.857 10.852 10.857c0.39976 0 0.7928-0.0257 1.1816-0.0684l7.0371 21.658c-3.4485 1.8218-5.8125 5.4442-5.8125 9.5996 0 5.9726 4.879 10.857 10.852 10.857 5.2382 0 9.6391-3.7574 10.643-8.7109h23.633c0.90478 5.0752 5.3546 8.9629 10.68 8.9629 5.9726 0 10.852-4.8868 10.852-10.859 0-4.1709-2.382-7.8022-5.8516-9.6172l7.3594-22.646c0.37865 0.0404 0.76148 0.0645 1.1504 0.0645 5.9726 0 10.852-4.8868 10.852-10.859s-4.879-10.852-10.852-10.852c-3.0392 0-5.7936 1.2689-7.7695 3.2969l-18.443-13.4c0.683-1.4195 1.0781-3.0001 1.0781-4.6738 0-5.9726-4.879-10.852-10.852-10.852zm7.5762 18.6 18.512 13.451c-0.61187 1.3553-0.96093 2.852-0.96093 4.4297 0 0.59252 0.0618 1.1709 0.15429 1.7383l-15.678 4.5254c-1.4297-3.092-4.2646-5.415-7.6816-6.1152l-0.01-15.1c2.181-0.39262 4.1399-1.4367 5.6641-2.9297zm-15.139 0.0176c1.5338 1.4938 3.504 2.5355 5.6953 2.9199l8e-3 15.006c-3.6111 0.54287-6.6456 2.8731-8.1738 6.0606l-14.898-4.2949c0.0347-0.35137 0.0547-0.70631 0.0547-1.0664 0-1.8441-0.46926-3.5833-1.2891-5.1074zm34.094 23.174c1.0763 1.9036 2.7099 3.4471 4.6758 4.4199l-7.3359 22.578c-0.45748-0.0593-0.92145-0.10156-1.3945-0.10156-1.6574 0-3.224 0.38615-4.6328 1.0566l-10.361-14.883c1.9287-1.9624 3.1249-4.6474 3.125-7.5996 0-0.29086-0.0222-0.57609-0.0449-0.86133zm-52.5 0.15039 14.918 4.3008c-0.0317 0.33628-0.0527 0.67525-0.0527 1.0195 0 3.1195 1.3404 5.9346 3.4629 7.9199l-10.037 14.393c-1.4508-0.72104-3.078-1.1367-4.8008-1.1367-0.48847 0-0.96574 0.0442-1.4375 0.10742l-7.0137-21.586c2.1584-1.0756 3.908-2.8463 4.9609-5.0176zm30.371 15.111 10.357 14.877c-1.5166 1.5355-2.5736 3.5184-2.9648 5.7266h-23.553c-0.34314-2.2453-1.3728-4.2666-2.877-5.8418l10.152-14.559c1.3016 0.55574 2.7311 0.86524 4.2305 0.86524 1.6651 0 3.2404-0.39115 4.6543-1.0684z" color="#000000" color-rendering="auto" dominant-baseline="auto" fill="#fff" image-rendering="auto" shape-rendering="auto" solid-color="#000000" stroke="none" style="font-feature-settings:normal;font-variant-alternates:normal;font-variant-caps:normal;font-variant-ligatures:normal;font-variant-numeric:normal;font-variant-position:normal;isolation:auto;mix-blend-mode:normal;shape-padding:0;text-decoration-color:#000000;text-decoration-line:none;text-decoration-style:solid;text-indent:0;text-orientation:mixed;text-transform:none;white-space:normal"/>
<title>Strecke b_3</title>
<desc>Strecke b_3: Strecke B, C</desc>
</g>
</g>
</g>
</g>
<g transform="matrix(.85655 0 0 .85655 -231.17 22.901)">
<path d="m221.5 92.977c-3.8976 0-5.8552 0.0208-6.4416 1.2022l-10.096 19.737 96.238-0.14798-10.078-19.568c-0.64535-1.2261-2.5756-1.2164-6.5045-1.2226z" fill="url(#g)" stroke-width=".20056"/>
<path d="m213.37 111.94h79.431c9.0196 0.014 9.0223 0.0181 9.0223 8.908v90.175c-0.0196 8.9445-0.12912 8.8784-9.137 8.8784h-79.487c-8.7932 0.0309-8.7896-0.13063-8.7896-9.0501l-1e-5 -90.011c0.0505-8.9212 4e-3 -8.9012 8.9613-8.9012z" fill="url(#f)" stroke-width=".2524"/>
<rect x="208.16" y="115.46" width="90.067" height="27.137" fill="url(#e)" stroke-width=".24606"/>
<rect x="215.56" y="119.5" width="3.4902" height="19.502" fill="#fff" stroke-width=".24606"/>
<g transform="matrix(.22663 0 0 .26715 206.62 107.73)" fill="#fff" opacity=".7">
<rect x="69.81" y="44.05" width="15.4" height="73" fill="#fff"/>
</g>
<g transform="matrix(.22663 0 0 .26715 206.62 107.73)" fill="#fff" opacity=".6">
<rect x="100.22" y="44.05" width="15.4" height="73" fill="#fff"/>
</g>
<g transform="matrix(.22663 0 0 .26715 206.62 107.73)" fill="#fff" opacity=".5">
<rect x="130.62" y="44.05" width="15.4" height="73" fill="#fff"/>
</g>
<g transform="matrix(.22663 0 0 .26715 206.62 107.73)" fill="#fff" opacity=".5">
<rect x="161.02" y="44.05" width="15.4" height="73" fill="#fff"/>
</g>
<g transform="matrix(.22663 0 0 .26715 206.62 107.73)" fill="#fff" opacity=".4">
<rect x="191.42" y="44.05" width="15.4" height="73" fill="#fff"/>
</g>
<circle cx="283.21" cy="129.58" r="3.2732" fill="#b6c8d3" stroke-width=".22663"/>
<rect x="208.16" y="145.1" width="90.067" height="27.137" fill="url(#d)" stroke-width=".24606"/>
<rect x="215.56" y="149.14" width="3.4902" height="19.502" fill="#fff" stroke-width=".24606"/>
<g transform="matrix(.22663 0 0 .26715 206.62 137.37)" fill="#fff" opacity=".7">
<rect x="69.81" y="44.05" width="15.4" height="73" fill="#fff"/>
</g>
<g transform="matrix(.22663 0 0 .26715 206.62 137.37)" fill="#fff" opacity=".6">
<rect x="100.22" y="44.05" width="15.4" height="73" fill="#fff"/>
</g>
<g transform="matrix(.22663 0 0 .26715 206.62 137.37)" fill="#fff" opacity=".5">
<rect x="130.62" y="44.05" width="15.4" height="73" fill="#fff"/>
</g>
<g transform="matrix(.22663 0 0 .26715 206.62 137.37)" fill="#fff" opacity=".5">
<rect x="161.02" y="44.05" width="15.4" height="73" fill="#fff"/>
</g>
<g transform="matrix(.22663 0 0 .26715 206.62 137.37)" fill="#fff" opacity=".4">
<rect x="191.42" y="44.05" width="15.4" height="73" fill="#fff"/>
</g>
<circle cx="283.21" cy="159.22" r="3.2732" fill="#b6c8d3" stroke-width=".22663"/>
<rect x="208.05" y="175.09" width="90.067" height="41.179" fill="url(#c)" stroke-width=".24606"/>
<rect x="215.45" y="179.12" width="3.4902" height="33.182" fill="#fff" stroke-width=".32096"/>
<g transform="matrix(.22663 0 0 .45454 206.51 159.1)" fill="#fff" opacity=".7">
<rect x="69.81" y="44.05" width="15.4" height="73" fill="#fff"/>
</g>
<g transform="matrix(.22663 0 0 .45454 206.51 159.1)" fill="#fff" opacity=".6">
<rect x="100.22" y="44.05" width="15.4" height="73" fill="#fff"/>
</g>
<g transform="matrix(.22663 0 0 .45454 206.51 159.1)" fill="#fff" opacity=".5">
<rect x="130.62" y="44.05" width="15.4" height="73" fill="#fff"/>
</g>
<g transform="matrix(.22663 0 0 .45454 206.51 159.1)" fill="#fff" opacity=".5">
<rect x="161.02" y="44.05" width="15.4" height="73" fill="#fff"/>
</g>
<g transform="matrix(.22663 0 0 .45454 206.51 159.1)" fill="#fff" opacity=".4">
<rect x="191.42" y="44.05" width="15.4" height="73" fill="#fff"/>
</g>
<g transform="matrix(1.4294 0 0 1.4294 143.67 -57.401)" stroke-linecap="square" stroke-opacity=".65161">
<g transform="matrix(.057631 0 0 .057631 84.664 169.05)" clip-path="url(#clip2)" fill="#a1b8c7" opacity=".5" stroke="#000" stroke-width="15.617">
<g fill="#a1b8c7" stroke="#000" stroke-linecap="square" stroke-opacity=".65161" stroke-width="15.617">
<path transform="matrix(4.591 0 0 4.591 -1162.8 -93.105)" d="m287.98 11.568c-6.2037 0-11.297 5.0859-11.297 11.291 0 1.2398 0.27026 2.4043 0.64453 3.5176l-14.643 10.641c-1.8152-1.251-3.9192-2.1289-6.2812-2.1289-6.2037 0-11.291 5.0854-11.291 11.289 0 6.1429 4.9914 11.181 11.113 11.279l5.4414 16.746c-2.8867 2.0492-4.8399 5.3409-4.8398 9.1289 0 6.2037 5.0862 11.293 11.291 11.293 4.9263 0 9.0055-3.2629 10.537-7.6973h18.59c1.4651 4.5456 5.5884 7.9199 10.596 7.9199 6.2052 0 11.289-5.0912 11.289-11.295 0-3.8026-1.9658-7.1022-4.8711-9.1484l5.7266-17.623c6.1085-0.11449 11.082-5.1426 11.082-11.275 0-6.2037-5.0854-11.291-11.289-11.291-2.6056 0-4.899 1.0548-6.8144 2.5508l-14.328-10.412c0.36934-1.1066 0.63477-2.2622 0.63477-3.4941 0-6.2037-5.0873-11.291-11.291-11.291zm6.6797 20.227 14.373 10.445c-0.32127 1.0398-0.55078 2.1211-0.55078 3.2656 0 0.1022 0.0222 0.18685 0.0254 0.28711l-11.277 3.2578c-1.3639-2.1506-3.4019-3.7822-5.8516-4.625l-6e-3 -10.938c1.2029-0.38742 2.2969-0.9506 3.2871-1.6934zm-13.342 0.01367c0.99757 0.74439 2.0991 1.3086 3.3106 1.6934l0.01 10.783c-2.6136 0.76423-4.8025 2.417-6.2598 4.6484l-10.721-3.0898c-0.0386-1.258-0.32386-2.4415-0.7461-3.5664zm-16.609 19.131-0.0664 0.4668-0.11133-0.17773c0.06-0.09596 0.1211-0.19088 0.17774-0.28906zm46.104 1.2051c0.76511 1.0278 1.6796 1.898 2.7422 2.6152l-5.6875 17.506c-9e-3 -3.5e-5 -0.0161-2e-3 -0.0254-2e-3 -1.2073 0-2.3432 0.25388-3.4316 0.60938l-7.7773-11.174c1.3241-1.757 2.2591-3.8154 2.3691-6.1465zm-45.109 0.14844 10.807 3.1172c0.0879 2.5555 1.0457 4.8806 2.5684 6.7344l-7.3691 10.566c-1.1355-0.38942-2.3236-0.66797-3.5898-0.66797-0.0228 0-0.0418 0.0057-0.0645 0.0059l-5.4121-16.656c1.222-0.83218 2.2452-1.8661 3.0606-3.0996zm25.508 13.416 7.7363 11.113c-0.76709 1.0111-1.3465 2.1328-1.7402 3.3672h-18.391c-0.37409-1.2624-0.94077-2.4122-1.7031-3.4492l7.5937-10.889c0.97803 0.27854 1.9884 0.47656 3.0508 0.47656 1.2151 0 2.3587-0.25892 3.4531-0.61914z" color="#000000" color-rendering="auto" dominant-baseline="auto" fill="#a1b8c7" image-rendering="auto" opacity="1" shape-rendering="auto" solid-color="#000000" stroke="none" style="font-feature-settings:normal;font-variant-alternates:normal;font-variant-caps:normal;font-variant-ligatures:normal;font-variant-numeric:normal;font-variant-position:normal;isolation:auto;mix-blend-mode:normal;shape-padding:0;text-decoration-color:#000000;text-decoration-line:none;text-decoration-style:solid;text-indent:0;text-orientation:mixed;text-transform:none;white-space:normal"/>
<title>Strecke b_3</title>
<desc>Strecke b_3: Strecke B, C</desc>
</g>
</g>
<g transform="matrix(.057631 0 0 .057631 84.664 169.05)" clip-path="url(#clip2)" fill="#fff" stroke="#fff" stroke-width="17.352">
<g fill="#fff" stroke="#fff" stroke-linecap="square" stroke-opacity=".65161" stroke-width="17.352">
<path transform="matrix(4.0567 0 0 4.0567 -1740 -2537)" d="m468.19 617.45c-5.9726 0-10.859 4.879-10.859 10.852 0 1.6827 0.3991 3.272 1.0898 4.6973l-18.744 13.621c-1.9236-1.7215-4.4524-2.7793-7.2227-2.7793-5.9726 0-10.852 4.879-10.852 10.852s4.879 10.857 10.852 10.857c0.39976 0 0.7928-0.0257 1.1816-0.0684l7.0371 21.658c-3.4485 1.8218-5.8125 5.4442-5.8125 9.5996 0 5.9726 4.879 10.857 10.852 10.857 5.2382 0 9.6391-3.7574 10.643-8.7109h23.633c0.90478 5.0752 5.3546 8.9629 10.68 8.9629 5.9726 0 10.852-4.8868 10.852-10.859 0-4.1709-2.382-7.8022-5.8516-9.6172l7.3594-22.646c0.37865 0.0404 0.76148 0.0645 1.1504 0.0645 5.9726 0 10.852-4.8868 10.852-10.859s-4.879-10.852-10.852-10.852c-3.0392 0-5.7936 1.2689-7.7695 3.2969l-18.443-13.4c0.683-1.4195 1.0781-3.0001 1.0781-4.6738 0-5.9726-4.879-10.852-10.852-10.852zm7.5762 18.6 18.512 13.451c-0.61187 1.3553-0.96093 2.852-0.96093 4.4297 0 0.59252 0.0618 1.1709 0.15429 1.7383l-15.678 4.5254c-1.4297-3.092-4.2646-5.415-7.6816-6.1152l-0.01-15.1c2.181-0.39262 4.1399-1.4367 5.6641-2.9297zm-15.139 0.0176c1.5338 1.4938 3.504 2.5355 5.6953 2.9199l8e-3 15.006c-3.6111 0.54287-6.6456 2.8731-8.1738 6.0606l-14.898-4.2949c0.0347-0.35137 0.0547-0.70631 0.0547-1.0664 0-1.8441-0.46926-3.5833-1.2891-5.1074zm34.094 23.174c1.0763 1.9036 2.7099 3.4471 4.6758 4.4199l-7.3359 22.578c-0.45748-0.0593-0.92145-0.10156-1.3945-0.10156-1.6574 0-3.224 0.38615-4.6328 1.0566l-10.361-14.883c1.9287-1.9624 3.1249-4.6474 3.125-7.5996 0-0.29086-0.0222-0.57609-0.0449-0.86133zm-52.5 0.15039 14.918 4.3008c-0.0317 0.33628-0.0527 0.67525-0.0527 1.0195 0 3.1195 1.3404 5.9346 3.4629 7.9199l-10.037 14.393c-1.4508-0.72104-3.078-1.1367-4.8008-1.1367-0.48847 0-0.96574 0.0442-1.4375 0.10742l-7.0137-21.586c2.1584-1.0756 3.908-2.8463 4.9609-5.0176zm30.371 15.111 10.357 14.877c-1.5166 1.5355-2.5736 3.5184-2.9648 5.7266h-23.553c-0.34314-2.2453-1.3728-4.2666-2.877-5.8418l10.152-14.559c1.3016 0.55574 2.7311 0.86524 4.2305 0.86524 1.6651 0 3.2404-0.39115 4.6543-1.0684z" color="#000000" color-rendering="auto" dominant-baseline="auto" fill="#fff" image-rendering="auto" shape-rendering="auto" solid-color="#000000" stroke="none" style="font-feature-settings:normal;font-variant-alternates:normal;font-variant-caps:normal;font-variant-ligatures:normal;font-variant-numeric:normal;font-variant-position:normal;isolation:auto;mix-blend-mode:normal;shape-padding:0;text-decoration-color:#000000;text-decoration-line:none;text-decoration-style:solid;text-indent:0;text-orientation:mixed;text-transform:none;white-space:normal"/>
<title>Strecke b_3</title>
<desc>Strecke b_3: Strecke B, C</desc>
</g>
</g>
</g>
</g>
<g transform="translate(-328.3 -86.558)">
<path d="m71.472 122.42h32.081l13.206 13.108v47.268h-45.287z" fill="#fcfdfd"/>
<path d="m76.285 126.78v3h23.1v-3z" color="#000000" color-rendering="auto" dominant-baseline="auto" fill="url(#j)" image-rendering="auto" shape-rendering="auto" solid-color="#000000" style="font-feature-settings:normal;font-variant-alternates:normal;font-variant-caps:normal;font-variant-ligatures:normal;font-variant-numeric:normal;font-variant-position:normal;isolation:auto;mix-blend-mode:normal;shape-padding:0;text-decoration-color:#000000;text-decoration-line:none;text-decoration-style:solid;text-indent:0;text-orientation:mixed;text-transform:none;white-space:normal"/>
<path d="m69.972 120.93v63.375h48.287c-2e-3 -16.357 1e-3 -49.391 1e-3 -49.391l-1e-3 -1e-3v-5.2e-4l-14.09-13.984zm3.0003 2.9998h29.078l-0.0196 13.107h13.229v44.268h-42.287zm32.074 2.096 8.0719 8.0114h-8.0838z" color="#000000" color-rendering="auto" dominant-baseline="auto" fill="url(#h)" image-rendering="auto" shape-rendering="auto" solid-color="#000000" style="font-feature-settings:normal;font-variant-alternates:normal;font-variant-caps:normal;font-variant-ligatures:normal;font-variant-numeric:normal;font-variant-position:normal;isolation:auto;mix-blend-mode:normal;shape-padding:0;text-decoration-color:#000000;text-decoration-line:none;text-decoration-style:solid;text-indent:0;text-orientation:mixed;text-transform:none;white-space:normal"/>
<path d="m93.538 141.66v28.202h1.5393v-28.202z" fill="#c6d4dd" stroke-width=".25883"/>
<path d="m83.748 149.77h10.756v-1.5393h-10.756z" fill="#c6d4dd" stroke-width=".15985"/>
<path d="m76.224 145.21v7.6304s3.358 1.5805 5.186 0 3.558-0.82225 5.3492 0v-7.6304z" fill="url(#n)" stroke-width=".35222"/>
<path d="m89.026 145.21v7.6304h10.535v-7.6304z" fill="url(#o)" stroke-width=".35222"/>
<path d="m94.248 167.69h13.418v-1.5393h-13.418z" fill="#c6d4dd" stroke-width=".17854"/>
<path d="m98.857 161.08h3.3154v-1.5393h-3.3154z" fill="#c6d4dd" stroke-width=".088746"/>
<path d="m106.13 163.71v3.9738h1.5393v-3.9738z" fill="#c6d4dd" stroke-width=".09716"/>
<path d="m101.78 156.63v7.6304h10.535v-7.6304z" fill="url(#m)" stroke-width=".35222"/>
<path d="m87.851 160.26 6.4287-4.559 6.4287 4.559-6.4287 4.559z" fill="url(#r)"/>
<path d="m92.346 134.33c-2.0917-7e-5 -3.7874 1.6956-3.7874 3.7874-6.5e-5 2.0917 1.6956 3.7874 3.7874 3.7874h3.9191c2.0917 6e-5 3.7874-1.6956 3.7874-3.7874 6e-5 -2.0917-1.6956-3.7874-3.7874-3.7874h-3.9191z" fill="url(#q)"/>
<path d="m92.346 169.25c-2.0917-7e-5 -3.7874 1.6956-3.7874 3.7874-6.5e-5 2.0917 1.6956 3.7874 3.7874 3.7874h3.9191c2.0917 6e-5 3.7874-1.6956 3.7874-3.7874 6e-5 -2.0917-1.6956-3.7874-3.7874-3.7874h-3.9191z" fill="url(#p)"/>
</g>
<path d="m7.8097 219.6c26.408 27.086 66.873 36.442 102.82 22.907" fill="none" stroke="#b6c8d3" stroke-dasharray="24.00000026, 4.00000004" stroke-width="4"/>
<path d="m156.45 206.53c19.964-29.358 22.882-68.677 4.2311-101.68" fill="none" stroke="#b6c8d3" stroke-dasharray="24.00000052, 4.00000008" stroke-width="4"/>
<path d="m114.14 63.427c-8.4644-3.5522-17.405-5.888-26.534-6.9271-19.496-2.2193-39.847 1.4763-58.237 11.869-13.054 7.3781-23.727 17.344-31.739 28.891" fill="none" stroke="#b6c8d3" stroke-dasharray="24, 4" stroke-width="4"/>
<g transform="translate(-327.31 99.872)">
<path d="m71.472 122.42h32.081l13.206 13.108v47.268h-45.287z" fill="#fcfdfd"/>
<path d="m76.285 126.78v3h23.1v-3z" color="#000000" color-rendering="auto" dominant-baseline="auto" fill="url(#j)" image-rendering="auto" shape-rendering="auto" solid-color="#000000" style="font-feature-settings:normal;font-variant-alternates:normal;font-variant-caps:normal;font-variant-ligatures:normal;font-variant-numeric:normal;font-variant-position:normal;isolation:auto;mix-blend-mode:normal;shape-padding:0;text-decoration-color:#000000;text-decoration-line:none;text-decoration-style:solid;text-indent:0;text-orientation:mixed;text-transform:none;white-space:normal"/>
<path d="m69.972 120.93v63.375h48.287c-2e-3 -16.357 1e-3 -49.391 1e-3 -49.391l-1e-3 -1e-3v-5.2e-4l-14.09-13.984zm3.0003 2.9998h29.078l-0.0196 13.107h13.229v44.268h-42.287zm32.074 2.096 8.0719 8.0114h-8.0838z" color="#000000" color-rendering="auto" dominant-baseline="auto" fill="url(#h)" image-rendering="auto" shape-rendering="auto" solid-color="#000000" style="font-feature-settings:normal;font-variant-alternates:normal;font-variant-caps:normal;font-variant-ligatures:normal;font-variant-numeric:normal;font-variant-position:normal;isolation:auto;mix-blend-mode:normal;shape-padding:0;text-decoration-color:#000000;text-decoration-line:none;text-decoration-style:solid;text-indent:0;text-orientation:mixed;text-transform:none;white-space:normal"/>
<polygon transform="matrix(.12454 0 0 .12454 25.366 106.53)" points="663.6 472.72 608.67 417.79 625.33 401.13 697.37 472.28 625.33 543.42 609.12 527.21" fill="url(#x)"/>
<path d="m87.276 172.19-6.7855-6.7857 6.8416-6.8417-2.0749-2.0749-8.9727 8.8605 8.9727 8.8605z" fill="url(#v)" stroke-width=".12454"/>
<path d="m97.219 154.57-8.5586 21.438 2.7852 1.1133 8.5605-21.439z" color="#000000" color-rendering="auto" dominant-baseline="auto" fill="url(#w)" image-rendering="auto" shape-rendering="auto" solid-color="#000000" style="font-feature-settings:normal;font-variant-alternates:normal;font-variant-caps:normal;font-variant-ligatures:normal;font-variant-numeric:normal;font-variant-position:normal;isolation:auto;mix-blend-mode:normal;shape-padding:0;text-decoration-color:#000000;text-decoration-line:none;text-decoration-style:solid;text-indent:0;text-orientation:mixed;text-transform:none;white-space:normal"/>
<path d="m76.285 133.3v3h23.1v-3z" fill="url(#u)" stroke-width=".32703"/>
<path d="m76.285 139.83v3h35.932v-3z" fill="url(#t)" stroke-width=".40788"/>
<path d="m76.285 146.36v3h35.932v-3z" fill="url(#s)" stroke-width=".40788"/>
</g>
<path d="m-204.73 70.998c1.0293 0 46.631 4e-3 47.632 0.0109 36.745 0.26647 5.088 77.887 33.545 78.045 0.80448 4e-3 57.204 7e-3 58.024 6e-3" fill="none" marker-end="url(#l)" stroke="#4b6a7d" stroke-width="4"/>
<path d="m-199.44 255.68c1.0293 0 39.071-4e-3 40.073-0.0109 36.745-0.26647 5.088-77.887 33.545-78.045 0.80448-4e-3 64.764-7e-3 65.583-6e-3" fill="none" marker-start="url(#k)" stroke="#4b6a7d" stroke-width="4"/>
</g>
</svg>
