<?xml version="1.0" encoding="UTF-8"?>
<svg width="404.47mm" height="285.65mm" version="1.1" viewBox="0 0 404.46972 285.65213" xmlns="http://www.w3.org/2000/svg" xmlns:cc="http://creativecommons.org/ns#" xmlns:dc="http://purl.org/dc/elements/1.1/" xmlns:osb="http://www.openswatchbook.org/uri/2009/osb" xmlns:rdf="http://www.w3.org/1999/02/22-rdf-syntax-ns#" xmlns:xlink="http://www.w3.org/1999/xlink">
<defs>
<marker id="ao" overflow="visible" orient="auto">
<path transform="scale(-.6)" d="m8.7186 4.0337-10.926-4.0177 10.926-4.0177c-1.7455 2.3721-1.7354 5.6175-6e-7 8.0354z" fill="#4b6a7d" fill-rule="evenodd" stroke="#4b6a7d" stroke-linejoin="round" stroke-width=".625"/>
</marker>
<linearGradient id="a">
<stop stop-color="#dce5ea" offset="0"/>
<stop stop-color="#ecf1f4" offset="1"/>
</linearGradient>
<linearGradient id="b">
<stop stop-color="#b6c8d3" offset="0"/>
<stop stop-color="#c6d4dd" offset="1"/>
</linearGradient>
<linearGradient id="u" x1="99.385" x2="76.285" y1="129.78" y2="126.78" gradientTransform="matrix(3.7795 0 0 3.7795 -1595.2 -684.88)" gradientUnits="userSpaceOnUse" xlink:href="#b"/>
<linearGradient id="l" x1="446.97" x2="355.97" y1="696.57" y2="576.3" gradientTransform="translate(-1595.2 -684.88)" gradientUnits="userSpaceOnUse" xlink:href="#b"/>
<linearGradient id="i" x1="86.551" x2="76.285" y1="131.98" y2="126.85" gradientTransform="matrix(8.5043 0 0 2.209 -1955.7 -461.25)" gradientUnits="userSpaceOnUse" xlink:href="#a"/>
<linearGradient id="c" x1="86.551" x2="76.285" y1="131.98" y2="126.85" gradientTransform="matrix(13.229 0 0 2.209 -2316.1 -436.57)" gradientUnits="userSpaceOnUse" xlink:href="#a"/>
<linearGradient id="f" x1="86.551" x2="76.285" y1="131.98" y2="126.85" gradientTransform="matrix(13.229 0 0 2.209 -2316.1 -337.87)" gradientUnits="userSpaceOnUse" xlink:href="#a"/>
<linearGradient id="h" x1="86.551" x2="76.285" y1="131.98" y2="126.85" gradientTransform="matrix(13.229 0 0 2.209 -2316.1 -411.9)" gradientUnits="userSpaceOnUse" xlink:href="#a"/>
<linearGradient id="g" x1="86.551" x2="76.285" y1="131.98" y2="126.85" gradientTransform="matrix(13.229 0 0 2.209 -2316.1 -387.22)" gradientUnits="userSpaceOnUse" xlink:href="#a"/>
<linearGradient id="e" x1="86.551" x2="76.285" y1="131.98" y2="126.85" gradientTransform="matrix(13.229 0 0 2.209 -2316.1 -362.54)" gradientUnits="userSpaceOnUse" xlink:href="#a"/>
<linearGradient id="d" x1="86.551" x2="76.285" y1="131.98" y2="126.85" gradientTransform="matrix(13.229 0 0 2.209 -2316.1 -313.19)" gradientUnits="userSpaceOnUse" xlink:href="#a"/>
<marker id="an" overflow="visible" orient="auto">
<path transform="scale(-.6)" d="m8.7186 4.0337-10.926-4.0177 10.926-4.0177c-1.7455 2.3721-1.7354 5.6175-6e-7 8.0354z" fill="#4b6a7d" fill-rule="evenodd" stroke="#4b6a7d" stroke-linejoin="round" stroke-width=".625"/>
</marker>
<linearGradient id="am" x1="86.551" x2="76.285" y1="131.98" y2="126.85" gradientTransform="translate(12.834 -2.9e-6)" gradientUnits="userSpaceOnUse" xlink:href="#b"/>
<linearGradient id="al" x1="86.551" x2="76.285" y1="131.98" y2="126.85" gradientTransform="translate(12.834 7.6998)" gradientUnits="userSpaceOnUse" xlink:href="#a"/>
<linearGradient id="ak" x1="86.551" x2="76.285" y1="131.98" y2="126.85" gradientTransform="translate(12.834 15.399)" gradientUnits="userSpaceOnUse" xlink:href="#a"/>
<linearGradient id="aj" x1="86.551" x2="76.285" y1="131.98" y2="126.85" gradientTransform="translate(12.834 23.099)" gradientUnits="userSpaceOnUse" xlink:href="#a"/>
<linearGradient id="ai" x1="86.551" x2="76.285" y1="131.98" y2="126.85" gradientTransform="translate(12.834 30.799)" gradientUnits="userSpaceOnUse" xlink:href="#a"/>
<linearGradient id="ah" x1="86.551" x2="76.285" y1="131.98" y2="126.85" gradientTransform="translate(12.834 38.498)" gradientUnits="userSpaceOnUse" xlink:href="#a"/>
<linearGradient id="ag" x1="86.551" x2="76.285" y1="131.98" y2="126.85" gradientTransform="translate(12.834 46.198)" gradientUnits="userSpaceOnUse" xlink:href="#a"/>
<linearGradient id="af" x1="86.551" x2="76.285" y1="131.98" y2="126.85" gradientTransform="translate(25.667 15.399)" gradientUnits="userSpaceOnUse" xlink:href="#a"/>
<linearGradient id="ae" x1="86.551" x2="76.285" y1="131.98" y2="126.85" gradientTransform="translate(25.667 23.099)" gradientUnits="userSpaceOnUse" xlink:href="#a"/>
<linearGradient id="ad" x1="86.551" x2="76.285" y1="131.98" y2="126.85" gradientTransform="translate(25.667 30.799)" gradientUnits="userSpaceOnUse" xlink:href="#a"/>
<linearGradient id="ac" x1="86.551" x2="76.285" y1="131.98" y2="126.85" gradientTransform="translate(25.667 38.498)" gradientUnits="userSpaceOnUse" xlink:href="#a"/>
<linearGradient id="ab" x1="86.551" x2="76.285" y1="131.98" y2="126.85" gradientTransform="translate(25.667 46.198)" gradientUnits="userSpaceOnUse" xlink:href="#a"/>
<linearGradient id="j" x1="86.551" x2="76.285" y1="131.98" y2="126.85" gradientUnits="userSpaceOnUse" xlink:href="#b"/>
<linearGradient id="aa" x1="86.551" x2="76.285" y1="131.98" y2="126.85" gradientTransform="translate(0 7.6998)" gradientUnits="userSpaceOnUse" xlink:href="#a"/>
<linearGradient id="z" x1="86.551" x2="76.285" y1="131.98" y2="126.85" gradientTransform="translate(0 15.399)" gradientUnits="userSpaceOnUse" xlink:href="#a"/>
<linearGradient id="y" x1="86.551" x2="76.285" y1="131.98" y2="126.85" gradientTransform="translate(0 23.099)" gradientUnits="userSpaceOnUse" xlink:href="#a"/>
<linearGradient id="x" x1="86.551" x2="76.285" y1="131.98" y2="126.85" gradientTransform="translate(-3e-6 30.799)" gradientUnits="userSpaceOnUse" xlink:href="#a"/>
<linearGradient id="w" x1="86.551" x2="76.285" y1="131.98" y2="126.85" gradientTransform="translate(-8e-6 38.498)" gradientUnits="userSpaceOnUse" xlink:href="#a"/>
<linearGradient id="v" x1="86.551" x2="76.285" y1="131.98" y2="126.85" gradientTransform="translate(-3e-6 46.198)" gradientUnits="userSpaceOnUse" xlink:href="#a"/>
<linearGradient id="k" x1="446.97" x2="355.97" y1="696.57" y2="576.3" gradientUnits="userSpaceOnUse" xlink:href="#b"/>
<linearGradient id="t" x1="658.24" x2="655.69" y1="542.88" y2="466.27" gradientUnits="userSpaceOnUse" xlink:href="#b"/>
<linearGradient id="r" x1="81.804" x2="81.813" y1="174.13" y2="165.39" gradientUnits="userSpaceOnUse" xlink:href="#b"/>
<linearGradient id="s" x1="95.302" x2="94.767" y1="176.93" y2="165.15" gradientUnits="userSpaceOnUse" xlink:href="#b"/>
<linearGradient id="q" x1="86.551" x2="76.285" y1="131.98" y2="126.85" gradientTransform="matrix(2.2501 0 0 .58445 -95.363 59.169)" gradientUnits="userSpaceOnUse" xlink:href="#a"/>
<linearGradient id="p" x1="86.551" x2="76.285" y1="131.98" y2="126.85" gradientTransform="matrix(3.5001 0 0 .58445 -190.72 65.698)" gradientUnits="userSpaceOnUse" xlink:href="#a"/>
<linearGradient id="o" x1="86.551" x2="76.285" y1="131.98" y2="126.85" gradientTransform="matrix(3.5001 0 0 .58445 -190.72 72.227)" gradientUnits="userSpaceOnUse" xlink:href="#a"/>
<linearGradient id="n" x1="99.385" x2="76.285" y1="129.78" y2="126.78" gradientUnits="userSpaceOnUse" xlink:href="#b"/>
<linearGradient id="m" x1="446.97" x2="355.97" y1="696.57" y2="576.3" gradientTransform="scale(.26458)" gradientUnits="userSpaceOnUse" xlink:href="#b"/>
</defs>
<metadata>
<rdf:RDF>
<cc:Work rdf:about="">
<dc:format>image/svg+xml</dc:format>
<dc:type rdf:resource="http://purl.org/dc/dcmitype/StillImage"/>
<dc:title/>
</cc:Work>
</rdf:RDF>
</metadata>
<g transform="translate(138.74 15.991)">
<g transform="matrix(.85655 0 0 .85655 20.907 -24.199)">
<path d="m171.76 99.604c0-3.7298-3.0236-6.7535-6.7535-6.7535h-115.93c-3.7298 0-6.7535 3.0236-6.7535 6.7535v81.292h129.43z" fill="#b6c8d3" stroke-width=".64688"/>
<path d="m165.05 102.61v71.675a3.1709 3.325 0 0 1 -3.1709 3.325h-110.36a3.1709 3.325 0 0 1 -3.1709 -3.325v-71.675a3.1401 3.2926 0 0 1 0.45651 -1.656 3.1771 3.3314 0 0 1 2.7452 -1.6625h110.33a3.1709 3.325 0 0 1 3.1709 3.3185z" fill="#dce5ea" stroke-width=".63172"/>
<g transform="matrix(1.5802 0 0 1.5802 40.68 -126)">
<path transform="matrix(.26458 0 0 .26458 19.567 164.28)" d="m151.1 11.695-7.834 2.5449 1.6973 5.2266c-1.4658 0.71883-2.8469 1.5806-4.1348 2.584l-4.4922-4.1875-5.2441 5.625 4.5117 4.2051c-0.79075 1.2045-1.4674 2.4711-2.0273 3.7988l-5.6367-1.0977-1.5703 8.0879 5.3711 1.0449c-0.0728 1.4768-9e-3 2.9493 0.19336 4.4141l-5.2578 1.5117 2.2695 7.918 5.582-1.6035c0.4702 0.8945 0.99406 1.7546 1.5742 2.582l-3.9727 4.2617 6.0254 5.6191 3.7754-4.0508c1.2221 0.84423 2.513 1.57 3.8711 2.1719l-1.1953 5.6211 8.0586 1.7129 1.1328-5.3242c0.32455 0.02268 0.64738 0.0659 0.97266 0.07422 1.1537 0.03024 2.2986-0.12566 3.4434-0.26172l1.4297 5.3301 7.957-2.1348-1.4824-5.5312c1.2864-0.65186 2.5052-1.4153 3.6524-2.2891l0.79883 0.74414-2.7285 4.9121 4.2734 2.373c-0.28532 0.86158-0.50778 1.7367-0.66407 2.6309l-4.5664 0.23633 0.36328 7.0059 4.3457-0.22461c0.19605 0.9097 0.4589 1.798 0.78907 2.668l-3.7695 2.1777 3.5039 6.0762 3.9258-2.2656c0.40163 0.43669 0.82207 0.85184 1.2637 1.248l-2.207 3.9766 6.1328 3.4082 2.1367-3.8496c0.88517 0.31597 1.7861 0.56962 2.709 0.74805l0.1582 4.5742 7.0117-0.24023-0.14258-4.209c0.14903-0.03024 0.30093-0.04329 0.44922-0.07617 0.60319-0.13304 1.1983-0.29744 1.7852-0.49024 0.17351-0.05707 0.34-0.13333 0.51172-0.19531l2.041 3.6875 6.1367-3.3984-2.207-3.9863c0.67797-0.60654 1.303-1.2616 1.8848-1.9609l4.2637 2.3652 3.2031-5.7656-4.2539-2.3613c0.33936-0.99621 0.5899-2.0135 0.75585-3.0527l4.3711 2e-3 8e-3 -7.0156-4.4551-2e-3c-0.0402-0.17764-0.064-0.35869-0.10937-0.53516-0.17201-0.66826-0.45423-1.2991-0.69922-1.9434l3.7129-2.1406-3.5039-6.0781-3.9707 2.2891c-0.63898-0.68992-1.3285-1.3229-2.0644-1.9082l2.1348-3.8496-3.4277-1.9023 4.1055-2.2754-1.3926-2.5176c0.16433-0.16025 0.32198-0.32429 0.47656-0.49414l2.6641 1.4766 2.5-4.5-2.6621-1.4766c0.0856-0.29405 0.15853-0.58892 0.22071-0.88867l2.7402 2e-3 6e-3 -5.3965-2.834-2e-3c-0.0537-0.19691-0.0883-0.39794-0.15235-0.5918l2.2871-1.3184-2.6953-4.6738-2.4023 1.3828c-0.19178-0.19159-0.38661-0.38032-0.58988-0.55966 0.0547-0.07316 0 0 0.0547-0.07316l1.2266-2.2129-4.7168-2.6211-1.3867 2.502c-0.0384-0.01134-0.0768-0.01978-0.11524-0.02734l-0.0977-2.8477-1.5098 0.05078-3.8848 0.13281 0.0918 2.7148c-0.18777 0.04573-0.37331 0.09326-0.55859 0.14844l-1.5234-2.4434-4.5762 2.8574 1.4512 2.3281c-0.22023 0.2109-0.43176 0.42684-0.63477 0.6543l-2.666-1.4785-0.25 0.44922-0.99805-3.4844-5.5332 1.5859c-0.69407-1.3124-1.5056-2.5506-2.4316-3.7109l3.7754-4.0527-6.0273-5.6172-3.9863 4.2754c-0.86113-0.5255-1.751-0.99436-2.6719-1.4062l1.207-5.6777-8.0586-1.7129-0.31445 1.4785-0.81641 3.8438c-0.32459-0.02268-0.64733-0.0671-0.97266-0.07617-1.0499-0.03024-2.0932 0.10058-3.1367 0.21094zm3.9629 12.682c4.2477-0.0858 8.3593 1.4856 11.467 4.3828 5.3687 5.0058 6.3215 11.884 4.1602 17.664s-7.3937 10.347-14.729 10.604c-7.3348 0.25625-12.872-3.9332-15.432-9.5488-2.5594-5.6157-2.0884-12.544 2.918-17.912 3.0114-3.2289 7.2009-5.1004 11.615-5.1895zm39.516 9.207c1.0411 0.0378 2.058 0.32051 2.9688 0.82617 2.6303 1.4605 3.6434 4.0391 3.3574 6.5312-0.28599 2.4922-1.8558 4.7728-4.748 5.5996-2.8922 0.82677-5.4322-0.27966-6.9922-2.2441-1.56-1.9644-2.0625-4.6883-0.60156-7.3184 1.2087-2.1759 3.5281-3.4845 6.0156-3.3945zm-12.324 2.9062 1.0137 0.5625c-0.0623 0.22072-0.11883 0.44181-0.16796 0.66602l-2.8828 0.14844 0.20899 4.041-1.4746-0.36719c0.0469-1.3526-0.0295-2.7002-0.21289-4.041zm3.959 11.898c0.0276 0.02646 0.056 0.05444 0.084 0.08203l-1.3887 2.498 0.97461 0.54102 0.1289 3.8262c-0.84055 0.16441-1.6647 0.37924-2.4746 0.6582l-2.4141-3.8691-4.8164 3.0059-1.2734-1.1895c0.90973-1.3593 1.6729-2.7998 2.2852-4.3164l5.3262 1.3262 0.53125-2.1309 0.57031 0.98828zm11.521 2.7832 0.77344 1.4043-1.418-0.78906-0.0156-0.43164c0.22247-0.05443 0.44128-0.11594 0.66016-0.18359zm-2.1113 2.9629-0.87304 1.5703c-0.56673-0.16819-1.1386-0.30875-1.7188-0.42188l-0.03516-1.0586zm-6.4824 7.0957c0.28286-0.0096 0.56787-0.0084 0.85352 2e-3 1.2162 0.04422 2.4195 0.27022 3.5684 0.67188 0.65292 0.22828 1.284 0.51184 1.8887 0.84766 4.7881 2.6581 6.6974 7.4385 6.1738 12.004-0.5236 4.5654-3.4658 8.7915-8.7305 10.297-5.2647 1.5054-9.9955-0.52651-12.854-4.125-2.858-3.5985-3.7645-8.6656-1.1055-13.453 2.0815-3.7483 5.9622-6.1009 10.205-6.2441z" color="#000000" color-rendering="auto" dominant-baseline="auto" fill="#a1b8c7" image-rendering="auto" opacity=".5" shape-rendering="auto" solid-color="#000000" style="font-feature-settings:normal;font-variant-alternates:normal;font-variant-caps:normal;font-variant-ligatures:normal;font-variant-numeric:normal;font-variant-position:normal;isolation:auto;mix-blend-mode:normal;shape-padding:0;text-decoration-color:#000000;text-decoration-line:none;text-decoration-style:solid;text-indent:0;text-orientation:mixed;text-transform:none;white-space:normal"/>
<path transform="matrix(.26458 0 0 .26458 19.567 164.28)" d="m159.29 13.514-1.0918 5.1367a22.251 22.251 0 0 0 -6.3887 0.10742l-1.6758-5.1582-4.959 1.6113 1.625 5.0039a22.251 22.251 0 0 0 -6.0801 3.7988l-4.3047-4.0137-3.1816 3.4141 4.3203 4.0273a22.251 22.251 0 0 0 -3.082 5.7637l-5.332-1.0371-0.99414 5.1191 5.1465 1a22.251 22.251 0 0 0 0.29687 6.752l-5.0391 1.4492 1.4375 5.0117 5.2246-1.5a22.251 22.251 0 0 0 2.7754 4.5508l-3.7168 3.9863 3.8144 3.5566 3.6172-3.8809a22.251 22.251 0 0 0 5.8301 3.2812l-1.1289 5.3145 5.1016 1.084 1.0938-5.1387a22.251 22.251 0 0 0 6.7578 -0.17383l1.3594 5.0723 5.0371-1.3516-1.4023-5.2305a22.251 22.251 0 0 0 5.5391 -3.4805l4.3086 4.0156 3.1816-3.4121-4.2891-4a22.274 22.274 0 0 0 3.3535 -6.3457l5.1035 1.2715 1.2637-5.0605-5.291-1.3164a22.274 22.274 0 0 0 -0.33398 -6.3691l5.0664-1.4531-1.4375-5.0137-5.2305 1.5a22.274 22.274 0 0 0 -3.6758 -5.5898l3.6172-3.8809-3.8164-3.5566-3.7344 4.0059a22.251 22.251 0 0 0 -4.7129 -2.4805l1.1289-5.3066zm-4.2539 9.3516a17.844 17.844 0 0 1 12.529 4.7891 17.844 17.844 0 1 1 -25.219 0.88086 17.844 17.844 0 0 1 12.689 -5.6699zm40.416 4.8047-2.373 0.08008 0.082 2.3906a10.126 10.126 0 0 0 -2.8106 0.74805l-1.3066-2.0938-2.0117 1.2559 1.2656 2.0312a10.126 10.126 0 0 0 -2.2676 2.3438l-2.3418-1.2988-1.0312 1.8555 2.3496 1.3047a10.126 10.126 0 0 0 -0.72852 2.8848l-2.4688 0.12695 0.12305 2.3691 2.3828-0.12305a10.126 10.126 0 0 0 0.87305 2.9492l-2.0684 1.1934 1.1856 2.0566 2.1445-1.2363a10.126 10.126 0 0 0 1.7246 1.7051l-1.2051 2.168 2.0762 1.1523 1.1719-2.1094a10.126 10.126 0 0 0 2.9336 0.80859l0.0859 2.4707 2.3711-0.08008-0.0801-2.3906a10.126 10.126 0 0 0 2.9648 -0.81836l1.1562 2.0918 2.0762-1.1504-1.1934-2.1562a10.126 10.126 0 0 0 2.0644 -2.1445l2.3438 1.3008 1.0312-1.8574-2.334-1.2949a10.137 10.137 0 0 0 0.78516 -3.1719l2.3945 2e-3 2e-3 -2.373-2.4824-2e-3a10.137 10.137 0 0 0 -0.84571 -2.7754l2.0781-1.1992-1.1856-2.0547-2.1465 1.2363a10.137 10.137 0 0 0 -2.2344 -2.0664l1.1699-2.1094-2.0742-1.1523-1.209 2.1797a10.126 10.126 0 0 0 -2.3535 -0.58008zm-0.81445 4.4023a8.1207 8.1207 0 0 1 3.6484 1.0156 8.1207 8.1207 0 1 1 -11.041 3.1562 8.1207 8.1207 0 0 1 7.3926 -4.1719zm-3.2148 20.244-3.9902 0.13477 0.13672 4.0195a17.034 17.034 0 0 0 -4.7266 1.2578l-2.1973-3.5215-3.3867 2.1133 2.1309 3.416a17.034 17.034 0 0 0 -3.8144 3.9453l-3.9394-2.1875-1.7344 3.123 3.9531 2.1953a17.034 17.034 0 0 0 -1.2266 4.8496l-4.1523 0.21484 0.20703 3.9863 4.0078-0.20703a17.034 17.034 0 0 0 1.4668 4.9609l-3.4766 2.0078 1.9941 3.459 3.6055-2.0801a17.034 17.034 0 0 0 2.9023 2.8672l-2.0254 3.6484 3.4902 1.9395 1.9707-3.5508a17.034 17.034 0 0 0 4.9375 1.3613l0.14258 4.1562 3.9902-0.13672-0.13672-4.0195a17.034 17.034 0 0 0 4.9863 -1.377l1.9473 3.5176 3.4922-1.9336-2.0078-3.627a17.034 17.034 0 0 0 3.4727 -3.6094l3.9434 2.1895 1.7344-3.123-3.9258-2.1797a17.051 17.051 0 0 0 1.3203 -5.334l4.0254 2e-3 4e-3 -3.9922-4.1738-2e-3a17.051 17.051 0 0 0 -1.4219 -4.6699l3.4941-2.0156-1.9941-3.459-3.6094 2.0801a17.051 17.051 0 0 0 -3.7617 -3.4746l1.9707-3.5508-3.4902-1.9375-2.0352 3.666a17.034 17.034 0 0 0 -3.959 -0.97266zm-1.3692 7.4043a13.66 13.66 0 0 1 6.1367 1.709 13.66 13.66 0 1 1 -18.572 5.3105 13.66 13.66 0 0 1 12.436 -7.0195z" fill="#fff" stroke-width="0"/>
</g>
<path d="m126.85 204.08v1.3326h-39.402v-1.0803a12.938 12.938 0 0 0 8.4483 -12.148 12.938 12.938 0 0 0 -7.5556 -11.767h38.244a12.938 12.938 0 0 0 0.26522 23.663z" fill="#b6c8d3" stroke-width=".64688"/>
<path d="m126.58 180.41a12.938 12.938 0 0 0 -7.1481 8.5841h-23.935a12.976 12.976 0 0 0 -7.161 -8.5841z" opacity=".1" stroke-width=".64688"/>
<path d="m42.327 179.97v0.60527c0 4.1271 3.0274 7.478 6.7535 7.478h115.93c3.726 0 6.7535-3.3508 6.7535-7.478v-0.60527z" fill="#b6c8d3" stroke-width=".64688"/>
<path d="m126.85 204.08v1.3326h-39.402v-1.0803a13.041 13.041 0 0 0 3.0403 -1.6172h33.948a13.015 13.015 0 0 0 2.4129 1.3649z" fill="#3f3d56" opacity=".1" stroke-width=".64688"/>
<rect x="74.431" y="203.12" width="65.445" height="3.946" rx="1.973" fill="#b6c8d3" stroke-width=".64688"/>
<circle cx="107.05" cy="96.066" r="1.559" fill="#fff" stroke-width=".64688"/>
<path d="m152.57 188.49c-0.14229 0-0.27815-0.0323-0.41402-0.0582a0.86035 0.86035 0 0 1 0.41402 0.0582z" fill="#3f3d56" opacity=".1" stroke-width=".64688"/>
<g transform="matrix(.22005 -.017596 .01828 .21182 -683.95 -39.314)">
<g transform="translate(944.43 773.93)">
<rect transform="rotate(4.6102)" x="2331.2" y="-20.481" width="244.88" height="338.35" fill="#808080" fill-opacity=".25" stroke-width=".57995"/>
<rect transform="matrix(.99677 .080367 -.080386 .99676 0 0)" x="2334.3" y="-17.962" width="238.65" height="332.2" fill="#fff" stroke-width=".58111"/>
<rect transform="rotate(4.8911)" x="2352.8" y="-6.5306" width="195.8" height="2.9651" fill="#e0e0e0" stroke-width=".60636"/>
<rect transform="rotate(4.8911)" x="2352.8" y="27.589" width="176.52" height="2.9651" fill="#e0e0e0" stroke-width=".60636"/>
<rect transform="rotate(4.8911)" x="2352.8" y="61.705" width="195.8" height="2.9651" fill="#e0e0e0" stroke-width=".60636"/>
<rect transform="rotate(4.8911)" x="2352.8" y="78.763" width="195.8" height="2.9651" fill="#e0e0e0" stroke-width=".60636"/>
<rect transform="rotate(4.8911)" x="2354.8" y="9.5767" width="176.52" height="2.9651" fill="#e0e0e0" stroke-width=".60636"/>
<rect transform="rotate(4.8911)" x="2353.2" y="46.069" width="195.8" height="2.9651" fill="#e0e0e0" stroke-width=".60636"/>
<rect transform="rotate(4.8911)" x="2354.1" y="95.191" width="195.8" height="2.9651" fill="#e0e0e0" stroke-width=".60636"/>
<rect transform="rotate(4.8911)" x="2354.1" y="129.31" width="176.52" height="2.9651" fill="#e0e0e0" stroke-width=".60636"/>
<rect transform="rotate(4.8911)" x="2354.1" y="163.43" width="195.8" height="2.9651" fill="#e0e0e0" stroke-width=".60636"/>
<rect transform="rotate(4.8911)" x="2354.1" y="180.48" width="195.8" height="2.9651" fill="#e0e0e0" stroke-width=".60636"/>
<rect transform="rotate(4.8911)" x="2356.2" y="111.3" width="176.52" height="2.9651" fill="#e0e0e0" stroke-width=".60636"/>
<rect transform="rotate(4.8911)" x="2354.5" y="147.79" width="195.8" height="2.9651" fill="#e0e0e0" stroke-width=".60636"/>
</g>
</g>
</g>
<g transform="translate(-207.98 -136.91)">
<path d="m71.472 122.42h32.081l13.206 13.108v47.268h-45.287z" fill="#fcfdfd"/>
<path d="m76.285 126.78v3h23.1v-3z" color="#000000" color-rendering="auto" dominant-baseline="auto" fill="url(#n)" image-rendering="auto" shape-rendering="auto" solid-color="#000000" style="font-feature-settings:normal;font-variant-alternates:normal;font-variant-caps:normal;font-variant-ligatures:normal;font-variant-numeric:normal;font-variant-position:normal;isolation:auto;mix-blend-mode:normal;shape-padding:0;text-decoration-color:#000000;text-decoration-line:none;text-decoration-style:solid;text-indent:0;text-orientation:mixed;text-transform:none;white-space:normal"/>
<path d="m69.972 120.93v63.375h48.287c-2e-3 -16.357 1e-3 -49.391 1e-3 -49.391l-1e-3 -1e-3v-5.2e-4l-14.09-13.984zm3.0003 2.9998h29.078l-0.0196 13.107h13.229v44.268h-42.287zm32.074 2.096 8.0719 8.0114h-8.0838z" color="#000000" color-rendering="auto" dominant-baseline="auto" fill="url(#m)" image-rendering="auto" shape-rendering="auto" solid-color="#000000" style="font-feature-settings:normal;font-variant-alternates:normal;font-variant-caps:normal;font-variant-ligatures:normal;font-variant-numeric:normal;font-variant-position:normal;isolation:auto;mix-blend-mode:normal;shape-padding:0;text-decoration-color:#000000;text-decoration-line:none;text-decoration-style:solid;text-indent:0;text-orientation:mixed;text-transform:none;white-space:normal"/>
<polygon transform="matrix(.12454 0 0 .12454 25.366 106.53)" points="625.33 401.13 697.37 472.28 625.33 543.42 609.12 527.21 663.6 472.72 608.67 417.79" fill="url(#t)"/>
<path d="m87.276 172.19-6.7855-6.7857 6.8416-6.8417-2.0749-2.0749-8.9727 8.8605 8.9727 8.8605z" fill="url(#r)" stroke-width=".12454"/>
<path d="m97.219 154.57-8.5586 21.438 2.7852 1.1133 8.5605-21.439z" color="#000000" color-rendering="auto" dominant-baseline="auto" fill="url(#s)" image-rendering="auto" shape-rendering="auto" solid-color="#000000" style="font-feature-settings:normal;font-variant-alternates:normal;font-variant-caps:normal;font-variant-ligatures:normal;font-variant-numeric:normal;font-variant-position:normal;isolation:auto;mix-blend-mode:normal;shape-padding:0;text-decoration-color:#000000;text-decoration-line:none;text-decoration-style:solid;text-indent:0;text-orientation:mixed;text-transform:none;white-space:normal"/>
<path d="m76.285 133.3v3h23.1v-3z" fill="url(#q)" stroke-width=".32703"/>
<path d="m76.285 139.83v3h35.932v-3z" fill="url(#p)" stroke-width=".40788"/>
<path d="m76.285 146.36v3h35.932v-3z" fill="url(#o)" stroke-width=".40788"/>
</g>
<path d="m-85.086 20.503c1.0293 0 35.518 0.0037 36.519 0.01092 36.745 0.26646 5.088 77.887 33.545 78.045 0.80446 0.0045 60.606 0.0066 61.426 0.0064" fill="none" stroke="#4b6a7d" stroke-width="4"/>
<path d="m173.12 98.394c120.7-1.5729 120.45 142.07 1.4593 142.25-0.6044 9.2e-4 -24.457 0.0202-25.067 0.0254" fill="none" marker-end="url(#an)" stroke="#4b6a7d" stroke-width="4"/>
<g transform="matrix(.26458 0 0 .26458 442.35 266.57)">
<path d="m-1325.1-222.17h121.25l49.913 49.543v178.65h-171.17z" fill="#fcfdfd"/>
<path d="m-1306.9-205.73v11.339h87.306v-11.339z" color="#000000" color-rendering="auto" dominant-baseline="auto" fill="url(#u)" image-rendering="auto" shape-rendering="auto" solid-color="#000000" style="font-feature-settings:normal;font-variant-alternates:normal;font-variant-caps:normal;font-variant-ligatures:normal;font-variant-numeric:normal;font-variant-position:normal;isolation:auto;mix-blend-mode:normal;shape-padding:0;text-decoration-color:#000000;text-decoration-line:none;text-decoration-style:solid;text-indent:0;text-orientation:mixed;text-transform:none;white-space:normal"/>
<path d="m-1330.8-227.84v239.53h182.5c-0.01-61.821 0-186.68 0-186.68l-53.252-52.853zm11.34 11.338h109.9l-0.074 49.539h49.998v167.31h-159.82zm121.22 7.9218 30.508 30.279h-30.553z" color="#000000" color-rendering="auto" dominant-baseline="auto" fill="url(#l)" image-rendering="auto" shape-rendering="auto" solid-color="#000000" style="font-feature-settings:normal;font-variant-alternates:normal;font-variant-caps:normal;font-variant-ligatures:normal;font-variant-numeric:normal;font-variant-position:normal;isolation:auto;mix-blend-mode:normal;shape-padding:0;text-decoration-color:#000000;text-decoration-line:none;text-decoration-style:solid;text-indent:0;text-orientation:mixed;text-transform:none;white-space:normal"/>
<path d="m-1250.3-181.05v11.339h30.716v-11.339z" fill="url(#i)" stroke-width="1.236"/>
<path d="m-1250.4-156.38v11.338h79.308v-11.338z" fill="url(#c)" stroke-width="1.5416"/>
<g transform="matrix(3.7795 0 0 3.7795 -1443.3 -711.1)" stroke-width=".11288">
<path d="m46.302 142.02 1.5431-1.3213a6.6704 6.6159 9.8755 0 0 -5.0718 -2.3063l0.0058 2.024a4.637 4.5991 9.8756 0 1 3.523 1.6035z" fill="#ff5252"/>
<path d="m42.804 149.63a4.6177 4.58 9.8756 0 1 -1.9185 -0.41265l-0.8368 1.8452a6.6874 6.6328 9.8756 0 0 6.1738 -0.3373l-1.0474-1.7418a4.6177 4.58 9.8756 0 1 -2.3711 0.64657z" fill="#69f0ae"/>
<path d="m49.477 145.02a6.6591 6.6047 9.8756 0 0 -1.6326 -4.3281l-1.5431 1.3212a4.6393 4.6014 9.8756 0 1 -1.1262 6.9717l1.0474 1.7418a6.6874 6.6328 9.8756 0 0 3.2544 -5.7067z" fill="#ff9800"/>
<path d="m38.145 145.02a4.6472 4.6092 9.8755 0 1 4.6332 -4.6103l-0.0058-2.024a6.6874 6.6328 9.8756 0 0 -2.7239 12.677l0.8368-1.8452a4.6472 4.6092 9.8755 0 1 -2.7405 -4.1977z" fill="#008fe1"/>
</g>
<rect transform="matrix(1 0 .0024368 1 0 0)" x="-1225.2" y="-82.346" width="53.841" height="9.4283" fill="#008fe1" stroke-width=".55233"/>
<rect transform="matrix(1 0 .0024368 1 0 0)" x="-1225.2" y="-64.345" width="39.345" height="9.4283" fill="#ff5252" stroke-width=".55233"/>
<rect transform="matrix(1 0 .0024368 1 0 0)" x="-1225.2" y="-46.345" width="26.92" height="9.4283" fill="#69f0ae" stroke-width=".55233"/>
<rect transform="matrix(1 0 .0024368 1 0 0)" x="-1225.3" y="-28.345" width="48.664" height="9.4283" fill="#ff9800" stroke-width=".55233"/>
<path d="m-1306.9-57.668v11.339h71.308v-11.339z" fill="url(#f)" stroke-width="1.5416"/>
<path d="m-1306.9-131.7v11.339h135.81v-11.339z" fill="url(#h)" stroke-width="1.5416"/>
<path d="m-1306.9-107.02v11.339h135.81v-11.339z" fill="url(#g)" stroke-width="1.5416"/>
<path d="m-1306.9-82.345v11.339h71.308v-11.339z" fill="url(#e)" stroke-width="1.5416"/>
<path d="m-1306.9-32.991v11.338h71.308v-11.338z" fill="url(#d)" stroke-width="1.5416"/>
</g>
<g transform="translate(-208.71 20.287)">
<path d="m71.472 122.42h32.081l13.206 13.108v47.268h-45.287z" fill="#fcfdfd"/>
<path d="m89.119 126.85v5.133h10.266v-5.133z" fill="url(#am)" stroke-width=".28517"/>
<path d="m89.119 134.55v5.133h10.266v-5.133z" fill="url(#al)" stroke-width=".28517"/>
<path d="m89.119 142.25v5.133h10.266v-5.133z" fill="url(#ak)" stroke-width=".28517"/>
<path d="m89.119 149.94v5.133h10.266v-5.133z" fill="url(#aj)" stroke-width=".28517"/>
<path d="m89.119 157.64v5.133h10.266v-5.133z" fill="url(#ai)" stroke-width=".28517"/>
<path d="m89.119 165.34v5.133h10.266v-5.133z" fill="url(#ah)" stroke-width=".28517"/>
<path d="m89.119 173.04v5.133h10.266v-5.133z" fill="url(#ag)" stroke-width=".28517"/>
<path d="m101.95 142.25v5.133h10.266v-5.133z" fill="url(#af)" stroke-width=".28517"/>
<path d="m101.95 149.94v5.133h10.266v-5.133z" fill="url(#ae)" stroke-width=".28517"/>
<path d="m101.95 157.64v5.133h10.266v-5.133z" fill="url(#ad)" stroke-width=".28517"/>
<path d="m101.95 165.34v5.133h10.266v-5.133z" fill="url(#ac)" stroke-width=".28517"/>
<path d="m101.95 173.04v5.133h10.266v-5.133z" fill="url(#ab)" stroke-width=".28517"/>
<path d="m76.285 126.85v5.133h10.266v-5.133z" fill="url(#j)" stroke-width=".28517"/>
<path d="m76.285 134.55v5.133h10.266v-5.133z" fill="url(#aa)" stroke-width=".28517"/>
<path d="m76.285 142.25v5.133h10.266v-5.133z" fill="url(#z)" stroke-width=".28517"/>
<path d="m76.285 149.94v5.133h10.266v-5.133z" fill="url(#y)" stroke-width=".28517"/>
<path d="m76.285 157.64v5.133h10.266v-5.133z" fill="url(#x)" stroke-width=".28517"/>
<path d="m76.285 165.34v5.133h10.266v-5.133z" fill="url(#w)" stroke-width=".28517"/>
<path d="m76.285 173.04v5.133h10.266v-5.133z" fill="url(#v)" stroke-width=".28517"/>
<path transform="scale(.26458)" d="m264.46 457.04v239.53h182.5c-6e-3 -61.821 4e-3 -186.68 4e-3 -186.68l-4e-3 -4e-3v-2e-3l-53.252-52.854zm11.34 11.338h109.9l-0.0742 49.539h49.998v167.31h-159.82zm121.22 7.9219 30.508 30.279h-30.553z" color="#000000" color-rendering="auto" dominant-baseline="auto" fill="url(#k)" image-rendering="auto" shape-rendering="auto" solid-color="#000000" style="font-feature-settings:normal;font-variant-alternates:normal;font-variant-caps:normal;font-variant-ligatures:normal;font-variant-numeric:normal;font-variant-position:normal;isolation:auto;mix-blend-mode:normal;shape-padding:0;text-decoration-color:#000000;text-decoration-line:none;text-decoration-style:solid;text-indent:0;text-orientation:mixed;text-transform:none;white-space:normal"/>
</g>
<path d="m-85.086 176.63c1.0293 0 35.518-4e-3 36.519-0.0109 36.745-0.26646 5.088-77.887 33.545-78.045 0.80447-5e-3 60.606-7e-3 61.426-6e-3" fill="none" marker-end="url(#ao)" stroke="#4b6a7d" stroke-width="4"/>
</g>
</svg>
