<?xml version="1.0" encoding="UTF-8"?>
<svg width="1680.1mm" height="1201.3mm" version="1.1" viewBox="0 0 1680.1 1201.3" xmlns="http://www.w3.org/2000/svg" xmlns:cc="http://creativecommons.org/ns#" xmlns:dc="http://purl.org/dc/elements/1.1/" xmlns:rdf="http://www.w3.org/1999/02/22-rdf-syntax-ns#" xmlns:xlink="http://www.w3.org/1999/xlink">
 <title>Vivid Code Collaboration</title>
 <defs>
  <marker id="an" overflow="visible" orient="auto">
   <path transform="scale(-.6)" d="m8.7186 4.0337-10.926-4.0177 10.926-4.0177c-1.7455 2.3721-1.7354 5.6175 0 8.0354z" fill="#b6c8d3" fill-rule="evenodd" stroke="#b6c8d3" stroke-linejoin="round" stroke-width=".625"/>
  </marker>
  <marker id="ao" overflow="visible" orient="auto">
   <path transform="scale(.6)" d="m8.7186 4.0337-10.926-4.0177 10.926-4.0177c-1.7455 2.3721-1.7354 5.6175 0 8.0354z" fill="#4b6a7d" fill-rule="evenodd" stroke="#4b6a7d" stroke-linejoin="round" stroke-width=".625"/>
  </marker>
  <marker id="ap" overflow="visible" orient="auto">
   <path transform="scale(-.6)" d="m8.7186 4.0337-10.926-4.0177 10.926-4.0177c-1.7455 2.3721-1.7354 5.6175 0 8.0354z" fill="#b6c8d3" fill-rule="evenodd" stroke="#b6c8d3" stroke-linejoin="round" stroke-width=".625"/>
  </marker>
  <marker id="bh" overflow="visible" orient="auto">
   <path transform="scale(.6)" d="m8.7186 4.0337-10.926-4.0177 10.926-4.0177c-1.7455 2.3721-1.7354 5.6175 0 8.0354z" fill="#b6c8d3" fill-rule="evenodd" stroke="#b6c8d3" stroke-linejoin="round" stroke-width=".625"/>
  </marker>
  <marker id="br" overflow="visible" orient="auto">
   <path transform="scale(-.6)" d="m8.7186 4.0337-10.926-4.0177 10.926-4.0177c-1.7455 2.3721-1.7354 5.6175 0 8.0354z" fill="#4b6a7d" fill-rule="evenodd" stroke="#4b6a7d" stroke-linejoin="round" stroke-width=".625"/>
  </marker>
  <linearGradient id="a">
   <stop stop-color="#dce5ea" offset="0"/>
   <stop stop-color="#ecf1f4" offset="1"/>
  </linearGradient>
  <linearGradient id="ak" x1="819.93" x2="819.93" y1="598.64" y2="132.32" gradientUnits="userSpaceOnUse">
   <stop stop-color="#c6d4dd" offset="0"/>
   <stop stop-color="#b6c8d3" offset="1"/>
  </linearGradient>
  <marker id="bl" overflow="visible" orient="auto">
   <path transform="scale(-.6)" d="m8.7186 4.0337-10.926-4.0177 10.926-4.0177c-1.7455 2.3721-1.7354 5.6175 0 8.0354z" fill="#b6c8d3" fill-rule="evenodd" stroke="#b6c8d3" stroke-linejoin="round" stroke-width=".625"/>
  </marker>
  <marker id="bq" overflow="visible" orient="auto">
   <path transform="scale(-.6)" d="m8.7186 4.0337-10.926-4.0177 10.926-4.0177c-1.7455 2.3721-1.7354 5.6175 0 8.0354z" fill="#4b6a7d" fill-rule="evenodd" stroke="#4b6a7d" stroke-linejoin="round" stroke-width=".625"/>
  </marker>
  <marker id="bi" overflow="visible" orient="auto">
   <path transform="scale(-.6)" d="m8.7186 4.0337-10.926-4.0177 10.926-4.0177c-1.7455 2.3721-1.7354 5.6175 0 8.0354z" fill="#b6c8d3" fill-rule="evenodd" stroke="#b6c8d3" stroke-linejoin="round" stroke-width=".625"/>
  </marker>
  <marker id="bk" overflow="visible" orient="auto">
   <path transform="scale(-.6)" d="m8.7186 4.0337-10.926-4.0177 10.926-4.0177c-1.7455 2.3721-1.7354 5.6175 0 8.0354z" fill="#4b6a7d" fill-rule="evenodd" stroke="#4b6a7d" stroke-linejoin="round" stroke-width=".625"/>
  </marker>
  <marker id="bj" overflow="visible" orient="auto">
   <path transform="scale(-.6)" d="m8.7186 4.0337-10.926-4.0177 10.926-4.0177c-1.7455 2.3721-1.7354 5.6175 0 8.0354z" fill="#4b6a7d" fill-rule="evenodd" stroke="#4b6a7d" stroke-linejoin="round" stroke-width=".625"/>
  </marker>
  <linearGradient id="bf" x1="670.37" x2="670.37" y1="305.53" y2="295.41" gradientTransform="matrix(.25049 0 0 .25049 1000.3 367.29)" gradientUnits="userSpaceOnUse">
   <stop stop-color="#fff" offset="0"/>
   <stop offset="1"/>
  </linearGradient>
  <linearGradient id="bg" x1="752.69" x2="752.69" y1="339.56" y2="202.23" gradientUnits="userSpaceOnUse">
   <stop stop-color="gray" stop-opacity=".25" offset="0"/>
   <stop stop-color="gray" stop-opacity=".12" offset=".54"/>
   <stop stop-color="gray" stop-opacity=".1" offset="1"/>
  </linearGradient>
  <linearGradient id="b">
   <stop stop-color="#b6c8d3" offset="0"/>
   <stop stop-color="#c6d4dd" offset="1"/>
  </linearGradient>
  <marker id="bp" overflow="visible" orient="auto">
   <path transform="scale(-.6)" d="m8.7186 4.0337-10.926-4.0177 10.926-4.0177c-1.7455 2.3721-1.7354 5.6175 0 8.0354z" fill="#4b6a7d" fill-rule="evenodd" stroke="#4b6a7d" stroke-linejoin="round" stroke-width=".625"/>
  </marker>
  <marker id="bo" overflow="visible" orient="auto">
   <path transform="scale(-.6)" d="m8.7186 4.0337-10.926-4.0177 10.926-4.0177c-1.7455 2.3721-1.7354 5.6175 0 8.0354z" fill="#b6c8d3" fill-rule="evenodd" stroke="#b6c8d3" stroke-linejoin="round" stroke-width=".625"/>
  </marker>
  <marker id="bn" overflow="visible" orient="auto">
   <path transform="scale(-.6)" d="m8.7186 4.0337-10.926-4.0177 10.926-4.0177c-1.7455 2.3721-1.7354 5.6175 0 8.0354z" fill="#b6c8d3" fill-rule="evenodd" stroke="#b6c8d3" stroke-linejoin="round" stroke-width=".625"/>
  </marker>
  <marker id="bm" overflow="visible" orient="auto">
   <path transform="scale(-.6)" d="m8.7186 4.0337-10.926-4.0177 10.926-4.0177c-1.7455 2.3721-1.7354 5.6175 0 8.0354z" fill="#4b6a7d" fill-rule="evenodd" stroke="#4b6a7d" stroke-linejoin="round" stroke-width=".625"/>
  </marker>
  <linearGradient id="u" x1="86.551" x2="76.285" y1="131.98" y2="126.85" gradientTransform="translate(12.834,-2.9e-6)" gradientUnits="userSpaceOnUse" xlink:href="#b"/>
  <linearGradient id="g" x1="86.551" x2="76.285" y1="131.98" y2="126.85" gradientTransform="translate(12.834,7.6998)" gradientUnits="userSpaceOnUse" xlink:href="#a"/>
  <linearGradient id="p" x1="86.551" x2="76.285" y1="131.98" y2="126.85" gradientTransform="translate(12.834,15.399)" gradientUnits="userSpaceOnUse" xlink:href="#a"/>
  <linearGradient id="e" x1="86.551" x2="76.285" y1="131.98" y2="126.85" gradientTransform="translate(12.834,23.099)" gradientUnits="userSpaceOnUse" xlink:href="#a"/>
  <linearGradient id="s" x1="86.551" x2="76.285" y1="131.98" y2="126.85" gradientTransform="translate(12.834,30.799)" gradientUnits="userSpaceOnUse" xlink:href="#a"/>
  <linearGradient id="m" x1="86.551" x2="76.285" y1="131.98" y2="126.85" gradientTransform="translate(12.834,38.498)" gradientUnits="userSpaceOnUse" xlink:href="#a"/>
  <linearGradient id="j" x1="86.551" x2="76.285" y1="131.98" y2="126.85" gradientTransform="translate(12.834,46.198)" gradientUnits="userSpaceOnUse" xlink:href="#a"/>
  <linearGradient id="o" x1="86.551" x2="76.285" y1="131.98" y2="126.85" gradientTransform="translate(25.667,15.399)" gradientUnits="userSpaceOnUse" xlink:href="#a"/>
  <linearGradient id="d" x1="86.551" x2="76.285" y1="131.98" y2="126.85" gradientTransform="translate(25.667,23.099)" gradientUnits="userSpaceOnUse" xlink:href="#a"/>
  <linearGradient id="q" x1="86.551" x2="76.285" y1="131.98" y2="126.85" gradientTransform="translate(25.667,30.799)" gradientUnits="userSpaceOnUse" xlink:href="#a"/>
  <linearGradient id="k" x1="86.551" x2="76.285" y1="131.98" y2="126.85" gradientTransform="translate(25.667,38.498)" gradientUnits="userSpaceOnUse" xlink:href="#a"/>
  <linearGradient id="i" x1="86.551" x2="76.285" y1="131.98" y2="126.85" gradientTransform="translate(25.667,46.198)" gradientUnits="userSpaceOnUse" xlink:href="#a"/>
  <linearGradient id="t" x1="86.551" x2="76.285" y1="131.98" y2="126.85" gradientUnits="userSpaceOnUse" xlink:href="#b"/>
  <linearGradient id="f" x1="86.551" x2="76.285" y1="131.98" y2="126.85" gradientTransform="translate(0,7.6998)" gradientUnits="userSpaceOnUse" xlink:href="#a"/>
  <linearGradient id="n" x1="86.551" x2="76.285" y1="131.98" y2="126.85" gradientTransform="translate(0,15.399)" gradientUnits="userSpaceOnUse" xlink:href="#a"/>
  <linearGradient id="c" x1="86.551" x2="76.285" y1="131.98" y2="126.85" gradientTransform="translate(0,23.099)" gradientUnits="userSpaceOnUse" xlink:href="#a"/>
  <linearGradient id="r" x1="86.551" x2="76.285" y1="131.98" y2="126.85" gradientTransform="translate(-3e-6,30.799)" gradientUnits="userSpaceOnUse" xlink:href="#a"/>
  <linearGradient id="l" x1="86.551" x2="76.285" y1="131.98" y2="126.85" gradientTransform="translate(-8e-6,38.498)" gradientUnits="userSpaceOnUse" xlink:href="#a"/>
  <linearGradient id="h" x1="86.551" x2="76.285" y1="131.98" y2="126.85" gradientTransform="translate(-3e-6,46.198)" gradientUnits="userSpaceOnUse" xlink:href="#a"/>
  <linearGradient id="w" x1="446.97" x2="355.97" y1="696.57" y2="576.3" gradientUnits="userSpaceOnUse" xlink:href="#b"/>
  <linearGradient id="x" x1="99.385" x2="76.285" y1="129.78" y2="126.78" gradientUnits="userSpaceOnUse" xlink:href="#b"/>
  <linearGradient id="v" x1="446.97" x2="355.97" y1="696.57" y2="576.3" gradientTransform="scale(.26458)" gradientUnits="userSpaceOnUse" xlink:href="#b"/>
  <linearGradient id="ag" x1="658.24" x2="655.69" y1="542.88" y2="466.27" gradientUnits="userSpaceOnUse" xlink:href="#b"/>
  <linearGradient id="ae" x1="81.804" x2="81.813" y1="174.13" y2="165.39" gradientUnits="userSpaceOnUse" xlink:href="#b"/>
  <linearGradient id="af" x1="95.302" x2="94.767" y1="176.93" y2="165.15" gradientUnits="userSpaceOnUse" xlink:href="#b"/>
  <linearGradient id="aa" x1="86.551" x2="76.285" y1="131.98" y2="126.85" gradientTransform="matrix(2.2501 0 0 .58445 -95.363 59.169)" gradientUnits="userSpaceOnUse" xlink:href="#a"/>
  <linearGradient id="z" x1="86.551" x2="76.285" y1="131.98" y2="126.85" gradientTransform="matrix(3.5001 0 0 .58445 -190.72 65.698)" gradientUnits="userSpaceOnUse" xlink:href="#a"/>
  <linearGradient id="y" x1="86.551" x2="76.285" y1="131.98" y2="126.85" gradientTransform="matrix(3.5001 0 0 .58445 -190.72 72.227)" gradientUnits="userSpaceOnUse" xlink:href="#a"/>
  <linearGradient id="ar" x1="86.551" x2="76.285" y1="131.98" y2="126.85" gradientTransform="matrix(3.5001 0 0 .58446 306.33 723.81)" gradientUnits="userSpaceOnUse" xlink:href="#a"/>
  <linearGradient id="as" x1="86.551" x2="76.285" y1="131.98" y2="126.85" gradientTransform="matrix(3.5001 0 0 .58446 306.33 710.76)" gradientUnits="userSpaceOnUse" xlink:href="#a"/>
  <linearGradient id="au" x1="86.551" x2="76.285" y1="131.98" y2="126.85" gradientTransform="matrix(3.5001 0 0 .58446 306.33 704.23)" gradientUnits="userSpaceOnUse" xlink:href="#a"/>
  <linearGradient id="ay" x1="86.551" x2="76.285" y1="131.98" y2="126.85" gradientTransform="matrix(3.5001 0 0 .58446 306.33 697.7)" gradientUnits="userSpaceOnUse" xlink:href="#a"/>
  <linearGradient id="at" x1="86.551" x2="76.285" y1="131.98" y2="126.85" gradientTransform="matrix(3.5001 0 0 .58446 306.33 717.28)" gradientUnits="userSpaceOnUse" xlink:href="#a"/>
  <linearGradient id="aq" x1="86.551" x2="76.285" y1="131.98" y2="126.85" gradientTransform="matrix(3.5001 0 0 .58446 306.33 691.17)" gradientUnits="userSpaceOnUse" xlink:href="#a"/>
  <linearGradient id="az" x1="86.551" x2="76.285" y1="131.98" y2="126.85" gradientTransform="matrix(2.2501 0 0 .58446 401.68 684.64)" gradientUnits="userSpaceOnUse" xlink:href="#a"/>
  <linearGradient id="ba" x1="446.97" x2="355.97" y1="696.57" y2="576.3" gradientTransform="matrix(.26458 0 0 .26458 497.06 625.47)" gradientUnits="userSpaceOnUse" xlink:href="#b"/>
  <linearGradient id="be" x1="99.385" x2="76.285" y1="129.78" y2="126.78" gradientTransform="matrix(.99998 0 0 .99998 497.06 625.47)" gradientUnits="userSpaceOnUse" xlink:href="#b"/>
  <linearGradient id="aw" x1="86.551" x2="76.285" y1="131.98" y2="126.85" gradientTransform="matrix(1.0262,0,0,1.4865,-2.0599,-43.357)" gradientUnits="userSpaceOnUse" xlink:href="#a"/>
  <linearGradient id="ax" x1="86.551" x2="76.285" y1="131.98" y2="126.85" gradientTransform="matrix(1.0262,0,0,1.4865,10.742,-43.357)" gradientUnits="userSpaceOnUse" xlink:href="#a"/>
  <linearGradient id="av" x1="86.551" x2="76.285" y1="131.98" y2="126.85" gradientTransform="matrix(1.0262,0,0,1.4865,23.493,-31.937)" gradientUnits="userSpaceOnUse" xlink:href="#a"/>
  <linearGradient id="bd" x1="96.781" x2="92.08" y1="162.2" y2="158.37" gradientTransform="matrix(1.1017,0,0,1.1017,-9.5562,-16.366)" gradientUnits="userSpaceOnUse" xlink:href="#a"/>
  <linearGradient id="bc" x1="112.75" x2="69.689" y1="79.098" y2="51.098" gradientTransform="matrix(.26458 0 0 .26458 69.972 121.16)" gradientUnits="userSpaceOnUse" xlink:href="#b"/>
  <linearGradient id="bb" x1="112.75" x2="69.689" y1="79.098" y2="51.098" gradientTransform="matrix(.26458 0 0 .26458 69.972 156.08)" gradientUnits="userSpaceOnUse" xlink:href="#b"/>
  <linearGradient id="ab" x1="-29.26" x2="-35.731" y1="-9.2924" y2="-10.615" gradientTransform="matrix(13.969,0,0,6.3517,-2036.4,243.22)" gradientUnits="userSpaceOnUse" xlink:href="#a"/>
  <linearGradient id="ad" x1="-26.124" x2="-38.026" y1="45.95" y2="45.28" gradientTransform="matrix(13.969,0,0,6.3517,-2037.8,39.726)" gradientUnits="userSpaceOnUse" xlink:href="#a"/>
  <linearGradient id="ac" x1="-26.821" x2="-37.138" y1="46.09" y2="46.257" gradientTransform="matrix(13.969,0,0,6.3517,-2037.8,137.23)" gradientUnits="userSpaceOnUse" xlink:href="#a"/>
  <linearGradient id="linearGradient13114-2-2-4-1-6" x1="-509.95" x2="-452.17" y1="-208.61" y2="-133.5" gradientTransform="matrix(.65517 0 0 .65049 587.42 273.2)" gradientUnits="userSpaceOnUse" xlink:href="#ak"/>
  <linearGradient id="linearGradient13114-2-2-3-1" x1="-551.95" x2="-455.6" y1="-184.21" y2="-248.14" gradientTransform="matrix(.8245 0 0 .81861 673.87 345.73)" gradientUnits="userSpaceOnUse" xlink:href="#ak"/>
  <linearGradient id="linearGradient13137-7-8-8-9-9" x1="-460.78" x2="-490.55" y1="-237.35" y2="-273.89" gradientTransform="matrix(.85657 0 0 .84119 692.92 342.26)" gradientUnits="userSpaceOnUse" xlink:href="#a"/>
  <linearGradient id="linearGradient13137-7-8-8-5-8-6" x1="-460.78" x2="-490.55" y1="-237.35" y2="-273.89" gradientTransform="matrix(.85657 0 0 .84119 692.92 371.9)" gradientUnits="userSpaceOnUse" xlink:href="#a"/>
  <linearGradient id="linearGradient13137-7-8-8-5-4-4-8" x1="-464.42" x2="-490.55" y1="-240.69" y2="-273.89" gradientTransform="matrix(.85657 0 0 .84119 692.81 401.88)" gradientUnits="userSpaceOnUse" xlink:href="#a"/>
  <linearGradient id="linearGradient13114-2-2-4-1" x1="-509.95" x2="-452.17" y1="-208.61" y2="-133.5" gradientTransform="matrix(.65517 0 0 .65049 587.42 273.2)" gradientUnits="userSpaceOnUse" xlink:href="#ak"/>
  <linearGradient id="linearGradient13114-2-2-3" x1="-551.95" x2="-455.6" y1="-184.21" y2="-248.14" gradientTransform="matrix(.8245 0 0 .81861 673.87 345.73)" gradientUnits="userSpaceOnUse" xlink:href="#ak"/>
  <linearGradient id="linearGradient13137-7-8-8-9" x1="-460.78" x2="-490.55" y1="-237.35" y2="-273.89" gradientTransform="matrix(.85657 0 0 .84119 692.92 342.26)" gradientUnits="userSpaceOnUse" xlink:href="#a"/>
  <linearGradient id="linearGradient13137-7-8-8-5-8" x1="-460.78" x2="-490.55" y1="-237.35" y2="-273.89" gradientTransform="matrix(.85657 0 0 .84119 692.92 371.9)" gradientUnits="userSpaceOnUse" xlink:href="#a"/>
  <linearGradient id="linearGradient13137-7-8-8-5-4-4" x1="-464.42" x2="-490.55" y1="-240.69" y2="-273.89" gradientTransform="matrix(.85657 0 0 .84119 692.81 401.88)" gradientUnits="userSpaceOnUse" xlink:href="#a"/>
 </defs>
 <metadata>
  <rdf:RDF>
   <cc:Work rdf:about="">
    <dc:format>image/svg+xml</dc:format>
    <dc:type rdf:resource="http://purl.org/dc/dcmitype/StillImage"/>
    <dc:title>Vivid Code Collaboration</dc:title>
   </cc:Work>
  </rdf:RDF>
 </metadata>
 <circle cx="1190.5" cy="514.82" r="89.801" fill="#008fdc" opacity=".3" stroke="#a5e0ff" stroke-width="39.999"/>
 <circle cx="844.6" cy="109.8" r="89.801" fill="#5a7f96" opacity=".2" stroke="#c7d5dd" stroke-width="39.999"/>
 <g transform="matrix(.25049 0 0 .25049 1029.5 389.3)" opacity=".5">
  <path transform="translate(-115,-59.2)" d="m787.44 267.21c-2.09-11.49-4.23-23.11-9-33.8a74.23 74.23 0 0 0-23.75-29.56 8 8 0 0 0-5.36-1.6c-3 0.26-3.92 2.1-4.39 4-0.06 0.23-0.11 0.45-0.15 0.68-1.18 5.83-0.39 11.59 1.32 17.27 2.13 7.09 5.7 14 8.67 20.86a139.16 139.16 0 0 1 10.53 38.6c0.22 1.76 0.39 3.57 0.43 5.38a31.34 31.34 0 0 1-0.08 3.23 19.26 19.26 0 0 1-1.42 6.13q-0.21 0.48-0.45 1t-0.52 0.92c-1.82 3-4.66 5.14-7.44 7.25s-5.93 4.36-9.25 5.5h0.11a13.35 13.35 0 0 1-4.82 0.79c-5.13-0.16-10.6-4.29-15.76-3.32l-0.58 0.13c-5.28 1.43-9.33 9.73-9.37 15q0 0.63 0 1.22c0 0.14 0 0.28 0.05 0.42s0.06 0.53 0.1 0.78 0.06 0.31 0.1 0.46 0.09 0.45 0.15 0.67 0.09 0.31 0.14 0.46 0.13 0.41 0.2 0.61 0.12 0.3 0.18 0.44 0.16 0.38 0.25 0.56l0.22 0.42c0.1 0.17 0.19 0.35 0.3 0.52l0.26 0.4 0.34 0.48 0.29 0.37 0.39 0.44 0.32 0.34 0.43 0.41 0.35 0.31 0.47 0.38 0.37 0.29 0.51 0.35 0.38 0.26 0.56 0.33 0.39 0.22 0.63 0.31 0.37 0.18c0.3 0.14 0.61 0.27 0.92 0.39l0.45 0.17 0.72 0.26 0.52 0.16 0.59 0.18 0.58 0.15 0.56 0.14 0.62 0.13 0.54 0.11 0.65 0.11 0.52 0.08 0.67 0.09 0.5 0.06 0.7 0.06h5.1l0.88-0.07h0.17a28.85 28.85 0 0 0 7.31-1.61c7.47-2.83 13.81-8 19.68-13.43 11.64-10.75 22.64-24.09 23.57-39.91 0.36-5.71-0.69-11.47-1.72-17.16z" fill="url(#bg)"/>
 </g>
 <g stroke-width=".25049">
  <circle cx="1175.3" cy="430.37" r="3.7274" fill="#008fe1"/>
  <path d="m1168.3 436.11-0.045-0.0451a0.68635 0.68635 0 0 0 0-1.0946l0.04-0.0501a0.75149 0.75149 0 0 1 0 1.1874z" fill="#4d8af0"/>
  <path d="m1168.3 436.11-0.045-0.0451a0.68635 0.68635 0 0 0 0-1.0946l0.04-0.0501a0.75149 0.75149 0 0 1 0 1.1874z" opacity=".1"/>
  <path d="m1168.2 436.11a0.75149 0.75149 0 0 1 0-1.1873l0.04 0.0501a0.68635 0.68635 0 0 0 0 1.0947z" fill="#4d8af0"/>
 </g>
 <polyline transform="matrix(.25049 0 0 .25049 1029.1 382.13)" points="555.37 210.9 555.37 210.9 555.37 210.9 555.37 210.9" fill="#4d8af0"/>
 <path d="m1187.3 456.16c1.7109-0.64877 3.1612-1.8336 4.509-3.076 2.6654-2.4599 5.1802-5.5109 5.3956-9.1354 0.078-1.3226-0.1603-2.6402-0.3983-3.9454-0.4785-2.6302-0.9669-5.2905-2.0516-7.7353a16.991 16.991 0 0 0-5.4358-6.7635 1.8286 1.8286 0 0 0-1.2299-0.36573c-0.7515 0.0677-0.9418 0.58367-1.042 1.0771-0.6088 3.0059 1.0621 5.9218 2.2845 8.7272a31.858 31.858 0 0 1 2.4097 8.8348c0.1578 1.2926 0.2155 2.6902-0.4659 3.8025-0.4158 0.68135-1.0671 1.1773-1.7033 1.6583-0.9519 0.71891-2.004 1.4729-3.1964 1.4378s-2.525-1.0596-3.7573-0.72894c-1.2325 0.33064-2.1368 2.2269-2.1443 3.4416-0.015 3.2914 4.5365 3.6372 6.8259 2.7704z" fill="#ffd180" stroke-width=".25049"/>
 <g transform="matrix(.25049 0 0 .25049 1029.1 382.13)" opacity=".1">
  <path transform="translate(-115,-59.2)" d="m762.36 320.55c-1.66 2.72-4.26 4.7-6.8 6.62a31.6 31.6 0 0 1-8.46 5c4.32-0.29 8.19-3 11.7-5.69 2.54-1.92 5.14-3.91 6.8-6.62 2.71-4.43 2.49-10 1.86-15.18a127.16 127.16 0 0 0-9.62-35.27c-4.88-11.21-11.56-22.86-9.12-34.84a5.19 5.19 0 0 1 2-3.62 6.53 6.53 0 0 0-1.11 0c-3 0.27-3.76 2.33-4.16 4.3-2.43 12 4.24 23.64 9.12 34.84a127.16 127.16 0 0 1 9.62 35.27c0.66 5.17 0.89 10.75-1.83 15.19z"/>
  <path transform="translate(-115,-59.2)" d="m722.52 343.08c0-4.48 3.19-11.29 7.48-13.33a7.85 7.85 0 0 0-2.17 0.25c-4.83 1.31-8.53 8.89-8.56 13.74-0.06 12.26 15.73 14.26 25.28 11.69-9.49 1.38-22.09-1.43-22.03-12.35z"/>
 </g>
 <path d="m1164.1 419.94s6.5579-1.3126 9.8369 0c0 0 1.9664-4.5915 3.9353-4.5915 1.969 0 2.6227 7.2143 2.6227 7.2143l2.6227 10.493s12.462 22.294 0 34.104c-12.462 11.811-32.139-1.3126-32.139-9.8368s3.9354-26.234 3.9354-26.234 3.9354-14.429 5.248-15.741c1.3125-1.3126 3.9377 4.5915 3.9377 4.5915z" fill="#ffd180" stroke-width=".25049"/>
 <g transform="matrix(.25049 0 0 .25049 1029.1 382.13)" fill="#fff" opacity=".1">
  <path transform="translate(-115,-59.2)" d="m748 311.48a207.1 207.1 0 0 0-18.32-48.93l1.65 6.62a207 207 0 0 1 16.67 42.31z"/>
  <path transform="translate(-115,-59.2)" d="m606.12 352.37c0-34 12.67-91.06 12.67-91.06s15.71-57.6 20.95-62.84 15.71 18.33 15.71 18.33 26.18-5.24 39.27 0c0 0 7.86-18.33 15.71-18.33 3 0 5.31 4.34 6.93 9.65-1.6-7.77-4.32-16.27-8.58-16.27-7.85 0-15.71 18.33-15.71 18.33-13.09-5.24-39.27 0-39.27 0s-10.47-23.56-15.71-18.33-20.95 62.84-20.95 62.84-12.67 57-12.67 91.06c-0.01 3.08 1.65 7.6 1.65 6.62z"/>
 </g>
 <g stroke-width=".25049">
  <g fill="#58555d">
   <circle cx="1176.9" cy="431.42" r="1.3126"/>
   <circle cx="1161.8" cy="431.42" r="1.3126"/>
   <ellipse cx="1169.7" cy="432.72" rx="1.9664" ry="1.3126"/>
  </g>
  <g fill="#ffd180">
   <rect transform="rotate(-12.52)" x="1059.2" y="676.79" width="6.047" height=".65629"/>
   <rect transform="rotate(-11.27)" x="1073.2" y="656.11" width="6.6883" height=".65629"/>
   <rect transform="rotate(-68.2)" x="29.455" y="1227.3" width=".65629" height="7.064"/>
  </g>
  <path d="m1168 441.13a30.003 30.003 0 0 1-5.1225-0.43587 28.305 28.305 0 0 1-9.2484-3.3242l0.228-1.0596a31.125 31.125 0 0 0 9.2682 3.2564c4.7217 0.80911 12.843 0.56612 21.097-3.9878l0.5511 1.002c-5.992 3.3115-12.299 4.5489-16.773 4.5489z" opacity=".1"/>
  <path d="m1184.2 435.34c-8.2663 4.554-16.377 4.7968-21.096 3.9878a31.125 31.125 0 0 1-9.2683-3.2564l-0.6062 0.9669a31.631 31.631 0 0 0 9.6265 3.4094 30.003 30.003 0 0 0 5.1252 0.43836c4.4738 0 10.771-1.2349 16.783-4.5415zm-16.009 5.4556a0.12775 0.12775 0 1 1 0.1277-0.12777 0.12775 0.12775 0 0 1-0.1277 0.12525z" fill="#f55f44"/>
  <path d="m1167 442.56a1.2675 1.2675 0 0 0 1.2675 1.2675 1.2675 1.2675 0 0 0 1.2675-1.2675 1.2675 1.2675 0 0 0-1.2675-1.2675 1.2675 1.2675 0 0 0-1.2675 1.2675zm1.2675-0.63375a0.21042 0.21042 0 1 1 0.2104-0.21042 0.21042 0.21042 0 0 1-0.2079 0.21042z" fill="url(#bf)" opacity=".1"/>
  <path d="m1167.1 442.56a1.1422 1.1422 0 0 0 1.1422 1.1422 1.1422 1.1422 0 0 0 1.1423-1.1422 1.1422 1.1422 0 0 0-1.1423-1.1423 1.1422 1.1422 0 0 0-1.1422 1.1423zm1.1422-0.57115a0.19038 0.19038 0 1 1 0.1904-0.19036 0.19038 0.19038 0 0 1-0.1904 0.19036z" fill="#4d8af0"/>
  <path d="m1182.6 435.71c-17.457 10.27-27.516 0.75146-27.516 0.75146z" fill="#ffd180"/>
  <path d="m1166.9 452.3s4.5617 9.917-1.4278 10.771c-5.9893 0.8542-3.2564-8.3065-3.2564-8.3065s-0.5987-2.7178-2.0566-2.8707" opacity=".1"/>
  <path d="m1172.4 452.06s-5.4231 9.4738 0.466 10.846c5.889 1.3727 3.9803-7.9832 3.9803-7.9832s0.8367-2.6527 2.3046-2.6778" opacity=".1"/>
  <rect x="1163" y="460.74" width=".1027" height="1.9363" fill="#58555d" opacity=".5"/>
  <rect x="1164.7" y="460.74" width=".1027" height="1.9363" fill="#58555d" opacity=".5"/>
 </g>
 <circle cx="1190.5" cy="1035.3" r="89.801" fill="#008fdc" opacity=".3" stroke="#a5e0ff" stroke-width="39.999"/>
 <g fill="#0bdc00" stroke="#a9ffa5" stroke-width="39.999">
  <circle cx="500.4" cy="1038" r="89.801" opacity=".3"/>
  <circle cx="109.8" cy="862.85" r="89.801" opacity=".3"/>
  <circle cx="500.4" cy="514.29" r="89.801" opacity=".3"/>
 </g>
 <g fill="none" stroke-width="3.9999">
  <path d="m489.6 959.86c-96.005-130.29-105.5-205.9-0.8911-366.79" marker-end="url(#br)" stroke="#4b6a7d"/>
  <path d="m433.22 483.78c-305.64-11.905-5.2765-368.19 50.601-45.383" marker-end="url(#bi)" stroke="#b6c8d3" stroke-dasharray="23.99969794, 3.99994966"/>
  <path d="m510.4 593.09c101.45 132.98 113.65 242.73 2.5001 368.9" marker-end="url(#bl)" stroke="#b6c8d3" stroke-dasharray="23.99969794, 3.99994966"/>
  <g stroke="#4b6a7d">
   <path d="m1179.4 955.32c-96.005-130.29-107.91-202.43-3.2964-363.29" marker-end="url(#bj)"/>
   <path d="m1200.2 588.55c101.45 132.98 113.65 242.73 2.5001 368.9" marker-end="url(#bk)"/>
   <path d="m578.76 509.58c176.39-39.441 348.8-42.105 534-1.9641" marker-end="url(#bq)" marker-start="url(#ao)"/>
  </g>
  <path d="m1257.1 483.97c305.64-11.905 5.5438-368.45-50.334-45.651" marker-end="url(#an)" stroke="#b6c8d3" stroke-dasharray="23.99969794, 3.99994966"/>
  <path d="m107.73 936.1c-0.23688 158.11 149.27 311.62 327.26 146.74" marker-end="url(#bp)" stroke="#4b6a7d"/>
  <g stroke="#b6c8d3" stroke-dasharray="23.99969794, 3.99994966">
   <path d="m830.62 183.41c-1.3059 108.93-148 266.72-259.95 298.42" marker-end="url(#bo)"/>
   <path d="m859.34 183.41c1.3059 108.93 147.47 266.46 259.42 298.16" marker-end="url(#bn)"/>
   <path d="m561.94 1085.7c139.38 102.66 404.3 108.02 568.74 0.2956" marker-end="url(#ap)" marker-start="url(#bh)"/>
  </g>
 </g>
 <circle cx="1570.3" cy="862.85" r="89.801" fill="#008fdc" opacity=".3" stroke="#a5e0ff" stroke-width="39.999"/>
 <g transform="matrix(.26458 0 0 .26458 130.83 740.52)">
  <rect x="841.18" y="789.82" width="220.26" height="234.94" rx="63.686" ry="63.686" fill="none" opacity=".3" stroke="#a5ffa1" stroke-width="37.795"/>
  <rect x="846.81" y="795.11" width="207.79" height="221.64" rx="63.686" ry="63.686" fill="#0be100" stroke-width="1.5507"/>
  <g fill="#fff" stroke-width="1.5507">
   <path d="m962.58 949.55v-7.8619a49.621 49.621 0 1 0-24.811 0v7.8619a48.257 48.257 0 0 0-35.665 46.427v21.709h96.141v-21.709a48.257 48.257 0 0 0-35.665-46.427z"/>
   <circle cx="950.18" cy="882.78" r="52.723"/>
   <path d="m1002.8 886.43s-2.9618 56.832 20.298 63.034c0 0-48.07 26.361-57.374-31.013z"/>
   <path d="m897.59 886.43s2.9618 56.832-20.298 63.034c0 0 48.07 26.361 57.374-31.013z"/>
  </g>
 </g>
 <g transform="matrix(.26458 0 0 .26458 245.13 1026.2)">
  <rect x="837.58" y="398" width="220.26" height="234.94" rx="63.686" ry="63.686" fill="none" opacity=".3" stroke="#a5ffa1" stroke-width="37.795"/>
  <rect x="843.81" y="404.65" width="207.79" height="221.64" rx="63.686" ry="63.686" fill="#0be100" stroke-width="1.5507"/>
  <path d="m1017.5 492.36c-1.5506-13.165-3.8766-26.361-8.9163-38.674-5.0396-12.312-13.134-23.617-24.423-30.626a27.912 27.912 0 0 0-13.491-4.652c-8.8232-0.31014-16.98 5.6444-21.523 13.212a61.623 61.623 0 0 0-4.0162 8.172 19.027 19.027 0 0 0-15.786 17.429 48.505 48.505 0 0 0 6.8849 91.567v8.265a48.675 48.675 0 0 0-36.363 46.939v22.485h96.963v-22.5a48.675 48.675 0 0 0-36.363-46.939v-8.2495a48.505 48.505 0 0 0 36.363-46.954v-0.34115l5.4583 12.142c5.1948 11.568 10.514 23.973 8.4822 36.503 9.9707-17.057 9.1489-38.177 6.7298-57.778z" fill="#fff" stroke-width="1.5507"/>
 </g>
 <g transform="matrix(.26458 0 0 .26458 363.34 639.44)">
  <rect x="851.09" y="1170.2" width="220.26" height="234.94" rx="63.686" ry="63.686" fill="none" opacity=".3" stroke="#a5ffa1" stroke-width="37.795"/>
  <rect x="857.32" y="1176.9" width="207.79" height="221.64" rx="63.686" ry="63.686" fill="#0be100" stroke-width="1.5507"/>
  <g fill="#fff" stroke-width="1.5507">
   <path d="m920.89 1269.4a37.076 37.076 0 0 1-4.0782-19.228 25.71 25.71 0 0 1 8.4666-17.445c5.5668-4.745 13.119-6.4198 20.407-7.009 7.2881-0.5893 14.685-0.2326 21.864-1.6437a45.698 45.698 0 0 0 29.184-19.786 61.453 61.453 0 0 1-0.1551 16.825c-1.0854 5.5204-3.9232 10.948-8.7147 13.956 5.7995-2.6827 5.1792 3.613 3.9077 7.3811 2.8842 3.4735 9.8622 4.0473 10.219 8.5442a28.284 28.284 0 0 1-1.4576 13.289c-1.7522 4.1402 0.1241 11.444-4.3574 11.77" stroke="#fff" stroke-miterlimit="10"/>
   <path d="m991.18 1232.9s25.508 2.2174 7.3502 40.1"/>
   <path d="m972.49 1331.5v-7.8619a49.621 49.621 0 1 0-24.811 0v7.8619a48.257 48.257 0 0 0-35.665 46.427v21.709h96.141v-21.709a48.257 48.257 0 0 0-35.665-46.427z"/>
  </g>
 </g>
 <g transform="matrix(.26458 0 0 .26458 821.43 740.52)">
  <rect x="841.18" y="789.82" width="220.26" height="234.94" rx="63.686" ry="63.686" fill="none" opacity=".3" stroke="#a1dfff" stroke-width="37.795"/>
  <rect x="846.81" y="795.11" width="207.79" height="221.64" rx="63.686" ry="63.686" fill="#0094e1" stroke-width="1.5507"/>
  <g fill="#fff" stroke-width="1.5507">
   <path d="m962.58 949.55v-7.8619a49.621 49.621 0 1 0-24.811 0v7.8619a48.257 48.257 0 0 0-35.665 46.427v21.709h96.141v-21.709a48.257 48.257 0 0 0-35.665-46.427z"/>
   <circle cx="950.18" cy="882.78" r="52.723"/>
   <path d="m1002.8 886.43s-2.9618 56.832 20.298 63.034c0 0-48.07 26.361-57.374-31.013z"/>
   <path d="m897.59 886.43s2.9618 56.832-20.298 63.034c0 0 48.07 26.361 57.374-31.013z"/>
  </g>
 </g>
 <g transform="matrix(.26458 0 0 .26458 935.74 1026.2)">
  <rect x="837.58" y="398" width="220.26" height="234.94" rx="63.686" ry="63.686" fill="none" opacity=".3" stroke="#a1dfff" stroke-width="37.795"/>
  <rect x="843.81" y="404.65" width="207.79" height="221.64" rx="63.686" ry="63.686" fill="#0094e1" stroke-width="1.5507"/>
  <path d="m1017.5 492.36c-1.5506-13.165-3.8766-26.361-8.9163-38.674-5.0396-12.312-13.134-23.617-24.423-30.626a27.912 27.912 0 0 0-13.491-4.652c-8.8232-0.31014-16.98 5.6444-21.523 13.212a61.623 61.623 0 0 0-4.0162 8.172 19.027 19.027 0 0 0-15.786 17.429 48.505 48.505 0 0 0 6.8849 91.567v8.265a48.675 48.675 0 0 0-36.363 46.939v22.485h96.963v-22.5a48.675 48.675 0 0 0-36.363-46.939v-8.2495a48.505 48.505 0 0 0 36.363-46.954v-0.34115l5.4583 12.142c5.1948 11.568 10.514 23.973 8.4822 36.503 9.9707-17.057 9.1489-38.177 6.7298-57.778z" fill="#fff" stroke-width="1.5507"/>
 </g>
 <g transform="matrix(.26458 0 0 .26458 1054 639.44)">
  <rect x="851.09" y="1170.2" width="220.26" height="234.94" rx="63.686" ry="63.686" fill="none" opacity=".3" stroke="#a1dfff" stroke-width="37.795"/>
  <rect x="857.32" y="1176.9" width="207.79" height="221.64" rx="63.686" ry="63.686" fill="#0094e1" stroke-width="1.5507"/>
  <g fill="#fff" stroke-width="1.5507">
   <path d="m920.89 1269.4a37.076 37.076 0 0 1-4.0782-19.228 25.71 25.71 0 0 1 8.4666-17.445c5.5668-4.745 13.119-6.4198 20.407-7.009 7.2881-0.5893 14.685-0.2326 21.864-1.6437a45.698 45.698 0 0 0 29.184-19.786 61.453 61.453 0 0 1-0.1551 16.825c-1.0854 5.5204-3.9232 10.948-8.7147 13.956 5.7995-2.6827 5.1792 3.613 3.9077 7.3811 2.8842 3.4735 9.8622 4.0473 10.219 8.5442a28.284 28.284 0 0 1-1.4576 13.289c-1.7522 4.1402 0.1241 11.444-4.3574 11.77" stroke="#fff" stroke-miterlimit="10"/>
   <path d="m991.18 1232.9s25.508 2.2174 7.3502 40.1"/>
   <path d="m972.49 1331.5v-7.8619a49.621 49.621 0 1 0-24.811 0v7.8619a48.257 48.257 0 0 0-35.665 46.427v21.709h96.141v-21.709a48.257 48.257 0 0 0-35.665-46.427z"/>
  </g>
 </g>
 <path d="m1569.9 939.69c0.2369 158.11-142.65 312.76-320.64 147.87" fill="none" marker-end="url(#bm)" stroke="#4b6a7d" stroke-width="3.9999"/>
 <g transform="matrix(.85655 0 0 .85655 1099.2 916.63)">
  <g stroke-width=".64688">
   <path d="m126.85 204.08v1.3326h-39.402v-1.0803a12.938 12.938 0 0 0 8.4483-12.148 12.938 12.938 0 0 0-7.5556-11.767h38.244a12.938 12.938 0 0 0 0.26522 23.663z" fill="#b6c8d3"/>
   <path d="m126.58 180.41a12.938 12.938 0 0 0-7.1481 8.5841h-23.935a12.976 12.976 0 0 0-7.161-8.5841z" opacity=".1"/>
   <path d="m42.327 179.97v0.60527c0 4.1271 3.0274 7.478 6.7535 7.478h115.93c3.726 0 6.7535-3.3508 6.7535-7.478v-0.60527z" fill="#b6c8d3"/>
   <path d="m126.85 204.08v1.3326h-39.402v-1.0803a13.041 13.041 0 0 0 3.0403-1.6172h33.948a13.015 13.015 0 0 0 2.4129 1.3649z" fill="#3f3d56" opacity=".1"/>
   <rect x="74.431" y="203.12" width="65.445" height="3.946" rx="1.973" fill="#b6c8d3"/>
   <path d="m171.76 99.604c0-3.7298-3.0236-6.7535-6.7535-6.7535h-115.93c-3.7298 0-6.7535 3.0236-6.7535 6.7535v81.292h129.43z" fill="#b6c8d3"/>
  </g>
  <path d="m165.05 102.61v71.675a3.1709 3.325 0 0 1-3.1709 3.325h-110.36a3.1709 3.325 0 0 1-3.1709-3.325v-71.675a3.1401 3.2926 0 0 1 0.45651-1.656 3.1771 3.3314 0 0 1 2.7452-1.6625h110.33a3.1709 3.325 0 0 1 3.1709 3.3185z" fill="#dce5ea" stroke-width=".63172"/>
  <circle cx="107.05" cy="96.066" r="1.559" fill="#fff" stroke-width=".64688"/>
  <path d="m152.57 188.49c-0.14229 0-0.27815-0.0323-0.41402-0.0582a0.86035 0.86035 0 0 1 0.41402 0.0582z" fill="#3f3d56" opacity=".1" stroke-width=".64688"/>
  <g transform="matrix(.22005 -.017596 .01828 .21182 -683.95 -39.314)">
   <g transform="translate(944.43,773.93)">
    <rect transform="rotate(4.6102)" x="2331.2" y="-20.481" width="244.88" height="338.35" fill="#808080" fill-opacity=".25" stroke-width=".57995"/>
    <rect transform="matrix(.99677 .080367 -.080386 .99676 0 0)" x="2334.3" y="-17.962" width="238.65" height="332.2" fill="#fff" stroke-width=".58111"/>
    <g fill="#e0e0e0" stroke-width=".60636">
     <rect transform="rotate(4.8911)" x="2352.8" y="-6.5306" width="195.8" height="2.9651"/>
     <rect transform="rotate(4.8911)" x="2352.8" y="27.589" width="176.52" height="2.9651"/>
     <rect transform="rotate(4.8911)" x="2352.8" y="61.705" width="195.8" height="2.9651"/>
     <rect transform="rotate(4.8911)" x="2352.8" y="78.763" width="195.8" height="2.9651"/>
     <rect transform="rotate(4.8911)" x="2354.8" y="9.5767" width="176.52" height="2.9651"/>
     <rect transform="rotate(4.8911)" x="2353.2" y="46.069" width="195.8" height="2.9651"/>
     <rect transform="rotate(4.8911)" x="2354.1" y="95.191" width="195.8" height="2.9651"/>
     <rect transform="rotate(4.8911)" x="2354.1" y="129.31" width="176.52" height="2.9651"/>
     <rect transform="rotate(4.8911)" x="2354.1" y="163.43" width="195.8" height="2.9651"/>
     <rect transform="rotate(4.8911)" x="2354.1" y="180.48" width="195.8" height="2.9651"/>
     <rect transform="rotate(4.8911)" x="2356.2" y="111.3" width="176.52" height="2.9651"/>
     <rect transform="rotate(4.8911)" x="2354.5" y="147.79" width="195.8" height="2.9651"/>
    </g>
   </g>
  </g>
  <g fill="#fff">
   <path d="m130.29 148.98-0.5452 2.1942a9.1854 9.1854 0 0 0-2.1979 0.049l-0.6558-2.1414-2.0585 0.6308 0.6353 2.0731a9.1854 9.1854 0 0 0-2.2845 1.3188l-1.6386-1.5256-1.4667 1.5755 1.5891 1.4797a9.1854 9.1854 0 0 0-1.4331 2.5895l-2.3576-0.5858-0.4646 1.8693 2.3659 0.588a9.1854 9.1854 0 0 0 0.043 2.6978l-2.1318 0.6942 0.6667 2.0465 2.0577-0.6702a9.1854 9.1854 0 0 0 1.4605 2.3773l-1.5289 1.5329 1.5236 1.5211 1.5852-1.5885a9.1854 9.1854 0 0 0 1.9134 1.0859l-0.5427 2.1835 2.0894 0.5193 0.5281-2.1249a9.1854 9.1854 0 0 0 2.7617 0.016l0.6575 2.1442 2.0584-0.6309-0.635-2.0738a9.1854 9.1854 0 0 0 2.4034-1.4172l1.5071 1.5586 1.5473-1.4972-1.5543-1.607a9.1854 9.1854 0 0 0 1.3016-2.3662l2.3599 0.5864 0.4646-1.8694-2.3494-0.5838a9.195 9.195 0 0 0-0.061-2.9625l2.0969-0.5637-0.5584-2.0796-2.1734 0.5847a9.195 9.195 0 0 0-1.3966-2.2319l1.5371-1.5396-1.5237-1.5211-1.587 1.5897a9.195 9.195 0 0 0-2.4464-1.2816l0.528-2.1248zm0.3625 4.1782a7.3663 7.3663 0 1 1-8.9252 5.371 7.3663 7.3663 0 0 1 8.9252-5.371z" stroke-width=".10701"/>
   <path d="m146.71 156.58v1.7307a7.0316 7.0316 0 0 0-1.6238 0.4422l-0.8826-1.4698-1.4128 0.8487 0.8547 1.4229a7.0316 7.0316 0 0 0-1.4538 1.4015l-1.499-0.8309-0.7988 1.4413 1.4538 0.8059a7.0316 7.0316 0 0 0-0.5866 2.1885h-1.8597v1.4746h1.8662a7.0316 7.0316 0 0 0 0.5296 1.9964l-1.4556 0.9093 0.8731 1.3974 1.4051-0.8779a7.0316 7.0316 0 0 0 1.5239 1.4966l-0.8529 1.4211 1.4128 0.8487 0.8844-1.4728a7.0316 7.0316 0 0 0 1.622 0.4535v1.7225h1.6481v-1.6761a7.0316 7.0316 0 0 0 2.0547-0.4981l0.8844 1.4716 1.4128-0.8487-0.8547-1.4235a7.0316 7.0316 0 0 0 1.5239-1.4966l1.4074 0.8797 0.8732-1.3979-1.4515-0.907a7.0316 7.0316 0 0 0 0.5302-1.9982h1.8615v-1.4746h-1.8532a7.039 7.039 0 0 0-0.5925-2.1896l1.4537-0.806-0.7988-1.4419-1.5067 0.8357a7.039 7.039 0 0 0-1.4496-1.4003l0.8577-1.4276-1.4128-0.8488-0.8856 1.474a7.039 7.039 0 0 0-2.0541-0.5004v-1.6761zm1.0407 3.0371a5.6391 5.6391 0 1 1-5.6392 5.6381 5.6391 5.6391 0 0 1 5.6392-5.6381z" stroke-width=".081916"/>
   <path d="m142.21 147.16v1.0289a4.1801 4.1801 0 0 0-0.9653 0.2629l-0.5247-0.8738-0.8398 0.5046 0.5081 0.8459a4.1801 4.1801 0 0 0-0.8643 0.8331l-0.8911-0.4939-0.4748 0.8568 0.8642 0.4791a4.1801 4.1801 0 0 0-0.3487 1.301h-1.1056v0.8766h1.1094a4.1801 4.1801 0 0 0 0.3149 1.1868l-0.8653 0.5406 0.519 0.8307 0.8353-0.5219a4.1801 4.1801 0 0 0 0.9059 0.8897l-0.507 0.8448 0.8398 0.5046 0.5258-0.8756a4.1801 4.1801 0 0 0 0.9642 0.2696v1.024h0.9798v-0.9964a4.1801 4.1801 0 0 0 1.2215-0.2961l0.5257 0.8748 0.8399-0.5045-0.5081-0.8463a4.1801 4.1801 0 0 0 0.9059-0.8896l0.8367 0.5229 0.5191-0.8311-0.8629-0.5391a4.1801 4.1801 0 0 0 0.3152-1.1879h1.1066v-0.8766h-1.1016a4.1845 4.1845 0 0 0-0.3523-1.3017l0.8642-0.4791-0.4748-0.8572-0.8957 0.4968a4.1845 4.1845 0 0 0-0.8618-0.8325l0.5099-0.8487-0.8399-0.5045-0.5265 0.8763a4.1845 4.1845 0 0 0-1.2211-0.2976v-0.9964zm0.6187 1.8056a3.3523 3.3523 0 1 1-3.3524 3.3516 3.3523 3.3523 0 0 1 3.3524-3.3516z" stroke-width=".048697"/>
  </g>
 </g>
 <g transform="matrix(-.16085 0 0 .16085 842.21 1196.3)" stroke="#b6c8d3" stroke-width="19.364">
  <path d="m-337.26 21.264 41.765-94.921c-26.397-20.611-73.406-53.156-72.682-113.91-0.38872-91.61 124.46-149.14 221.84-148.08 129.45-0.1808 227.45 67.439 227.27 147.53-0.1808 108.48-151.69 178.99-306.46 141.57z" fill="#fff" stroke-linejoin="round"/>
  <g fill="none">
   <path d="m-41.511-258.47h-216.47"/>
   <path d="m-41.511-220.26h-82.184"/>
   <path d="m-41.511-181.19h-162.18"/>
   <path d="m-41.511-140.83h-200.04"/>
   <path d="m-41.511-97.544h-108.61"/>
  </g>
 </g>
 <g transform="matrix(.16085 0 0 .16085 858.94 1186.4)">
  <g stroke="#dce5ea" stroke-width="19.364">
   <path d="m-337.26 21.264 41.765-94.921c-26.397-20.611-73.406-53.156-72.682-113.91-0.38872-91.61 124.46-149.14 221.84-148.08 129.45-0.1808 227.45 67.439 227.27 147.53-0.1808 108.48-151.69 178.99-306.46 141.57z" fill="#fff" stroke-linejoin="round"/>
   <g fill="none">
    <path d="m-242.61-258.47h216.47"/>
    <path d="m-242.61-220.26h82.184"/>
    <path d="m-242.61-181.19h162.18"/>
    <path d="m-242.61-140.83h200.04"/>
    <path d="m-242.61-97.544h108.61"/>
   </g>
  </g>
 </g>
 <g transform="matrix(.85655 0 0 .85655 408.64 916.63)">
  <g stroke-width=".64688">
   <path d="m126.85 204.08v1.3326h-39.402v-1.0803a12.938 12.938 0 0 0 8.4483-12.148 12.938 12.938 0 0 0-7.5556-11.767h38.244a12.938 12.938 0 0 0 0.26522 23.663z" fill="#b6c8d3"/>
   <path d="m126.58 180.41a12.938 12.938 0 0 0-7.1481 8.5841h-23.935a12.976 12.976 0 0 0-7.161-8.5841z" opacity=".1"/>
   <path d="m42.327 179.97v0.60527c0 4.1271 3.0274 7.478 6.7535 7.478h115.93c3.726 0 6.7535-3.3508 6.7535-7.478v-0.60527z" fill="#b6c8d3"/>
   <path d="m126.85 204.08v1.3326h-39.402v-1.0803a13.041 13.041 0 0 0 3.0403-1.6172h33.948a13.015 13.015 0 0 0 2.4129 1.3649z" fill="#3f3d56" opacity=".1"/>
   <rect x="74.431" y="203.12" width="65.445" height="3.946" rx="1.973" fill="#b6c8d3"/>
   <path d="m171.76 99.604c0-3.7298-3.0236-6.7535-6.7535-6.7535h-115.93c-3.7298 0-6.7535 3.0236-6.7535 6.7535v81.292h129.43z" fill="#b6c8d3"/>
  </g>
  <path d="m165.05 102.61v71.675a3.1709 3.325 0 0 1-3.1709 3.325h-110.36a3.1709 3.325 0 0 1-3.1709-3.325v-71.675a3.1401 3.2926 0 0 1 0.45651-1.656 3.1771 3.3314 0 0 1 2.7452-1.6625h110.33a3.1709 3.325 0 0 1 3.1709 3.3185z" fill="#dce5ea" stroke-width=".63172"/>
  <circle cx="107.05" cy="96.066" r="1.559" fill="#fff" stroke-width=".64688"/>
  <path d="m152.57 188.49c-0.14229 0-0.27815-0.0323-0.41402-0.0582a0.86035 0.86035 0 0 1 0.41402 0.0582z" fill="#3f3d56" opacity=".1" stroke-width=".64688"/>
  <g transform="matrix(.22005 -.017596 .01828 .21182 -683.95 -39.314)">
   <g transform="translate(944.43,773.93)">
    <rect transform="rotate(4.6102)" x="2331.2" y="-20.481" width="244.88" height="338.35" fill="#808080" fill-opacity=".25" stroke-width=".57995"/>
    <rect transform="matrix(.99677 .080367 -.080386 .99676 0 0)" x="2334.3" y="-17.962" width="238.65" height="332.2" fill="#fff" stroke-width=".58111"/>
    <g fill="#e0e0e0" stroke-width=".60636">
     <rect transform="rotate(4.8911)" x="2352.8" y="-6.5306" width="195.8" height="2.9651"/>
     <rect transform="rotate(4.8911)" x="2352.8" y="27.589" width="176.52" height="2.9651"/>
     <rect transform="rotate(4.8911)" x="2352.8" y="61.705" width="195.8" height="2.9651"/>
     <rect transform="rotate(4.8911)" x="2352.8" y="78.763" width="195.8" height="2.9651"/>
     <rect transform="rotate(4.8911)" x="2354.8" y="9.5767" width="176.52" height="2.9651"/>
     <rect transform="rotate(4.8911)" x="2353.2" y="46.069" width="195.8" height="2.9651"/>
     <rect transform="rotate(4.8911)" x="2354.1" y="95.191" width="195.8" height="2.9651"/>
     <rect transform="rotate(4.8911)" x="2354.1" y="129.31" width="176.52" height="2.9651"/>
     <rect transform="rotate(4.8911)" x="2354.1" y="163.43" width="195.8" height="2.9651"/>
     <rect transform="rotate(4.8911)" x="2354.1" y="180.48" width="195.8" height="2.9651"/>
     <rect transform="rotate(4.8911)" x="2356.2" y="111.3" width="176.52" height="2.9651"/>
     <rect transform="rotate(4.8911)" x="2354.5" y="147.79" width="195.8" height="2.9651"/>
    </g>
   </g>
  </g>
  <g fill="#fff">
   <path d="m130.29 148.98-0.5452 2.1942a9.1854 9.1854 0 0 0-2.1979 0.049l-0.6558-2.1414-2.0585 0.6308 0.6353 2.0731a9.1854 9.1854 0 0 0-2.2845 1.3188l-1.6386-1.5256-1.4667 1.5755 1.5891 1.4797a9.1854 9.1854 0 0 0-1.4331 2.5895l-2.3576-0.5858-0.4646 1.8693 2.3659 0.588a9.1854 9.1854 0 0 0 0.043 2.6978l-2.1318 0.6942 0.6667 2.0465 2.0577-0.6702a9.1854 9.1854 0 0 0 1.4605 2.3773l-1.5289 1.5329 1.5236 1.5211 1.5852-1.5885a9.1854 9.1854 0 0 0 1.9134 1.0859l-0.5427 2.1835 2.0894 0.5193 0.5281-2.1249a9.1854 9.1854 0 0 0 2.7617 0.016l0.6575 2.1442 2.0584-0.6309-0.635-2.0738a9.1854 9.1854 0 0 0 2.4034-1.4172l1.5071 1.5586 1.5473-1.4972-1.5543-1.607a9.1854 9.1854 0 0 0 1.3016-2.3662l2.3599 0.5864 0.4646-1.8694-2.3494-0.5838a9.195 9.195 0 0 0-0.061-2.9625l2.0969-0.5637-0.5584-2.0796-2.1734 0.5847a9.195 9.195 0 0 0-1.3966-2.2319l1.5371-1.5396-1.5237-1.5211-1.587 1.5897a9.195 9.195 0 0 0-2.4464-1.2816l0.528-2.1248zm0.3625 4.1782a7.3663 7.3663 0 1 1-8.9252 5.371 7.3663 7.3663 0 0 1 8.9252-5.371z" stroke-width=".10701"/>
   <path d="m146.71 156.58v1.7307a7.0316 7.0316 0 0 0-1.6238 0.4422l-0.8826-1.4698-1.4128 0.8487 0.8547 1.4229a7.0316 7.0316 0 0 0-1.4538 1.4015l-1.499-0.8309-0.7988 1.4413 1.4538 0.8059a7.0316 7.0316 0 0 0-0.5866 2.1885h-1.8597v1.4746h1.8662a7.0316 7.0316 0 0 0 0.5296 1.9964l-1.4556 0.9093 0.8731 1.3974 1.4051-0.8779a7.0316 7.0316 0 0 0 1.5239 1.4966l-0.8529 1.4211 1.4128 0.8487 0.8844-1.4728a7.0316 7.0316 0 0 0 1.622 0.4535v1.7225h1.6481v-1.6761a7.0316 7.0316 0 0 0 2.0547-0.4981l0.8844 1.4716 1.4128-0.8487-0.8547-1.4235a7.0316 7.0316 0 0 0 1.5239-1.4966l1.4074 0.8797 0.8732-1.3979-1.4515-0.907a7.0316 7.0316 0 0 0 0.5302-1.9982h1.8615v-1.4746h-1.8532a7.039 7.039 0 0 0-0.5925-2.1896l1.4537-0.806-0.7988-1.4419-1.5067 0.8357a7.039 7.039 0 0 0-1.4496-1.4003l0.8577-1.4276-1.4128-0.8488-0.8856 1.474a7.039 7.039 0 0 0-2.0541-0.5004v-1.6761zm1.0407 3.0371a5.6391 5.6391 0 1 1-5.6392 5.6381 5.6391 5.6391 0 0 1 5.6392-5.6381z" stroke-width=".081916"/>
   <path d="m142.21 147.16v1.0289a4.1801 4.1801 0 0 0-0.9653 0.2629l-0.5247-0.8738-0.8398 0.5046 0.5081 0.8459a4.1801 4.1801 0 0 0-0.8643 0.8331l-0.8911-0.4939-0.4748 0.8568 0.8642 0.4791a4.1801 4.1801 0 0 0-0.3487 1.301h-1.1056v0.8766h1.1094a4.1801 4.1801 0 0 0 0.3149 1.1868l-0.8653 0.5406 0.519 0.8307 0.8353-0.5219a4.1801 4.1801 0 0 0 0.9059 0.8897l-0.507 0.8448 0.8398 0.5046 0.5258-0.8756a4.1801 4.1801 0 0 0 0.9642 0.2696v1.024h0.9798v-0.9964a4.1801 4.1801 0 0 0 1.2215-0.2961l0.5257 0.8748 0.8399-0.5045-0.5081-0.8463a4.1801 4.1801 0 0 0 0.9059-0.8896l0.8367 0.5229 0.5191-0.8311-0.8629-0.5391a4.1801 4.1801 0 0 0 0.3152-1.1879h1.1066v-0.8766h-1.1016a4.1845 4.1845 0 0 0-0.3523-1.3017l0.8642-0.4791-0.4748-0.8572-0.8957 0.4968a4.1845 4.1845 0 0 0-0.8618-0.8325l0.5099-0.8487-0.8399-0.5045-0.5265 0.8763a4.1845 4.1845 0 0 0-1.2211-0.2976v-0.9964zm0.6187 1.8056a3.3523 3.3523 0 1 1-3.3524 3.3516 3.3523 3.3523 0 0 1 3.3524-3.3516z" stroke-width=".048697"/>
  </g>
 </g>
 <g transform="matrix(.99998 0 0 .99998 660.32 195.84)">
  <path d="m71.472 122.42h32.081l13.206 13.108v47.268h-45.287z" fill="#fcfdfd"/>
  <g stroke-width=".28517">
   <path d="m89.119 126.85v5.133h10.266v-5.133z" fill="url(#u)"/>
   <path d="m89.119 134.55v5.133h10.266v-5.133z" fill="url(#g)"/>
   <path d="m89.119 142.25v5.133h10.266v-5.133z" fill="url(#p)"/>
   <path d="m89.119 149.94v5.133h10.266v-5.133z" fill="url(#e)"/>
   <path d="m89.119 157.64v5.133h10.266v-5.133z" fill="url(#s)"/>
   <path d="m89.119 165.34v5.133h10.266v-5.133z" fill="url(#m)"/>
   <path d="m89.119 173.04v5.133h10.266v-5.133z" fill="url(#j)"/>
   <path d="m101.95 142.25v5.133h10.266v-5.133z" fill="url(#o)"/>
   <path d="m101.95 149.94v5.133h10.266v-5.133z" fill="url(#d)"/>
   <path d="m101.95 157.64v5.133h10.266v-5.133z" fill="url(#q)"/>
   <path d="m101.95 165.34v5.133h10.266v-5.133z" fill="url(#k)"/>
   <path d="m101.95 173.04v5.133h10.266v-5.133z" fill="url(#i)"/>
   <path d="m76.285 126.85v5.133h10.266v-5.133z" fill="url(#t)"/>
   <path d="m76.285 134.55v5.133h10.266v-5.133z" fill="url(#f)"/>
   <path d="m76.285 142.25v5.133h10.266v-5.133z" fill="url(#n)"/>
   <path d="m76.285 149.94v5.133h10.266v-5.133z" fill="url(#c)"/>
   <path d="m76.285 157.64v5.133h10.266v-5.133z" fill="url(#r)"/>
   <path d="m76.285 165.34v5.133h10.266v-5.133z" fill="url(#l)"/>
   <path d="m76.285 173.04v5.133h10.266v-5.133z" fill="url(#h)"/>
  </g>
  <path transform="scale(.26458)" d="m264.46 457.04v239.53h182.5c-6e-3 -61.821 4e-3 -186.68 4e-3 -186.68l-4e-3 -4e-3v-2e-3l-53.252-52.854zm11.34 11.338h109.9l-0.0742 49.539h49.998v167.31h-159.82zm121.22 7.9219 30.508 30.279h-30.553z" color="#000000" color-rendering="auto" dominant-baseline="auto" fill="url(#w)" image-rendering="auto" shape-rendering="auto" solid-color="#000000" style="font-feature-settings:normal;font-variant-alternates:normal;font-variant-caps:normal;font-variant-ligatures:normal;font-variant-numeric:normal;font-variant-position:normal;isolation:auto;mix-blend-mode:normal;shape-padding:0;text-decoration-color:#000000;text-decoration-line:none;text-decoration-style:solid;text-indent:0;text-orientation:mixed;text-transform:none;white-space:normal"/>
 </g>
 <g transform="matrix(.99998 0 0 .99998 837.97 195.84)">
  <path d="m71.472 122.42h32.081l13.206 13.108v47.268h-45.287z" fill="#fcfdfd"/>
  <g stroke-width=".28517">
   <path d="m89.119 126.85v5.133h10.266v-5.133z" fill="url(#u)"/>
   <path d="m89.119 134.55v5.133h10.266v-5.133z" fill="url(#g)"/>
   <path d="m89.119 142.25v5.133h10.266v-5.133z" fill="url(#p)"/>
   <path d="m89.119 149.94v5.133h10.266v-5.133z" fill="url(#e)"/>
   <path d="m89.119 157.64v5.133h10.266v-5.133z" fill="url(#s)"/>
   <path d="m89.119 165.34v5.133h10.266v-5.133z" fill="url(#m)"/>
   <path d="m89.119 173.04v5.133h10.266v-5.133z" fill="url(#j)"/>
   <path d="m101.95 142.25v5.133h10.266v-5.133z" fill="url(#o)"/>
   <path d="m101.95 149.94v5.133h10.266v-5.133z" fill="url(#d)"/>
   <path d="m101.95 157.64v5.133h10.266v-5.133z" fill="url(#q)"/>
   <path d="m101.95 165.34v5.133h10.266v-5.133z" fill="url(#k)"/>
   <path d="m101.95 173.04v5.133h10.266v-5.133z" fill="url(#i)"/>
   <path d="m76.285 126.85v5.133h10.266v-5.133z" fill="url(#t)"/>
   <path d="m76.285 134.55v5.133h10.266v-5.133z" fill="url(#f)"/>
   <path d="m76.285 142.25v5.133h10.266v-5.133z" fill="url(#n)"/>
   <path d="m76.285 149.94v5.133h10.266v-5.133z" fill="url(#c)"/>
   <path d="m76.285 157.64v5.133h10.266v-5.133z" fill="url(#r)"/>
   <path d="m76.285 165.34v5.133h10.266v-5.133z" fill="url(#l)"/>
   <path d="m76.285 173.04v5.133h10.266v-5.133z" fill="url(#h)"/>
  </g>
  <path transform="scale(.26458)" d="m264.46 457.04v239.53h182.5c-6e-3 -61.821 4e-3 -186.68 4e-3 -186.68l-4e-3 -4e-3v-2e-3l-53.252-52.854zm11.34 11.338h109.9l-0.0742 49.539h49.998v167.31h-159.82zm121.22 7.9219 30.508 30.279h-30.553z" color="#000000" color-rendering="auto" dominant-baseline="auto" fill="url(#w)" image-rendering="auto" shape-rendering="auto" solid-color="#000000" style="font-feature-settings:normal;font-variant-alternates:normal;font-variant-caps:normal;font-variant-ligatures:normal;font-variant-numeric:normal;font-variant-position:normal;isolation:auto;mix-blend-mode:normal;shape-padding:0;text-decoration-color:#000000;text-decoration-line:none;text-decoration-style:solid;text-indent:0;text-orientation:mixed;text-transform:none;white-space:normal"/>
 </g>
 <g transform="matrix(.99998 0 0 .99998 175.76 998.28)">
  <path d="m71.472 122.42h32.081l13.206 13.108v47.268h-45.287z" fill="#fcfdfd"/>
  <g stroke-width=".28517">
   <path d="m89.119 126.85v5.133h10.266v-5.133z" fill="url(#u)"/>
   <path d="m89.119 134.55v5.133h10.266v-5.133z" fill="url(#g)"/>
   <path d="m89.119 142.25v5.133h10.266v-5.133z" fill="url(#p)"/>
   <path d="m89.119 149.94v5.133h10.266v-5.133z" fill="url(#e)"/>
   <path d="m89.119 157.64v5.133h10.266v-5.133z" fill="url(#s)"/>
   <path d="m89.119 165.34v5.133h10.266v-5.133z" fill="url(#m)"/>
   <path d="m89.119 173.04v5.133h10.266v-5.133z" fill="url(#j)"/>
   <path d="m101.95 142.25v5.133h10.266v-5.133z" fill="url(#o)"/>
   <path d="m101.95 149.94v5.133h10.266v-5.133z" fill="url(#d)"/>
   <path d="m101.95 157.64v5.133h10.266v-5.133z" fill="url(#q)"/>
   <path d="m101.95 165.34v5.133h10.266v-5.133z" fill="url(#k)"/>
   <path d="m101.95 173.04v5.133h10.266v-5.133z" fill="url(#i)"/>
   <path d="m76.285 126.85v5.133h10.266v-5.133z" fill="url(#t)"/>
   <path d="m76.285 134.55v5.133h10.266v-5.133z" fill="url(#f)"/>
   <path d="m76.285 142.25v5.133h10.266v-5.133z" fill="url(#n)"/>
   <path d="m76.285 149.94v5.133h10.266v-5.133z" fill="url(#c)"/>
   <path d="m76.285 157.64v5.133h10.266v-5.133z" fill="url(#r)"/>
   <path d="m76.285 165.34v5.133h10.266v-5.133z" fill="url(#l)"/>
   <path d="m76.285 173.04v5.133h10.266v-5.133z" fill="url(#h)"/>
  </g>
  <path transform="scale(.26458)" d="m264.46 457.04v239.53h182.5c-6e-3 -61.821 4e-3 -186.68 4e-3 -186.68l-4e-3 -4e-3v-2e-3l-53.252-52.854zm11.34 11.338h109.9l-0.0742 49.539h49.998v167.31h-159.82zm121.22 7.9219 30.508 30.279h-30.553z" color="#000000" color-rendering="auto" dominant-baseline="auto" fill="url(#w)" image-rendering="auto" shape-rendering="auto" solid-color="#000000" style="font-feature-settings:normal;font-variant-alternates:normal;font-variant-caps:normal;font-variant-ligatures:normal;font-variant-numeric:normal;font-variant-position:normal;isolation:auto;mix-blend-mode:normal;shape-padding:0;text-decoration-color:#000000;text-decoration-line:none;text-decoration-style:solid;text-indent:0;text-orientation:mixed;text-transform:none;white-space:normal"/>
 </g>
 <g transform="matrix(.99998 0 0 .99998 1311.2 998.28)">
  <path d="m71.472 122.42h32.081l13.206 13.108v47.268h-45.287z" fill="#fcfdfd"/>
  <g stroke-width=".28517">
   <path d="m89.119 126.85v5.133h10.266v-5.133z" fill="url(#u)"/>
   <path d="m89.119 134.55v5.133h10.266v-5.133z" fill="url(#g)"/>
   <path d="m89.119 142.25v5.133h10.266v-5.133z" fill="url(#p)"/>
   <path d="m89.119 149.94v5.133h10.266v-5.133z" fill="url(#e)"/>
   <path d="m89.119 157.64v5.133h10.266v-5.133z" fill="url(#s)"/>
   <path d="m89.119 165.34v5.133h10.266v-5.133z" fill="url(#m)"/>
   <path d="m89.119 173.04v5.133h10.266v-5.133z" fill="url(#j)"/>
   <path d="m101.95 142.25v5.133h10.266v-5.133z" fill="url(#o)"/>
   <path d="m101.95 149.94v5.133h10.266v-5.133z" fill="url(#d)"/>
   <path d="m101.95 157.64v5.133h10.266v-5.133z" fill="url(#q)"/>
   <path d="m101.95 165.34v5.133h10.266v-5.133z" fill="url(#k)"/>
   <path d="m101.95 173.04v5.133h10.266v-5.133z" fill="url(#i)"/>
   <path d="m76.285 126.85v5.133h10.266v-5.133z" fill="url(#t)"/>
   <path d="m76.285 134.55v5.133h10.266v-5.133z" fill="url(#f)"/>
   <path d="m76.285 142.25v5.133h10.266v-5.133z" fill="url(#n)"/>
   <path d="m76.285 149.94v5.133h10.266v-5.133z" fill="url(#c)"/>
   <path d="m76.285 157.64v5.133h10.266v-5.133z" fill="url(#r)"/>
   <path d="m76.285 165.34v5.133h10.266v-5.133z" fill="url(#l)"/>
   <path d="m76.285 173.04v5.133h10.266v-5.133z" fill="url(#h)"/>
  </g>
  <path transform="scale(.26458)" d="m264.46 457.04v239.53h182.5c-6e-3 -61.821 4e-3 -186.68 4e-3 -186.68l-4e-3 -4e-3v-2e-3l-53.252-52.854zm11.34 11.338h109.9l-0.0742 49.539h49.998v167.31h-159.82zm121.22 7.9219 30.508 30.279h-30.553z" color="#000000" color-rendering="auto" dominant-baseline="auto" fill="url(#w)" image-rendering="auto" shape-rendering="auto" solid-color="#000000" style="font-feature-settings:normal;font-variant-alternates:normal;font-variant-caps:normal;font-variant-ligatures:normal;font-variant-numeric:normal;font-variant-position:normal;isolation:auto;mix-blend-mode:normal;shape-padding:0;text-decoration-color:#000000;text-decoration-line:none;text-decoration-style:solid;text-indent:0;text-orientation:mixed;text-transform:none;white-space:normal"/>
 </g>
 <rect transform="rotate(-2.0082)" x="1133.8" y="471.97" width="6.6883" height=".65629" fill="#ffd180" stroke-width=".25049"/>
 <g transform="matrix(.99998 0 0 .99998 755.57 326.99)">
  <path d="m71.472 122.42h32.081l13.206 13.108v47.268h-45.287z" fill="#fcfdfd"/>
  <path d="m76.285 126.78v3h23.1v-3z" color="#000000" color-rendering="auto" dominant-baseline="auto" fill="url(#x)" image-rendering="auto" shape-rendering="auto" solid-color="#000000" style="font-feature-settings:normal;font-variant-alternates:normal;font-variant-caps:normal;font-variant-ligatures:normal;font-variant-numeric:normal;font-variant-position:normal;isolation:auto;mix-blend-mode:normal;shape-padding:0;text-decoration-color:#000000;text-decoration-line:none;text-decoration-style:solid;text-indent:0;text-orientation:mixed;text-transform:none;white-space:normal"/>
  <path d="m69.972 120.93v63.375h48.287c-2e-3 -16.357 1e-3 -49.391 1e-3 -49.391l-1e-3 -1e-3v-5.2e-4l-14.09-13.984zm3.0003 2.9998h29.078l-0.0196 13.107h13.229v44.268h-42.287zm32.074 2.096 8.0719 8.0114h-8.0838z" color="#000000" color-rendering="auto" dominant-baseline="auto" fill="url(#v)" image-rendering="auto" shape-rendering="auto" solid-color="#000000" style="font-feature-settings:normal;font-variant-alternates:normal;font-variant-caps:normal;font-variant-ligatures:normal;font-variant-numeric:normal;font-variant-position:normal;isolation:auto;mix-blend-mode:normal;shape-padding:0;text-decoration-color:#000000;text-decoration-line:none;text-decoration-style:solid;text-indent:0;text-orientation:mixed;text-transform:none;white-space:normal"/>
  <polygon transform="matrix(.12454 0 0 .12454 25.366 106.53)" points="697.37 472.28 625.33 543.42 609.12 527.21 663.6 472.72 608.67 417.79 625.33 401.13" fill="url(#ag)"/>
  <path d="m87.276 172.19-6.7855-6.7857 6.8416-6.8417-2.0749-2.0749-8.9727 8.8605 8.9727 8.8605z" fill="url(#ae)" stroke-width=".12454"/>
  <path d="m97.219 154.57-8.5586 21.438 2.7852 1.1133 8.5605-21.439z" color="#000000" color-rendering="auto" dominant-baseline="auto" fill="url(#af)" image-rendering="auto" shape-rendering="auto" solid-color="#000000" style="font-feature-settings:normal;font-variant-alternates:normal;font-variant-caps:normal;font-variant-ligatures:normal;font-variant-numeric:normal;font-variant-position:normal;isolation:auto;mix-blend-mode:normal;shape-padding:0;text-decoration-color:#000000;text-decoration-line:none;text-decoration-style:solid;text-indent:0;text-orientation:mixed;text-transform:none;white-space:normal"/>
  <path d="m76.285 133.3v3h23.1v-3z" fill="url(#aa)" stroke-width=".32703"/>
  <path d="m76.285 139.83v3h35.932v-3z" fill="url(#z)" stroke-width=".40788"/>
  <path d="m76.285 146.36v3h35.932v-3z" fill="url(#y)" stroke-width=".40788"/>
 </g>
 <g transform="matrix(.99998 0 0 .99998 320.35 625.47)">
  <path d="m71.472 122.42h32.081l13.206 13.108v47.268h-45.287z" fill="#fcfdfd"/>
  <path d="m76.285 126.78v3h23.1v-3z" color="#000000" color-rendering="auto" dominant-baseline="auto" fill="url(#x)" image-rendering="auto" shape-rendering="auto" solid-color="#000000" style="font-feature-settings:normal;font-variant-alternates:normal;font-variant-caps:normal;font-variant-ligatures:normal;font-variant-numeric:normal;font-variant-position:normal;isolation:auto;mix-blend-mode:normal;shape-padding:0;text-decoration-color:#000000;text-decoration-line:none;text-decoration-style:solid;text-indent:0;text-orientation:mixed;text-transform:none;white-space:normal"/>
  <path d="m69.972 120.93v63.375h48.287c-2e-3 -16.357 1e-3 -49.391 1e-3 -49.391l-1e-3 -1e-3v-5.2e-4l-14.09-13.984zm3.0003 2.9998h29.078l-0.0196 13.107h13.229v44.268h-42.287zm32.074 2.096 8.0719 8.0114h-8.0838z" color="#000000" color-rendering="auto" dominant-baseline="auto" fill="url(#v)" image-rendering="auto" shape-rendering="auto" solid-color="#000000" style="font-feature-settings:normal;font-variant-alternates:normal;font-variant-caps:normal;font-variant-ligatures:normal;font-variant-numeric:normal;font-variant-position:normal;isolation:auto;mix-blend-mode:normal;shape-padding:0;text-decoration-color:#000000;text-decoration-line:none;text-decoration-style:solid;text-indent:0;text-orientation:mixed;text-transform:none;white-space:normal"/>
  <polygon transform="matrix(.12454 0 0 .12454 25.366 106.53)" points="609.12 527.21 663.6 472.72 608.67 417.79 625.33 401.13 697.37 472.28 625.33 543.42" fill="url(#ag)"/>
  <path d="m87.276 172.19-6.7855-6.7857 6.8416-6.8417-2.0749-2.0749-8.9727 8.8605 8.9727 8.8605z" fill="url(#ae)" stroke-width=".12454"/>
  <path d="m97.219 154.57-8.5586 21.438 2.7852 1.1133 8.5605-21.439z" color="#000000" color-rendering="auto" dominant-baseline="auto" fill="url(#af)" image-rendering="auto" shape-rendering="auto" solid-color="#000000" style="font-feature-settings:normal;font-variant-alternates:normal;font-variant-caps:normal;font-variant-ligatures:normal;font-variant-numeric:normal;font-variant-position:normal;isolation:auto;mix-blend-mode:normal;shape-padding:0;text-decoration-color:#000000;text-decoration-line:none;text-decoration-style:solid;text-indent:0;text-orientation:mixed;text-transform:none;white-space:normal"/>
  <path d="m76.285 133.3v3h23.1v-3z" fill="url(#aa)" stroke-width=".32703"/>
  <path d="m76.285 139.83v3h35.932v-3z" fill="url(#z)" stroke-width=".40788"/>
  <path d="m76.285 146.36v3h35.932v-3z" fill="url(#y)" stroke-width=".40788"/>
 </g>
 <g transform="matrix(.99998 0 0 .99998 1187.4 625.47)">
  <path d="m71.472 122.42h32.081l13.206 13.108v47.268h-45.287z" fill="#fcfdfd"/>
  <path d="m76.285 126.78v3h23.1v-3z" color="#000000" color-rendering="auto" dominant-baseline="auto" fill="url(#x)" image-rendering="auto" shape-rendering="auto" solid-color="#000000" style="font-feature-settings:normal;font-variant-alternates:normal;font-variant-caps:normal;font-variant-ligatures:normal;font-variant-numeric:normal;font-variant-position:normal;isolation:auto;mix-blend-mode:normal;shape-padding:0;text-decoration-color:#000000;text-decoration-line:none;text-decoration-style:solid;text-indent:0;text-orientation:mixed;text-transform:none;white-space:normal"/>
  <path d="m69.972 120.93v63.375h48.287c-2e-3 -16.357 1e-3 -49.391 1e-3 -49.391l-1e-3 -1e-3v-5.2e-4l-14.09-13.984zm3.0003 2.9998h29.078l-0.0196 13.107h13.229v44.268h-42.287zm32.074 2.096 8.0719 8.0114h-8.0838z" color="#000000" color-rendering="auto" dominant-baseline="auto" fill="url(#v)" image-rendering="auto" shape-rendering="auto" solid-color="#000000" style="font-feature-settings:normal;font-variant-alternates:normal;font-variant-caps:normal;font-variant-ligatures:normal;font-variant-numeric:normal;font-variant-position:normal;isolation:auto;mix-blend-mode:normal;shape-padding:0;text-decoration-color:#000000;text-decoration-line:none;text-decoration-style:solid;text-indent:0;text-orientation:mixed;text-transform:none;white-space:normal"/>
  <polygon transform="matrix(.12454 0 0 .12454 25.366 106.53)" points="608.67 417.79 625.33 401.13 697.37 472.28 625.33 543.42 609.12 527.21 663.6 472.72" fill="url(#ag)"/>
  <path d="m87.276 172.19-6.7855-6.7857 6.8416-6.8417-2.0749-2.0749-8.9727 8.8605 8.9727 8.8605z" fill="url(#ae)" stroke-width=".12454"/>
  <path d="m97.219 154.57-8.5586 21.438 2.7852 1.1133 8.5605-21.439z" color="#000000" color-rendering="auto" dominant-baseline="auto" fill="url(#af)" image-rendering="auto" shape-rendering="auto" solid-color="#000000" style="font-feature-settings:normal;font-variant-alternates:normal;font-variant-caps:normal;font-variant-ligatures:normal;font-variant-numeric:normal;font-variant-position:normal;isolation:auto;mix-blend-mode:normal;shape-padding:0;text-decoration-color:#000000;text-decoration-line:none;text-decoration-style:solid;text-indent:0;text-orientation:mixed;text-transform:none;white-space:normal"/>
  <path d="m76.285 133.3v3h23.1v-3z" fill="url(#aa)" stroke-width=".32703"/>
  <path d="m76.285 139.83v3h35.932v-3z" fill="url(#z)" stroke-width=".40788"/>
  <path d="m76.285 146.36v3h35.932v-3z" fill="url(#y)" stroke-width=".40788"/>
 </g>
 <g stroke-width=".26458">
  <path d="m568.53 747.9h32.08l13.206 13.108v47.267h-45.288z" fill="#fcfdfd"/>
  <path d="m573.34 752.25v3.0001h23.099v-3.0001z" color="#000000" color-rendering="auto" dominant-baseline="auto" fill="url(#be)" image-rendering="auto" shape-rendering="auto" solid-color="#000000" style="font-feature-settings:normal;font-variant-alternates:normal;font-variant-caps:normal;font-variant-ligatures:normal;font-variant-numeric:normal;font-variant-position:normal;isolation:auto;mix-blend-mode:normal;shape-padding:0;text-decoration-color:#000000;text-decoration-line:none;text-decoration-style:solid;text-indent:0;text-orientation:mixed;text-transform:none;white-space:normal"/>
  <path d="m567.02 746.4v63.375h48.286c-3e-3 -16.357 0-49.392 0-49.392l-14.089-13.984zm3.0003 2.9998h29.077l-0.0196 13.107h13.228v44.267h-42.285zm32.072 2.096 8.0718 8.0112h-8.0837z" color="#000000" color-rendering="auto" dominant-baseline="auto" fill="url(#ba)" image-rendering="auto" shape-rendering="auto" solid-color="#000000" style="font-feature-settings:normal;font-variant-alternates:normal;font-variant-caps:normal;font-variant-ligatures:normal;font-variant-numeric:normal;font-variant-position:normal;isolation:auto;mix-blend-mode:normal;shape-padding:0;text-decoration-color:#000000;text-decoration-line:none;text-decoration-style:solid;text-indent:0;text-orientation:mixed;text-transform:none;white-space:normal"/>
 </g>
 <path d="m588.32 758.78v3.0001h8.1268v-3.0001z" fill="url(#az)" stroke-width=".32702"/>
 <path d="m588.29 765.3v2.9998h20.983v-2.9998z" fill="url(#aq)" stroke-width=".40788"/>
 <g transform="matrix(.99998 0 0 .99998 537.25 618.54)" stroke-width=".11288">
  <path d="m46.302 142.02 1.5431-1.3213a6.6704 6.6159 9.8755 0 0-5.0718-2.3063l0.0058 2.024a4.637 4.5991 9.8756 0 1 3.523 1.6035z" fill="#ff5252"/>
  <path d="m42.804 149.63a4.6177 4.58 9.8756 0 1-1.9185-0.41265l-0.8368 1.8452a6.6874 6.6328 9.8756 0 0 6.1738-0.3373l-1.0474-1.7418a4.6177 4.58 9.8756 0 1-2.3711 0.64657z" fill="#69f0ae"/>
  <path d="m49.477 145.02a6.6591 6.6047 9.8756 0 0-1.6326-4.3281l-1.5431 1.3212a4.6393 4.6014 9.8756 0 1-1.1262 6.9717l1.0474 1.7418a6.6874 6.6328 9.8756 0 0 3.2544-5.7067z" fill="#ff9800"/>
  <path d="m38.145 145.02a4.6472 4.6092 9.8755 0 1 4.6332-4.6103l-0.0058-2.024a6.6874 6.6328 9.8756 0 0-2.7239 12.677l0.8368-1.8452a4.6472 4.6092 9.8755 0 1-2.7405-4.1977z" fill="#008fe1"/>
 </g>
 <g stroke-width=".14614">
  <rect transform="matrix(1 0 .0024368 1 0 0)" x="592.99" y="784.89" width="14.245" height="2.4945" fill="#008fe1"/>
  <rect transform="matrix(1 0 .0024368 1 0 0)" x="592.99" y="789.66" width="10.41" height="2.4945" fill="#ff5252"/>
  <rect transform="matrix(1 0 .0024368 1 0 0)" x="592.99" y="794.42" width="7.1225" height="2.4945" fill="#69f0ae"/>
  <rect transform="matrix(1 0 .0024368 1 0 0)" x="592.96" y="799.18" width="12.876" height="2.4945" fill="#ff9800"/>
 </g>
 <g stroke-width=".40788">
  <path d="m573.34 791.42v3.0001h18.867v-3.0001z" fill="url(#at)"/>
  <path d="m573.34 771.83v3.0001h35.933v-3.0001z" fill="url(#ay)"/>
  <path d="m573.34 778.36v3.0001h35.933v-3.0001z" fill="url(#au)"/>
  <path d="m573.34 784.89v3.0001h18.867v-3.0001z" fill="url(#as)"/>
  <path d="m573.34 797.95v2.9998h18.867v-2.9998z" fill="url(#ar)"/>
 </g>
 <g transform="matrix(.99998 0 0 .99998 1009.7 625.47)">
  <path d="m71.472 122.42h32.081l13.206 13.108v47.268h-45.287z" fill="#fcfdfd"/>
  <path d="m76.285 126.78v3h23.1v-3z" color="#000000" color-rendering="auto" dominant-baseline="auto" fill="url(#x)" image-rendering="auto" shape-rendering="auto" solid-color="#000000" style="font-feature-settings:normal;font-variant-alternates:normal;font-variant-caps:normal;font-variant-ligatures:normal;font-variant-numeric:normal;font-variant-position:normal;isolation:auto;mix-blend-mode:normal;shape-padding:0;text-decoration-color:#000000;text-decoration-line:none;text-decoration-style:solid;text-indent:0;text-orientation:mixed;text-transform:none;white-space:normal"/>
  <path d="m69.972 120.93v63.375h48.287c-2e-3 -16.357 1e-3 -49.391 1e-3 -49.391l-1e-3 -1e-3v-5.2e-4l-14.09-13.984zm3.0003 2.9998h29.078l-0.0196 13.107h13.229v44.268h-42.287zm32.074 2.096 8.0719 8.0114h-8.0838z" color="#000000" color-rendering="auto" dominant-baseline="auto" fill="url(#v)" image-rendering="auto" shape-rendering="auto" solid-color="#000000" style="font-feature-settings:normal;font-variant-alternates:normal;font-variant-caps:normal;font-variant-ligatures:normal;font-variant-numeric:normal;font-variant-position:normal;isolation:auto;mix-blend-mode:normal;shape-padding:0;text-decoration-color:#000000;text-decoration-line:none;text-decoration-style:solid;text-indent:0;text-orientation:mixed;text-transform:none;white-space:normal"/>
  <path d="m93.538 141.66v28.202h1.5393v-28.202z" fill="#c6d4dd" stroke-width=".25883"/>
  <path d="m83.748 149.77h10.756v-1.5393h-10.756z" fill="#c6d4dd" stroke-width=".15985"/>
  <path d="m76.224 145.21v7.6304s3.358 1.5805 5.186 0 3.558-0.82225 5.3492 0v-7.6304z" fill="url(#aw)" stroke-width=".35222"/>
  <path d="m89.026 145.21v7.6304h10.535v-7.6304z" fill="url(#ax)" stroke-width=".35222"/>
  <g fill="#c6d4dd">
   <path d="m94.248 167.69h13.418v-1.5393h-13.418z" stroke-width=".17854"/>
   <path d="m98.857 161.08h3.3154v-1.5393h-3.3154z" stroke-width=".088746"/>
   <path d="m106.13 163.71v3.9738h1.5393v-3.9738z" stroke-width=".09716"/>
  </g>
  <path d="m101.78 156.63v7.6304h10.535v-7.6304z" fill="url(#av)" stroke-width=".35222"/>
  <path d="m87.851 160.26 6.4287-4.559 6.4287 4.559-6.4287 4.559z" fill="url(#bd)"/>
  <path d="m92.346 134.33c-2.0917-7e-5 -3.7874 1.6956-3.7874 3.7874-6.5e-5 2.0917 1.6956 3.7874 3.7874 3.7874h3.9191c2.0917 6e-5 3.7874-1.6956 3.7874-3.7874 6e-5 -2.0917-1.6956-3.7874-3.7874-3.7874z" fill="url(#bc)"/>
  <path d="m92.346 169.25c-2.0917-7e-5 -3.7874 1.6956-3.7874 3.7874-6.5e-5 2.0917 1.6956 3.7874 3.7874 3.7874h3.9191c2.0917 6e-5 3.7874-1.6956 3.7874-3.7874 6e-5 -2.0917-1.6956-3.7874-3.7874-3.7874z" fill="url(#bb)"/>
 </g>
 <g transform="matrix(.26458 0 0 .26458 756.23 766.18)">
  <path d="m-2290.8 207.49c0-32.274-65.652-51.404-158.61-51.396l-7e-4 1e-4c-92.958 0.01-152.35 19.146-152.35 51.412-0.1719 101.38-0.8075 202-0.8075 306.01 0 17.48 33.674 52.991 156.49 50.737 122.82-2.2542 156.58-33.25 156.58-50.737 0-120.04-0.848-216.44-1.3089-306.02z" fill="#fff" stroke-width="14.183"/>
  <path d="m-2290 235.78c0-32.258-69.099-58.412-157.15-58.412-87.993 0.013-157.12 26.169-157.12 58.428v130.67c0 32.274 69.127 58.412 157.15 58.412 88.02 2e-4 157.12-26.138 157.12-58.428z" fill="#a1b8c7" stroke-width="14.183"/>
  <g stroke="#b6c8d3" stroke-width="9.5413">
   <path d="m-2281.7 346.06c0-2.4963-1.6623-4.9227-4.4701-7.2538-3.213 12.805-41.065 46.491-159.12 47.618-118.06 1.1271-155.87-34.813-159.07-47.612-2.8078 2.3248-4.4423 4.7512-4.4423 7.2475v168.51c0 17.48 40.692 60.008 163.51 57.754 122.82-2.2543 163.59-40.267 163.59-57.754v-168.51z" fill="url(#ac)"/>
   <path d="m-2286.2 241.3c-3.213 12.805-41.065 46.491-159.12 47.618s-155.87-34.813-159.07-47.612c-2.8078 2.3247-4.4423 4.751-4.4423 7.2473v67.456c0 17.48 40.692 60.008 163.51 57.754 122.82-2.2542 163.59-40.267 163.59-57.754v-67.456c0-2.4963-1.6623-4.9226-4.4701-7.2536z" fill="url(#ad)"/>
   <path d="m-2447.3 274.97c92.093 0.3531 163.87-26.154 163.87-58.428s-70.916-58.42-163.87-58.412c-92.958 0.01-159.36 26.162-159.36 58.428s67.268 58.059 159.36 58.412z" fill="url(#ab)"/>
  </g>
  <g fill="#fff">
   <rect x="-2478.2" y="447.11" width="15.285" height="15.285"/>
   <rect x="-2478.2" y="496.85" width="15.285" height="15.285"/>
   <rect x="-2478.2" y="471.92" width="15.285" height="15.285"/>
   <rect x="-2420.1" y="471.92" width="15.285" height="15.285"/>
   <rect x="-2467.3" y="476.77" width="50.863" height="5.8865"/>
   <path d="m-2465.1 449.86-4.1614 4.1631 26.976 26.978h8.3262z"/>
   <path d="m-2441.7 477.84-26.889 26.891 4.1613 4.1614 31.054-31.052z"/>
  </g>
 </g>
 <g transform="matrix(.26458 0 0 .26458 2217.2 766.18)">
  <path d="m-2290.8 207.49c0-32.274-65.652-51.404-158.61-51.396l-7e-4 1e-4c-92.958 0.01-152.35 19.146-152.35 51.412-0.1719 101.38-0.8075 202-0.8075 306.01 0 17.48 33.674 52.991 156.49 50.737 122.82-2.2542 156.58-33.25 156.58-50.737 0-120.04-0.848-216.44-1.3089-306.02z" fill="#fff" stroke-width="14.183"/>
  <path d="m-2290 235.78c0-32.258-69.099-58.412-157.15-58.412-87.993 0.013-157.12 26.169-157.12 58.428v130.67c0 32.274 69.127 58.412 157.15 58.412 88.02 2e-4 157.12-26.138 157.12-58.428z" fill="#a1b8c7" stroke-width="14.183"/>
  <g stroke="#b6c8d3" stroke-width="9.5413">
   <path d="m-2281.7 346.06c0-2.4963-1.6623-4.9227-4.4701-7.2538-3.213 12.805-41.065 46.491-159.12 47.618-118.06 1.1271-155.87-34.813-159.07-47.612-2.8078 2.3248-4.4423 4.7512-4.4423 7.2475v168.51c0 17.48 40.692 60.008 163.51 57.754 122.82-2.2543 163.59-40.267 163.59-57.754v-168.51z" fill="url(#ac)"/>
   <path d="m-2286.2 241.3c-3.213 12.805-41.065 46.491-159.12 47.618s-155.87-34.813-159.07-47.612c-2.8078 2.3247-4.4423 4.751-4.4423 7.2473v67.456c0 17.48 40.692 60.008 163.51 57.754 122.82-2.2542 163.59-40.267 163.59-57.754v-67.456c0-2.4963-1.6623-4.9226-4.4701-7.2536z" fill="url(#ad)"/>
   <path d="m-2447.3 274.97c92.093 0.3531 163.87-26.154 163.87-58.428s-70.916-58.42-163.87-58.412c-92.958 0.01-159.36 26.162-159.36 58.428s67.268 58.059 159.36 58.412z" fill="url(#ab)"/>
  </g>
  <g fill="#fff">
   <rect x="-2478.2" y="447.11" width="15.285" height="15.285"/>
   <rect x="-2478.2" y="496.85" width="15.285" height="15.285"/>
   <rect x="-2478.2" y="471.92" width="15.285" height="15.285"/>
   <rect x="-2420.1" y="471.92" width="15.285" height="15.285"/>
   <rect x="-2467.3" y="476.77" width="50.863" height="5.8865"/>
   <path d="m-2465.1 449.86-4.1614 4.1631 26.976 26.978h8.3262z"/>
   <path d="m-2441.7 477.84-26.889 26.891 4.1613 4.1614 31.054-31.052z"/>
  </g>
 </g>
 <path d="m504.44 451.29-4.0965 3.0718s-0.56488 4.4442 19.226 11.305c19.791 6.8611 22.732 3.507 22.732 3.507l-1.7916-6.6563-8.5526-11.679z" fill="#008fe1" stroke-width=".11834"/>
 <g transform="matrix(.2505 0 0 .2505 -1876.7 807.71)">
  <g transform="matrix(3.4194 0 -4.7573e-8 3.4194 8629.6 -1723.1)">
   <path d="m221.5 92.977c-3.8976 0-5.8552 0.0208-6.4416 1.2022l-10.096 19.737 96.238-0.14798-10.078-19.568c-0.64535-1.2261-2.5756-1.2164-6.5045-1.2226z" fill="url(#linearGradient13114-2-2-4-1)" stroke-width=".20056"/>
   <path d="m213.37 111.94h79.431c9.0196 0.014 9.0223 0.0181 9.0223 8.908v90.175c-0.0196 8.9445-0.12912 8.8784-9.137 8.8784h-79.487c-8.7932 0.0309-8.7896-0.13063-8.7896-9.0501l-1e-5 -90.011c0.0505-8.9212 4e-3 -8.9012 8.9613-8.9012z" fill="url(#linearGradient13114-2-2-3)" stroke-width=".2524"/>
   <rect x="208.16" y="115.46" width="90.067" height="27.137" fill="url(#linearGradient13137-7-8-8-9)" stroke-width=".24606"/>
   <g fill="#fff">
    <rect x="215.56" y="119.5" width="3.4902" height="19.502" stroke-width=".24606"/>
    <g transform="matrix(.22663 0 0 .26715 206.62 107.73)" opacity=".7">
     <rect x="69.81" y="44.05" width="15.4" height="73" fill="#fff"/>
    </g>
    <g transform="matrix(.22663 0 0 .26715 206.62 107.73)" opacity=".6">
     <rect x="100.22" y="44.05" width="15.4" height="73" fill="#fff"/>
    </g>
    <g transform="matrix(.22663 0 0 .26715 206.62 107.73)" opacity=".5">
     <rect x="130.62" y="44.05" width="15.4" height="73" fill="#fff"/>
    </g>
    <g transform="matrix(.22663 0 0 .26715 206.62 107.73)" opacity=".5">
     <rect x="161.02" y="44.05" width="15.4" height="73" fill="#fff"/>
    </g>
    <g transform="matrix(.22663 0 0 .26715 206.62 107.73)" opacity=".4">
     <rect x="191.42" y="44.05" width="15.4" height="73" fill="#fff"/>
    </g>
   </g>
   <circle cx="283.21" cy="129.58" r="3.2732" fill="#b6c8d3" stroke-width=".22663"/>
   <rect x="208.16" y="145.1" width="90.067" height="27.137" fill="url(#linearGradient13137-7-8-8-5-8)" stroke-width=".24606"/>
   <g fill="#fff">
    <rect x="215.56" y="149.14" width="3.4902" height="19.502" stroke-width=".24606"/>
    <g transform="matrix(.22663 0 0 .26715 206.62 137.37)" opacity=".7">
     <rect x="69.81" y="44.05" width="15.4" height="73" fill="#fff"/>
    </g>
    <g transform="matrix(.22663 0 0 .26715 206.62 137.37)" opacity=".6">
     <rect x="100.22" y="44.05" width="15.4" height="73" fill="#fff"/>
    </g>
    <g transform="matrix(.22663 0 0 .26715 206.62 137.37)" opacity=".5">
     <rect x="130.62" y="44.05" width="15.4" height="73" fill="#fff"/>
    </g>
    <g transform="matrix(.22663 0 0 .26715 206.62 137.37)" opacity=".5">
     <rect x="161.02" y="44.05" width="15.4" height="73" fill="#fff"/>
    </g>
    <g transform="matrix(.22663 0 0 .26715 206.62 137.37)" opacity=".4">
     <rect x="191.42" y="44.05" width="15.4" height="73" fill="#fff"/>
    </g>
   </g>
   <circle cx="283.21" cy="159.22" r="3.2732" fill="#b6c8d3" stroke-width=".22663"/>
   <rect x="208.05" y="175.09" width="90.067" height="41.179" fill="url(#linearGradient13137-7-8-8-5-4-4)" stroke-width=".24606"/>
   <g fill="#fff">
    <rect x="215.45" y="179.12" width="3.4902" height="33.182" stroke-width=".32096"/>
    <g transform="matrix(.22663 0 0 .45454 206.51 159.1)" opacity=".7">
     <rect x="69.81" y="44.05" width="15.4" height="73" fill="#fff"/>
    </g>
    <g transform="matrix(.22663 0 0 .45454 206.51 159.1)" opacity=".6">
     <rect x="100.22" y="44.05" width="15.4" height="73" fill="#fff"/>
    </g>
    <g transform="matrix(.22663 0 0 .45454 206.51 159.1)" opacity=".5">
     <rect x="130.62" y="44.05" width="15.4" height="73" fill="#fff"/>
    </g>
    <g transform="matrix(.22663 0 0 .45454 206.51 159.1)" opacity=".5">
     <rect x="161.02" y="44.05" width="15.4" height="73" fill="#fff"/>
    </g>
    <g transform="matrix(.22663 0 0 .45454 206.51 159.1)" opacity=".4">
     <rect x="191.42" y="44.05" width="15.4" height="73" fill="#fff"/>
    </g>
   </g>
  </g>
  <g transform="matrix(.94103 0 0 .94103 567.75 -32.906)">
   <path d="m9559.3-1078.6c-2.4307-1.9109-5.4826-3.0437-8.7989-3.0437-7.8052 0-14.161 6.2965-14.357 14.144-8.06 3.0552-13.797 10.92-13.797 20.132 0 10.885 7.1339 21.3 25.76 21.3 24.057 0.4082 41.76 0.1989 66.172 0.1989v-0.033c12.868 0 18.384-9.2006 18.384-19.719 0-10.148-7.5626-18.506-17.298-19.627-4.2477-31.662-43.771-38.89-56.074-13.348" fill="#a1b8c7" opacity=".5" stroke="#a1b8c7" stroke-linecap="round" stroke-linejoin="round" stroke-width="4.1387"/>
   <g fill="#fff">
    <path d="m9583.6-1094c-9.7909 0.1187-19.279 5.0854-24.276 15.458-2.4302-1.9097-5.4815-3.0432-8.7966-3.0432-7.8052 0-14.159 6.2963-14.355 14.143-8.0598 3.0552-13.796 10.92-13.796 20.132 0 10.885 7.1317 21.3 25.757 21.3 24.057 0.4082 41.761 0.1997 66.174 0.1997v-0.033c12.868 0 18.383-9.2001 18.383-19.718 0-10.147-7.5608-18.507-17.296-19.628-2.522-18.799-17.482-28.983-31.794-28.81zm-0.045 28.763c0.6541-0.016 1.285 0.1129 1.8806 0.3375 0.7942 0.2993 1.5438 0.7651 2.085 1.5287 0.5413 0.7638 0.7464 1.9966 0.2521 2.9909l-11.457 27.488-0.051 0.09c-0.5403 0.8954-1.4861 1.399-2.3561 1.5359-0.8698 0.1368-1.7109 0-2.47-0.3138-0.7593-0.3096-1.4563-0.7914-1.9591-1.5192s-0.7365-1.83-0.3495-2.8029l0.011-0.012 11.45-27.478c0.4189-1.0264 1.4203-1.6189 2.3085-1.7783 0.222-0.04 0.4429-0.063 0.6609-0.069zm-22.407 0.6704c0.4736-0.016 0.864 0.092 1.222 0.233 0.7159 0.2826 1.3315 0.7262 1.8782 1.2504 0.5466 0.5244 1.0239 1.1138 1.3219 1.8591 0.1489 0.3727 0.2613 0.7986 0.2163 1.303-0.045 0.5042-0.3094 1.0773-0.7275 1.4549l-10.012 10.019 9.9664 9.9661c0.7669 0.7524 0.9265 1.893 0.7273 2.7413-0.1989 0.8484-0.6467 1.5399-1.2123 2.1208-0.5658 0.5809-1.2524 1.0651-2.1209 1.2672-0.8683 0.2021-2.04-0.03-2.7696-0.8179l-15.563-15.365 15.608-15.42-0.011 0.016c0.4138-0.4203 0.998-0.612 1.4717-0.6277zm34.335 0c0.4737 0.016 1.0603 0.2074 1.474 0.6276l-0.011-0.016 15.608 15.42-15.563 15.366c-0.7296 0.7878-1.8988 1.02-2.7673 0.8178-0.8684-0.2021-1.555-0.6863-2.1206-1.2671-0.5658-0.5808-1.0231-1.2725-1.2221-2.1208-0.1991-0.8483-0.03-1.9888 0.737-2.7412l9.9639-9.9663-10.009-10.019c-0.4182-0.3776-0.6824-0.9508-0.7274-1.4549-0.045-0.5044 0.064-0.9303 0.214-1.303 0.2978-0.7453 0.7751-1.3349 1.3217-1.8592 0.5467-0.5242 1.1623-0.9678 1.8782-1.2504 0.3581-0.1413 0.7485-0.2485 1.2221-0.233z" stroke-width="1.2173"/>
    <g stroke-width="1.2173">
     <path d="m9561.2-1062.5c-0.075 0-0.067 0-0.074 0.012l-0.012 0.011-14.118 13.946 14.125 13.944 0.012 0.012c0.2323 0.2508 0.4422 0.286 0.7822 0.2068 0.34-0.08 0.7623-0.3298 1.1055-0.6824 0.3433-0.3524 0.5978-0.7995 0.6824-1.1602 0.085-0.3606 0.05-0.5805-0.1617-0.7893h-0.012l-0.011-0.018-0.016-0.011-11.412-11.412 11.548-11.545 0.012-0.011c0.042-0.038 0.039-0.042 0.045-0.1072 0-0.064-0.011-0.1901-0.072-0.3519-0.1295-0.3237-0.4476-0.7607-0.8345-1.1317-0.3868-0.371-0.8444-0.6791-1.1959-0.8179-0.1757-0.07-0.3194-0.092-0.3947-0.09z"/>
     <path d="m9584-1063.2c-0.2494-0.031-0.4885-0.029-0.6917 0.011-0.4068 0.072-0.6311 0.224-0.7561 0.5303-2.9962 7.1164-7.856 18.833-11.457 27.47-0.1302 0.3274-0.078 0.5759 0.1261 0.87 0.2032 0.2942 0.5931 0.5819 1.0436 0.7656 0.4506 0.184 0.9563 0.2615 1.3647 0.1974 0.4084-0.064 0.699-0.2349 0.8987-0.5659 3.8122-9.1437 7.6145-18.292 11.431-27.434 0.1781-0.3582 0.1287-0.577-0.081-0.8725-0.2093-0.2957-0.6335-0.5972-1.1244-0.7822-0.2454-0.093-0.5043-0.1545-0.7537-0.1856z" color="#000000" color-rendering="auto" dominant-baseline="auto" image-rendering="auto" shape-rendering="auto" solid-color="#000000" style="font-feature-settings:normal;font-variant-alternates:normal;font-variant-caps:normal;font-variant-ligatures:normal;font-variant-numeric:normal;font-variant-position:normal;isolation:auto;mix-blend-mode:normal;shape-padding:0;text-decoration-color:#000000;text-decoration-line:none;text-decoration-style:solid;text-indent:0;text-orientation:mixed;text-transform:none;white-space:normal"/>
     <path d="m9595.4-1062.5c-0.075 0-0.2213 0.021-0.397 0.09-0.3515 0.1386-0.8067 0.4468-1.1935 0.8178-0.3868 0.3709-0.7075 0.8078-0.8369 1.1317-0.064 0.1619-0.077 0.2875-0.072 0.3518 0 0.065 0.013 0.07 0.054 0.1072l0.011 0.011 11.538 11.547-11.412 11.412-0.029 0.026c-0.2126 0.2087-0.2558 0.4311-0.1712 0.7917 0.086 0.3606 0.3414 0.8053 0.6848 1.1579 0.3432 0.3525 0.7725 0.6031 1.1125 0.6823 0.3401 0.08 0.5404 0.043 0.7727-0.2068l0.012-0.011 14.127-13.946-14.118-13.946-0.012-0.011c-0.011-0.011 0-0.011-0.072-0.011z"/>
    </g>
   </g>
  </g>
 </g>
 <path d="m504.44 451.29-4.0965 3.0718s-0.56488 4.4442 19.226 11.305c19.791 6.8611 22.732 3.507 22.732 3.507l-1.7916-6.6563-8.5526-11.679z" opacity=".15" stroke-width=".11834"/>
 <polygon transform="matrix(.11159 .039396 -.039396 .11159 495.66 403.33)" points="541.18 143.67 547.37 146.53 715.39 224 400.39 363 16.394 224 368.39 64" fill="#008fe1"/>
 <polygon transform="matrix(.11159 .039396 -.039396 .11159 495.66 403.33)" points="541.18 143.67 547.37 146.53 715.39 224 400.39 363 16.394 224 368.39 64" opacity=".15"/>
 <polygon transform="matrix(.11159 .039396 -.039396 .11159 495.66 403.33)" points="553.89 257.32 547.89 257.68 541.18 143.67 547.37 146.53" fill="#f5f5f5"/>
 <path d="m510.16 436.5-9.8217 17.868s24.991 0.66489 41.957 14.813l4.1896-21.111s-25.082-12.494-36.327-11.569z" fill="#008fe1" stroke-width=".11834"/>
 <ellipse transform="rotate(19.444)" cx="667.14" cy="247.51" rx="3.4319" ry="2.3668" fill="#f5f5f5" stroke-width=".11834"/>
 <g transform="matrix(.2505 0 0 .2505 -1187 807.71)">
  <g transform="matrix(3.4194 0 -4.7573e-8 3.4194 8629.6 -1723.1)">
   <path d="m221.5 92.977c-3.8976 0-5.8552 0.0208-6.4416 1.2022l-10.096 19.737 96.238-0.14798-10.078-19.568c-0.64535-1.2261-2.5756-1.2164-6.5045-1.2226z" fill="url(#linearGradient13114-2-2-4-1)" stroke-width=".20056"/>
   <path d="m213.37 111.94h79.431c9.0196 0.014 9.0223 0.0181 9.0223 8.908v90.175c-0.0196 8.9445-0.12912 8.8784-9.137 8.8784h-79.487c-8.7932 0.0309-8.7896-0.13063-8.7896-9.0501l-1e-5 -90.011c0.0505-8.9212 4e-3 -8.9012 8.9613-8.9012z" fill="url(#linearGradient13114-2-2-3)" stroke-width=".2524"/>
   <rect x="208.16" y="115.46" width="90.067" height="27.137" fill="url(#linearGradient13137-7-8-8-9)" stroke-width=".24606"/>
   <g fill="#fff">
    <rect x="215.56" y="119.5" width="3.4902" height="19.502" stroke-width=".24606"/>
    <g transform="matrix(.22663 0 0 .26715 206.62 107.73)" opacity=".7">
     <rect x="69.81" y="44.05" width="15.4" height="73" fill="#fff"/>
    </g>
    <g transform="matrix(.22663 0 0 .26715 206.62 107.73)" opacity=".6">
     <rect x="100.22" y="44.05" width="15.4" height="73" fill="#fff"/>
    </g>
    <g transform="matrix(.22663 0 0 .26715 206.62 107.73)" opacity=".5">
     <rect x="130.62" y="44.05" width="15.4" height="73" fill="#fff"/>
    </g>
    <g transform="matrix(.22663 0 0 .26715 206.62 107.73)" opacity=".5">
     <rect x="161.02" y="44.05" width="15.4" height="73" fill="#fff"/>
    </g>
    <g transform="matrix(.22663 0 0 .26715 206.62 107.73)" opacity=".4">
     <rect x="191.42" y="44.05" width="15.4" height="73" fill="#fff"/>
    </g>
   </g>
   <circle cx="283.21" cy="129.58" r="3.2732" fill="#b6c8d3" stroke-width=".22663"/>
   <rect x="208.16" y="145.1" width="90.067" height="27.137" fill="url(#linearGradient13137-7-8-8-5-8)" stroke-width=".24606"/>
   <g fill="#fff">
    <rect x="215.56" y="149.14" width="3.4902" height="19.502" stroke-width=".24606"/>
    <g transform="matrix(.22663 0 0 .26715 206.62 137.37)" opacity=".7">
     <rect x="69.81" y="44.05" width="15.4" height="73" fill="#fff"/>
    </g>
    <g transform="matrix(.22663 0 0 .26715 206.62 137.37)" opacity=".6">
     <rect x="100.22" y="44.05" width="15.4" height="73" fill="#fff"/>
    </g>
    <g transform="matrix(.22663 0 0 .26715 206.62 137.37)" opacity=".5">
     <rect x="130.62" y="44.05" width="15.4" height="73" fill="#fff"/>
    </g>
    <g transform="matrix(.22663 0 0 .26715 206.62 137.37)" opacity=".5">
     <rect x="161.02" y="44.05" width="15.4" height="73" fill="#fff"/>
    </g>
    <g transform="matrix(.22663 0 0 .26715 206.62 137.37)" opacity=".4">
     <rect x="191.42" y="44.05" width="15.4" height="73" fill="#fff"/>
    </g>
   </g>
   <circle cx="283.21" cy="159.22" r="3.2732" fill="#b6c8d3" stroke-width=".22663"/>
   <rect x="208.05" y="175.09" width="90.067" height="41.179" fill="url(#linearGradient13137-7-8-8-5-4-4)" stroke-width=".24606"/>
   <g fill="#fff">
    <rect x="215.45" y="179.12" width="3.4902" height="33.182" stroke-width=".32096"/>
    <g transform="matrix(.22663 0 0 .45454 206.51 159.1)" opacity=".7">
     <rect x="69.81" y="44.05" width="15.4" height="73" fill="#fff"/>
    </g>
    <g transform="matrix(.22663 0 0 .45454 206.51 159.1)" opacity=".6">
     <rect x="100.22" y="44.05" width="15.4" height="73" fill="#fff"/>
    </g>
    <g transform="matrix(.22663 0 0 .45454 206.51 159.1)" opacity=".5">
     <rect x="130.62" y="44.05" width="15.4" height="73" fill="#fff"/>
    </g>
    <g transform="matrix(.22663 0 0 .45454 206.51 159.1)" opacity=".5">
     <rect x="161.02" y="44.05" width="15.4" height="73" fill="#fff"/>
    </g>
    <g transform="matrix(.22663 0 0 .45454 206.51 159.1)" opacity=".4">
     <rect x="191.42" y="44.05" width="15.4" height="73" fill="#fff"/>
    </g>
   </g>
  </g>
  <g transform="matrix(.94103 0 0 .94103 567.75 -32.906)">
   <path d="m9559.3-1078.6c-2.4307-1.9109-5.4826-3.0437-8.7989-3.0437-7.8052 0-14.161 6.2965-14.357 14.144-8.06 3.0552-13.797 10.92-13.797 20.132 0 10.885 7.1339 21.3 25.76 21.3 24.057 0.4082 41.76 0.1989 66.172 0.1989v-0.033c12.868 0 18.384-9.2006 18.384-19.719 0-10.148-7.5626-18.506-17.298-19.627-4.2477-31.662-43.771-38.89-56.074-13.348" fill="#a1b8c7" opacity=".5" stroke="#a1b8c7" stroke-linecap="round" stroke-linejoin="round" stroke-width="4.1387"/>
   <g fill="#fff">
    <path d="m9583.6-1094c-9.7909 0.1187-19.279 5.0854-24.276 15.458-2.4302-1.9097-5.4815-3.0432-8.7966-3.0432-7.8052 0-14.159 6.2963-14.355 14.143-8.0598 3.0552-13.796 10.92-13.796 20.132 0 10.885 7.1317 21.3 25.757 21.3 24.057 0.4082 41.761 0.1997 66.174 0.1997v-0.033c12.868 0 18.383-9.2001 18.383-19.718 0-10.147-7.5608-18.507-17.296-19.628-2.522-18.799-17.482-28.983-31.794-28.81zm-0.045 28.763c0.6541-0.016 1.285 0.1129 1.8806 0.3375 0.7942 0.2993 1.5438 0.7651 2.085 1.5287 0.5413 0.7638 0.7464 1.9966 0.2521 2.9909l-11.457 27.488-0.051 0.09c-0.5403 0.8954-1.4861 1.399-2.3561 1.5359-0.8698 0.1368-1.7109 0-2.47-0.3138-0.7593-0.3096-1.4563-0.7914-1.9591-1.5192s-0.7365-1.83-0.3495-2.8029l0.011-0.012 11.45-27.478c0.4189-1.0264 1.4203-1.6189 2.3085-1.7783 0.222-0.04 0.4429-0.063 0.6609-0.069zm-22.407 0.6704c0.4736-0.016 0.864 0.092 1.222 0.233 0.7159 0.2826 1.3315 0.7262 1.8782 1.2504 0.5466 0.5244 1.0239 1.1138 1.3219 1.8591 0.1489 0.3727 0.2613 0.7986 0.2163 1.303-0.045 0.5042-0.3094 1.0773-0.7275 1.4549l-10.012 10.019 9.9664 9.9661c0.7669 0.7524 0.9265 1.893 0.7273 2.7413-0.1989 0.8484-0.6467 1.5399-1.2123 2.1208-0.5658 0.5809-1.2524 1.0651-2.1209 1.2672-0.8683 0.2021-2.04-0.03-2.7696-0.8179l-15.563-15.365 15.608-15.42-0.011 0.016c0.4138-0.4203 0.998-0.612 1.4717-0.6277zm34.335 0c0.4737 0.016 1.0603 0.2074 1.474 0.6276l-0.011-0.016 15.608 15.42-15.563 15.366c-0.7296 0.7878-1.8988 1.02-2.7673 0.8178-0.8684-0.2021-1.555-0.6863-2.1206-1.2671-0.5658-0.5808-1.0231-1.2725-1.2221-2.1208-0.1991-0.8483-0.03-1.9888 0.737-2.7412l9.9639-9.9663-10.009-10.019c-0.4182-0.3776-0.6824-0.9508-0.7274-1.4549-0.045-0.5044 0.064-0.9303 0.214-1.303 0.2978-0.7453 0.7751-1.3349 1.3217-1.8592 0.5467-0.5242 1.1623-0.9678 1.8782-1.2504 0.3581-0.1413 0.7485-0.2485 1.2221-0.233z" stroke-width="1.2173"/>
    <g stroke-width="1.2173">
     <path d="m9561.2-1062.5c-0.075 0-0.067 0-0.074 0.012l-0.012 0.011-14.118 13.946 14.125 13.944 0.012 0.012c0.2323 0.2508 0.4422 0.286 0.7822 0.2068 0.34-0.08 0.7623-0.3298 1.1055-0.6824 0.3433-0.3524 0.5978-0.7995 0.6824-1.1602 0.085-0.3606 0.05-0.5805-0.1617-0.7893h-0.012l-0.011-0.018-0.016-0.011-11.412-11.412 11.548-11.545 0.012-0.011c0.042-0.038 0.039-0.042 0.045-0.1072 0-0.064-0.011-0.1901-0.072-0.3519-0.1295-0.3237-0.4476-0.7607-0.8345-1.1317-0.3868-0.371-0.8444-0.6791-1.1959-0.8179-0.1757-0.07-0.3194-0.092-0.3947-0.09z"/>
     <path d="m9584-1063.2c-0.2494-0.031-0.4885-0.029-0.6917 0.011-0.4068 0.072-0.6311 0.224-0.7561 0.5303-2.9962 7.1164-7.856 18.833-11.457 27.47-0.1302 0.3274-0.078 0.5759 0.1261 0.87 0.2032 0.2942 0.5931 0.5819 1.0436 0.7656 0.4506 0.184 0.9563 0.2615 1.3647 0.1974 0.4084-0.064 0.699-0.2349 0.8987-0.5659 3.8122-9.1437 7.6145-18.292 11.431-27.434 0.1781-0.3582 0.1287-0.577-0.081-0.8725-0.2093-0.2957-0.6335-0.5972-1.1244-0.7822-0.2454-0.093-0.5043-0.1545-0.7537-0.1856z" color="#000000" color-rendering="auto" dominant-baseline="auto" image-rendering="auto" shape-rendering="auto" solid-color="#000000" style="font-feature-settings:normal;font-variant-alternates:normal;font-variant-caps:normal;font-variant-ligatures:normal;font-variant-numeric:normal;font-variant-position:normal;isolation:auto;mix-blend-mode:normal;shape-padding:0;text-decoration-color:#000000;text-decoration-line:none;text-decoration-style:solid;text-indent:0;text-orientation:mixed;text-transform:none;white-space:normal"/>
     <path d="m9595.4-1062.5c-0.075 0-0.2213 0.021-0.397 0.09-0.3515 0.1386-0.8067 0.4468-1.1935 0.8178-0.3868 0.3709-0.7075 0.8078-0.8369 1.1317-0.064 0.1619-0.077 0.2875-0.072 0.3518 0 0.065 0.013 0.07 0.054 0.1072l0.011 0.011 11.538 11.547-11.412 11.412-0.029 0.026c-0.2126 0.2087-0.2558 0.4311-0.1712 0.7917 0.086 0.3606 0.3414 0.8053 0.6848 1.1579 0.3432 0.3525 0.7725 0.6031 1.1125 0.6823 0.3401 0.08 0.5404 0.043 0.7727-0.2068l0.012-0.011 14.127-13.946-14.118-13.946-0.012-0.011c-0.011-0.011 0-0.011-0.072-0.011z"/>
    </g>
   </g>
  </g>
 </g>
 <path d="m1166.4 451.48s4.5617 9.917-1.4278 10.771c-5.9893 0.8542-3.2565-8.3065-3.2565-8.3065s-0.5986-2.7254-2.0515-2.8781" fill="#ffd180" stroke-width=".25049"/>
 <path d="m1172.8 451.11s-5.4332 9.4762 0.4659 10.839 3.9803-7.9832 3.9803-7.9832 0.8367-2.6527 2.3046-2.6778" fill="#ffd180" stroke-width=".25049"/>
 <g transform="matrix(.85655 0 0 .85655 628.14 -26.001)">
  <path d="m221.5 92.977c-3.8976 0-5.8552 0.0208-6.4416 1.2022l-10.096 19.737 96.238-0.14798-10.078-19.568c-0.64535-1.2261-2.5756-1.2164-6.5045-1.2226z" fill="url(#linearGradient13114-2-2-4-1-6)" stroke-width=".20056"/>
  <path d="m213.37 111.94h79.431c9.0196 0.014 9.0223 0.0181 9.0223 8.908v90.175c-0.0196 8.9445-0.12912 8.8784-9.137 8.8784h-79.487c-8.7932 0.0309-8.7896-0.13063-8.7896-9.0501l-1e-5 -90.011c0.0505-8.9212 4e-3 -8.9012 8.9613-8.9012z" fill="url(#linearGradient13114-2-2-3-1)" stroke-width=".2524"/>
  <rect x="208.16" y="115.46" width="90.067" height="27.137" fill="url(#linearGradient13137-7-8-8-9-9)" stroke-width=".24606"/>
  <g fill="#fff">
   <rect x="215.56" y="119.5" width="3.4902" height="19.502" stroke-width=".24606"/>
   <g transform="matrix(.22663 0 0 .26715 206.62 107.73)" opacity=".7">
    <rect x="69.81" y="44.05" width="15.4" height="73" fill="#fff"/>
   </g>
   <g transform="matrix(.22663 0 0 .26715 206.62 107.73)" opacity=".6">
    <rect x="100.22" y="44.05" width="15.4" height="73" fill="#fff"/>
   </g>
   <g transform="matrix(.22663 0 0 .26715 206.62 107.73)" opacity=".5">
    <rect x="130.62" y="44.05" width="15.4" height="73" fill="#fff"/>
   </g>
   <g transform="matrix(.22663 0 0 .26715 206.62 107.73)" opacity=".5">
    <rect x="161.02" y="44.05" width="15.4" height="73" fill="#fff"/>
   </g>
   <g transform="matrix(.22663 0 0 .26715 206.62 107.73)" opacity=".4">
    <rect x="191.42" y="44.05" width="15.4" height="73" fill="#fff"/>
   </g>
  </g>
  <circle cx="283.21" cy="129.58" r="3.2732" fill="#b6c8d3" stroke-width=".22663"/>
  <rect x="208.16" y="145.1" width="90.067" height="27.137" fill="url(#linearGradient13137-7-8-8-5-8-6)" stroke-width=".24606"/>
  <g fill="#fff">
   <rect x="215.56" y="149.14" width="3.4902" height="19.502" stroke-width=".24606"/>
   <g transform="matrix(.22663 0 0 .26715 206.62 137.37)" opacity=".7">
    <rect x="69.81" y="44.05" width="15.4" height="73" fill="#fff"/>
   </g>
   <g transform="matrix(.22663 0 0 .26715 206.62 137.37)" opacity=".6">
    <rect x="100.22" y="44.05" width="15.4" height="73" fill="#fff"/>
   </g>
   <g transform="matrix(.22663 0 0 .26715 206.62 137.37)" opacity=".5">
    <rect x="130.62" y="44.05" width="15.4" height="73" fill="#fff"/>
   </g>
   <g transform="matrix(.22663 0 0 .26715 206.62 137.37)" opacity=".5">
    <rect x="161.02" y="44.05" width="15.4" height="73" fill="#fff"/>
   </g>
   <g transform="matrix(.22663 0 0 .26715 206.62 137.37)" opacity=".4">
    <rect x="191.42" y="44.05" width="15.4" height="73" fill="#fff"/>
   </g>
  </g>
  <circle cx="283.21" cy="159.22" r="3.2732" fill="#b6c8d3" stroke-width=".22663"/>
  <rect x="208.05" y="175.09" width="90.067" height="41.179" fill="url(#linearGradient13137-7-8-8-5-4-4-8)" stroke-width=".24606"/>
  <g fill="#fff">
   <rect x="215.45" y="179.12" width="3.4902" height="33.182" stroke-width=".32096"/>
   <g transform="matrix(.22663 0 0 .45454 206.51 159.1)" opacity=".7">
    <rect x="69.81" y="44.05" width="15.4" height="73" fill="#fff"/>
   </g>
   <g transform="matrix(.22663 0 0 .45454 206.51 159.1)" opacity=".6">
    <rect x="100.22" y="44.05" width="15.4" height="73" fill="#fff"/>
   </g>
   <g transform="matrix(.22663 0 0 .45454 206.51 159.1)" opacity=".5">
    <rect x="130.62" y="44.05" width="15.4" height="73" fill="#fff"/>
   </g>
   <g transform="matrix(.22663 0 0 .45454 206.51 159.1)" opacity=".5">
    <rect x="161.02" y="44.05" width="15.4" height="73" fill="#fff"/>
   </g>
   <g transform="matrix(.22663 0 0 .45454 206.51 159.1)" opacity=".4">
    <rect x="191.42" y="44.05" width="15.4" height="73" fill="#fff"/>
   </g>
  </g>
  <g transform="matrix(1.5896 0 0 1.5896 256.29 174.96)">
   <g transform="matrix(.020994 0 0 .020994 -1.78 9.34)" fill="#a1b8c7" opacity=".5" stroke="#a1b8c7" stroke-width="42.85">
    <path d="m718.84 116.19a70.798 70.798 0 1 0 0.72612 0z" fill="#a1b8c7" stroke="#a1b8c7" stroke-width="42.85"/>
   </g>
   <g transform="matrix(.02226 0 0 .02226 8.605 8.82)" fill="none" opacity=".5" stroke="#000">
    <path d="m209.07 18.931a180.87 180.87 0 1 0 1.8551 0z" fill="#a1b8c7" stroke="#a1b8c7" stroke-width="40.412"/>
   </g>
   <g transform="matrix(.02226 0 0 .02226 8.605 8.82)" fill="none" stroke-width="0">
    <path transform="matrix(11.886,0,0,11.886,2343.5,911.56)" d="m-179.58-75.1a15.218 15.218 0 1 0 0.15624 0zm0.18945 7.8965h0.0744c4.0141 0.02058 7.2898 3.321 7.2793 7.334-0.0105 4.0128-3.3043 7.293-7.3164 7.293-4.0121-1e-6 -7.3059-3.2802-7.3164-7.293-0.0105-4.0129 3.2652-7.3134 7.2793-7.334z" fill="#fff" stroke-width="0"/>
   </g>
   <g transform="matrix(.020994 0 0 .020994 -1.78 9.34)" fill="#fff">
    <path d="m718.84 116.19a70.798 70.798 0 1 0 0.72612 0z" fill="#fff"/>
   </g>
   <g shape-rendering="auto">
    <path d="m4.201 22.33 5.0723-2.3457c-0.42149-0.0772-0.89539-0.10671-1.2734-0.26367l2.3418-2.3418-1.1973-1.1992-2.3418 2.3438c-0.16203-0.39199-0.18136-0.8441-0.248-1.2793-0.79412 1.6908-2.3536 5.0859-2.3536 5.0859z" color="#000000" color-rendering="auto" dominant-baseline="auto" fill="#a1b8c7" image-rendering="auto" opacity=".5" solid-color="#000000" style="font-feature-settings:normal;font-variant-alternates:normal;font-variant-caps:normal;font-variant-ligatures:normal;font-variant-numeric:normal;font-variant-position:normal;isolation:auto;mix-blend-mode:normal;shape-padding:0;text-decoration-color:#000000;text-decoration-line:none;text-decoration-style:solid;text-indent:0;text-orientation:mixed;text-transform:none;white-space:normal"/>
    <path d="m8.202 20.13c-0.2805-0.0461-0.53903-0.14906-0.77247-0.28867l2.4628-2.4629-0.74872-0.74872-2.4672 2.4672c-0.13897-0.2323-0.23605-0.49245-0.27843-0.77101-0.52644 1.1228-1.5508 3.3552-1.5508 3.3552z" color="#000000" color-rendering="auto" dominant-baseline="auto" fill="#fff" image-rendering="auto" solid-color="#000000" style="font-feature-settings:normal;font-variant-alternates:normal;font-variant-caps:normal;font-variant-ligatures:normal;font-variant-numeric:normal;font-variant-position:normal;isolation:auto;mix-blend-mode:normal;shape-padding:0;text-decoration-color:#000000;text-decoration-line:none;text-decoration-style:solid;text-indent:0;text-orientation:mixed;text-transform:none;white-space:normal"/>
    <path d="m22.363 22.32-2.3457-5.0723c-0.07724 0.42149-0.10671 0.89539-0.26367 1.2734l-2.3418-2.3418-1.1992 1.1973 2.3438 2.3418c-0.39199 0.16203-0.8441 0.18136-1.2793 0.248 1.6909 0.79412 5.0859 2.3536 5.0859 2.3536z" color="#000000" color-rendering="auto" dominant-baseline="auto" fill="#a1b8c7" image-rendering="auto" opacity=".5" solid-color="#000000" style="font-feature-settings:normal;font-variant-alternates:normal;font-variant-caps:normal;font-variant-ligatures:normal;font-variant-numeric:normal;font-variant-position:normal;isolation:auto;mix-blend-mode:normal;shape-padding:0;text-decoration-color:#000000;text-decoration-line:none;text-decoration-style:solid;text-indent:0;text-orientation:mixed;text-transform:none;white-space:normal"/>
    <path d="m20.163 18.32c-0.0461 0.2805-0.14906 0.53903-0.28867 0.77247l-2.4629-2.4628-0.74872 0.74872 2.4672 2.4672c-0.23231 0.13897-0.49245 0.23605-0.77101 0.27843 1.1228 0.52644 3.3552 1.5508 3.3552 1.5508z" color="#000000" color-rendering="auto" dominant-baseline="auto" fill="#fff" image-rendering="auto" solid-color="#000000" style="font-feature-settings:normal;font-variant-alternates:normal;font-variant-caps:normal;font-variant-ligatures:normal;font-variant-numeric:normal;font-variant-position:normal;isolation:auto;mix-blend-mode:normal;shape-padding:0;text-decoration-color:#000000;text-decoration-line:none;text-decoration-style:solid;text-indent:0;text-orientation:mixed;text-transform:none;white-space:normal"/>
    <path d="m22.304 4.22-5.0723 2.3457c0.42149 0.0772 0.89539 0.10671 1.2734 0.26367l-2.3418 2.3418 1.1973 1.1992 2.3418-2.3438c0.16203 0.39199 0.18136 0.8441 0.248 1.2793 0.79412-1.6908 2.3536-5.0859 2.3536-5.0859z" color="#000000" color-rendering="auto" dominant-baseline="auto" fill="#a1b8c7" image-rendering="auto" opacity=".5" solid-color="#000000" style="font-feature-settings:normal;font-variant-alternates:normal;font-variant-caps:normal;font-variant-ligatures:normal;font-variant-numeric:normal;font-variant-position:normal;isolation:auto;mix-blend-mode:normal;shape-padding:0;text-decoration-color:#000000;text-decoration-line:none;text-decoration-style:solid;text-indent:0;text-orientation:mixed;text-transform:none;white-space:normal"/>
    <path d="m18.302 6.42c0.2805 0.0461 0.53903 0.14906 0.77247 0.28867l-2.4628 2.4629 0.74872 0.74872 2.4672-2.4672c0.13897 0.2323 0.23605 0.49245 0.27843 0.77101 0.52644-1.1228 1.5508-3.3552 1.5508-3.3552z" color="#000000" color-rendering="auto" dominant-baseline="auto" fill="#fff" image-rendering="auto" solid-color="#000000" style="font-feature-settings:normal;font-variant-alternates:normal;font-variant-caps:normal;font-variant-ligatures:normal;font-variant-numeric:normal;font-variant-position:normal;isolation:auto;mix-blend-mode:normal;shape-padding:0;text-decoration-color:#000000;text-decoration-line:none;text-decoration-style:solid;text-indent:0;text-orientation:mixed;text-transform:none;white-space:normal"/>
    <path d="m4.254 4.22 2.3457 5.0723c0.07724-0.42149 0.10671-0.89539 0.26367-1.2734l2.3418 2.3418 1.1992-1.1973-2.3438-2.3418c0.39199-0.16203 0.8441-0.18136 1.2793-0.248-1.6909-0.79412-5.0859-2.3536-5.0859-2.3536z" color="#000000" color-rendering="auto" dominant-baseline="auto" fill="#a1b8c7" image-rendering="auto" opacity=".5" solid-color="#000000" style="font-feature-settings:normal;font-variant-alternates:normal;font-variant-caps:normal;font-variant-ligatures:normal;font-variant-numeric:normal;font-variant-position:normal;isolation:auto;mix-blend-mode:normal;shape-padding:0;text-decoration-color:#000000;text-decoration-line:none;text-decoration-style:solid;text-indent:0;text-orientation:mixed;text-transform:none;white-space:normal"/>
    <path d="m6.455 8.22c0.0461-0.2805 0.14906-0.53903 0.28867-0.77247l2.4629 2.4628 0.74872-0.74872-2.4672-2.4672c0.23231-0.13897 0.49245-0.23605 0.77101-0.27843-1.1228-0.52644-3.3552-1.5508-3.3552-1.5508z" color="#000000" color-rendering="auto" dominant-baseline="auto" fill="#fff" image-rendering="auto" solid-color="#000000" style="font-feature-settings:normal;font-variant-alternates:normal;font-variant-caps:normal;font-variant-ligatures:normal;font-variant-numeric:normal;font-variant-position:normal;isolation:auto;mix-blend-mode:normal;shape-padding:0;text-decoration-color:#000000;text-decoration-line:none;text-decoration-style:solid;text-indent:0;text-orientation:mixed;text-transform:none;white-space:normal"/>
   </g>
  </g>
 </g>
</svg>
