<?xml version="1.0" encoding="UTF-8"?>
<svg width="394.29mm" height="331.15mm" version="1.1" viewBox="0 0 394.29 331.15" xmlns="http://www.w3.org/2000/svg" xmlns:cc="http://creativecommons.org/ns#" xmlns:dc="http://purl.org/dc/elements/1.1/" xmlns:rdf="http://www.w3.org/1999/02/22-rdf-syntax-ns#" xmlns:xlink="http://www.w3.org/1999/xlink">
 <title>Vivid Root Figure</title>
 <defs>
  <linearGradient id="a">
   <stop stop-color="#dce5ea" offset="0"/>
   <stop stop-color="#ecf1f4" offset="1"/>
  </linearGradient>
  <linearGradient id="n" x1="819.93" x2="819.93" y1="598.64" y2="132.32" gradientUnits="userSpaceOnUse">
   <stop stop-color="#c6d4dd" offset="0"/>
   <stop stop-color="#b6c8d3" offset="1"/>
  </linearGradient>
  <marker id="al" overflow="visible" orient="auto">
   <path transform="scale(-.6)" d="m8.7186 4.0337-10.926-4.0177 10.926-4.0177c-1.7455 2.3721-1.7354 5.6175 0 8.0354z" fill="#4b6a7d" fill-rule="evenodd" stroke="#4b6a7d" stroke-linejoin="round" stroke-width=".625"/>
  </marker>
  <linearGradient id="linearGradient13114-2-2-4-1" x1="-509.95" x2="-452.17" y1="-208.61" y2="-133.5" gradientTransform="matrix(.65517 0 0 .65049 587.42 273.2)" gradientUnits="userSpaceOnUse" xlink:href="#n"/>
  <linearGradient id="linearGradient13114-2-2-3" x1="-551.95" x2="-455.6" y1="-184.21" y2="-248.14" gradientTransform="matrix(.8245 0 0 .81861 673.87 345.73)" gradientUnits="userSpaceOnUse" xlink:href="#n"/>
  <linearGradient id="linearGradient13137-7-8-8-9" x1="-460.78" x2="-490.55" y1="-237.35" y2="-273.89" gradientTransform="matrix(.85657 0 0 .84119 692.92 342.26)" gradientUnits="userSpaceOnUse" xlink:href="#a"/>
  <linearGradient id="linearGradient13137-7-8-8-5-8" x1="-460.78" x2="-490.55" y1="-237.35" y2="-273.89" gradientTransform="matrix(.85657 0 0 .84119 692.92 371.9)" gradientUnits="userSpaceOnUse" xlink:href="#a"/>
  <linearGradient id="linearGradient13137-7-8-8-5-4-4" x1="-464.42" x2="-490.55" y1="-240.69" y2="-273.89" gradientTransform="matrix(.85657 0 0 .84119 692.81 401.88)" gradientUnits="userSpaceOnUse" xlink:href="#a"/>
 </defs>
 <metadata>
  <rdf:RDF>
   <cc:Work rdf:about="">
    <dc:format>image/svg+xml</dc:format>
    <dc:type rdf:resource="http://purl.org/dc/dcmitype/StillImage"/>
    <dc:title>Vivid Root Figure</dc:title>
   </cc:Work>
  </rdf:RDF>
 </metadata>
 <g fill="none" stroke="#4b6a7d">
  <path d="m196.35 113.42v126.31" marker-end="url(#al)" stroke-width="4"/>
  <path d="m196.35 113.42c0 1.0293-4e-3 63.083-0.0109 64.084-0.13157 18.144-12.313 19.871-26.778 19.871-0.93044 0-121.18 0.0112-122.11 0.0161-7.35 0.0384-17.228 3.8536-17.228 13.658-5e-3 0.80447-7e-3 27.897-6e-3 28.717" marker-end="url(#al)" stroke-width="4"/>
  <path d="m196.35 113.42c0 1.0293 4e-3 63.083 0.0109 64.084 0.13157 18.144 12.313 19.871 26.778 19.871 0.93044 0 121.18 0.0112 122.11 0.0161 7.35 0.0384 17.228 3.8536 17.228 13.658 5e-3 0.80447 7e-3 27.897 6e-3 28.717" marker-end="url(#al)" stroke-width="4"/>
 </g>
 <g transform="translate(94.448 -79.14)">
  <g transform="matrix(1 0 .19208 1 617.94 369.68)">
   <g transform="translate(6.9035,-19.243)">
    <g transform="matrix(.2505 0 -.048116 .2505 -2910.6 80.699)">
     <g transform="matrix(3.4194,0,-4.7573e-8,3.4194,8629.6,-1723.1)">
      <path d="m221.5 92.977c-3.8976 0-5.8552 0.0208-6.4416 1.2022l-10.096 19.737 96.238-0.14798-10.078-19.568c-0.64535-1.2261-2.5756-1.2164-6.5045-1.2226z" fill="url(#linearGradient13114-2-2-4-1)" stroke-width=".20056"/>
      <path d="m213.37 111.94h79.431c9.0196 0.014 9.0223 0.0181 9.0223 8.908v90.175c-0.0196 8.9445-0.12912 8.8784-9.137 8.8784h-79.487c-8.7932 0.0309-8.7896-0.13063-8.7896-9.0501l-1e-5 -90.011c0.0505-8.9212 4e-3 -8.9012 8.9613-8.9012z" fill="url(#linearGradient13114-2-2-3)" stroke-width=".2524"/>
      <rect x="208.16" y="115.46" width="90.067" height="27.137" fill="url(#linearGradient13137-7-8-8-9)" stroke-width=".24606"/>
      <g fill="#fff">
       <rect x="215.56" y="119.5" width="3.4902" height="19.502" stroke-width=".24606"/>
       <g transform="matrix(.22663 0 0 .26715 206.62 107.73)" opacity=".7">
        <rect x="69.81" y="44.05" width="15.4" height="73" fill="#fff"/>
       </g>
       <g transform="matrix(.22663 0 0 .26715 206.62 107.73)" opacity=".6">
        <rect x="100.22" y="44.05" width="15.4" height="73" fill="#fff"/>
       </g>
       <g transform="matrix(.22663 0 0 .26715 206.62 107.73)" opacity=".5">
        <rect x="130.62" y="44.05" width="15.4" height="73" fill="#fff"/>
       </g>
       <g transform="matrix(.22663 0 0 .26715 206.62 107.73)" opacity=".5">
        <rect x="161.02" y="44.05" width="15.4" height="73" fill="#fff"/>
       </g>
       <g transform="matrix(.22663 0 0 .26715 206.62 107.73)" opacity=".4">
        <rect x="191.42" y="44.05" width="15.4" height="73" fill="#fff"/>
       </g>
      </g>
      <circle cx="283.21" cy="129.58" r="3.2732" fill="#b6c8d3" stroke-width=".22663"/>
      <rect x="208.16" y="145.1" width="90.067" height="27.137" fill="url(#linearGradient13137-7-8-8-5-8)" stroke-width=".24606"/>
      <g fill="#fff">
       <rect x="215.56" y="149.14" width="3.4902" height="19.502" stroke-width=".24606"/>
       <g transform="matrix(.22663 0 0 .26715 206.62 137.37)" opacity=".7">
        <rect x="69.81" y="44.05" width="15.4" height="73" fill="#fff"/>
       </g>
       <g transform="matrix(.22663 0 0 .26715 206.62 137.37)" opacity=".6">
        <rect x="100.22" y="44.05" width="15.4" height="73" fill="#fff"/>
       </g>
       <g transform="matrix(.22663 0 0 .26715 206.62 137.37)" opacity=".5">
        <rect x="130.62" y="44.05" width="15.4" height="73" fill="#fff"/>
       </g>
       <g transform="matrix(.22663 0 0 .26715 206.62 137.37)" opacity=".5">
        <rect x="161.02" y="44.05" width="15.4" height="73" fill="#fff"/>
       </g>
       <g transform="matrix(.22663 0 0 .26715 206.62 137.37)" opacity=".4">
        <rect x="191.42" y="44.05" width="15.4" height="73" fill="#fff"/>
       </g>
      </g>
      <circle cx="283.21" cy="159.22" r="3.2732" fill="#b6c8d3" stroke-width=".22663"/>
      <rect x="208.05" y="175.09" width="90.067" height="41.179" fill="url(#linearGradient13137-7-8-8-5-4-4)" stroke-width=".24606"/>
      <g fill="#fff">
       <rect x="215.45" y="179.12" width="3.4902" height="33.182" stroke-width=".32096"/>
       <g transform="matrix(.22663 0 0 .45454 206.51 159.1)" opacity=".7">
        <rect x="69.81" y="44.05" width="15.4" height="73" fill="#fff"/>
       </g>
       <g transform="matrix(.22663 0 0 .45454 206.51 159.1)" opacity=".6">
        <rect x="100.22" y="44.05" width="15.4" height="73" fill="#fff"/>
       </g>
       <g transform="matrix(.22663 0 0 .45454 206.51 159.1)" opacity=".5">
        <rect x="130.62" y="44.05" width="15.4" height="73" fill="#fff"/>
       </g>
       <g transform="matrix(.22663 0 0 .45454 206.51 159.1)" opacity=".5">
        <rect x="161.02" y="44.05" width="15.4" height="73" fill="#fff"/>
       </g>
       <g transform="matrix(.22663 0 0 .45454 206.51 159.1)" opacity=".4">
        <rect x="191.42" y="44.05" width="15.4" height="73" fill="#fff"/>
       </g>
      </g>
      <g transform="matrix(1.5896,0,0,1.5896,256.29,174.96)">
       <g transform="matrix(.020994 0 0 .020994 -1.78 9.34)" fill="#a1b8c7" opacity=".5" stroke="#a1b8c7" stroke-width="42.85">
        <path d="m718.84 116.19a70.798 70.798 0 1 0 0.72612 0z" fill="#a1b8c7" stroke="#a1b8c7" stroke-width="42.85"/>
       </g>
       <g transform="matrix(.02226 0 0 .02226 8.605 8.82)" fill="none" opacity=".5" stroke="#000">
        <path d="m209.07 18.931a180.87 180.87 0 1 0 1.8551 0z" fill="#a1b8c7" stroke="#a1b8c7" stroke-width="40.412"/>
       </g>
       <g transform="matrix(.02226 0 0 .02226 8.605 8.82)" fill="none" stroke-width="0">
        <path transform="matrix(11.886,0,0,11.886,2343.5,911.56)" d="m-179.58-75.1a15.218 15.218 0 1 0 0.15624 0zm0.18945 7.8965h0.0744c4.0141 0.02058 7.2898 3.321 7.2793 7.334-0.0105 4.0128-3.3043 7.293-7.3164 7.293-4.0121-1e-6 -7.3059-3.2802-7.3164-7.293-0.0105-4.0129 3.2652-7.3134 7.2793-7.334z" fill="#fff" stroke-width="0"/>
       </g>
       <g transform="matrix(.020994 0 0 .020994 -1.78 9.34)" fill="#fff">
        <path d="m718.84 116.19a70.798 70.798 0 1 0 0.72612 0z" fill="#fff"/>
       </g>
       <g shape-rendering="auto">
        <path d="m4.201 22.33 5.0723-2.3457c-0.42149-0.0772-0.89539-0.10671-1.2734-0.26367l2.3418-2.3418-1.1973-1.1992-2.3418 2.3438c-0.16203-0.39199-0.18136-0.8441-0.248-1.2793-0.79412 1.6908-2.3536 5.0859-2.3536 5.0859z" color="#000000" color-rendering="auto" dominant-baseline="auto" fill="#a1b8c7" image-rendering="auto" opacity=".5" solid-color="#000000" style="font-feature-settings:normal;font-variant-alternates:normal;font-variant-caps:normal;font-variant-ligatures:normal;font-variant-numeric:normal;font-variant-position:normal;isolation:auto;mix-blend-mode:normal;shape-padding:0;text-decoration-color:#000000;text-decoration-line:none;text-decoration-style:solid;text-indent:0;text-orientation:mixed;text-transform:none;white-space:normal"/>
        <path d="m8.202 20.13c-0.2805-0.0461-0.53903-0.14906-0.77247-0.28867l2.4628-2.4629-0.74872-0.74872-2.4672 2.4672c-0.13897-0.2323-0.23605-0.49245-0.27843-0.77101-0.52644 1.1228-1.5508 3.3552-1.5508 3.3552z" color="#000000" color-rendering="auto" dominant-baseline="auto" fill="#fff" image-rendering="auto" solid-color="#000000" style="font-feature-settings:normal;font-variant-alternates:normal;font-variant-caps:normal;font-variant-ligatures:normal;font-variant-numeric:normal;font-variant-position:normal;isolation:auto;mix-blend-mode:normal;shape-padding:0;text-decoration-color:#000000;text-decoration-line:none;text-decoration-style:solid;text-indent:0;text-orientation:mixed;text-transform:none;white-space:normal"/>
        <path d="m22.363 22.32-2.3457-5.0723c-0.07724 0.42149-0.10671 0.89539-0.26367 1.2734l-2.3418-2.3418-1.1992 1.1973 2.3438 2.3418c-0.39199 0.16203-0.8441 0.18136-1.2793 0.248 1.6909 0.79412 5.0859 2.3536 5.0859 2.3536z" color="#000000" color-rendering="auto" dominant-baseline="auto" fill="#a1b8c7" image-rendering="auto" opacity=".5" solid-color="#000000" style="font-feature-settings:normal;font-variant-alternates:normal;font-variant-caps:normal;font-variant-ligatures:normal;font-variant-numeric:normal;font-variant-position:normal;isolation:auto;mix-blend-mode:normal;shape-padding:0;text-decoration-color:#000000;text-decoration-line:none;text-decoration-style:solid;text-indent:0;text-orientation:mixed;text-transform:none;white-space:normal"/>
        <path d="m20.163 18.32c-0.0461 0.2805-0.14906 0.53903-0.28867 0.77247l-2.4629-2.4628-0.74872 0.74872 2.4672 2.4672c-0.23231 0.13897-0.49245 0.23605-0.77101 0.27843 1.1228 0.52644 3.3552 1.5508 3.3552 1.5508z" color="#000000" color-rendering="auto" dominant-baseline="auto" fill="#fff" image-rendering="auto" solid-color="#000000" style="font-feature-settings:normal;font-variant-alternates:normal;font-variant-caps:normal;font-variant-ligatures:normal;font-variant-numeric:normal;font-variant-position:normal;isolation:auto;mix-blend-mode:normal;shape-padding:0;text-decoration-color:#000000;text-decoration-line:none;text-decoration-style:solid;text-indent:0;text-orientation:mixed;text-transform:none;white-space:normal"/>
        <path d="m22.304 4.22-5.0723 2.3457c0.42149 0.0772 0.89539 0.10671 1.2734 0.26367l-2.3418 2.3418 1.1973 1.1992 2.3418-2.3438c0.16203 0.39199 0.18136 0.8441 0.248 1.2793 0.79412-1.6908 2.3536-5.0859 2.3536-5.0859z" color="#000000" color-rendering="auto" dominant-baseline="auto" fill="#a1b8c7" image-rendering="auto" opacity=".5" solid-color="#000000" style="font-feature-settings:normal;font-variant-alternates:normal;font-variant-caps:normal;font-variant-ligatures:normal;font-variant-numeric:normal;font-variant-position:normal;isolation:auto;mix-blend-mode:normal;shape-padding:0;text-decoration-color:#000000;text-decoration-line:none;text-decoration-style:solid;text-indent:0;text-orientation:mixed;text-transform:none;white-space:normal"/>
        <path d="m18.302 6.42c0.2805 0.0461 0.53903 0.14906 0.77247 0.28867l-2.4628 2.4629 0.74872 0.74872 2.4672-2.4672c0.13897 0.2323 0.23605 0.49245 0.27843 0.77101 0.52644-1.1228 1.5508-3.3552 1.5508-3.3552z" color="#000000" color-rendering="auto" dominant-baseline="auto" fill="#fff" image-rendering="auto" solid-color="#000000" style="font-feature-settings:normal;font-variant-alternates:normal;font-variant-caps:normal;font-variant-ligatures:normal;font-variant-numeric:normal;font-variant-position:normal;isolation:auto;mix-blend-mode:normal;shape-padding:0;text-decoration-color:#000000;text-decoration-line:none;text-decoration-style:solid;text-indent:0;text-orientation:mixed;text-transform:none;white-space:normal"/>
        <path d="m4.254 4.22 2.3457 5.0723c0.07724-0.42149 0.10671-0.89539 0.26367-1.2734l2.3418 2.3418 1.1992-1.1973-2.3438-2.3418c0.39199-0.16203 0.8441-0.18136 1.2793-0.248-1.6909-0.79412-5.0859-2.3536-5.0859-2.3536z" color="#000000" color-rendering="auto" dominant-baseline="auto" fill="#a1b8c7" image-rendering="auto" opacity=".5" solid-color="#000000" style="font-feature-settings:normal;font-variant-alternates:normal;font-variant-caps:normal;font-variant-ligatures:normal;font-variant-numeric:normal;font-variant-position:normal;isolation:auto;mix-blend-mode:normal;shape-padding:0;text-decoration-color:#000000;text-decoration-line:none;text-decoration-style:solid;text-indent:0;text-orientation:mixed;text-transform:none;white-space:normal"/>
        <path d="m6.455 8.22c0.0461-0.2805 0.14906-0.53903 0.28867-0.77247l2.4629 2.4628 0.74872-0.74872-2.4672-2.4672c0.23231-0.13897 0.49245-0.23605 0.77101-0.27843-1.1228-0.52644-3.3552-1.5508-3.3552-1.5508z" color="#000000" color-rendering="auto" dominant-baseline="auto" fill="#fff" image-rendering="auto" solid-color="#000000" style="font-feature-settings:normal;font-variant-alternates:normal;font-variant-caps:normal;font-variant-ligatures:normal;font-variant-numeric:normal;font-variant-position:normal;isolation:auto;mix-blend-mode:normal;shape-padding:0;text-decoration-color:#000000;text-decoration-line:none;text-decoration-style:solid;text-indent:0;text-orientation:mixed;text-transform:none;white-space:normal"/>
       </g>
      </g>
     </g>
    </g>
   </g>
  </g>
 </g>
 <g transform="matrix(.74474 0 0 .74474 285.34 191.25)">
  <g transform="matrix(1 0 .19208 1 617.94 369.68)">
   <g transform="translate(6.9035,-19.243)">
    <g transform="matrix(.2505 0 -.048116 .2505 -2910.6 80.699)">
     <g transform="matrix(3.4194,0,-4.7573e-8,3.4194,8629.6,-1723.1)">
      <path d="m221.5 92.977c-3.8976 0-5.8552 0.0208-6.4416 1.2022l-10.096 19.737 96.238-0.14798-10.078-19.568c-0.64535-1.2261-2.5756-1.2164-6.5045-1.2226z" fill="url(#linearGradient13114-2-2-4-1)" stroke-width=".20056"/>
      <path d="m213.37 111.94h79.431c9.0196 0.014 9.0223 0.0181 9.0223 8.908v90.175c-0.0196 8.9445-0.12912 8.8784-9.137 8.8784h-79.487c-8.7932 0.0309-8.7896-0.13063-8.7896-9.0501l-1e-5 -90.011c0.0505-8.9212 4e-3 -8.9012 8.9613-8.9012z" fill="url(#linearGradient13114-2-2-3)" stroke-width=".2524"/>
      <rect x="208.16" y="115.46" width="90.067" height="27.137" fill="url(#linearGradient13137-7-8-8-9)" stroke-width=".24606"/>
      <g fill="#fff">
       <rect x="215.56" y="119.5" width="3.4902" height="19.502" stroke-width=".24606"/>
       <g transform="matrix(.22663 0 0 .26715 206.62 107.73)" opacity=".7">
        <rect x="69.81" y="44.05" width="15.4" height="73" fill="#fff"/>
       </g>
       <g transform="matrix(.22663 0 0 .26715 206.62 107.73)" opacity=".6">
        <rect x="100.22" y="44.05" width="15.4" height="73" fill="#fff"/>
       </g>
       <g transform="matrix(.22663 0 0 .26715 206.62 107.73)" opacity=".5">
        <rect x="130.62" y="44.05" width="15.4" height="73" fill="#fff"/>
       </g>
       <g transform="matrix(.22663 0 0 .26715 206.62 107.73)" opacity=".5">
        <rect x="161.02" y="44.05" width="15.4" height="73" fill="#fff"/>
       </g>
       <g transform="matrix(.22663 0 0 .26715 206.62 107.73)" opacity=".4">
        <rect x="191.42" y="44.05" width="15.4" height="73" fill="#fff"/>
       </g>
      </g>
      <circle cx="283.21" cy="129.58" r="3.2732" fill="#b6c8d3" stroke-width=".22663"/>
      <rect x="208.16" y="145.1" width="90.067" height="27.137" fill="url(#linearGradient13137-7-8-8-5-8)" stroke-width=".24606"/>
      <g fill="#fff">
       <rect x="215.56" y="149.14" width="3.4902" height="19.502" stroke-width=".24606"/>
       <g transform="matrix(.22663 0 0 .26715 206.62 137.37)" opacity=".7">
        <rect x="69.81" y="44.05" width="15.4" height="73" fill="#fff"/>
       </g>
       <g transform="matrix(.22663 0 0 .26715 206.62 137.37)" opacity=".6">
        <rect x="100.22" y="44.05" width="15.4" height="73" fill="#fff"/>
       </g>
       <g transform="matrix(.22663 0 0 .26715 206.62 137.37)" opacity=".5">
        <rect x="130.62" y="44.05" width="15.4" height="73" fill="#fff"/>
       </g>
       <g transform="matrix(.22663 0 0 .26715 206.62 137.37)" opacity=".5">
        <rect x="161.02" y="44.05" width="15.4" height="73" fill="#fff"/>
       </g>
       <g transform="matrix(.22663 0 0 .26715 206.62 137.37)" opacity=".4">
        <rect x="191.42" y="44.05" width="15.4" height="73" fill="#fff"/>
       </g>
      </g>
      <circle cx="283.21" cy="159.22" r="3.2732" fill="#b6c8d3" stroke-width=".22663"/>
      <rect x="208.05" y="175.09" width="90.067" height="41.179" fill="url(#linearGradient13137-7-8-8-5-4-4)" stroke-width=".24606"/>
      <g fill="#fff">
       <rect x="215.45" y="179.12" width="3.4902" height="33.182" stroke-width=".32096"/>
       <g transform="matrix(.22663 0 0 .45454 206.51 159.1)" opacity=".7">
        <rect x="69.81" y="44.05" width="15.4" height="73" fill="#fff"/>
       </g>
       <g transform="matrix(.22663 0 0 .45454 206.51 159.1)" opacity=".6">
        <rect x="100.22" y="44.05" width="15.4" height="73" fill="#fff"/>
       </g>
       <g transform="matrix(.22663 0 0 .45454 206.51 159.1)" opacity=".5">
        <rect x="130.62" y="44.05" width="15.4" height="73" fill="#fff"/>
       </g>
       <g transform="matrix(.22663 0 0 .45454 206.51 159.1)" opacity=".5">
        <rect x="161.02" y="44.05" width="15.4" height="73" fill="#fff"/>
       </g>
       <g transform="matrix(.22663 0 0 .45454 206.51 159.1)" opacity=".4">
        <rect x="191.42" y="44.05" width="15.4" height="73" fill="#fff"/>
       </g>
      </g>
     </g>
     <g transform="matrix(.94103 0 0 .94103 567.75 -32.906)">
      <path d="m9559.3-1078.6c-2.4307-1.9109-5.4826-3.0437-8.7989-3.0437-7.8052 0-14.161 6.2965-14.357 14.144-8.06 3.0552-13.797 10.92-13.797 20.132 0 10.885 7.1339 21.3 25.76 21.3 24.057 0.4082 41.76 0.1989 66.172 0.1989v-0.033c12.868 0 18.384-9.2006 18.384-19.719 0-10.148-7.5626-18.506-17.298-19.627-4.2477-31.662-43.771-38.89-56.074-13.348" fill="#a1b8c7" opacity=".5" stroke="#a1b8c7" stroke-linecap="round" stroke-linejoin="round" stroke-width="4.1387"/>
      <g fill="#fff" stroke-width="1.2173">
       <path d="m9583.6-1094c-9.7909 0.1187-19.279 5.0854-24.276 15.458-2.4302-1.9097-5.4815-3.0432-8.7966-3.0432-7.8052 0-14.159 6.2963-14.355 14.143-8.0598 3.0552-13.796 10.92-13.796 20.132 0 10.885 7.1317 21.3 25.757 21.3 24.057 0.4082 41.761 0.1997 66.174 0.1997v-0.033c12.868 0 18.383-9.2001 18.383-19.718 0-10.147-7.5608-18.507-17.296-19.628-2.522-18.799-17.482-28.983-31.794-28.81zm-0.045 28.763c0.6541-0.016 1.285 0.1129 1.8806 0.3375 0.7942 0.2993 1.5438 0.7651 2.085 1.5287 0.5413 0.7638 0.7464 1.9966 0.2521 2.9909l-11.457 27.488-0.051 0.09c-0.5403 0.8954-1.4861 1.399-2.3561 1.5359-0.8698 0.1368-1.7109 0-2.47-0.3138-0.7593-0.3096-1.4563-0.7914-1.9591-1.5192s-0.7365-1.83-0.3495-2.8029l0.011-0.012 11.45-27.478c0.4189-1.0264 1.4203-1.6189 2.3085-1.7783 0.222-0.04 0.4429-0.063 0.6609-0.069zm-22.407 0.6704c0.4736-0.016 0.864 0.092 1.222 0.233 0.7159 0.2826 1.3315 0.7262 1.8782 1.2504 0.5466 0.5244 1.0239 1.1138 1.3219 1.8591 0.1489 0.3727 0.2613 0.7986 0.2163 1.303-0.045 0.5042-0.3094 1.0773-0.7275 1.4549l-10.012 10.019 9.9664 9.9661c0.7669 0.7524 0.9265 1.893 0.7273 2.7413-0.1989 0.8484-0.6467 1.5399-1.2123 2.1208-0.5658 0.5809-1.2524 1.0651-2.1209 1.2672-0.8683 0.2021-2.04-0.03-2.7696-0.8179l-15.563-15.365 15.608-15.42-0.011 0.016c0.4138-0.4203 0.998-0.612 1.4717-0.6277zm34.335 0c0.4737 0.016 1.0603 0.2074 1.474 0.6276l-0.011-0.016 15.608 15.42-15.563 15.366c-0.7296 0.7878-1.8988 1.02-2.7673 0.8178-0.8684-0.2021-1.555-0.6863-2.1206-1.2671-0.5658-0.5808-1.0231-1.2725-1.2221-2.1208-0.1991-0.8483-0.03-1.9888 0.737-2.7412l9.9639-9.9663-10.009-10.019c-0.4182-0.3776-0.6824-0.9508-0.7274-1.4549-0.045-0.5044 0.064-0.9303 0.214-1.303 0.2978-0.7453 0.7751-1.3349 1.3217-1.8592 0.5467-0.5242 1.1623-0.9678 1.8782-1.2504 0.3581-0.1413 0.7485-0.2485 1.2221-0.233z"/>
       <path d="m9561.2-1062.5c-0.075 0-0.067 0-0.074 0.012l-0.012 0.011-14.118 13.946 14.125 13.944 0.012 0.012c0.2323 0.2508 0.4422 0.286 0.7822 0.2068 0.34-0.08 0.7623-0.3298 1.1055-0.6824 0.3433-0.3524 0.5978-0.7995 0.6824-1.1602 0.085-0.3606 0.05-0.5805-0.1617-0.7893h-0.012l-0.011-0.018-0.016-0.011-11.412-11.412 11.548-11.545 0.012-0.011c0.042-0.038 0.039-0.042 0.045-0.1072 0-0.064-0.011-0.1901-0.072-0.3519-0.1295-0.3237-0.4476-0.7607-0.8345-1.1317-0.3868-0.371-0.8444-0.6791-1.1959-0.8179-0.1757-0.07-0.3194-0.092-0.3947-0.09z"/>
       <path d="m9584-1063.2c-0.2494-0.031-0.4885-0.029-0.6917 0.011-0.4068 0.072-0.6311 0.224-0.7561 0.5303-2.9962 7.1164-7.856 18.833-11.457 27.47-0.1302 0.3274-0.078 0.5759 0.1261 0.87 0.2032 0.2942 0.5931 0.5819 1.0436 0.7656 0.4506 0.184 0.9563 0.2615 1.3647 0.1974 0.4084-0.064 0.699-0.2349 0.8987-0.5659 3.8122-9.1437 7.6145-18.292 11.431-27.434 0.1781-0.3582 0.1287-0.577-0.081-0.8725-0.2093-0.2957-0.6335-0.5972-1.1244-0.7822-0.2454-0.093-0.5043-0.1545-0.7537-0.1856z" color="#000000" color-rendering="auto" dominant-baseline="auto" image-rendering="auto" shape-rendering="auto" solid-color="#000000" style="font-feature-settings:normal;font-variant-alternates:normal;font-variant-caps:normal;font-variant-ligatures:normal;font-variant-numeric:normal;font-variant-position:normal;isolation:auto;mix-blend-mode:normal;shape-padding:0;text-decoration-color:#000000;text-decoration-line:none;text-decoration-style:solid;text-indent:0;text-orientation:mixed;text-transform:none;white-space:normal"/>
       <path d="m9595.4-1062.5c-0.075 0-0.2213 0.021-0.397 0.09-0.3515 0.1386-0.8067 0.4468-1.1935 0.8178-0.3868 0.3709-0.7075 0.8078-0.8369 1.1317-0.064 0.1619-0.077 0.2875-0.072 0.3518 0 0.065 0.013 0.07 0.054 0.1072l0.011 0.011 11.538 11.547-11.412 11.412-0.029 0.026c-0.2126 0.2087-0.2558 0.4311-0.1712 0.7917 0.086 0.3606 0.3414 0.8053 0.6848 1.1579 0.3432 0.3525 0.7725 0.6031 1.1125 0.6823 0.3401 0.08 0.5404 0.043 0.7727-0.2068l0.012-0.011 14.127-13.946-14.118-13.946-0.012-0.011c-0.011-0.011 0-0.011-0.072-0.011z"/>
      </g>
     </g>
    </g>
   </g>
  </g>
 </g>
 <g transform="matrix(.74474 0 0 .74474 -46.808 191.25)">
  <g transform="matrix(1 0 .19208 1 617.94 369.68)">
   <g transform="translate(6.9035,-19.243)">
    <g transform="matrix(.2505 0 -.048116 .2505 -2910.6 80.699)">
     <g transform="matrix(3.4194,0,-4.7573e-8,3.4194,8629.6,-1723.1)">
      <path d="m221.5 92.977c-3.8976 0-5.8552 0.0208-6.4416 1.2022l-10.096 19.737 96.238-0.14798-10.078-19.568c-0.64535-1.2261-2.5756-1.2164-6.5045-1.2226z" fill="url(#linearGradient13114-2-2-4-1)" stroke-width=".20056"/>
      <path d="m213.37 111.94h79.431c9.0196 0.014 9.0223 0.0181 9.0223 8.908v90.175c-0.0196 8.9445-0.12912 8.8784-9.137 8.8784h-79.487c-8.7932 0.0309-8.7896-0.13063-8.7896-9.0501l-1e-5 -90.011c0.0505-8.9212 4e-3 -8.9012 8.9613-8.9012z" fill="url(#linearGradient13114-2-2-3)" stroke-width=".2524"/>
      <rect x="208.16" y="115.46" width="90.067" height="27.137" fill="url(#linearGradient13137-7-8-8-9)" stroke-width=".24606"/>
      <g fill="#fff">
       <rect x="215.56" y="119.5" width="3.4902" height="19.502" stroke-width=".24606"/>
       <g transform="matrix(.22663 0 0 .26715 206.62 107.73)" opacity=".7">
        <rect x="69.81" y="44.05" width="15.4" height="73" fill="#fff"/>
       </g>
       <g transform="matrix(.22663 0 0 .26715 206.62 107.73)" opacity=".6">
        <rect x="100.22" y="44.05" width="15.4" height="73" fill="#fff"/>
       </g>
       <g transform="matrix(.22663 0 0 .26715 206.62 107.73)" opacity=".5">
        <rect x="130.62" y="44.05" width="15.4" height="73" fill="#fff"/>
       </g>
       <g transform="matrix(.22663 0 0 .26715 206.62 107.73)" opacity=".5">
        <rect x="161.02" y="44.05" width="15.4" height="73" fill="#fff"/>
       </g>
       <g transform="matrix(.22663 0 0 .26715 206.62 107.73)" opacity=".4">
        <rect x="191.42" y="44.05" width="15.4" height="73" fill="#fff"/>
       </g>
      </g>
      <circle cx="283.21" cy="129.58" r="3.2732" fill="#b6c8d3" stroke-width=".22663"/>
      <rect x="208.16" y="145.1" width="90.067" height="27.137" fill="url(#linearGradient13137-7-8-8-5-8)" stroke-width=".24606"/>
      <g fill="#fff">
       <rect x="215.56" y="149.14" width="3.4902" height="19.502" stroke-width=".24606"/>
       <g transform="matrix(.22663 0 0 .26715 206.62 137.37)" opacity=".7">
        <rect x="69.81" y="44.05" width="15.4" height="73" fill="#fff"/>
       </g>
       <g transform="matrix(.22663 0 0 .26715 206.62 137.37)" opacity=".6">
        <rect x="100.22" y="44.05" width="15.4" height="73" fill="#fff"/>
       </g>
       <g transform="matrix(.22663 0 0 .26715 206.62 137.37)" opacity=".5">
        <rect x="130.62" y="44.05" width="15.4" height="73" fill="#fff"/>
       </g>
       <g transform="matrix(.22663 0 0 .26715 206.62 137.37)" opacity=".5">
        <rect x="161.02" y="44.05" width="15.4" height="73" fill="#fff"/>
       </g>
       <g transform="matrix(.22663 0 0 .26715 206.62 137.37)" opacity=".4">
        <rect x="191.42" y="44.05" width="15.4" height="73" fill="#fff"/>
       </g>
      </g>
      <circle cx="283.21" cy="159.22" r="3.2732" fill="#b6c8d3" stroke-width=".22663"/>
      <rect x="208.05" y="175.09" width="90.067" height="41.179" fill="url(#linearGradient13137-7-8-8-5-4-4)" stroke-width=".24606"/>
      <g fill="#fff">
       <rect x="215.45" y="179.12" width="3.4902" height="33.182" stroke-width=".32096"/>
       <g transform="matrix(.22663 0 0 .45454 206.51 159.1)" opacity=".7">
        <rect x="69.81" y="44.05" width="15.4" height="73" fill="#fff"/>
       </g>
       <g transform="matrix(.22663 0 0 .45454 206.51 159.1)" opacity=".6">
        <rect x="100.22" y="44.05" width="15.4" height="73" fill="#fff"/>
       </g>
       <g transform="matrix(.22663 0 0 .45454 206.51 159.1)" opacity=".5">
        <rect x="130.62" y="44.05" width="15.4" height="73" fill="#fff"/>
       </g>
       <g transform="matrix(.22663 0 0 .45454 206.51 159.1)" opacity=".5">
        <rect x="161.02" y="44.05" width="15.4" height="73" fill="#fff"/>
       </g>
       <g transform="matrix(.22663 0 0 .45454 206.51 159.1)" opacity=".4">
        <rect x="191.42" y="44.05" width="15.4" height="73" fill="#fff"/>
       </g>
      </g>
     </g>
     <g transform="matrix(.94103 0 0 .94103 567.75 -32.906)">
      <path d="m9559.3-1078.6c-2.4307-1.9109-5.4826-3.0437-8.7989-3.0437-7.8052 0-14.161 6.2965-14.357 14.144-8.06 3.0552-13.797 10.92-13.797 20.132 0 10.885 7.1339 21.3 25.76 21.3 24.057 0.4082 41.76 0.1989 66.172 0.1989v-0.033c12.868 0 18.384-9.2006 18.384-19.719 0-10.148-7.5626-18.506-17.298-19.627-4.2477-31.662-43.771-38.89-56.074-13.348" fill="#a1b8c7" opacity=".5" stroke="#a1b8c7" stroke-linecap="round" stroke-linejoin="round" stroke-width="4.1387"/>
      <g fill="#fff" stroke-width="1.2173">
       <path d="m9583.6-1094c-9.7909 0.1187-19.279 5.0854-24.276 15.458-2.4302-1.9097-5.4815-3.0432-8.7966-3.0432-7.8052 0-14.159 6.2963-14.355 14.143-8.0598 3.0552-13.796 10.92-13.796 20.132 0 10.885 7.1317 21.3 25.757 21.3 24.057 0.4082 41.761 0.1997 66.174 0.1997v-0.033c12.868 0 18.383-9.2001 18.383-19.718 0-10.147-7.5608-18.507-17.296-19.628-2.522-18.799-17.482-28.983-31.794-28.81zm-0.045 28.763c0.6541-0.016 1.285 0.1129 1.8806 0.3375 0.7942 0.2993 1.5438 0.7651 2.085 1.5287 0.5413 0.7638 0.7464 1.9966 0.2521 2.9909l-11.457 27.488-0.051 0.09c-0.5403 0.8954-1.4861 1.399-2.3561 1.5359-0.8698 0.1368-1.7109 0-2.47-0.3138-0.7593-0.3096-1.4563-0.7914-1.9591-1.5192s-0.7365-1.83-0.3495-2.8029l0.011-0.012 11.45-27.478c0.4189-1.0264 1.4203-1.6189 2.3085-1.7783 0.222-0.04 0.4429-0.063 0.6609-0.069zm-22.407 0.6704c0.4736-0.016 0.864 0.092 1.222 0.233 0.7159 0.2826 1.3315 0.7262 1.8782 1.2504 0.5466 0.5244 1.0239 1.1138 1.3219 1.8591 0.1489 0.3727 0.2613 0.7986 0.2163 1.303-0.045 0.5042-0.3094 1.0773-0.7275 1.4549l-10.012 10.019 9.9664 9.9661c0.7669 0.7524 0.9265 1.893 0.7273 2.7413-0.1989 0.8484-0.6467 1.5399-1.2123 2.1208-0.5658 0.5809-1.2524 1.0651-2.1209 1.2672-0.8683 0.2021-2.04-0.03-2.7696-0.8179l-15.563-15.365 15.608-15.42-0.011 0.016c0.4138-0.4203 0.998-0.612 1.4717-0.6277zm34.335 0c0.4737 0.016 1.0603 0.2074 1.474 0.6276l-0.011-0.016 15.608 15.42-15.563 15.366c-0.7296 0.7878-1.8988 1.02-2.7673 0.8178-0.8684-0.2021-1.555-0.6863-2.1206-1.2671-0.5658-0.5808-1.0231-1.2725-1.2221-2.1208-0.1991-0.8483-0.03-1.9888 0.737-2.7412l9.9639-9.9663-10.009-10.019c-0.4182-0.3776-0.6824-0.9508-0.7274-1.4549-0.045-0.5044 0.064-0.9303 0.214-1.303 0.2978-0.7453 0.7751-1.3349 1.3217-1.8592 0.5467-0.5242 1.1623-0.9678 1.8782-1.2504 0.3581-0.1413 0.7485-0.2485 1.2221-0.233z"/>
       <path d="m9561.2-1062.5c-0.075 0-0.067 0-0.074 0.012l-0.012 0.011-14.118 13.946 14.125 13.944 0.012 0.012c0.2323 0.2508 0.4422 0.286 0.7822 0.2068 0.34-0.08 0.7623-0.3298 1.1055-0.6824 0.3433-0.3524 0.5978-0.7995 0.6824-1.1602 0.085-0.3606 0.05-0.5805-0.1617-0.7893h-0.012l-0.011-0.018-0.016-0.011-11.412-11.412 11.548-11.545 0.012-0.011c0.042-0.038 0.039-0.042 0.045-0.1072 0-0.064-0.011-0.1901-0.072-0.3519-0.1295-0.3237-0.4476-0.7607-0.8345-1.1317-0.3868-0.371-0.8444-0.6791-1.1959-0.8179-0.1757-0.07-0.3194-0.092-0.3947-0.09z"/>
       <path d="m9584-1063.2c-0.2494-0.031-0.4885-0.029-0.6917 0.011-0.4068 0.072-0.6311 0.224-0.7561 0.5303-2.9962 7.1164-7.856 18.833-11.457 27.47-0.1302 0.3274-0.078 0.5759 0.1261 0.87 0.2032 0.2942 0.5931 0.5819 1.0436 0.7656 0.4506 0.184 0.9563 0.2615 1.3647 0.1974 0.4084-0.064 0.699-0.2349 0.8987-0.5659 3.8122-9.1437 7.6145-18.292 11.431-27.434 0.1781-0.3582 0.1287-0.577-0.081-0.8725-0.2093-0.2957-0.6335-0.5972-1.1244-0.7822-0.2454-0.093-0.5043-0.1545-0.7537-0.1856z" color="#000000" color-rendering="auto" dominant-baseline="auto" image-rendering="auto" shape-rendering="auto" solid-color="#000000" style="font-feature-settings:normal;font-variant-alternates:normal;font-variant-caps:normal;font-variant-ligatures:normal;font-variant-numeric:normal;font-variant-position:normal;isolation:auto;mix-blend-mode:normal;shape-padding:0;text-decoration-color:#000000;text-decoration-line:none;text-decoration-style:solid;text-indent:0;text-orientation:mixed;text-transform:none;white-space:normal"/>
       <path d="m9595.4-1062.5c-0.075 0-0.2213 0.021-0.397 0.09-0.3515 0.1386-0.8067 0.4468-1.1935 0.8178-0.3868 0.3709-0.7075 0.8078-0.8369 1.1317-0.064 0.1619-0.077 0.2875-0.072 0.3518 0 0.065 0.013 0.07 0.054 0.1072l0.011 0.011 11.538 11.547-11.412 11.412-0.029 0.026c-0.2126 0.2087-0.2558 0.4311-0.1712 0.7917 0.086 0.3606 0.3414 0.8053 0.6848 1.1579 0.3432 0.3525 0.7725 0.6031 1.1125 0.6823 0.3401 0.08 0.5404 0.043 0.7727-0.2068l0.012-0.011 14.127-13.946-14.118-13.946-0.012-0.011c-0.011-0.011 0-0.011-0.072-0.011z"/>
      </g>
     </g>
    </g>
   </g>
  </g>
 </g>
 <g transform="matrix(.74474 0 0 .74474 119.42 191.25)">
  <g transform="matrix(1 0 .19208 1 617.94 369.68)">
   <g transform="translate(6.9035,-19.243)">
    <g transform="matrix(.2505 0 -.048116 .2505 -2910.6 80.699)">
     <g transform="matrix(3.4194,0,-4.7573e-8,3.4194,8629.6,-1723.1)">
      <path d="m221.5 92.977c-3.8976 0-5.8552 0.0208-6.4416 1.2022l-10.096 19.737 96.238-0.14798-10.078-19.568c-0.64535-1.2261-2.5756-1.2164-6.5045-1.2226z" fill="url(#linearGradient13114-2-2-4-1)" stroke-width=".20056"/>
      <path d="m213.37 111.94h79.431c9.0196 0.014 9.0223 0.0181 9.0223 8.908v90.175c-0.0196 8.9445-0.12912 8.8784-9.137 8.8784h-79.487c-8.7932 0.0309-8.7896-0.13063-8.7896-9.0501l-1e-5 -90.011c0.0505-8.9212 4e-3 -8.9012 8.9613-8.9012z" fill="url(#linearGradient13114-2-2-3)" stroke-width=".2524"/>
      <rect x="208.16" y="115.46" width="90.067" height="27.137" fill="url(#linearGradient13137-7-8-8-9)" stroke-width=".24606"/>
      <g fill="#fff">
       <rect x="215.56" y="119.5" width="3.4902" height="19.502" stroke-width=".24606"/>
       <g transform="matrix(.22663 0 0 .26715 206.62 107.73)" opacity=".7">
        <rect x="69.81" y="44.05" width="15.4" height="73" fill="#fff"/>
       </g>
       <g transform="matrix(.22663 0 0 .26715 206.62 107.73)" opacity=".6">
        <rect x="100.22" y="44.05" width="15.4" height="73" fill="#fff"/>
       </g>
       <g transform="matrix(.22663 0 0 .26715 206.62 107.73)" opacity=".5">
        <rect x="130.62" y="44.05" width="15.4" height="73" fill="#fff"/>
       </g>
       <g transform="matrix(.22663 0 0 .26715 206.62 107.73)" opacity=".5">
        <rect x="161.02" y="44.05" width="15.4" height="73" fill="#fff"/>
       </g>
       <g transform="matrix(.22663 0 0 .26715 206.62 107.73)" opacity=".4">
        <rect x="191.42" y="44.05" width="15.4" height="73" fill="#fff"/>
       </g>
      </g>
      <circle cx="283.21" cy="129.58" r="3.2732" fill="#b6c8d3" stroke-width=".22663"/>
      <rect x="208.16" y="145.1" width="90.067" height="27.137" fill="url(#linearGradient13137-7-8-8-5-8)" stroke-width=".24606"/>
      <g fill="#fff">
       <rect x="215.56" y="149.14" width="3.4902" height="19.502" stroke-width=".24606"/>
       <g transform="matrix(.22663 0 0 .26715 206.62 137.37)" opacity=".7">
        <rect x="69.81" y="44.05" width="15.4" height="73" fill="#fff"/>
       </g>
       <g transform="matrix(.22663 0 0 .26715 206.62 137.37)" opacity=".6">
        <rect x="100.22" y="44.05" width="15.4" height="73" fill="#fff"/>
       </g>
       <g transform="matrix(.22663 0 0 .26715 206.62 137.37)" opacity=".5">
        <rect x="130.62" y="44.05" width="15.4" height="73" fill="#fff"/>
       </g>
       <g transform="matrix(.22663 0 0 .26715 206.62 137.37)" opacity=".5">
        <rect x="161.02" y="44.05" width="15.4" height="73" fill="#fff"/>
       </g>
       <g transform="matrix(.22663 0 0 .26715 206.62 137.37)" opacity=".4">
        <rect x="191.42" y="44.05" width="15.4" height="73" fill="#fff"/>
       </g>
      </g>
      <circle cx="283.21" cy="159.22" r="3.2732" fill="#b6c8d3" stroke-width=".22663"/>
      <rect x="208.05" y="175.09" width="90.067" height="41.179" fill="url(#linearGradient13137-7-8-8-5-4-4)" stroke-width=".24606"/>
      <g fill="#fff">
       <rect x="215.45" y="179.12" width="3.4902" height="33.182" stroke-width=".32096"/>
       <g transform="matrix(.22663 0 0 .45454 206.51 159.1)" opacity=".7">
        <rect x="69.81" y="44.05" width="15.4" height="73" fill="#fff"/>
       </g>
       <g transform="matrix(.22663 0 0 .45454 206.51 159.1)" opacity=".6">
        <rect x="100.22" y="44.05" width="15.4" height="73" fill="#fff"/>
       </g>
       <g transform="matrix(.22663 0 0 .45454 206.51 159.1)" opacity=".5">
        <rect x="130.62" y="44.05" width="15.4" height="73" fill="#fff"/>
       </g>
       <g transform="matrix(.22663 0 0 .45454 206.51 159.1)" opacity=".5">
        <rect x="161.02" y="44.05" width="15.4" height="73" fill="#fff"/>
       </g>
       <g transform="matrix(.22663 0 0 .45454 206.51 159.1)" opacity=".4">
        <rect x="191.42" y="44.05" width="15.4" height="73" fill="#fff"/>
       </g>
      </g>
     </g>
     <g transform="matrix(.94103 0 0 .94103 567.75 -32.906)">
      <path d="m9559.3-1078.6c-2.4307-1.9109-5.4826-3.0437-8.7989-3.0437-7.8052 0-14.161 6.2965-14.357 14.144-8.06 3.0552-13.797 10.92-13.797 20.132 0 10.885 7.1339 21.3 25.76 21.3 24.057 0.4082 41.76 0.1989 66.172 0.1989v-0.033c12.868 0 18.384-9.2006 18.384-19.719 0-10.148-7.5626-18.506-17.298-19.627-4.2477-31.662-43.771-38.89-56.074-13.348" fill="#a1b8c7" opacity=".5" stroke="#a1b8c7" stroke-linecap="round" stroke-linejoin="round" stroke-width="4.1387"/>
      <g fill="#fff" stroke-width="1.2173">
       <path d="m9583.6-1094c-9.7909 0.1187-19.279 5.0854-24.276 15.458-2.4302-1.9097-5.4815-3.0432-8.7966-3.0432-7.8052 0-14.159 6.2963-14.355 14.143-8.0598 3.0552-13.796 10.92-13.796 20.132 0 10.885 7.1317 21.3 25.757 21.3 24.057 0.4082 41.761 0.1997 66.174 0.1997v-0.033c12.868 0 18.383-9.2001 18.383-19.718 0-10.147-7.5608-18.507-17.296-19.628-2.522-18.799-17.482-28.983-31.794-28.81zm-0.045 28.763c0.6541-0.016 1.285 0.1129 1.8806 0.3375 0.7942 0.2993 1.5438 0.7651 2.085 1.5287 0.5413 0.7638 0.7464 1.9966 0.2521 2.9909l-11.457 27.488-0.051 0.09c-0.5403 0.8954-1.4861 1.399-2.3561 1.5359-0.8698 0.1368-1.7109 0-2.47-0.3138-0.7593-0.3096-1.4563-0.7914-1.9591-1.5192s-0.7365-1.83-0.3495-2.8029l0.011-0.012 11.45-27.478c0.4189-1.0264 1.4203-1.6189 2.3085-1.7783 0.222-0.04 0.4429-0.063 0.6609-0.069zm-22.407 0.6704c0.4736-0.016 0.864 0.092 1.222 0.233 0.7159 0.2826 1.3315 0.7262 1.8782 1.2504 0.5466 0.5244 1.0239 1.1138 1.3219 1.8591 0.1489 0.3727 0.2613 0.7986 0.2163 1.303-0.045 0.5042-0.3094 1.0773-0.7275 1.4549l-10.012 10.019 9.9664 9.9661c0.7669 0.7524 0.9265 1.893 0.7273 2.7413-0.1989 0.8484-0.6467 1.5399-1.2123 2.1208-0.5658 0.5809-1.2524 1.0651-2.1209 1.2672-0.8683 0.2021-2.04-0.03-2.7696-0.8179l-15.563-15.365 15.608-15.42-0.011 0.016c0.4138-0.4203 0.998-0.612 1.4717-0.6277zm34.335 0c0.4737 0.016 1.0603 0.2074 1.474 0.6276l-0.011-0.016 15.608 15.42-15.563 15.366c-0.7296 0.7878-1.8988 1.02-2.7673 0.8178-0.8684-0.2021-1.555-0.6863-2.1206-1.2671-0.5658-0.5808-1.0231-1.2725-1.2221-2.1208-0.1991-0.8483-0.03-1.9888 0.737-2.7412l9.9639-9.9663-10.009-10.019c-0.4182-0.3776-0.6824-0.9508-0.7274-1.4549-0.045-0.5044 0.064-0.9303 0.214-1.303 0.2978-0.7453 0.7751-1.3349 1.3217-1.8592 0.5467-0.5242 1.1623-0.9678 1.8782-1.2504 0.3581-0.1413 0.7485-0.2485 1.2221-0.233z"/>
       <path d="m9561.2-1062.5c-0.075 0-0.067 0-0.074 0.012l-0.012 0.011-14.118 13.946 14.125 13.944 0.012 0.012c0.2323 0.2508 0.4422 0.286 0.7822 0.2068 0.34-0.08 0.7623-0.3298 1.1055-0.6824 0.3433-0.3524 0.5978-0.7995 0.6824-1.1602 0.085-0.3606 0.05-0.5805-0.1617-0.7893h-0.012l-0.011-0.018-0.016-0.011-11.412-11.412 11.548-11.545 0.012-0.011c0.042-0.038 0.039-0.042 0.045-0.1072 0-0.064-0.011-0.1901-0.072-0.3519-0.1295-0.3237-0.4476-0.7607-0.8345-1.1317-0.3868-0.371-0.8444-0.6791-1.1959-0.8179-0.1757-0.07-0.3194-0.092-0.3947-0.09z"/>
       <path d="m9584-1063.2c-0.2494-0.031-0.4885-0.029-0.6917 0.011-0.4068 0.072-0.6311 0.224-0.7561 0.5303-2.9962 7.1164-7.856 18.833-11.457 27.47-0.1302 0.3274-0.078 0.5759 0.1261 0.87 0.2032 0.2942 0.5931 0.5819 1.0436 0.7656 0.4506 0.184 0.9563 0.2615 1.3647 0.1974 0.4084-0.064 0.699-0.2349 0.8987-0.5659 3.8122-9.1437 7.6145-18.292 11.431-27.434 0.1781-0.3582 0.1287-0.577-0.081-0.8725-0.2093-0.2957-0.6335-0.5972-1.1244-0.7822-0.2454-0.093-0.5043-0.1545-0.7537-0.1856z" color="#000000" color-rendering="auto" dominant-baseline="auto" image-rendering="auto" shape-rendering="auto" solid-color="#000000" style="font-feature-settings:normal;font-variant-alternates:normal;font-variant-caps:normal;font-variant-ligatures:normal;font-variant-numeric:normal;font-variant-position:normal;isolation:auto;mix-blend-mode:normal;shape-padding:0;text-decoration-color:#000000;text-decoration-line:none;text-decoration-style:solid;text-indent:0;text-orientation:mixed;text-transform:none;white-space:normal"/>
       <path d="m9595.4-1062.5c-0.075 0-0.2213 0.021-0.397 0.09-0.3515 0.1386-0.8067 0.4468-1.1935 0.8178-0.3868 0.3709-0.7075 0.8078-0.8369 1.1317-0.064 0.1619-0.077 0.2875-0.072 0.3518 0 0.065 0.013 0.07 0.054 0.1072l0.011 0.011 11.538 11.547-11.412 11.412-0.029 0.026c-0.2126 0.2087-0.2558 0.4311-0.1712 0.7917 0.086 0.3606 0.3414 0.8053 0.6848 1.1579 0.3432 0.3525 0.7725 0.6031 1.1125 0.6823 0.3401 0.08 0.5404 0.043 0.7727-0.2068l0.012-0.011 14.127-13.946-14.118-13.946-0.012-0.011c-0.011-0.011 0-0.011-0.072-0.011z"/>
      </g>
     </g>
    </g>
   </g>
  </g>
 </g>
</svg>
