<?xml version="1.0" encoding="UTF-8" standalone="no"?>
<!-- Generator: Adobe Illustrator 18.0.0, SVG Export Plug-In . SVG Version: 6.00 Build 0)  -->

<svg
   xmlns:osb="http://www.openswatchbook.org/uri/2009/osb"
   xmlns:dc="http://purl.org/dc/elements/1.1/"
   xmlns:cc="http://creativecommons.org/ns#"
   xmlns:rdf="http://www.w3.org/1999/02/22-rdf-syntax-ns#"
   xmlns:svg="http://www.w3.org/2000/svg"
   xmlns="http://www.w3.org/2000/svg"
   xmlns:xlink="http://www.w3.org/1999/xlink"
   xmlns:sodipodi="http://sodipodi.sourceforge.net/DTD/sodipodi-0.dtd"
   xmlns:inkscape="http://www.inkscape.org/namespaces/inkscape"
   version="1.1"
   id="Capa_1"
   x="0px"
   y="0px"
   viewBox="0 0 544.99999 544.99999"
   xml:space="preserve"
   sodipodi:docname="frootlab-alt.svg"
   inkscape:version="0.92.4 (5da689c313, 2019-01-14)"
   width="545"
   height="545"
   inkscape:export-filename="/home/fishroot/git/corporate/design/logo/frootlab/v2/Frootlab-512.png"
   inkscape:export-xdpi="90.187157"
   inkscape:export-ydpi="90.187157"><metadata
   id="metadata55"><rdf:RDF><cc:Work
       rdf:about=""><dc:format>image/svg+xml</dc:format><dc:type
         rdf:resource="http://purl.org/dc/dcmitype/StillImage" /><dc:title /></cc:Work></rdf:RDF></metadata><defs
   id="defs53"><linearGradient
     id="linearGradient25565"
     osb:paint="solid"><stop
       style="stop-color:#00ff00;stop-opacity:1;"
       offset="0"
       id="stop25563" /></linearGradient><linearGradient
     inkscape:collect="always"
     id="linearGradient25557"><stop
       style="stop-color:#ff0000;stop-opacity:1;"
       offset="0"
       id="stop25553" /><stop
       style="stop-color:#ff0000;stop-opacity:0;"
       offset="1"
       id="stop25555" /></linearGradient><linearGradient
     id="linearGradient6556"
     osb:paint="solid"><stop
       style="stop-color:#ff0046;stop-opacity:0.47843137;"
       offset="0"
       id="stop6554" /></linearGradient><inkscape:perspective
     sodipodi:type="inkscape:persp3d"
     inkscape:vp_x="2135.6133 : -1.7602 : 0"
     inkscape:vp_y="0 : -21.553141 : 0"
     inkscape:vp_z="-1099.9426 : -1026.7899 : 1"
     inkscape:persp3d-origin="1035.6707 : -1025.0297 : 1"
     id="perspective4864" /><linearGradient
     inkscape:collect="always"
     xlink:href="#linearGradient25557"
     id="linearGradient25559"
     x1="255.39748"
     y1="314.54794"
     x2="463.75494"
     y2="314.54794"
     gradientUnits="userSpaceOnUse" /></defs><sodipodi:namedview
   pagecolor="#ffffff"
   bordercolor="#666666"
   borderopacity="1"
   objecttolerance="10"
   gridtolerance="10"
   guidetolerance="10"
   inkscape:pageopacity="0"
   inkscape:pageshadow="2"
   inkscape:window-width="1680"
   inkscape:window-height="987"
   id="namedview51"
   showgrid="false"
   inkscape:zoom="1"
   inkscape:cx="387.0975"
   inkscape:cy="182.11591"
   inkscape:window-x="-8"
   inkscape:window-y="-8"
   inkscape:window-maximized="1"
   inkscape:current-layer="g18"
   fit-margin-top="0"
   fit-margin-left="0"
   fit-margin-right="0"
   fit-margin-bottom="0"
   units="px" />
<g
   id="g18"
   transform="translate(31.677512,19.705408)">
	
	
	
<path
   style="fill:#ffffff;fill-opacity:1;stroke:none;stroke-width:6;stroke-miterlimit:10;stroke-dasharray:none;stroke-opacity:0.18709681"
   d="M 274 1.9179688 L 40.96875 136.45898 L 40.96875 405.54102 L 274 540.08203 L 507.03125 405.54102 L 507.03125 136.45898 L 274 1.9179688 z M 276.1582 45.513672 C 287.10676 45.645047 297.96978 48.989315 307.18945 54.880859 C 332.59375 69.975662 341.42297 105.34349 328.17969 131.29492 C 318.87699 151.19473 297.19488 163.00615 275.61133 163.03125 C 267.83746 161.9561 266.55387 160.44554 263.39648 163.73633 C 230.69683 212.50617 201.94277 263.86172 174.36523 315.62891 C 179.1247 321.33709 182.69206 327.99686 185.03711 335.03906 C 197.758 336.38735 210.84123 336.79964 223.69336 337.22852 C 265.03809 337.68018 306.45251 339.08936 347.76367 337.46875 C 353.7567 337.23365 359.79891 337.78517 361.90234 333.96289 C 369.36053 315.03415 385.54657 298.83039 406.05859 295.15234 C 434.24291 288.99821 464.36679 307.36728 473.35352 334.43555 C 483.54367 362.22942 468.26598 395.67018 441.35352 407.43359 C 411.90751 421.62155 372.73984 405.24287 361.98242 374.45117 C 349.34961 373.64702 336.6455 373.14795 323.98633 372.79883 C 277.46163 372.50926 230.72042 369.53261 184.39062 373.67969 C 180.70373 380.7549 176.47816 387.60993 171.18555 393.60742 C 153.45719 415.30941 119.49946 417.89629 96.689453 402.98047 C 72.990548 388.53873 63.458947 356.29398 74.158203 330.95508 C 82.522548 308.3447 106.2075 294.73544 129.57617 293.7207 C 134.16713 292.27506 140.17408 296.34788 143.44727 291.68945 C 175.55506 244.2512 204.06097 194.36109 230.97852 143.74219 C 223.01667 134.77044 217.91481 123.31653 216.50586 111.4082 C 211.47161 78.273467 240.5552 45.16208 273.96875 45.53125 C 274.69895 45.511242 275.4283 45.504914 276.1582 45.513672 z "
   transform="translate(-31.677512,-19.705408)"
   id="path4598" /></g>
<g
   id="g20"
   transform="translate(31.677512,19.705408)">
</g>
<g
   id="g22"
   transform="translate(31.677512,19.705408)">
</g>
<g
   id="g24"
   transform="translate(31.677512,19.705408)">
</g>
<g
   id="g26"
   transform="translate(31.677512,19.705408)">
</g>
<g
   id="g28"
   transform="translate(31.677512,19.705408)">
</g>
<g
   id="g30"
   transform="translate(31.677512,19.705408)">
</g>
<g
   id="g32"
   transform="translate(31.677512,19.705408)">
</g>
<g
   id="g34"
   transform="translate(31.677512,19.705408)">
</g>
<g
   id="g36"
   transform="translate(31.677512,19.705408)">
</g>
<g
   id="g38"
   transform="translate(31.677512,19.705408)">
</g>
<g
   id="g40"
   transform="translate(31.677512,19.705408)">
</g>
<g
   id="g42"
   transform="translate(31.677512,19.705408)">
</g>
<g
   id="g44"
   transform="translate(31.677512,19.705408)">
</g>
<g
   id="g46"
   transform="translate(31.677512,19.705408)">
</g>
<g
   id="g48"
   transform="translate(31.677512,19.705408)">
</g>
</svg>