<?xml version="1.0" encoding="UTF-8"?>
<svg width="435.46mm" height="261.28mm" version="1.1" viewBox="0 0 435.45883 261.27527" xmlns="http://www.w3.org/2000/svg" xmlns:cc="http://creativecommons.org/ns#" xmlns:dc="http://purl.org/dc/elements/1.1/" xmlns:rdf="http://www.w3.org/1999/02/22-rdf-syntax-ns#" xmlns:xlink="http://www.w3.org/1999/xlink">
<defs>
<radialGradient id="a" cx="104.32" cy="149.36" r="218.03" gradientTransform="matrix(.58006 0 0 .59924 43.724 59.873)" gradientUnits="userSpaceOnUse">
<stop stop-color="#096a8c" offset="0"/>
<stop stop-color="#096a8c" offset=".05315"/>
<stop stop-color="#052844" offset="1"/>
</radialGradient>
</defs>
<metadata>
<rdf:RDF>
<cc:Work rdf:about="">
<dc:format>image/svg+xml</dc:format>
<dc:type rdf:resource="http://purl.org/dc/dcmitype/StillImage"/>
<dc:title/>
</cc:Work>
</rdf:RDF>
</metadata>
<g transform="translate(113.41 -18.725)">
<path d="m-113.41 18.725h435.46v261.28h-435.46z" fill="url(#a)"/>
<path transform="matrix(.26458 0 0 .26458 -113.41 18.725)" d="m1013.4 6.9902c-9.8249 0-17.828 8.0013-17.828 17.826 0 7.8852 5.1608 14.591 12.275 16.936l-25.879 95.758c-1.9513-0.45434-3.9807-0.70313-6.0684-0.70313-9.0784 0-17.111 4.5477-21.951 11.48l-123.24-79.51c1.1252-2.0215 1.7715-4.3442 1.7715-6.8145 0-7.7538-6.3224-14.084-14.076-14.084-7.7538 0-14.078 6.3302-14.078 14.084 0 5.5247 3.2183 10.309 7.8691 12.611l-25.66 62.389c-1.0454-0.33018-2.1554-0.50977-3.3066-0.50977-6.0772 0-11.051 4.9658-11.051 11.043s4.9736 11.043 11.051 11.043 11.045-4.9658 11.045-11.043c0-4.2579-2.4439-7.9617-5.9941-9.8027l25.662-62.395c1.405 0.47248 2.9021 0.74023 4.4629 0.74023 4.6103 0 8.7014-2.2452 11.271-5.6875l123.25 79.518c-2.3993 4.0097-3.7812 8.6942-3.7812 13.697 0 6.1222 2.0711 11.765 5.543 16.279l-78.004 64.348c-2.007-2.0471-4.7973-3.3242-7.875-3.3242-6.0772 0-11.045 4.9677-11.045 11.045 0 6.0772 4.9677 11.051 11.045 11.051 6.0772 0 11.043-4.9736 11.043-11.051 0-2.3228-0.73109-4.4804-1.9668-6.2637l78.008-64.344c4.9057 5.5276 12.057 9.0195 20.012 9.0195 14.756 0 26.76-12.004 26.76-26.76 0-2.9096-0.4734-5.7093-1.3359-8.334l233.88-85.967c2.6871 6.5964 7.7684 11.971 14.164 15.031l-34.547 79.131c-1.8372-0.68527-3.8148-1.0781-5.8868-1.0781-9.3317 0-16.941 7.6019-16.941 16.934 0 4.0975 1.4684 7.8616 3.9043 10.795l-116.34 107.84c-5.6662-5.7528-13.538-9.3262-22.234-9.3262-17.222 0-31.227 14.005-31.227 31.227 0 17.222 14.005 31.225 31.227 31.225 3.7042 0 7.2575-0.65147 10.557-1.8398l27.9 70.869c-7.2735 3.2635-12.363 10.558-12.363 19.029 0 11.501 9.3677 20.869 20.869 20.869 7.7605 0 14.537-4.2724 18.133-10.58l69.719 35.477v0.00195c-0.6694 1.5763-1.041 3.3079-1.041 5.123 0 7.2607 5.9307 13.191 13.191 13.191 3.5749 0 6.8217-1.4432 9.2012-3.7695l86.867 77.021c-1.8162 2.2723-3.0974 4.9848-3.6582 7.9512l-119.01-16.156c0.1302-1.2144 0.2011-2.4468 0.2011-3.6953 0-18.973-15.427-34.393-34.4-34.393-9.0634 0-17.311 3.5239-23.459 9.2676l-49.176-49.848c3.877-4.1466 6.2578-9.7086 6.2578-15.818 0-12.783-10.404-23.186-23.188-23.186-12.784 0-23.186 10.402-23.186 23.186 0 11.531 8.4652 21.123 19.506 22.893l-21.938 183.9c-0.4109-0.0276-0.8205-0.0625-1.2383-0.0625-10.122 0-18.365 8.2433-18.365 18.365 0 10.122 8.2433 18.375 18.365 18.375s18.367-8.2531 18.367-18.375c0-1.0188-0.105-2.0121-0.2656-2.9863l131.27-28.744c1.6837 5.7355 6.9964 9.9473 13.264 9.9473 0.8177 0 1.6152-0.0853 2.3945-0.22265l28.414 114.68c-5.6631 1.8236-9.7852 7.1442-9.7852 13.398 0 7.7509 6.3273 14.078 14.078 14.078 7.7509 0 14.076-6.3272 14.076-14.078 0-7.7509-6.3253-14.076-14.076-14.076-0.8399 0-1.6586 0.0881-2.4589 0.23047l-28.412-114.68c5.5515-1.7944 9.5878-7.0124 9.5878-13.148 0-2.2742-0.5647-4.4181-1.5449-6.3144l97.527-58.961c3.275 4.8133 8.7956 7.9844 15.041 7.9844 10.022 0 18.189-8.1595 18.189-18.182s-8.1673-18.189-18.189-18.189c-5.0631 0-9.6468 2.0883-12.947 5.4434l-86.867-77.021c1.7084-2.2246 2.7364-4.997 2.7364-8.0059 0-3.3479-1.2703-6.4009-3.3399-8.7305l126.3-129.32c3.5943 3.2014 8.3125 5.166 13.49 5.166 11.206 0 20.33-9.1245 20.33-20.33 0-11.206-9.1246-20.33-20.33-20.33-3.4732 0-6.7438 0.88037-9.6074 2.4238l-32.5-54.332c8.549-5.4924 14.226-15.079 14.226-25.979 0-17.024-13.839-30.863-30.863-30.863-10.202 0-19.259 4.9737-24.883 12.621l-46.922-32.254c1.5678-2.5662 2.4882-5.5684 2.4882-8.7871 0-6.5894-3.799-12.301-9.3125-15.098l34.547-79.137c3.2648 1.3029 6.8204 2.0273 10.545 2.0273 15.742 0 28.539-12.805 28.539-28.547 0-15.742-12.797-28.537-28.539-28.537s-28.545 12.795-28.545 28.537c0 3.1292 0.513 6.1394 1.4473 8.959l-233.88 85.967c-3.015-7.3591-9.2136-13.088-16.877-15.459l25.877-95.744c1.204 0.25802 2.4491 0.40039 3.7285 0.40039 9.8248 0 17.826-8.0111 17.826-17.836 0-9.8248-8.0014-17.826-17.826-17.826zm0 3.7793c7.7822 0 14.047 6.2646 14.047 14.047 0 7.7822-6.2647 14.057-14.047 14.057-7.7823 0-14.049-6.2744-14.049-14.057 0-7.7822 6.2666-14.047 14.049-14.047zm523.05 20.182c-9.1457 0-16.602 7.456-16.602 16.602 0 4.0191 1.4416 7.7101 3.832 10.586l-117.04 108.88c-5.6675-5.7364-13.531-9.2969-22.217-9.2969-17.235 0-31.248 14.013-31.248 31.248 0 17.235 14.013 31.246 31.248 31.246 3.8066 0 7.4541-0.68672 10.83-1.9375l28.361 70.164c-7.2802 3.3438-12.352 10.7-12.352 19.221 0 11.656 9.4864 21.148 21.143 21.148 7.8015 0 14.618-4.2631 18.283-10.57l70.182 36.508c-0.6537 1.5186-1.0195 3.189-1.0195 4.9414 0 6.914 5.6426 12.557 12.557 12.557 6.9141 0 12.564-5.6426 12.564-12.557 0-5.0202-2.985-9.3625-7.2637-11.371l40.246-106.64c1.5697 0.49444 3.2372 0.76367 4.9668 0.76367 9.1456 0 16.596-7.4579 16.596-16.604 0-6.8973-4.2398-12.828-10.246-15.33l25.5-73.08c3.019 0.95544 6.2307 1.4746 9.5625 1.4746 8.2911 0 15.845-3.196 21.504-8.416v-5.4356c-5.1268 6.1567-12.85 10.072-21.504 10.072-15.471 0-27.969-12.507-27.969-27.979 0-15.471 12.497-27.969 27.969-27.969 8.6543 0 16.377 3.9125 21.504 10.066v-5.4355c-5.6593-5.2176-13.213-8.4102-21.504-8.4102-10.576 0-19.951 5.1951-25.723 13.164l-47.932-32.504c1.4978-2.4917 2.375-5.3957 2.375-8.5059 0-9.1456-7.456-16.602-16.602-16.602zm-274.8 2.8203c13.7 0 24.76 11.058 24.76 24.758 0 13.7-11.06 24.768-24.76 24.768-13.7 0-24.766-11.068-24.766-24.768 0-13.7 11.066-24.758 24.766-24.758zm274.8 0.95898c7.1029 0 12.822 5.7193 12.822 12.822 0 7.103-5.7193 12.814-12.822 12.814-7.1031 0-12.822-5.7115-12.822-12.814 0-7.103 5.7192-12.822 12.822-12.822zm-1477.9 11.693c-9.644 4e-6 -17.502 7.8579-17.502 17.502 0 7.6685 4.9753 14.192 11.859 16.549l-26.207 93.195c-2.1576-0.5296-4.4097-0.8164-6.7285-0.8164-7.8089 0-14.884 3.1874-19.996 8.3281v5.832c4.4166-6.2809 11.715-10.381 19.996-10.381 13.519 0 24.441 10.915 24.441 24.434s-10.923 24.441-24.441 24.441c-8.2807 0-15.579-4.1021-19.996-10.385v5.832c5.1124 5.1427 12.187 8.332 19.996 8.332 15.561 0 28.221-12.659 28.221-28.221 0-3.025-0.48407-5.9384-1.3691-8.6719l234.04-84.391c2.648 6.6178 7.7251 12.007 14.131 15.051l-34.25 79.141c-1.7819-0.65602-3.6973-1.0332-5.7031-1.0332-9.1456 0-16.604 7.4501-16.604 16.596 0 3.9783 1.4123 7.6358 3.7598 10.5l-117.7 107.95c-5.5849-5.723-13.376-9.2832-21.99-9.2832-16.956 0-30.746 13.782-30.746 30.738 0 16.956 13.79 30.746 30.746 30.746 3.7611 0 7.3642-0.68278 10.697-1.9238l28.953 71.174c-7.2592 3.3523-12.314 10.695-12.314 19.199 0 11.656 9.4923 21.15 21.148 21.15 7.7696 0 14.56-4.2308 18.236-10.496l68.348 35.916c-0.7407 1.6725-1.1602 3.5159-1.1602 5.457 0 7.4719 6.1023 13.568 13.574 13.568 7.4719 0 13.568-6.0965 13.568-13.568 0-5.4499-3.2515-10.155-7.9062-12.309l40.549-107.19c1.5167 0.47605 3.1283 0.73438 4.7988 0.73438 8.8667 0 16.092-7.233 16.092-16.1 0-6.7196-4.1525-12.489-10.021-14.893l30.205-88.703c1.1586 0.3102 2.3687 0.49219 3.623 0.49219 7.7509 0 14.078-6.3175 14.078-14.068 0-7.7509-6.3272-14.078-14.078-14.078-4.4568 0-8.4327 2.0979-11.014 5.3496l-60.684-41.766c1.5335-2.5143 2.4336-5.454 2.4336-8.6055 0-6.4703-3.7367-12.077-9.1562-14.812l34.25-79.141c3.2018 1.2649 6.6853 1.9668 10.332 1.9668 6.4324 0 12.366-2.1678 17.117-5.8047l37.875 46.291c-2.4023 2.2899-3.9102 5.5102-3.9102 9.0762 0 6.914 5.6426 12.557 12.557 12.557 0.60443 0 1.1952-0.0573 1.7773-0.14062l18.234 82.562c-13.768 3.4723-23.982 15.953-23.982 30.787 0 17.514 14.236 31.748 31.75 31.748 15.917 0 29.129-11.758 31.406-27.049l180.18 21.512c-0.0282 0.41686-0.06445 0.83201-0.06445 1.2559 0 10.219 8.3314 18.543 18.551 18.543 10.219 0 18.543-8.3236 18.543-18.543 0-10.219-8.3236-18.543-18.543-18.543-9.1503 0-16.766 6.68-18.264 15.412l-180.18-21.512c0.0825-0.93134 0.13282-1.8717 0.13282-2.8242 0-1.4904-0.11103-2.9544-0.31055-4.3906l93.789-15.947c2.1654 10.145 11.195 17.783 21.975 17.783 12.389 0 22.479-10.089 22.479-22.479 0-12.389-10.09-22.471-22.479-22.471-12.389 0-22.471 10.082-22.471 22.471 0 0.96014 0.0681 1.9051 0.18554 2.834l-93.789 15.947c-0.42924-2.1419-1.0725-4.2065-1.9102-6.1699l253.56-116.76c2.1944 3.9439 6.4012 6.6289 11.215 6.6289 7.0634 0 12.83-5.7745 12.83-12.838s-5.7666-12.828-12.83-12.828c-7.0634 0-12.83 5.7647-12.83 12.828 0 1.5791 0.30161 3.0881 0.82812 4.4883l-253.57 116.77c-0.94569-1.8949-2.077-3.6811-3.3672-5.3379l165.44-136.63c3.1297 3.3826 7.5902 5.5176 12.545 5.5176 9.4246 0 17.104-7.679 17.104-17.104s-7.679-17.104-17.104-17.104-17.111 7.679-17.111 17.104c0 3.7908 1.2593 7.2871 3.3594 10.127l-165.44 136.63c-1.4415-1.6403-3.0437-3.1343-4.791-4.4492l131.21-186.62c1.8874 1.136 4.0864 1.8027 6.4395 1.8027 6.914 0 12.557-5.6504 12.557-12.564s-5.6426-12.557-12.557-12.557c-6.914 0-12.564 5.6426-12.564 12.557 0 3.8862 1.785 7.3728 4.5762 9.6816l-131.21 186.61c-2.4152-1.6031-5.0609-2.8843-7.877-3.7832l52.105-158.4c1.6198 0.38841 3.308 0.60157 5.0449 0.60157 11.935 0 21.65-9.7153 21.65-21.65 0-11.935-9.7153-21.652-21.65-21.652-11.935 0-21.652 9.7173-21.652 21.652 0 9.5372 6.2078 17.652 14.791 20.529l-52.104 158.39c-2.5051-0.63698-5.1271-0.97656-7.8281-0.97656-2.0244 0-4.002 0.19903-5.9219 0.5625l-18.23-82.562c5.1575-1.5636 8.9375-6.3622 8.9375-12.016 0-6.914-5.6504-12.557-12.564-12.557-2.6702 0-5.1464 0.84793-7.1856 2.2793l-37.877-46.289c5.905-5.1764 9.6445-12.765 9.6445-21.217 0-15.561-12.659-28.213-28.221-28.213s-28.213 12.652-28.213 28.213c0 3.0265 0.48372 5.9406 1.3691 8.6758l-234.04 84.385c-3.1186-7.786-9.6068-13.868-17.656-16.432l26.209-93.186c1.2314 0.27595 2.5074 0.43359 3.8203 0.43359 9.644 0 17.502-7.8579 17.502-17.502s-7.8579-17.502-17.502-17.502zm0 3.7793c7.6014 0 13.723 6.1212 13.723 13.723s-6.1212 13.723-13.723 13.723-13.723-6.1212-13.723-13.723 6.1212-13.723 13.723-13.723zm759.82 1.4551c5.7112 0 10.297 4.5935 10.297 10.305 0 5.7112-4.5857 10.297-10.297 10.297s-10.299-4.5857-10.299-10.297c0-5.7112 4.5877-10.305 10.299-10.305zm731.21 5.9648l47.934 32.506c-3.1368 4.9217-4.9629 10.758-4.9629 17.018 0 4.2287 0.8364 8.2641 2.3418 11.957l-58.793 25.973 1.0488-80.965c5.0586-0.2222 9.5329-2.7128 12.432-6.4883zm-24.637 1.8887c0.7243 0.69488 1.5073 1.329 2.3476 1.8848l-62.188 107.19c-1.6535-0.80515-3.501-1.2695-5.457-1.2695-6.9141 0-12.564 5.6504-12.564 12.564 0 0.1897 0.0194 0.37481 0.0274 0.5625l-31.826 3.8438c-0.9093-6.0316-3.5514-11.498-7.3965-15.887l117.06-108.89zm3.9882 2.8301c1.9258 0.9792 4.0629 1.5901 6.3262 1.748l-1.0605 81.826-63.486 28.043c-0.9528-1.7719-2.3188-3.2889-3.9668-4.4258l62.188-107.19zm-973.74 7.2207c4.8714 0 8.7773 3.9059 8.7773 8.7773s-3.9059 8.7852-8.7773 8.7852-8.7852-3.9137-8.7852-8.7852 3.9137-8.7773 8.7852-8.7773zm-248.13 3.5547c13.519 0 24.441 10.915 24.441 24.434 0 13.519-10.923 24.441-24.441 24.441-13.519 0-24.434-10.923-24.434-24.441 0-13.519 10.915-24.434 24.434-24.434zm158.21 0.41406c9.8924 0 17.871 7.9806 17.871 17.873 0 9.8925-7.9786 17.871-17.871 17.871-9.8925 0-17.873-7.9786-17.873-17.871 0-9.8925 7.9806-17.873 17.873-17.873zm136.25 46.557c7.3819 0 13.324 5.9423 13.324 13.324s-5.9423 13.324-13.324 13.324-13.332-5.9423-13.332-13.324 5.9501-13.324 13.332-13.324zm994.13 0.74609c1.5292 3.1908 3.5765 6.0859 6.0312 8.5801l-66.281 69.246 0.668-51.506 59.582-26.32zm7.3965 9.8887c2.8738 2.5941 6.2238 4.6663 9.9004 6.0781l-25.504 73.092c-1.4515-0.41679-2.9777-0.6543-4.5606-0.6543-9.1456 0-16.602 7.456-16.602 16.602 0 2.5319 0.5889 4.9254 1.6094 7.0762l-33.166 18.029 0.6406-49.516 67.682-70.707zm-819.86 9.5098c4.0346 0 7.2637 3.2291 7.2637 7.2637s-3.2291 7.2637-7.2637 7.2637-7.2695-3.2291-7.2695-7.2637 3.2349-7.2637 7.2695-7.2637zm192.68 0.35547c12.713 0 22.98 10.265 22.98 22.979 0 12.713-10.267 22.98-22.98 22.98-12.713 0-22.98-10.267-22.98-22.98 0-12.713 10.267-22.979 22.98-22.979zm558.3 7.4062l-0.6816 52.67-45.283 47.309-23-56.854c4.1365-2.0583 6.998-6.3204 6.998-11.238 0-1.469-0.2688-2.8746-0.7363-4.1875l62.703-27.699zm-841.69 8.6641c5.0208 0 9.0508 4.028 9.0508 9.0488 0 5.0208-4.03 9.0586-9.0508 9.0586-5.0208 0-9.0508-4.0378-9.0508-9.0586 0-5.0208 4.03-9.0488 9.0508-9.0488zm691.91 4.8418c15.192 0 27.467 12.276 27.467 27.469s-12.274 27.467-27.467 27.467c-15.192 0-27.469-12.274-27.469-27.467s12.276-27.469 27.469-27.469zm-175.48 4.6289c7.2892 0 13.154 5.8652 13.154 13.154 0 7.2891-5.8651 13.154-13.154 13.154-7.2891 0-13.162-5.8652-13.162-13.154 0-7.2891 5.873-13.154 13.162-13.154zm-838.21 0.42773c4.8714 0 8.7852 3.9059 8.7852 8.7773 0 4.8714-3.9137 8.7774-8.7852 8.7774-4.8714 0-8.7773-3.9059-8.7773-8.7774 0-4.8714 3.9059-8.7773 8.7773-8.7773zm1088.9 4.5391c4.8714 0 8.7773 3.9137 8.7773 8.7852s-3.9059 8.7773-8.7773 8.7773c-4.8715 0-8.7852-3.9059-8.7852-8.7773s3.9137-8.7852 8.7852-8.7852zm-12.322 11.225c0.9121 4.5914 4.3459 8.2897 8.7852 9.5996l-20.254 94.893c-1.1345-0.18907-2.2973-0.29297-3.4844-0.29297-2.4665 0-4.8343 0.42878-7.0371 1.209l-28.363-70.166c10.981-4.8488 18.664-15.835 18.664-28.594 0-0.94454-0.051-1.8774-0.1329-2.8008l31.822-3.8477zm-225.04 7.3066l46.924 32.254c-3.1074 4.8145-4.92 10.539-4.92 16.686 0 4.1544 0.8301 8.1161 2.3243 11.736l-58.213 26.053 1.1992-80.174c5.1541-0.20934 9.7171-2.7263 12.686-6.5547zm-25.121 1.8281c0.7646 0.73738 1.5968 1.4035 2.4883 1.9883l-61.492 106.68c-1.6082-0.77387-3.4016-1.2207-5.2988-1.2207-6.7675 0-12.291 5.5235-12.291 12.291 0 0.15219 0.0184 0.30027 0.0234 0.45117l-32.392 3.6973c-0.877-6.0874-3.5176-11.608-7.3829-16.035l116.35-107.86zm266.3 0.38476l23.312 57.627-40.496 42.309c-2.4354-2.1335-5.35-3.7332-8.5742-4.5742l20.256-94.891c0.5533 0.0751 1.1142 0.12695 1.6875 0.12695 1.3292 0 2.6103-0.21162 3.8144-0.59766zm-262.17 2.5449c1.9537 0.98918 4.119 1.6091 6.4121 1.7715l-1.211 81.051-62.84 28.123c-0.9346-1.7074-2.2633-3.1684-3.8613-4.2656l61.5-106.68zm332.16 9.0469l-0.6289 48.549-35.248 19.16-8.5957-21.248 44.473-46.461zm-1278.4 1.5117c7.103 0 12.814 5.7114 12.814 12.814s-5.7115 12.822-12.814 12.822c-7.103 0-12.822-5.7193-12.822-12.822s5.7193-12.814 12.822-12.814zm1040.1 6.5391c14.982 0 27.084 12.102 27.084 27.084 0 14.982-12.102 27.084-27.084 27.084-14.982 0-27.092-12.102-27.092-27.084 0-14.982 12.11-27.084 27.092-27.084zm287.73 1.5352c7.103 0 12.814 5.7193 12.814 12.822 0 7.103-5.7115 12.822-12.814 12.822s-12.822-5.7193-12.822-12.822c0-7.103 5.7193-12.822 12.822-12.822zm-1314.8 14.904l60.689 41.764c-1.2547 2.1049-1.9902 4.5526-1.9902 7.1719 0 1.7028 0.32074 3.3292 0.8789 4.8418l-73.295 32.678 1.3027-80.053c5.0408-0.20443 9.5046-2.6621 12.414-6.4023zm-24.646 1.7226c0.72904 0.70901 1.5168 1.3549 2.3652 1.9219l-62.326 106.32c-1.7418-0.8623-3.6931-1.3613-5.7617-1.3613-7.193 0-13.066 5.8656-13.066 13.059 0 0.15228 0.01824 0.30013 0.02344 0.45118l-31.768 3.4121c-0.8276-6.0055-3.393-11.46-7.1738-15.84l117.71-107.96zm3.998 2.873c1.9296 0.9935 4.0757 1.6134 6.3477 1.7793l-1.3164 80.928-63.244 28.195c-0.98892-1.8346-2.4042-3.4054-4.1113-4.584l62.324-106.32zm1321.3 2.0586c1.7507 2.8109 4.3081 5.0628 7.3555 6.4238l-40.238 106.64c-0.7833-0.23184-1.5959-0.38874-2.4336-0.46289l1.2168-94.068 34.1-18.537zm-700.03 10.074c4.0346 0 7.2637 3.2291 7.2637 7.2637 0 4.0346-3.2291 7.2715-7.2637 7.2715-4.0346 0-7.2656-3.2369-7.2656-7.2715 0-4.0346 3.231-7.2637 7.2656-7.2637zm618.78 6.7383l8.3574 20.66-45.453 24.709c-0.8046-1.328-1.7452-2.5611-2.8125-3.6777l39.908-41.691zm-220.17 0.64258c1.4871 3.0544 3.4628 5.8281 5.8262 8.2188l-65.6 68.914 0.7578-50.723 59.016-26.41zm265.41 2.1172l-1.2051 93.016c-1.0506 0.0656-2.069 0.25008-3.0351 0.56055l-30.264-74.818 34.504-18.758zm-987.11 3.2285c10.346 0 18.697 8.343 18.697 18.689 0 10.346-8.3508 18.699-18.697 18.699-10.346 0-18.691-8.3528-18.691-18.699 0-10.346 8.345-18.689 18.691-18.689zm728.89 4.1719c2.8546 2.5574 6.1858 4.5926 9.8437 5.9531l-24.248 72.104c-1.4876-0.41379-3.0473-0.65235-4.6641-0.65235-9.6276 0-17.473 7.845-17.473 17.473 0 2.6986 0.6352 5.2462 1.7344 7.5312l-32.949 18.01 0.7481-50.02 67.008-70.398zm35.596 3.9707l32.502 54.334c-5.4797 3.6467-9.1035 9.8718-9.1035 16.93 0 1.0357 0.078 2.0542 0.2285 3.0488l-61.387 12.254c-1.3951-5.4193-5.321-9.8279-10.447-11.879l24.25-72.102c2.8321 0.85819 5.8325 1.3242 8.9414 1.3242 5.4496 0 10.568-1.4235 15.016-3.9102zm-969.27 1.0391c5.7083 0 10.299 4.5906 10.299 10.299 0 5.7083-4.5906 10.289-10.299 10.289-5.7083 0-10.289-4.5808-10.289-10.289 0-5.7083 4.5808-10.299 10.289-10.299zm57.58 6.5703c15.471 0 27.977 12.499 27.977 27.971 0 15.471-12.505 27.969-27.977 27.969-15.471 0-27.971-12.497-27.971-27.969 0-15.471 12.499-27.971 27.971-27.971zm1098.1 0.68359l30.189 74.633c-2.0956 1.0447-3.8572 2.6548-5.0898 4.6328l-70.18-36.506c1.2656-2.7103 1.9785-5.7283 1.9785-8.9102 0-3.318-0.7713-6.4582-2.1406-9.2559l45.242-24.594zm-290.16 5.4805l-0.7754 51.889-44.967 47.238-22.445-56.205c4.0644-2.0124 6.8808-6.1943 6.8808-11.018 0-1.4525-0.2672-2.8412-0.7343-4.1367l62.041-27.768zm-877.99 4.1367c0.5693 1.0707 1.2785 2.0526 2.0938 2.9375l-77.016 81.109 0.83008-51.016 74.092-33.031zm3.4531 4.248c1.0647 0.8847 2.2608 1.6152 3.5547 2.1582l-30.203 88.697c-1.3642-0.37762-2.7934-0.5957-4.2754-0.5957-8.8667 0-16.092 7.2251-16.092 16.092 0 2.4814 0.58247 4.825 1.5918 6.9277l-33.797 18.662 0.80078-49.352 78.42-82.59zm1100.4 2.6211c9.6135 0 17.369 7.7498 17.369 17.363 0 9.6135-7.7556 17.369-17.369 17.369s-17.363-7.7556-17.363-17.369c0-9.6135 7.7498-17.363 17.363-17.363zm-375.07 2.0742c15.179 0 27.445 12.268 27.445 27.447 0 15.179-12.266 27.445-27.445 27.445-15.179 0-27.445-12.266-27.445-27.445 0-15.179 12.266-27.447 27.445-27.447zm75.56 10.312c4.725 0 8.5195 3.7868 8.5195 8.5117 0 4.7249-3.7945 8.5195-8.5195 8.5195-4.7249 0-8.5117-3.7946-8.5117-8.5195 0-4.725 3.7868-8.5117 8.5117-8.5117zm-12.062 10.84c0.8658 4.478 4.1722 8.1074 8.4727 9.4297l-21.383 95.607c-1.1784-0.20747-2.3883-0.32031-3.625-0.32031-2.3632 0-4.6337 0.40124-6.754 1.1289l-27.898-70.859c11.114-4.7852 18.914-15.84 18.914-28.691 0-0.87528-0.046-1.7404-0.1172-2.5976l32.391-3.6973zm-492.25 0.27734c8.1767 0 14.764 6.587 14.764 14.764 0 8.1767-6.587 14.764-14.764 14.764-8.1767 0-14.771-6.5869-14.771-14.764 0-8.1767 6.5948-14.764 14.771-14.764zm-376.07 3.5059l-0.84765 52.191-45.518 47.939-22.615-56.141c4.3286-2.1329 7.3281-6.5804 7.3281-11.715 0-1.5578-0.29036-3.0464-0.79492-4.4336l62.447-27.842zm1101.4 2.9238c9.1629 0 16.551 7.3878 16.551 16.551 0 9.1629-7.3879 16.551-16.551 16.551-9.163 0-16.549-7.3878-16.549-16.551 0-9.1629 7.3858-16.551 16.549-16.551zm-217.37 2.6992l22.758 56.992-41.363 43.453c-2.3388-2.0338-5.1217-3.566-8.1953-4.4023l21.377-95.619c0.5733 0.0827 1.1546 0.14062 1.75 0.14062 1.2785 0 2.5126-0.1986 3.6738-0.56445zm-1034 7.7754c14.913 0 26.959 12.046 26.959 26.959 0 14.913-12.046 26.967-26.959 26.967-14.913 0-26.965-12.053-26.965-26.967 0-14.913 12.051-26.959 26.965-26.959zm1103.1 3.2578l-0.7324 49.045-34.77 19.006-8.6523-21.664 44.154-46.387zm-1027.9 6.3398c5.1504 0 9.2852 4.1289 9.2852 9.2793 0 5.1504-4.1348 9.2852-9.2852 9.2852-5.1504 0-9.2871-4.1348-9.2871-9.2852 0-5.1504 4.1367-9.2793 9.2871-9.2793zm1156.4 1.377c0.8464 3.4053 2.5673 6.4612 4.8906 8.9492l-126.3 129.31c-0.8805-0.7457-1.8633-1.3703-2.918-1.8672l40.299-105.03c1.692 0.54812 3.4922 0.85156 5.3633 0.85156 9.6276 0 17.473-7.8451 17.473-17.473 0-0.84659-0.08-1.6734-0.1973-2.4883l61.387-12.256zm-78.662 1.0508c7.585 0 13.693 6.1083 13.693 13.693 0 7.585-6.1084 13.693-13.693 13.693s-13.693-6.1084-13.693-13.693c0-7.585 6.1084-13.693 13.693-13.693zm276.87 8.1719c4.8715 0 8.7852 3.9137 8.7852 8.7852 0 4.8714-3.9137 8.7774-8.7852 8.7774-4.8714 0-8.7773-3.9059-8.7773-8.7774 0-4.8714 3.9059-8.7852 8.7773-8.7852zm-1367.5 1.0137c0.89146 4.8956 4.5236 8.8491 9.2422 10.211l-19.74 93.873c-1.1152-0.18246-2.258-0.28125-3.4238-0.28125-2.4832 0-4.8661 0.43439-7.082 1.2246l-28.951-71.176c10.764-4.7881 18.287-15.579 18.287-28.104 0-0.78817-0.03925-1.5665-0.09765-2.3398l31.766-3.4082zm16.832 10.1l22.934 56.93-39.848 41.967c-2.4372-2.1165-5.3503-3.7004-8.5684-4.5293l19.742-93.869c0.57532 0.078 1.1579 0.13282 1.7539 0.13282 1.3898 0 2.728-0.22529 3.9863-0.63086zm1058.9 3.5938c1.835 2.9501 4.5154 5.315 7.709 6.75l-40.297 105.02c-0.8615-0.26258-1.7604-0.43353-2.6856-0.51367l1.3868-92.734 33.887-18.523zm-989.09 6.6777l-0.78516 48.381-35.494 19.6-8.418-20.9 44.697-47.08zm49.414 9.4277c6.824 0 12.312 5.4884 12.312 12.312s-5.4884 12.32-12.312 12.32-12.312-5.4963-12.312-12.32 5.4884-12.312 12.312-12.312zm859.06 0.13867l8.4161 21.072-46.402 25.367c-0.796-1.3056-1.7235-2.5199-2.7773-3.6172l40.764-42.822zm-545.44 1.7441c-12.269 0-22.31 9.7302-22.809 21.879h-188.69c-0.49735-9.582-8.4396-17.236-18.143-17.236-10.022 0-18.189 8.1595-18.189 18.182s8.1674 18.189 18.189 18.189c1.7878 0 3.5126-0.26997 5.1465-0.7539l45.424 128.74c-4.9339 2.1393-8.4062 7.0539-8.4062 12.756 0 1.4339 0.21812 2.8179 0.625 4.1211l-111.31 43.084c-2.2753-4.8604-7.2003-8.25-12.904-8.25-7.8524 0-14.262 6.4093-14.262 14.262 0 7.8524 6.4093 14.254 14.262 14.254 0.34585 0 0.68558-0.02833 1.0254-0.05273l23.791 170.53c-13.251 2.2965-23.363 13.864-23.363 27.762 0 15.545 12.646 28.191 28.191 28.191s28.186-12.646 28.186-28.191c0-3.1075-0.5128-6.0951-1.4453-8.8926l68.344-25.318c1.6181 3.4776 4.8298 6.0725 8.6914 6.8203l-12.281 108.91c-0.49448-0.0338-0.99126-0.05859-1.4941-0.05859-11.995 0-21.762 9.7613-21.762 21.756 0 11.995 9.7672 21.762 21.762 21.762 10.267 0 18.891-7.1588 21.164-16.742l251.73 48.197h10.617c1.2144-4.0103 4.9215-6.9102 9.3418-6.9102 4.4203 0 8.1274 2.8998 9.3418 6.9102h3.8906c-0.73109-3.3676-2.7185-6.2763-5.4473-8.2051l48.732-80.67c2.3179 1.2325 4.9556 1.9375 7.7559 1.9375 9.1456 0 16.596-7.456 16.596-16.602 0-7.3414-4.8051-13.586-11.43-15.768l46.537-175.13c2.2702 0.53064 4.6315 0.82267 7.0586 0.83594l2.2695 93.684c-11.505 0.76406-20.637 10.366-20.637 22.061 0 12.192 9.9234 22.117 22.115 22.117 12.192 0 22.117-9.9254 22.117-22.117 0-12.054-9.7042-21.885-21.707-22.105l-2.2676-93.682c2.2115-0.1181 4.3619-0.46637 6.4316-1.0156l78.635 264.49c-4.9775 1.8889-8.541 6.6971-8.541 12.32 0 7.2607 5.9307 13.184 13.191 13.184 7.2607 0 13.184-5.9229 13.184-13.184 0-7.2606-5.9229-13.186-13.184-13.186-0.97507 0-1.9239 0.11576-2.8398 0.31836l-78.641-264.48c2.0179-0.66704 3.9448-1.532 5.7617-2.5703l109.86 180.16c-4.4736 3.0899-7.418 8.2472-7.418 14.078 0 9.4246 7.679 17.104 17.104 17.104 6.8337 0 12.738-4.0467 15.477-9.8594l229.2 92.314c-0.4368 1.2701-0.7335 2.603-0.877 3.9805h3.8027c0.875-6.9311 6.7542-12.264 13.93-12.264 7.1757 0 13.05 5.3326 13.924 12.264h3.8145c-0.9-8.9903-8.5162-16.043-17.738-16.043-7.1362 0-13.298 4.2327-16.144 10.309l-229.2-92.309c0.58995-1.7278 0.92382-3.5723 0.92382-5.4961 0-9.4246-7.6868-17.105-17.111-17.105-2.9182 0-5.6669 0.73859-8.0742 2.0352l-109.85-180.15c1.8457-1.2061 3.5638-2.592 5.1172-4.1445l214.5 202.16c-1.7951 2.2065-2.8769 5.0148-2.8769 8.0684 0 7.0535 5.7531 12.809 12.807 12.809s12.816-5.7551 12.816-12.809c0-0.058-0.0098-0.11408-0.0097-0.17188l182.18-15.887c1.6778 13.969 13.587 24.828 28.002 24.828 15.561 0 28.223-12.652 28.223-28.213 0-3.1989-0.542-6.2718-1.5273-9.1406l67.564-25.684c1.7829 3.8072 5.3244 6.6308 9.5723 7.4102l-11.914 108.55c-0.4734-0.0309-0.9488-0.05273-1.4297-0.05273-11.994 0-21.754 9.7613-21.754 21.756 0 3.3201 0.75 6.4682 2.086 9.2871h4.2871c-1.6356-2.7112-2.5918-5.8806-2.5918-9.2871 0-9.952 8.0227-17.977 17.975-17.977 9.9519 0 17.982 8.0246 17.982 17.977 0 3.4067-0.9587 6.5758-2.5957 9.2871h4.2852c1.3368-2.8189 2.0878-5.9669 2.0878-9.2871 0-0.53206-0.0274-1.0575-0.0644-1.5801l121.43-14.172c1.1603 6.0911 6.5315 10.725 12.951 10.725 7.2607 0 13.186-5.9229 13.186-13.184 0-1.9075-0.4178-3.7189-1.1524-5.3594l78.08-41.73v-2.1426l-78.978 42.205c-1.2332-1.9458-2.9532-3.5502-4.9961-4.6328l32.402-73.988 51.572 11.066v-1.9375l-50.797-10.9 16.99-38.793 33.807 28.699v-2.4746l-33.018-28.027 10.326-23.578 22.691 32.756v-3.3203l-21.803-31.471 21.803-49.783v-4.7051l-23.064 52.662-35.33-50.996c3.9284-3.0727 6.4707-7.8429 6.4707-13.197 0-3.033-0.8255-5.8739-2.2441-8.332l54.168-35.309v-2.2598l-55.205 35.99c-3.057-4.142-7.9578-6.8477-13.482-6.8477-6.8018 0-12.665 4.0898-15.287 9.9316l-89.295-33.979c1.0918-3.1493 1.6934-6.5259 1.6934-10.043 0-0.43425-0.0153-0.86501-0.0332-1.2949l171.61-12.506v-1.8906l-171.74 12.514c-1.5954-15.467-14.699-27.566-30.582-27.566-16.956 0-30.738 13.788-30.738 30.744 0 14.633 10.267 26.893 23.977 29.98l-19.818 102.43c-0.5151-0.0616-1.0353-0.10351-1.5664-0.10351-7.2607 0-13.193 5.9229-13.193 13.184 0 1.3178 0.201 2.5903 0.5644 3.793l-67.547 25.68c-4.2743-10.161-14.332-17.314-26.029-17.314-0.958 0-1.9041 0.0489-2.8378 0.14258l-23.201-171.78c6.1632-1.2775 10.826-6.755 10.826-13.285 0-1.4193-0.2228-2.7885-0.6309-4.0762l111.74-43.953c2.2645 4.7543 7.1046 8.0644 12.703 8.0644 6.2177 0 11.511-4.0755 13.365-9.6875l87.457 22.344c-0.1537 0.83044-0.2441 1.6828-0.2441 2.5566 0 7.7509 6.3195 14.078 14.07 14.078 7.7509 0 14.076-6.3272 14.076-14.078 0-3.9595-1.6565-7.5388-4.3047-10.1l63.619-75.291c2.4308 1.8028 5.427 2.8828 8.6738 2.8828 8.0496 0 14.615-6.5656 14.615-14.615 0-8.0496-6.5657-14.617-14.615-14.617s-14.617 6.5676-14.617 14.617c0 4.1258 1.732 7.8538 4.498 10.516l-63.621 75.293c-2.3362-1.7234-5.2098-2.7559-8.3242-2.7559-6.2177 0-11.505 4.0715-13.357 9.6816l-87.459-22.344c0.1541-0.8313 0.2461-1.684 0.2461-2.5586 0-7.7509-6.3273-14.078-14.078-14.078-1.3234 0-2.6005 0.19653-3.8164 0.54102l-45.127-126.85c3.1152-1.2955 5.7928-3.4204 7.7871-6.0879l106.03 70.92c-3.2886 5.2098-5.2012 11.372-5.2012 17.979 0 18.63 15.142 33.771 33.772 33.771 18.63 0 33.773-15.142 33.773-33.771 0-10.365-4.6923-19.649-12.06-25.848l44.113-55.586c3.8944 2.8523 8.6906 4.543 13.877 4.543 12.981 0 23.549-10.56 23.549-23.541 0-12.981-10.568-23.547-23.549-23.547-12.679 0-23.042 10.082-23.518 22.646l-187.12 0.34961c-0.5144-9.8064-8.6429-17.645-18.574-17.645-10.261 0-18.617 8.3616-18.617 18.623 0 10.261 8.3559 18.617 18.617 18.617 1.8574 0 3.6491-0.28175 5.3437-0.79101l45.123 126.85c-4.9788 2.1737-8.4785 7.1439-8.4785 12.906 0 1.4848 0.2362 2.9158 0.666 4.2617l-111.74 43.953c-2.1914-4.5654-6.8515-7.7402-12.236-7.7402-7.4719 0-13.566 6.0965-13.566 13.568 0 7.4719 6.0945 13.568 13.566 13.568 0.2942 0 0.5815-0.02633 0.8711-0.04493l23.207 171.8c-13.324 2.25-23.502 13.865-23.502 27.82 0 0.50486 0.015 1.0055 0.041 1.5039l-182.19 15.887c-0.9906-6.0829-6.2811-10.762-12.635-10.762-3.3242 0-6.3504 1.2895-8.6309 3.3809l-214.51-202.17c1.9315-2.1724 3.5729-4.6079 4.8555-7.25l164.05 73.357c-0.9664 2.4357-1.5039 5.0867-1.5039 7.8613 0 11.796 9.6048 21.4 21.4 21.4s21.4-9.6048 21.4-21.4-9.6048-21.4-21.4-21.4c-8.3507 0-15.597 4.8174-19.121 11.814l-164.05-73.363c1.5412-3.7291 2.3965-7.8112 2.3965-12.092 0-0.59916-0.01984-1.1941-0.05274-1.7852l83.846-7.2246c0.96971 5.9622 6.1508 10.545 12.379 10.545 6.914 0 12.564-5.6426 12.564-12.557s-5.6504-12.564-12.564-12.564-12.557 5.6504-12.557 12.564c0 0.0435 0.00486 0.0855 0.00586 0.12891l-83.84 7.2226c-1.8252-15.793-15.269-28.088-31.545-28.088-14.255 0-26.339 9.4306-30.346 22.383l-71.5-19.785c0.34744-1.5178 0.53711-3.0954 0.53711-4.7168 0-11.656-9.4865-21.148-21.143-21.148-11.656 0-21.148 9.4923-21.148 21.148 0 0.17427 0.00898 0.34626 0.01368 0.51953l-199.27 13.838c-1.5531-15.678-14.805-27.955-30.887-27.955-17.123 0-31.047 13.918-31.047 31.041 0 14.922 10.576 27.414 24.627 30.379l-18.627 103.64c-0.39622-0.0395-0.79687-0.06054-1.2031-0.06054-6.6689 0-12.121 5.4463-12.121 12.115 0 1.1458 0.17031 2.2522 0.4707 3.3047l-68.338 25.312c-4.2138-10.267-14.312-17.516-26.082-17.516-0.99983 0-1.9877 0.0543-2.9609 0.15625l-23.781-170.51c6.4679-1.3465 11.352-7.095 11.352-13.953 0-1.481-0.22817-2.9108-0.65039-4.2559l111.32-43.082c2.2256 4.7274 7.0286 8.0215 12.582 8.0215 6.1759 0 11.429-4.0675 13.23-9.6582l87.041 21.529c-0.1535 0.85186-0.24609 1.7242-0.24609 2.6191 0 8.1483 6.6447 14.793 14.793 14.793s14.793-6.6447 14.793-14.793c0-4.2153-1.788-8.0181-4.6328-10.717l63.898-76.705c2.2278 1.6123 4.9529 2.5742 7.9024 2.5742 7.4579 0 13.545-6.087 13.545-13.545 0-7.4579-6.087-13.547-13.545-13.547-7.4579 0-13.539 6.089-13.539 13.547 0 3.8304 1.6108 7.2916 4.1816 9.7598l-63.896 76.705c-2.4473-1.7928-5.4522-2.8652-8.707-2.8652-6.5963 0-12.205 4.3562-14.104 10.338l-87.039-21.527c0.13821-0.784 0.22461-1.5856 0.22461-2.4082 0-7.6551-6.2452-13.9-13.9-13.9-1.2902 0-2.5353 0.19179-3.7227 0.52344l-45.424-128.75c3.0441-1.2604 5.6613-3.3302 7.6133-5.9316l105.48 70.66c-3.385 5.3472-5.3535 11.677-5.3535 18.465 0 19.095 15.518 34.613 34.613 34.613s34.613-15.518 34.613-34.613c0-10.555-4.7483-20.011-12.215-26.363l44.416-55.273c3.7924 2.8049 8.4784 4.4668 13.545 4.4668 12.586 0 22.824-10.246 22.824-22.832 0-12.586-10.238-22.824-22.824-22.824zm590.26 1.5762l-1.3691 91.672c-1.1249 0.0639-2.2165 0.25749-3.25 0.58789l-29.416-73.656 34.035-18.604zm-590.26 2.2031c10.544 0 19.045 8.5013 19.045 19.045 0 10.544-8.5013 19.053-19.045 19.053s-19.053-8.5091-19.053-19.053c0-10.544 8.5091-19.045 19.053-19.045zm-229.64 4.6426c7.9795 0 14.408 6.4229 14.408 14.402s-6.4287 14.41-14.408 14.41c-7.9795 0-14.41-6.4307-14.41-14.41s6.4307-14.402 14.41-14.402zm-97.562 10.59c1.6881 2.663 4.127 4.7984 7.0254 6.1016l-40.545 107.19c-0.88097-0.26593-1.8007-0.44069-2.7461-0.52148l1.5195-93.584 34.746-19.186zm881.77 2.0801l29.334 73.459c-2.2919 1.1178-4.2089 2.8762-5.5254 5.0449l-69.738-35.488c1.1962-2.6274 1.8789-5.535 1.8789-8.6035 0-3.2886-0.7858-6.3905-2.1484-9.1602l46.199-25.252zm-766.06 2.6777h188.69c0.26478 6.462 3.2305 12.238 7.7949 16.232l-44.418 55.273c-5.8155-4.427-13.066-7.0625-20.928-7.0625-11.633 0-21.931 5.765-28.209 14.584l-105.48-70.66c1.484-2.4732 2.3926-5.3201 2.5508-8.3672zm-197.66 13.508l8.1816 20.312-44.637 24.646c-0.80312-1.3055-1.7366-2.5208-2.7949-3.6191l39.25-41.34zm898.8 1.1445c9.4588 0 17.09 7.6232 17.09 17.082 0 9.4588-7.631 17.09-17.09 17.09-9.4589 0-17.088-7.631-17.088-17.09 0-9.4588 7.629-17.082 17.088-17.082zm-853.49 0.82618l-1.498 92.512c-1.1994 0.06389-2.3605 0.27319-3.459 0.63085l-29.789-73.955 34.746-19.188zm1340.1 7.5605c10.938 0 19.768 8.8294 19.768 19.768 0 10.938-8.8294 19.762-19.768 19.762s-19.762-8.8235-19.762-19.762c0-10.938 8.8235-19.768 19.762-19.768zm-229.21 5.3516c8.2189 0 14.844 6.6249 14.844 14.844 0 8.2188-6.6249 14.838-14.844 14.838-8.2187 0-14.838-6.6191-14.838-14.838 0-8.2188 6.6191-14.844 14.838-14.844zm-1147.3 7.1953l29.707 73.754c-2.3049 1.1283-4.2432 2.886-5.5918 5.0527l-68.34-35.91c1.2889-2.7308 2.0137-5.7774 2.0137-8.9902 0-3.368-0.79682-6.5519-2.2051-9.3809l44.416-24.525zm1353 8.2109c0.2798 6.7186 3.3887 12.715 8.164 16.834l-44.115 55.582c-5.643-4.2352-12.65-6.748-20.236-6.748-11.348 0-21.396 5.6248-27.522 14.229l-106.02-70.92c1.5307-2.5483 2.4638-5.4851 2.6172-8.6289l187.11-0.34765zm-513.45 3.1738c10.741 0 19.408 8.6654 19.408 19.406 0 10.741-8.6673 19.408-19.408 19.408s-19.406-8.6673-19.406-19.408c0-10.741 8.6654-19.406 19.406-19.406zm-902.91 5.1602c9.6135 0 17.369 7.7478 17.369 17.361 0 9.6135-7.7556 17.369-17.369 17.369s-17.369-7.7556-17.369-17.369c0-9.6135 7.7556-17.361 17.369-17.361zm383.27 16.092c17.053 0 30.834 13.781 30.834 30.834s-13.781 30.834-30.834 30.834-30.834-13.781-30.834-30.834 13.781-30.834 30.834-30.834zm670 4.998c5.2181 0 9.4063 4.1862 9.4063 9.4043s-4.1882 9.4121-9.4063 9.4121c-5.218 0-9.4101-4.1941-9.4101-9.4121s4.1921-9.4043 9.4101-9.4043zm-566.43 4.998c5.4153 0 9.7656 4.3503 9.7656 9.7656 0 5.4153-4.3503 9.7656-9.7656 9.7656-5.4153 0-9.7598-4.3503-9.7598-9.7656 0-5.4153 4.3445-9.7656 9.7598-9.7656zm-537.5 4.791c-12.586 0-22.832 10.246-22.832 22.832 0 11.283 8.2359 20.679 19.008 22.506l-23.385 183.3c-0.45049-0.0336-0.90047-0.06836-1.3594-0.06836-10.022 0-18.188 8.1674-18.188 18.189 0 10.022 8.1654 18.188 18.188 18.188 10.022 0 18.182-8.1654 18.182-18.188 0-0.984-0.10059-1.9425-0.25195-2.8848l131.87-28.311c1.6666 5.764 6.9911 10.008 13.277 10.008 0.83473 0 1.6488-0.0873 2.4434-0.23046l28.695 114.18c-5.4195 1.7806-9.3555 6.8874-9.3555 12.889 0 7.4719 6.0964 13.576 13.568 13.576s13.576-6.1042 13.576-13.576c0-7.4719-6.1042-13.568-13.576-13.568-0.81338 0-1.6062 0.0862-2.3809 0.22461l-28.693-114.18c5.527-1.8108 9.541-7.0202 9.541-13.139 0-7.6114-6.207-13.818-13.818-13.818s-13.826 6.207-13.826 13.818c0 0.6705 0.065 1.3252 0.1582 1.9707l-131.87 28.312c-0.87204-3.2263-2.6009-6.1001-4.9414-8.3555l82.703-95.373c5.8718 4.82 13.381 7.7168 21.559 7.7168 18.769 0 34.031-15.252 34.031-34.021 0-18.769-15.262-34.023-34.031-34.023-8.9852 0-17.158 3.5013-23.244 9.2051l-48.334-48.812c3.7952-4.0788 6.123-9.5397 6.123-15.535 0-12.586-10.246-22.832-22.832-22.832zm969.16 0.51562l49.172 49.848c-5.9328 6.1819-9.5898 14.564-9.5898 23.795 0 10.029 4.3086 19.063 11.172 25.355l-81.914 94.494c-2.3408-1.8316-5.1304-3.1038-8.1778-3.627l21.941-183.9c0.5969 0.0463 1.1982 0.07617 1.8067 0.07617 5.9962 0 11.469-2.2891 15.59-6.0391zm-969.16 3.2637c10.544 0 19.053 8.5091 19.053 19.053s-8.5091 19.053-19.053 19.053c-10.544 0-19.053-8.5091-19.053-19.053s8.5091-19.053 19.053-19.053zm149.66 24.943c5.4293 0 9.7891 4.3578 9.7891 9.7871 0 5.4293-4.3598 9.7891-9.7891 9.7891-5.4293 0-9.7949-4.3598-9.7949-9.7891 0-5.4293 4.3656-9.7871 9.7949-9.7871zm1261.2 1.5117c16.587 0 29.994 13.407 29.994 29.994 0 16.587-13.407 29.992-29.994 29.992-16.587 0-29.992-13.405-29.992-29.992 0-16.587 13.405-29.994 29.992-29.994zm103.27 8.9043c6.007 0 10.836 4.8289 10.836 10.836s-4.8289 10.836-10.836 10.836-10.836-4.8289-10.836-10.836 4.8289-10.836 10.836-10.836zm-1498.7 0.55859l48.332 48.812c-5.8394 6.1106-9.4356 14.383-9.4356 23.488 0 9.9141 4.2576 18.844 11.039 25.066l-82.709 95.377c-2.2752-1.7798-4.9769-3.0283-7.9297-3.5625l23.389-183.3c0.64193 0.0545 1.2896 0.08789 1.9453 0.08789 5.9137 0 11.309-2.263 15.369-5.9668zm1027.8 3.8477c16.931 0 30.621 13.682 30.621 30.613 0 16.931-13.69 30.619-30.621 30.619-16.931 0-30.611-13.688-30.611-30.619 0-16.931 13.68-30.613 30.611-30.613zm-702.42 21.311c5.6126 0 10.121 4.5086 10.121 10.121 0 5.6126-4.5085 10.121-10.121 10.121s-10.127-4.5085-10.127-10.121c0-5.6125 4.5144-10.121 10.127-10.121zm736.36 14.867l119.01 16.162c-0.041 0.49736-0.0762 0.99621-0.0762 1.5039 0 3.1009 0.7844 6.0223 2.1602 8.5801l-97.527 58.959c-2.5048-3.5551-6.6316-5.8926-11.293-5.8926-7.6114 0-13.826 6.2148-13.826 13.826 0 0.68947 0.068 1.3626 0.166 2.0254l-131.28 28.736c-0.8871-3.2343-2.6291-6.114-4.9805-8.377l81.906-94.496c5.9364 4.8759 13.528 7.8066 21.797 7.8066 17.079 0 31.278-12.5 33.945-28.834zm-988.79 2.0312c16.727 0 30.252 13.518 30.252 30.244 0 16.727-13.525 30.242-30.252 30.242s-30.242-13.516-30.242-30.242c0-16.727 13.516-30.244 30.242-30.244zm1125.9 1.2246c7.9795 0 14.41 6.4307 14.41 14.41s-6.4306 14.402-14.41 14.402-14.402-6.4228-14.402-14.402c0-0.49872 0.0253-0.99114 0.0743-1.4766 0.7348-7.2813 6.8473-12.934 14.328-12.934zm-758.66 9.375c6.1056 0 11.014 4.908 11.014 11.014 0 6.1057-4.908 11.014-11.014 11.014-6.1057 0-11.014-4.908-11.014-11.014 0-6.1056 4.908-11.014 11.014-11.014zm861.86 15.156c5.7083 0 10.299 4.5886 10.299 10.297 0 5.7083-4.5905 10.297-10.299 10.297s-10.297-4.5886-10.297-10.297c0-5.7083 4.5886-10.297 10.297-10.297zm-1114.2 10.201c5.8098 0 10.475 4.6726 10.475 10.482 0 5.8098-4.6648 10.475-10.475 10.475-5.8098 0-10.482-4.6648-10.482-10.475 0-5.8098 4.6726-10.482 10.482-10.482zm413.26 2.8047c9.6135 0 17.363 7.7556 17.363 17.369 0 9.6135-7.7498 17.363-17.363 17.363s-17.369-7.7498-17.369-17.363c0-9.6135 7.7556-17.369 17.369-17.369zm-251.29 7.5527c15.08 0 27.262 12.179 27.262 27.26s-12.181 27.27-27.262 27.27c-15.08 0-27.268-12.189-27.268-27.27s12.187-27.26 27.268-27.26zm1066.9 8.7402c5.7083 0 10.297 4.5808 10.297 10.289 0 5.7083-4.5886 10.299-10.297 10.299-5.7082 0-10.291-4.5905-10.291-10.299 0-5.7083 4.5828-10.289 10.291-10.289zm-836.57 3.4785c0.30364 2.6682 1.1046 5.1865 2.3106 7.4609l-83.146 48.756c-3.0388-4.5583-8.2227-7.5723-14.096-7.5723-6.9142 0-12.87 4.1786-15.496 10.137l-90.467-33.773c1.0634-3.1305 1.6484-6.4808 1.6484-9.9668 0-0.40345-0.01595-0.80337-0.03124-1.2031l199.28-13.838zm143.46 3.4961c15.475 0 27.984 12.504 27.984 27.979 0 15.475-12.51 27.977-27.984 27.977-15.475 0-27.977-12.502-27.977-27.977 0-15.475 12.502-27.979 27.977-27.979zm-102.35 0.64258l71.508 19.779c-0.59339 2.4232-0.91602 4.9526-0.91602 7.5566 0 14.369 9.5846 26.526 22.697 30.434l-46.533 175.12c-1.0801-0.22229-2.1992-0.33789-3.3438-0.33789-9.1456 0-16.602 7.4579-16.602 16.604 0 5.6706 2.8702 10.687 7.2285 13.684l-48.734 80.67c-1.853-0.95478-3.9454-1.5039-6.166-1.5039-6.2597 0-11.54 4.2943-13.08 10.082l-258.25-49.449c0.15094-1.0322 0.23243-2.0868 0.23243-3.1602 0-0.49624-0.02384-0.98655-0.05664-1.4746l122.48-13.703c1.0929 5.7645 6.1705 10.15 12.244 10.15 6.8662 0 12.475-5.6026 12.475-12.469 0-1.8259-0.40772-3.5568-1.1191-5.123l88.906-48.531c5.4338 9.2382 15.475 15.453 26.949 15.453 17.235 0 31.248-14.013 31.248-31.248 0-16.438-12.75-29.933-28.883-31.146l7.5918-166.78c8e-3 1e-5 0.01564 0 0.02344 0 9.3736 0 17.339-6.1369 20.102-14.602zm-37.83 4.9453c1.9526 3.0007 4.6349 5.483 7.8066 7.1758l-56.346 118.5-39.201-55.9c3.9282-3.107 6.4629-7.9032 6.4629-13.283 0-2.7838-0.68956-5.4065-1.8867-7.7266l83.164-48.768zm268.12 2.584c4.8714 0 8.7852 3.9137 8.7852 8.7852s-3.9137 8.7773-8.7852 8.7773-8.7773-3.9059-8.7773-8.7773 3.9059-8.7852 8.7773-8.7852zm-258.61 5.4102c1.97 0.83413 4.0937 1.3728 6.3125 1.5723l-7.5977 166.79c-0.15929-2e-3 -0.31669-0.01172-0.47656-0.01172-6.3312 0-12.224 1.896-17.15 5.1426l-37.891-54.027 56.803-119.46zm571.75 4.6953c5.4294 0 9.7969 4.3598 9.7969 9.7891 0 5.4293-4.3675 9.7891-9.7969 9.7891-5.4293 0-9.7871-4.3597-9.7871-9.7891 0-5.4293 4.3578-9.7891 9.7871-9.7891zm-90.656 0.75391c5.5688 0 10.039 4.4781 10.039 10.047 0 5.5688-4.4702 10.039-10.039 10.039s-10.047-4.4703-10.047-10.039c0-5.5688 4.4781-10.047 10.047-10.047zm-695.44 4.2539l90.453 33.77c-0.4958 1.5894-0.76368 3.2776-0.76368 5.0273 0 5.2015 2.3655 9.8628 6.0723 12.975l-18.057 24.191-82.035-68.543c1.766-2.2458 3.2313-4.7385 4.3301-7.4199zm949.24 5.0918c14.913 0 26.965 12.051 26.965 26.965 0 14.913-12.051 26.959-26.965 26.959-14.914 0-26.959-12.046-26.959-26.959 0-14.913 12.046-26.965 26.959-26.965zm-954.78 3.7812l82.113 68.607-42.662 57.156-49.734-118.15c3.9394-1.8085 7.4363-4.4142 10.283-7.6152zm-12.023 8.3516l50.162 119.17-9.7969 13.125-65.773-13.656c0.064-0.5024 0.10742-1.0102 0.10742-1.5293 0-5.6111-3.8613-10.343-9.0566-11.707l18.635-103.65c1.4878 0.21972 3.0086 0.33594 4.5566 0.33594 3.936 0 7.6988-0.74265 11.166-2.084zm124.19 8.418c7.2891 0 13.154 5.8652 13.154 13.154s-5.8652 13.162-13.154 13.162c-7.2891 0-13.154-5.873-13.154-13.162s5.8652-13.154 13.154-13.154zm426.18 1.166c8.0793 0 14.588 6.5066 14.588 14.586 0 8.0793-6.5086 14.596-14.588 14.596s-14.586-6.5164-14.586-14.596c0-8.0793 6.5066-14.586 14.586-14.586zm-792.21 7.832c5.5688 0 10.039 4.4703 10.039 10.039 0 5.5688-4.4703 10.047-10.039 10.047-5.5688 0-10.047-4.4781-10.047-10.047 0-5.5688 4.4781-10.039 10.047-10.039zm1237 9.2227l89.281 33.977c-0.5093 1.5994-0.7891 3.2995-0.7891 5.0644 0 5.1451 2.3411 9.7566 6.0078 12.836l-17.996 24.113-80.863-68.645c1.774-2.22 3.2495-4.6871 4.3594-7.3457zm-5.5801 8.7891l80.953 68.719-42.215 56.568-48.896-117.88c3.8805-1.7576 7.3359-4.2914 10.158-7.4121zm-874.77 0.25195c2.6822 1.7863 5.8958 2.834 9.3496 2.834 3.275 0 6.3268-0.95226 8.9219-2.5723l39.818 56.775-10.518 22.119-65.688-54.885 18.115-24.271zm862.86 7.8906l49.326 118.91-10.188 13.652-65.145-13.977c0.085-0.60127 0.1446-1.2101 0.1446-1.834 0-6.0764-4.1547-11.202-9.7637-12.717l19.818-102.43c1.5991 0.25754 3.2372 0.39649 4.9082 0.39649 3.8368 0 7.5089-0.71155 10.898-2zm-1382.6 4.4883c7.9795 0 14.402 6.4307 14.402 14.41s-6.4229 14.408-14.402 14.408c-7.9795 0-14.408-6.4288-14.408-14.408 0-7.9795 6.4287-14.41 14.408-14.41zm1505.4 4.6426c7.1905 0 12.984 5.788 12.984 12.979 0 7.1905-5.7939 12.984-12.984 12.984s-12.978-5.7939-12.978-12.984c0-7.1905 5.788-12.979 12.978-12.979zm-1004.8 8.7676l65.984 55.131-17.684 37.191-84.488-17.543-7.0781-16.814 43.266-57.965zm479.53 3.4199c9.753 0 17.621 7.8681 17.621 17.621 0 9.753-7.8681 17.621-17.621 17.621s-17.621-7.8681-17.621-17.621c0-9.753 7.8681-17.621 17.621-17.621zm516.08 14.758c2.6522 1.7633 5.8276 2.7969 9.2402 2.7969 3.2023 0 6.1887-0.92166 8.7383-2.4902l35.992 51.955-10.566 24.125-61.469-52.18 18.064-24.207zm-917.02 14.848l37.275 53.146c-1.6917 1.267-3.248 2.7064-4.6504 4.2832l-42.893-35.836 10.268-21.594zm897.83 10.875l61.81 52.469-17.373 39.666-79.949-17.154-7.3028-17.605 42.814-57.375zm-1109.4 3.4062c4.6263 0 8.3359 3.7076 8.3359 8.334s-3.7096 8.3418-8.3359 8.3418-8.3398-3.7155-8.3398-8.3418 3.7135-8.334 8.3398-8.334zm403.57 7.8535c10.149 0 18.338 8.1867 18.338 18.336 0 10.149-8.1887 18.338-18.338 18.338-10.149 0-18.336-8.1887-18.336-18.338 0-10.149 8.1867-18.336 18.336-18.336zm-203.08 1.2207l42.52 35.525c-2.7442 3.4863-4.7616 7.5673-5.8262 12.018l-53.971-11.205 17.277-36.338zm585.04 2.0938c5.7083 0 10.297 4.5886 10.297 10.297 0 5.7083-4.5886 10.299-10.297 10.299-5.7082 0-10.299-4.5906-10.299-10.299 0-5.7083 4.5906-10.297 10.299-10.297zm-773.9 0.55079l64.908 13.475-22.434 30.055-44.469-39.6c0.88815-1.1661 1.5729-2.4902 1.9941-3.9297zm76.805 0.69726l6.1426 14.59-14.746-3.0625 8.6035-11.527zm-80.051 4.6445l44.586 39.709-56.795 76.09c-2.607-1.7809-5.6174-3.0097-8.8652-3.5176l12.279-108.91c0.14001 5e-3 0.27683 0.02148 0.41797 0.02148 3.2465 0 6.1972-1.299 8.377-3.3945zm-114.45 6.1543c13.502 0 24.406 10.902 24.406 24.404 0 13.502-10.904 24.412-24.406 24.412s-24.41-10.91-24.41-24.412c0-13.502 10.908-24.404 24.41-24.404zm184.64 2.4043l16.889 3.5059 39.201 93.131c-1.0847 0.5609-2.0777 1.2726-2.9492 2.1133l-76.201-67.859 23.061-30.891zm19.135 3.9726l82.76 17.184-35.631 74.939c-1.3946-0.54167-2.9033-0.85156-4.4844-0.85156-1.3804 0-2.7062 0.23625-3.9492 0.65429l-38.695-91.926zm169.86 6.8301c15.192 0 27.469 12.274 27.469 27.467 0 15.192-12.276 27.469-27.469 27.469-15.192 0-27.467-12.276-27.467-27.469 0-15.192 12.274-27.467 27.467-27.467zm708.51 5.7207c5.218 0 9.4043 4.1862 9.4043 9.4043s-4.1863 9.4122-9.4043 9.4121c-5.2181 0-9.4121-4.1941-9.4121-9.4121s4.194-9.4043 9.4121-9.4043zm-793.7 5.0274l54.424 11.301c-0.30906 1.761-0.48046 3.5695-0.48046 5.418 0 5.0854 1.2278 9.8856 3.3906 14.133l-88.906 48.531c-1.0805-1.6555-2.5425-3.0366-4.2598-4.0254l35.832-75.357zm-351.45 2.3848c5.4293 0 9.7969 4.3578 9.7969 9.7871s-4.3676 9.7969-9.7969 9.7969-9.7871-4.3676-9.7871-9.7969 4.3578-9.7871 9.7871-9.7871zm1157.8 5.6797l64.289 13.793-22.316 29.902-44.19-39.357c0.9889-1.2831 1.7511-2.7464 2.2168-4.3379zm76.564 0.5l6.3691 15.357-15.367-3.2988 8.9981-12.059zm-1010.9 2.2969l76.08 67.756c-1.6066 2.1005-2.5742 4.714-2.5742 7.5508 0 0.14764 0.01628 0.29106 0.02148 0.4375l-122.48 13.703c-0.84149-5.4106-3.685-10.167-7.7461-13.488l56.699-75.959zm930.87 2.959l44.309 39.461-56.965 76.336c-2.6236-1.7913-5.6553-3.0255-8.9258-3.5274l11.906-108.55c0.1667 6e-3 0.3299 0.02539 0.4981 0.02539 3.564 0 6.8006-1.4342 9.1777-3.748zm-115.38 6.4941c13.519 0 24.441 10.923 24.441 24.441 0 13.519-10.923 24.434-24.441 24.434-13.519 0-24.434-10.915-24.434-24.434 0-13.519 10.915-24.441 24.434-24.441zm185.17 1.9785l17.496 3.7539 37.98 91.566c-1.206 0.60967-2.3074 1.3925-3.2676 2.3262l-75.139-66.918 22.93-30.729zm19.748 4.2383l78.291 16.797-32.25 73.639c-1.3793-0.49237-2.856-0.77539-4.4004-0.77539-1.4535 0-2.8501 0.2471-4.1602 0.68555l-37.48-90.346zm-539.54 13.486c7.3819 0 13.332 5.9423 13.332 13.324 0 7.382-5.9501 13.324-13.332 13.324-7.382 0-13.324-5.9423-13.324-13.324 0-7.3819 5.9423-13.324 13.324-13.324zm-194.2 0.50195c7.103 0 12.814 5.7192 12.814 12.822 0 7.103-5.7115 12.822-12.814 12.822s-12.822-5.7193-12.822-12.822c0-7.103 5.7193-12.822 12.822-12.822zm689.92 14.023l75.018 66.811c-1.7202 2.2285-2.7558 5.01-2.7558 8.0293 0 0.19721 0.0213 0.38884 0.0293 0.58398l-121.43 14.166c-0.8625-5.3666-3.6946-10.083-7.7305-13.383l56.869-76.207zm-384.1 0.62109c5.0109 0 9.0371 4.0242 9.0371 9.0352 0 5.0109-4.0262 9.0293-9.0371 9.0293s-9.0273-4.0184-9.0273-9.0293c0-5.0109 4.0164-9.0352 9.0273-9.0352zm-732.95 0.67187c-15.545 0-28.191 12.639-28.191 28.184 0 0.49836 0.01336 0.99424 0.03906 1.4863l-179.85 15.525c-0.99428-6.2207-6.3968-11.01-12.889-11.01-7.193 0-13.059 5.8734-13.059 13.066 0 7.193 5.8656 13.066 13.059 13.066s13.066-5.8734 13.066-13.066c0-0.0587-0.00877-0.11533-0.00977-0.17383l179.85-15.525c1.6711 13.961 13.578 24.822 27.982 24.822 15.545 0 28.184-12.646 28.184-28.191 0-15.545-12.639-28.184-28.184-28.184zm0 3.7793c13.502 0 24.404 10.902 24.404 24.404 0 13.502-10.902 24.412-24.404 24.412-13.502 0-24.412-10.91-24.412-24.412 0-13.502 10.91-24.404 24.412-24.404zm226.43 17.857c4.8236 0 8.6953 3.8717 8.6953 8.6953 0 4.8235-3.8718 8.6894-8.6953 8.6894-4.8235 0-8.6894-3.8659-8.6894-8.6894 0-4.8236 3.8659-8.6953 8.6894-8.6953zm-156.42 8.2148c9.9519 0 17.977 8.0246 17.977 17.977 0 9.952-8.0246 17.982-17.977 17.982-9.9519 0-17.98-8.0305-17.98-17.982 0-9.9519 8.0285-17.977 17.98-17.977zm-290.89 8.1133c5.1504 0 9.2871 4.1367 9.2871 9.2871 0 5.1504-4.1367 9.2852-9.2871 9.2852s-9.2773-4.1348-9.2773-9.2852c0-5.1504 4.127-9.2871 9.2773-9.2871zm1423.4 26.17c5.2181 0 9.4062 4.1941 9.4062 9.4121s-4.1881 9.4043-9.4062 9.4043-9.4102-4.1862-9.4102-9.4043 4.1921-9.4121 9.4102-9.4121zm-625 9.6465c5.2181 0 9.4043 4.1882 9.4043 9.4062 0 5.2181-4.1862 9.4043-9.4043 9.4043-5.218 0-9.4121-4.1862-9.4121-9.4043 0-5.218 4.1941-9.4063 9.4121-9.4062z" color="#000000" color-rendering="auto" dominant-baseline="auto" fill="#32ccf1" image-rendering="auto" opacity=".25" shape-rendering="auto" solid-color="#000000" style="font-feature-settings:normal;font-variant-alternates:normal;font-variant-caps:normal;font-variant-ligatures:normal;font-variant-numeric:normal;font-variant-position:normal;isolation:auto;mix-blend-mode:normal;shape-padding:0;text-decoration-color:#000000;text-decoration-line:none;text-decoration-style:solid;text-indent:0;text-orientation:mixed;text-transform:none;white-space:normal"/>
</g>
</svg>
