<?xml version="1.0" encoding="UTF-8" standalone="no"?>
<!-- Created with Inkscape (http://www.inkscape.org/) -->

<svg
   xmlns:dc="http://purl.org/dc/elements/1.1/"
   xmlns:cc="http://creativecommons.org/ns#"
   xmlns:rdf="http://www.w3.org/1999/02/22-rdf-syntax-ns#"
   xmlns:svg="http://www.w3.org/2000/svg"
   xmlns="http://www.w3.org/2000/svg"
   xmlns:xlink="http://www.w3.org/1999/xlink"
   xmlns:sodipodi="http://sodipodi.sourceforge.net/DTD/sodipodi-0.dtd"
   xmlns:inkscape="http://www.inkscape.org/namespaces/inkscape"
   width="435.45883mm"
   height="261.27527mm"
   viewBox="0 0 435.45883 261.27527"
   version="1.1"
   id="svg8"
   inkscape:version="0.92.4 (5da689c313, 2019-01-14)"
   sodipodi:docname="default.svg"
   inkscape:export-filename="C:\Users\patri\Desktop\background.png"
   inkscape:export-xdpi="111.99223"
   inkscape:export-ydpi="111.99223">
  <defs
     id="defs2">
    <linearGradient
       inkscape:collect="always"
       id="linearGradient2510">
      <stop
         style="stop-color:#054b5f;stop-opacity:1"
         offset="0"
         id="stop2506" />
      <stop
         style="stop-color:#02151c;stop-opacity:1"
         offset="1"
         id="stop2508" />
    </linearGradient>
    <radialGradient
       inkscape:collect="always"
       xlink:href="#linearGradient2510"
       id="radialGradient2526"
       cx="104.32143"
       cy="149.3625"
       fx="104.32143"
       fy="149.3625"
       r="218.02966"
       gradientTransform="matrix(0.5824837,0,2.047648e-8,1.9059026,43.471247,-135.29403)"
       gradientUnits="userSpaceOnUse" />
  </defs>
  <sodipodi:namedview
     id="base"
     pagecolor="#ffffff"
     bordercolor="#666666"
     borderopacity="1.0"
     inkscape:pageopacity="0.0"
     inkscape:pageshadow="2"
     inkscape:zoom="0.5"
     inkscape:cx="836.0985"
     inkscape:cy="622.71471"
     inkscape:document-units="mm"
     inkscape:current-layer="layer1"
     showgrid="false"
     fit-margin-top="0"
     fit-margin-left="0"
     fit-margin-right="0"
     fit-margin-bottom="0"
     inkscape:window-width="1680"
     inkscape:window-height="987"
     inkscape:window-x="-8"
     inkscape:window-y="-8"
     inkscape:window-maximized="1"
     inkscape:snap-bbox="true"
     inkscape:snap-bbox-edge-midpoints="false"
     inkscape:snap-bbox-midpoints="false"
     inkscape:bbox-nodes="false"
     inkscape:bbox-paths="false"
     inkscape:snap-object-midpoints="true"
     inkscape:snap-page="true" />
  <metadata
     id="metadata5">
    <rdf:RDF>
      <cc:Work
         rdf:about="">
        <dc:format>image/svg+xml</dc:format>
        <dc:type
           rdf:resource="http://purl.org/dc/dcmitype/StillImage" />
        <dc:title></dc:title>
      </cc:Work>
    </rdf:RDF>
  </metadata>
  <g
     inkscape:label="Ebene 1"
     inkscape:groupmode="layer"
     id="layer1"
     transform="translate(113.40798,-18.724861)">
    <path
       style="opacity:1;vector-effect:none;fill:url(#radialGradient2526);fill-opacity:1;stroke:none;stroke-width:0.60044098;stroke-linecap:round;stroke-linejoin:miter;stroke-miterlimit:4;stroke-dasharray:none;stroke-dashoffset:0;stroke-opacity:1"
       d="M -113.40798,18.724861 H 322.05085 V 280.00013 h -435.45883 z"
       id="rect1055"
       inkscape:connector-curvature="0"
       sodipodi:nodetypes="ccccc" />
    <path
       style="color:#000000;font-style:normal;font-variant:normal;font-weight:normal;font-stretch:normal;font-size:medium;line-height:normal;font-family:sans-serif;font-variant-ligatures:normal;font-variant-position:normal;font-variant-caps:normal;font-variant-numeric:normal;font-variant-alternates:normal;font-feature-settings:normal;text-indent:0;text-align:start;text-decoration:none;text-decoration-line:none;text-decoration-style:solid;text-decoration-color:#000000;letter-spacing:normal;word-spacing:normal;text-transform:none;writing-mode:lr-tb;direction:ltr;text-orientation:mixed;dominant-baseline:auto;baseline-shift:baseline;text-anchor:start;white-space:normal;shape-padding:0;clip-rule:nonzero;display:inline;overflow:visible;visibility:visible;opacity:0.25;isolation:auto;mix-blend-mode:normal;color-interpolation:sRGB;color-interpolation-filters:linearRGB;solid-color:#000000;solid-opacity:1;vector-effect:none;fill:#32ccf1;fill-opacity:1;fill-rule:nonzero;stroke:none;stroke-width:1.88976383;stroke-linecap:round;stroke-linejoin:miter;stroke-miterlimit:4;stroke-dasharray:none;stroke-dashoffset:0;stroke-opacity:1;color-rendering:auto;image-rendering:auto;shape-rendering:auto;text-rendering:auto;enable-background:accumulate"
       d="M 1013.3926 6.9902344 C 1003.5677 6.9902344 995.56445 14.991558 995.56445 24.816406 C 995.56445 32.70157 1000.7253 39.407118 1007.8398 41.751953 L 981.96094 137.50977 C 980.00967 137.05543 977.98022 136.80664 975.89258 136.80664 C 966.81413 136.80664 958.78184 141.35432 953.94141 148.28711 L 830.69727 68.777344 C 831.82252 66.755813 832.46875 64.433139 832.46875 61.962891 C 832.46875 54.20911 826.14635 47.878906 818.39258 47.878906 C 810.6388 47.878906 804.31445 54.20911 804.31445 61.962891 C 804.31445 67.487576 807.53276 72.272116 812.18359 74.574219 L 786.52344 136.96289 C 785.47808 136.63271 784.36801 136.45312 783.2168 136.45312 C 777.1396 136.45312 772.16602 141.41889 772.16602 147.49609 C 772.16602 153.57329 777.1396 158.53906 783.2168 158.53906 C 789.294 158.53906 794.26172 153.57329 794.26172 147.49609 C 794.26172 143.23815 791.81786 139.53442 788.26758 137.69336 L 813.92969 75.298828 C 815.33473 75.771304 816.83177 76.039062 818.39258 76.039062 C 823.00288 76.039062 827.09397 73.793816 829.66406 70.351562 L 952.91406 149.86914 C 950.5148 153.87885 949.13281 158.56333 949.13281 163.56641 C 949.13281 169.68859 951.2039 175.33177 954.67578 179.8457 L 876.67188 244.19336 C 874.66491 242.1463 871.87455 240.86914 868.79688 240.86914 C 862.71966 240.86914 857.75195 245.83687 857.75195 251.91406 C 857.75195 257.99126 862.71966 262.96484 868.79688 262.96484 C 874.87403 262.96484 879.83984 257.99126 879.83984 251.91406 C 879.83984 249.59124 879.10875 247.43361 877.87305 245.65039 L 955.88086 181.30664 C 960.78654 186.8342 967.93779 190.32617 975.89258 190.32617 C 990.64853 190.32617 1002.6523 178.32237 1002.6523 163.56641 C 1002.6523 160.65681 1002.1789 157.85708 1001.3164 155.23242 L 1235.2012 69.265625 C 1237.8883 75.861997 1242.9696 81.236713 1249.3652 84.296875 L 1214.8184 163.42773 C 1212.9812 162.74246 1211.0036 162.34961 1208.9316 162.34961 C 1199.5999 162.34961 1191.9902 169.95147 1191.9902 179.2832 C 1191.9902 183.38073 1193.4586 187.14479 1195.8945 190.07812 L 1079.5566 297.91992 C 1073.8904 292.1671 1066.0182 288.59375 1057.3223 288.59375 C 1040.1007 288.59375 1026.0957 302.5988 1026.0957 319.82031 C 1026.0957 337.04184 1040.1007 351.04492 1057.3223 351.04492 C 1061.0265 351.04492 1064.5798 350.39345 1067.8789 349.20508 L 1095.7793 420.07422 C 1088.5058 423.3377 1083.416 430.63217 1083.416 439.10352 C 1083.416 450.60492 1092.7837 459.97266 1104.2852 459.97266 C 1112.0457 459.97266 1118.8226 455.70021 1122.418 449.39258 L 1192.1367 484.86914 C 1192.1367 484.86914 1192.1367 484.87109 1192.1367 484.87109 C 1191.4673 486.4474 1191.0957 488.17898 1191.0957 489.99414 C 1191.0957 497.2548 1197.0264 503.18555 1204.2871 503.18555 C 1207.862 503.18555 1211.1088 501.74235 1213.4883 499.41602 L 1300.3555 576.4375 C 1298.5393 578.70981 1297.2581 581.42226 1296.6973 584.38867 L 1177.6895 568.23242 C 1177.8197 567.01802 1177.8906 565.78563 1177.8906 564.53711 C 1177.8906 545.56362 1162.4637 530.14453 1143.4902 530.14453 C 1134.4268 530.14453 1126.1793 533.66842 1120.0312 539.41211 L 1070.8555 489.56445 C 1074.7325 485.41787 1077.1133 479.85584 1077.1133 473.74609 C 1077.1133 460.9626 1066.7093 450.56055 1053.9258 450.56055 C 1041.1422 450.56055 1030.7402 460.9626 1030.7402 473.74609 C 1030.7402 485.27716 1039.2054 494.86923 1050.2461 496.63867 L 1028.3086 680.53906 C 1027.8977 680.51146 1027.4881 680.47656 1027.0703 680.47656 C 1016.9484 680.47656 1008.7051 688.71988 1008.7051 698.8418 C 1008.7051 708.96371 1016.9484 717.2168 1027.0703 717.2168 C 1037.1922 717.2168 1045.4375 708.96371 1045.4375 698.8418 C 1045.4375 697.82298 1045.3325 696.82973 1045.1719 695.85547 L 1176.4453 667.11133 C 1178.129 672.84684 1183.4417 677.05859 1189.709 677.05859 C 1190.5267 677.05859 1191.3242 676.97329 1192.1035 676.83594 L 1220.5176 791.51367 C 1214.8545 793.33729 1210.7324 798.65782 1210.7324 804.91211 C 1210.7324 812.66298 1217.0597 818.99023 1224.8105 818.99023 C 1232.5614 818.99023 1238.8867 812.66298 1238.8867 804.91211 C 1238.8867 797.16121 1232.5614 790.83594 1224.8105 790.83594 C 1223.9706 790.83594 1223.1519 790.92404 1222.3516 791.06641 L 1193.9395 676.38867 C 1199.491 674.59426 1203.5273 669.37624 1203.5273 663.24023 C 1203.5273 660.96598 1202.9626 658.82213 1201.9824 656.92578 L 1299.5098 597.96484 C 1302.7848 602.77817 1308.3054 605.94922 1314.5508 605.94922 C 1324.5729 605.94922 1332.7402 597.78968 1332.7402 587.76758 C 1332.7402 577.74548 1324.5729 569.57813 1314.5508 569.57812 C 1309.4877 569.57812 1304.904 571.66642 1301.6035 575.02148 L 1214.7363 498 C 1216.4447 495.77535 1217.4727 493.00297 1217.4727 489.99414 C 1217.4727 486.64621 1216.2024 483.59322 1214.1328 481.26367 L 1340.4355 351.94727 C 1344.0298 355.14867 1348.748 357.11328 1353.9258 357.11328 C 1365.1313 357.11328 1374.2559 347.98878 1374.2559 336.7832 C 1374.2559 325.57766 1365.1313 316.45312 1353.9258 316.45312 C 1350.4526 316.45312 1347.182 317.33349 1344.3184 318.87695 L 1311.8184 264.54492 C 1320.3674 259.0525 1326.0449 249.4657 1326.0449 238.56641 C 1326.0449 221.54214 1312.2059 207.70313 1295.1816 207.70312 C 1284.9792 207.70312 1275.9226 212.67678 1270.2988 220.32422 L 1223.377 188.07031 C 1224.9448 185.50416 1225.8652 182.50193 1225.8652 179.2832 C 1225.8652 172.69378 1222.0662 166.98239 1216.5527 164.18555 L 1251.0996 85.048828 C 1254.3644 86.351682 1257.92 87.076172 1261.6445 87.076172 C 1277.3867 87.076172 1290.1836 74.271479 1290.1836 58.529297 C 1290.1836 42.787111 1277.3867 29.992188 1261.6445 29.992188 C 1245.9023 29.992188 1233.0996 42.787111 1233.0996 58.529297 C 1233.0996 61.658464 1233.6126 64.668743 1234.5469 67.488281 L 1000.6641 153.45508 C 997.64914 146.09601 991.45054 140.36672 983.78711 137.99609 L 1009.6641 42.251953 C 1010.8681 42.50997 1012.1132 42.652344 1013.3926 42.652344 C 1023.2174 42.652344 1031.2187 34.64125 1031.2188 24.816406 C 1031.2188 14.991558 1023.2174 6.9902344 1013.3926 6.9902344 z M 1013.3926 10.769531 C 1021.1748 10.769531 1027.4395 17.034166 1027.4395 24.816406 C 1027.4395 32.598642 1021.1748 38.873047 1013.3926 38.873047 C 1005.6103 38.873047 999.34375 32.598642 999.34375 24.816406 C 999.34375 17.034166 1005.6103 10.769531 1013.3926 10.769531 z M 1536.4434 30.951172 C 1527.2977 30.951172 1519.8418 38.407128 1519.8418 47.552734 C 1519.8418 51.571805 1521.2834 55.262848 1523.6738 58.138672 L 1406.6309 167.01758 C 1400.9634 161.28119 1393.0995 157.7207 1384.4141 157.7207 C 1367.179 157.7207 1353.166 171.73372 1353.166 188.96875 C 1353.166 206.20379 1367.179 220.21484 1384.4141 220.21484 C 1388.2207 220.21484 1391.8682 219.52812 1395.2441 218.27734 L 1423.6055 288.44141 C 1416.3253 291.78526 1411.2539 299.14161 1411.2539 307.66211 C 1411.2539 319.31825 1420.7403 328.81055 1432.3965 328.81055 C 1440.198 328.81055 1447.0141 324.54749 1450.6797 318.24023 L 1520.8613 354.74805 C 1520.2076 356.26665 1519.8418 357.93709 1519.8418 359.68945 C 1519.8418 366.60349 1525.4844 372.24609 1532.3984 372.24609 C 1539.3125 372.24609 1544.9629 366.60349 1544.9629 359.68945 C 1544.9629 354.66922 1541.9779 350.32692 1537.6992 348.31836 L 1577.9453 241.67969 C 1579.515 242.17413 1581.1825 242.44336 1582.9121 242.44336 C 1592.0577 242.44336 1599.5078 234.98545 1599.5078 225.83984 C 1599.5078 218.94257 1595.268 213.01163 1589.2617 210.50977 L 1614.7617 137.42969 C 1617.7807 138.38513 1620.9924 138.9043 1624.3242 138.9043 C 1632.6153 138.9043 1640.1688 135.70829 1645.8281 130.48828 L 1645.8281 125.05273 C 1640.7013 131.20943 1632.9785 135.125 1624.3242 135.125 C 1608.8528 135.125 1596.3555 122.61786 1596.3555 107.14648 C 1596.3555 91.675119 1608.8528 79.177734 1624.3242 79.177734 C 1632.9785 79.177734 1640.7013 83.090203 1645.8281 89.244141 L 1645.8281 83.808594 C 1640.1688 78.590975 1632.6152 75.398437 1624.3242 75.398438 C 1613.7481 75.398438 1604.3734 80.593571 1598.6016 88.5625 L 1550.6699 56.058594 C 1552.1677 53.566929 1553.0449 50.662878 1553.0449 47.552734 C 1553.0449 38.407128 1545.5889 30.951176 1536.4434 30.951172 z M 1261.6445 33.771484 C 1275.3441 33.771484 1286.4043 44.829719 1286.4043 58.529297 C 1286.4043 72.228871 1275.3441 83.296875 1261.6445 83.296875 C 1247.945 83.296875 1236.8789 72.228871 1236.8789 58.529297 C 1236.8789 44.829719 1247.945 33.771484 1261.6445 33.771484 z M 1536.4434 34.730469 C 1543.5463 34.730469 1549.2656 40.449736 1549.2656 47.552734 C 1549.2656 54.655729 1543.5463 60.367187 1536.4434 60.367188 C 1529.3403 60.367188 1523.6211 54.655729 1523.6211 47.552734 C 1523.6211 40.449736 1529.3403 34.730473 1536.4434 34.730469 z M 58.574219 46.423828 C 48.93021 46.423832 41.072266 54.281757 41.072266 63.925781 C 41.072266 71.594309 46.047546 78.117373 52.931641 80.474609 L 26.724609 173.66992 C 24.566959 173.14032 22.314903 172.85352 19.996094 172.85352 C 12.187174 172.85352 5.1124098 176.04088 0 181.18164 L 0 187.01367 C 4.4166477 180.73279 11.715057 176.63281 19.996094 176.63281 C 33.514859 176.63281 44.4375 187.54766 44.4375 201.06641 C 44.4375 214.58516 33.514859 225.50781 19.996094 225.50781 C 11.715401 225.50781 4.4167041 221.40575 0 215.12305 L 0 220.95508 C 5.1124098 226.0978 12.187174 229.28711 19.996094 229.28711 C 35.557467 229.28711 48.216797 216.62777 48.216797 201.06641 C 48.216797 198.04141 47.732727 195.12806 46.847656 192.39453 L 280.88867 108.00391 C 283.53662 114.62172 288.61373 120.01071 295.01953 123.05469 L 260.76953 202.19531 C 258.98767 201.53929 257.07224 201.16211 255.06641 201.16211 C 245.9208 201.16211 238.46289 208.61221 238.46289 217.75781 C 238.46289 221.7361 239.87523 225.39358 242.22266 228.25781 L 124.52344 336.21094 C 118.93855 330.48794 111.14718 326.92773 102.5332 326.92773 C 85.577118 326.92773 71.787106 340.70992 71.787109 357.66602 C 71.787109 374.62211 85.577118 388.41211 102.5332 388.41211 C 106.29432 388.41211 109.89745 387.72933 113.23047 386.48828 L 142.18359 457.66211 C 134.9244 461.01444 129.86914 468.35733 129.86914 476.86133 C 129.86914 488.51747 139.36146 498.01172 151.01758 498.01172 C 158.78716 498.01172 165.57756 493.78087 169.25391 487.51562 L 237.60156 523.43164 C 236.86086 525.10412 236.44141 526.94756 236.44141 528.88867 C 236.44141 536.36057 242.54372 542.45703 250.01562 542.45703 C 257.48755 542.45703 263.58398 536.36057 263.58398 528.88867 C 263.58398 523.43873 260.33252 518.73399 255.67773 516.58008 L 296.22656 409.39453 C 297.74322 409.87058 299.35485 410.12891 301.02539 410.12891 C 309.89205 410.12891 317.11719 402.89596 317.11719 394.0293 C 317.11719 387.30973 312.96465 381.54044 307.0957 379.13672 L 337.30078 290.43359 C 338.45942 290.74379 339.66949 290.92578 340.92383 290.92578 C 348.6747 290.92578 355.00195 284.6083 355.00195 276.85742 C 355.00195 269.10655 348.6747 262.7793 340.92383 262.7793 C 336.46707 262.7793 332.49112 264.87724 329.91016 268.12891 L 269.22656 226.36328 C 270.76004 223.84902 271.66016 220.90926 271.66016 217.75781 C 271.66016 211.28754 267.92344 205.6806 262.50391 202.94531 L 296.75391 123.80469 C 299.95567 125.06957 303.43919 125.77148 307.08594 125.77148 C 313.51833 125.77148 319.45158 123.6037 324.20312 119.9668 L 362.07812 166.25781 C 359.67583 168.54767 358.16797 171.76796 358.16797 175.33398 C 358.16797 182.24802 363.81057 187.89063 370.72461 187.89062 C 371.32904 187.89062 371.91977 187.83332 372.50195 187.75 L 390.73633 270.3125 C 376.96857 273.78476 366.75391 286.26507 366.75391 301.09961 C 366.75391 318.61358 380.98992 332.84766 398.50391 332.84766 C 414.42109 332.84766 427.63286 321.08971 429.91016 305.79883 L 610.08789 327.31055 C 610.05969 327.72741 610.02344 328.14256 610.02344 328.56641 C 610.02344 338.78576 618.35488 347.10936 628.57422 347.10938 C 638.79355 347.10938 647.11719 338.78576 647.11719 328.56641 C 647.11719 318.34709 638.79355 310.02344 628.57422 310.02344 C 619.42395 310.02344 611.8082 316.70341 610.31055 325.43555 L 430.12695 303.92383 C 430.20945 302.99249 430.25977 302.05211 430.25977 301.09961 C 430.25977 299.60916 430.14874 298.1452 429.94922 296.70898 L 523.73828 280.76172 C 525.90366 290.90651 534.9337 298.54492 545.71289 298.54492 C 558.10191 298.54492 568.19141 288.45543 568.19141 276.06641 C 568.19141 263.67738 558.10191 253.5957 545.71289 253.5957 C 533.32386 253.5957 523.24219 263.67738 523.24219 276.06641 C 523.24219 277.02655 523.31029 277.97149 523.42773 278.90039 L 429.63867 294.84766 C 429.20943 292.70579 428.56619 290.64118 427.72852 288.67773 L 681.28711 171.91602 C 683.48152 175.85996 687.68833 178.54492 692.50195 178.54492 C 699.56538 178.54492 705.33203 172.77045 705.33203 165.70703 C 705.33203 158.64361 699.56538 152.87891 692.50195 152.87891 C 685.43853 152.87891 679.67187 158.64361 679.67188 165.70703 C 679.67188 167.28617 679.97349 168.79514 680.5 170.19531 L 426.93359 286.96875 C 425.9879 285.07385 424.85654 283.28761 423.56641 281.63086 L 589.00391 144.99805 C 592.13362 148.38064 596.5941 150.51563 601.54883 150.51562 C 610.97338 150.51562 618.65234 142.83666 618.65234 133.41211 C 618.65234 123.98756 610.97338 116.30859 601.54883 116.30859 C 592.12428 116.30859 584.4375 123.98756 584.4375 133.41211 C 584.4375 137.20289 585.6968 140.6992 587.79688 143.53906 L 422.35742 280.16992 C 420.91595 278.52958 419.31373 277.03564 417.56641 275.7207 L 548.77734 89.101562 C 550.66479 90.237611 552.86369 90.904297 555.2168 90.904297 C 562.13084 90.904297 567.77344 85.253881 567.77344 78.339844 C 567.77344 71.425807 562.13084 65.783203 555.2168 65.783203 C 548.30277 65.783203 542.65234 71.425807 542.65234 78.339844 C 542.65234 82.226026 544.43729 85.71269 547.22852 88.021484 L 416.02344 274.63281 C 413.60821 273.02971 410.96251 271.74854 408.14648 270.84961 L 460.25195 112.45312 C 461.8718 112.84153 463.55997 113.05469 465.29688 113.05469 C 477.23193 113.05469 486.94727 103.33936 486.94727 91.404297 C 486.94727 79.469233 477.23193 69.751952 465.29688 69.751953 C 453.36181 69.751953 443.64453 79.469233 443.64453 91.404297 C 443.64453 100.94151 449.85234 109.05587 458.43555 111.93359 L 406.33203 270.32617 C 403.82691 269.68919 401.20491 269.34961 398.50391 269.34961 C 396.47953 269.34961 394.5019 269.54864 392.58203 269.91211 L 374.35156 187.34961 C 379.50902 185.78602 383.28906 180.98745 383.28906 175.33398 C 383.28906 168.41995 377.63864 162.77734 370.72461 162.77734 C 368.05444 162.77734 365.57819 163.62527 363.53906 165.05664 L 325.66211 118.76758 C 331.56711 113.59119 335.30664 106.00224 335.30664 97.550781 C 335.30664 81.989423 322.6473 69.337891 307.08594 69.337891 C 291.52458 69.337891 278.87305 81.989423 278.87305 97.550781 C 278.87305 100.57725 279.35677 103.49141 280.24219 106.22656 L 46.201172 190.61133 C 43.082622 182.82536 36.594335 176.74285 28.544922 174.17969 L 54.753906 80.994141 C 55.985297 81.270091 57.261304 81.427734 58.574219 81.427734 C 68.218243 81.427734 76.076172 73.569805 76.076172 63.925781 C 76.076172 54.281757 68.218243 46.423832 58.574219 46.423828 z M 58.574219 50.203125 C 66.175635 50.203125 72.296875 56.324365 72.296875 63.925781 C 72.296875 71.527197 66.175635 77.648438 58.574219 77.648438 C 50.972803 77.648438 44.851562 71.527197 44.851562 63.925781 C 44.851562 56.324365 50.972803 50.203125 58.574219 50.203125 z M 818.39258 51.658203 C 824.10375 51.658203 828.68945 56.251718 828.68945 61.962891 C 828.68945 67.674059 824.10375 72.259766 818.39258 72.259766 C 812.68141 72.259766 808.09375 67.674059 808.09375 61.962891 C 808.09375 56.251718 812.68141 51.658203 818.39258 51.658203 z M 1549.6055 57.623047 L 1597.5391 90.128906 C 1594.4023 95.05065 1592.5762 100.88648 1592.5762 107.14648 C 1592.5762 111.37515 1593.4126 115.41058 1594.918 119.10352 L 1536.125 145.07617 L 1537.1738 64.111328 C 1542.2324 63.889124 1546.7067 61.398576 1549.6055 57.623047 z M 1524.9688 59.511719 C 1525.6931 60.206598 1526.4761 60.84069 1527.3164 61.396484 L 1465.1289 168.58594 C 1463.4754 167.78079 1461.6279 167.31641 1459.6719 167.31641 C 1452.7578 167.31641 1447.1074 172.96683 1447.1074 179.88086 C 1447.1074 180.07056 1447.1268 180.25567 1447.1348 180.44336 L 1415.3086 184.28711 C 1414.3993 178.25551 1411.7572 172.78874 1407.9121 168.40039 L 1524.9688 59.511719 z M 1528.957 62.341797 C 1530.8828 63.320995 1533.0199 63.931884 1535.2832 64.089844 L 1534.2227 145.91602 L 1470.7363 173.95898 C 1469.7835 172.18704 1468.4175 170.67006 1466.7695 169.5332 L 1528.957 62.341797 z M 555.2168 69.5625 C 560.08823 69.5625 563.99414 73.468415 563.99414 78.339844 C 563.99414 83.211273 560.08823 87.125 555.2168 87.125 C 550.34537 87.125 546.43164 83.211273 546.43164 78.339844 C 546.43164 73.468415 550.34537 69.562504 555.2168 69.5625 z M 307.08594 73.117188 C 320.60469 73.117188 331.52734 84.032031 331.52734 97.550781 C 331.52734 111.06954 320.60469 121.99219 307.08594 121.99219 C 293.56718 121.99219 282.65234 111.06954 282.65234 97.550781 C 282.65234 84.032031 293.56718 73.117189 307.08594 73.117188 z M 465.29688 73.53125 C 475.18932 73.53125 483.16797 81.511841 483.16797 91.404297 C 483.16797 101.29675 475.18932 109.27539 465.29688 109.27539 C 455.40442 109.27539 447.42383 101.29675 447.42383 91.404297 C 447.42383 81.511841 455.40442 73.53125 465.29688 73.53125 z M 601.54883 120.08789 C 608.93077 120.08789 614.87305 126.03017 614.87305 133.41211 C 614.87305 140.79405 608.93077 146.73633 601.54883 146.73633 C 594.16689 146.73633 588.2168 140.79405 588.2168 133.41211 C 588.2168 126.03017 594.16689 120.08789 601.54883 120.08789 z M 1595.6797 120.83398 C 1597.2089 124.02478 1599.2562 126.91988 1601.7109 129.41406 L 1535.4297 198.66016 L 1536.0977 147.1543 L 1595.6797 120.83398 z M 1603.0762 130.72266 C 1605.95 133.31674 1609.3 135.38894 1612.9766 136.80078 L 1587.4727 209.89258 C 1586.0212 209.47579 1584.495 209.23828 1582.9121 209.23828 C 1573.7665 209.23828 1566.3105 216.69424 1566.3105 225.83984 C 1566.3105 228.37175 1566.8994 230.76524 1567.9199 232.91602 L 1534.7539 250.94531 L 1535.3945 201.42969 L 1603.0762 130.72266 z M 783.2168 140.23242 C 787.25139 140.23242 790.48047 143.4615 790.48047 147.49609 C 790.48047 151.53068 787.25139 154.75977 783.2168 154.75977 C 779.18221 154.75977 775.94727 151.53068 775.94727 147.49609 C 775.94727 143.4615 779.18221 140.23242 783.2168 140.23242 z M 975.89258 140.58789 C 988.60593 140.58789 998.87305 150.85305 998.87305 163.56641 C 998.87305 176.27976 988.60593 186.54688 975.89258 186.54688 C 963.17919 186.54688 952.91211 176.27976 952.91211 163.56641 C 952.91211 150.85305 963.17919 140.58789 975.89258 140.58789 z M 1534.1953 147.99414 L 1533.5137 200.66406 L 1488.2305 247.97266 L 1465.2305 191.11914 C 1469.367 189.06081 1472.2285 184.79875 1472.2285 179.88086 C 1472.2285 178.41184 1471.9597 177.00622 1471.4922 175.69336 L 1534.1953 147.99414 z M 692.50195 156.6582 C 697.52277 156.6582 701.55273 160.68622 701.55273 165.70703 C 701.55273 170.72785 697.52277 174.76563 692.50195 174.76562 C 687.48114 174.76562 683.45117 170.72785 683.45117 165.70703 C 683.45117 160.68622 687.48114 156.6582 692.50195 156.6582 z M 1384.4141 161.5 C 1399.6065 161.5 1411.8809 173.77632 1411.8809 188.96875 C 1411.8809 204.16118 1399.6065 216.43555 1384.4141 216.43555 C 1369.2216 216.43555 1356.9453 204.16118 1356.9453 188.96875 C 1356.9453 173.77632 1369.2216 161.5 1384.4141 161.5 z M 1208.9316 166.12891 C 1216.2208 166.12891 1222.0859 171.99408 1222.0859 179.2832 C 1222.0859 186.57233 1216.2208 192.4375 1208.9316 192.4375 C 1201.6425 192.4375 1195.7695 186.57233 1195.7695 179.2832 C 1195.7695 171.99408 1201.6425 166.12891 1208.9316 166.12891 z M 370.72461 166.55664 C 375.59603 166.55664 379.50977 170.46256 379.50977 175.33398 C 379.50977 180.20541 375.59603 184.11133 370.72461 184.11133 C 365.85318 184.11133 361.94727 180.20541 361.94727 175.33398 C 361.94727 170.46256 365.85318 166.55664 370.72461 166.55664 z M 1459.6719 171.0957 C 1464.5433 171.0957 1468.4492 175.00943 1468.4492 179.88086 C 1468.4492 184.75229 1464.5433 188.6582 1459.6719 188.6582 C 1454.8004 188.6582 1450.8867 184.75229 1450.8867 179.88086 C 1450.8867 175.00943 1454.8004 171.0957 1459.6719 171.0957 z M 1447.3496 182.32031 C 1448.2617 186.91174 1451.6955 190.61003 1456.1348 191.91992 L 1435.8809 286.8125 C 1434.7464 286.62343 1433.5836 286.51953 1432.3965 286.51953 C 1429.93 286.51953 1427.5622 286.94831 1425.3594 287.72852 L 1396.9961 217.5625 C 1407.9771 212.71375 1415.6602 201.72799 1415.6602 188.96875 C 1415.6602 188.02421 1415.6092 187.09138 1415.5273 186.16797 L 1447.3496 182.32031 z M 1222.3066 189.62695 L 1269.2305 221.88086 C 1266.1231 226.69535 1264.3105 232.42033 1264.3105 238.56641 C 1264.3105 242.72084 1265.1406 246.68249 1266.6348 250.30273 L 1208.4219 276.35547 L 1209.6211 196.18164 C 1214.7752 195.9723 1219.3382 193.45536 1222.3066 189.62695 z M 1197.1855 191.45508 C 1197.9501 192.19246 1198.7823 192.85862 1199.6738 193.44336 L 1138.1816 300.12695 C 1136.5734 299.35308 1134.78 298.90625 1132.8828 298.90625 C 1126.1153 298.90625 1120.5918 304.42971 1120.5918 311.19727 C 1120.5918 311.34946 1120.6102 311.49754 1120.6152 311.64844 L 1088.2227 315.3457 C 1087.3457 309.25835 1084.7051 303.73782 1080.8398 299.31055 L 1197.1855 191.45508 z M 1463.4863 191.83984 L 1486.7988 249.4668 L 1446.3027 291.77539 C 1443.8673 289.64191 1440.9527 288.04214 1437.7285 287.20117 L 1457.9844 192.31055 C 1458.5377 192.38565 1459.0986 192.4375 1459.6719 192.4375 C 1461.0011 192.4375 1462.2822 192.22588 1463.4863 191.83984 z M 1201.3184 194.38477 C 1203.2721 195.37395 1205.4374 195.99391 1207.7305 196.15625 L 1206.5195 277.20703 L 1143.6797 305.33008 C 1142.7451 303.62265 1141.4164 302.16171 1139.8184 301.06445 L 1201.3184 194.38477 z M 1533.4785 203.43164 L 1532.8496 251.98047 L 1497.6016 271.14062 L 1489.0059 249.89258 L 1533.4785 203.43164 z M 255.06641 204.94336 C 262.1694 204.94336 267.88086 210.65481 267.88086 217.75781 C 267.88086 224.86081 262.1694 230.58008 255.06641 230.58008 C 247.96341 230.58008 242.24414 224.86081 242.24414 217.75781 C 242.24414 210.65481 247.96341 204.94336 255.06641 204.94336 z M 1295.1816 211.48242 C 1310.1633 211.48242 1322.2656 223.58474 1322.2656 238.56641 C 1322.2656 253.54807 1310.1633 265.65039 1295.1816 265.65039 C 1280.2 265.65039 1268.0898 253.54807 1268.0898 238.56641 C 1268.0898 223.58474 1280.2 211.48242 1295.1816 211.48242 z M 1582.9121 213.01758 C 1590.0151 213.01758 1595.7266 218.73685 1595.7266 225.83984 C 1595.7266 232.94284 1590.0151 238.66211 1582.9121 238.66211 C 1575.8091 238.66211 1570.0898 232.94284 1570.0898 225.83984 C 1570.0898 218.73685 1575.8091 213.01758 1582.9121 213.01758 z M 268.1543 227.92188 L 328.84375 269.68555 C 327.58908 271.79041 326.85352 274.23818 326.85352 276.85742 C 326.85352 278.5602 327.17426 280.18658 327.73242 281.69922 L 254.4375 314.37695 L 255.74023 234.32422 C 260.78106 234.11979 265.24481 231.6621 268.1543 227.92188 z M 243.50781 229.64453 C 244.23685 230.35354 245.02466 230.99947 245.87305 231.56641 L 183.54688 337.88672 C 181.80509 337.02442 179.85375 336.52539 177.78516 336.52539 C 170.59217 336.52539 164.71875 342.39101 164.71875 349.58398 C 164.71875 349.73626 164.73699 349.88411 164.74219 350.03516 L 132.97461 353.44727 C 132.14701 347.44179 129.58164 341.98771 125.80078 337.60742 L 243.50781 229.64453 z M 247.50586 232.51758 C 249.4355 233.51108 251.58155 234.13095 253.85352 234.29688 L 252.53711 315.22461 L 189.29297 343.41992 C 188.30405 341.58529 186.88882 340.01455 185.18164 338.83594 L 247.50586 232.51758 z M 1568.8242 234.57617 C 1570.5749 237.38707 1573.1323 239.63898 1576.1797 241 L 1535.9414 347.64453 C 1535.1581 347.41269 1534.3455 347.25579 1533.5078 347.18164 L 1534.7246 253.11328 L 1568.8242 234.57617 z M 868.79688 244.65039 C 872.83143 244.65039 876.06055 247.87947 876.06055 251.91406 C 876.06055 255.94866 872.83143 259.18555 868.79688 259.18555 C 864.76227 259.18555 861.53125 255.94866 861.53125 251.91406 C 861.53125 247.87947 864.76227 244.65039 868.79688 244.65039 z M 1487.5762 251.38867 L 1495.9336 272.04883 L 1450.4805 296.75781 C 1449.6759 295.42983 1448.7353 294.19668 1447.668 293.08008 L 1487.5762 251.38867 z M 1267.4082 252.03125 C 1268.8953 255.08561 1270.871 257.85937 1273.2344 260.25 L 1207.6348 329.16406 L 1208.3926 278.44141 L 1267.4082 252.03125 z M 1532.8203 254.14844 L 1531.6152 347.16406 C 1530.5646 347.22966 1529.5462 347.41414 1528.5801 347.72461 L 1498.3164 272.90625 L 1532.8203 254.14844 z M 545.71289 257.37695 C 556.05931 257.37695 564.41016 265.71999 564.41016 276.06641 C 564.41016 286.41282 556.05931 294.76563 545.71289 294.76562 C 535.36647 294.76562 527.02148 286.41282 527.02148 276.06641 C 527.02148 265.71999 535.36647 257.37695 545.71289 257.37695 z M 1274.6016 261.54883 C 1277.4562 264.10628 1280.7874 266.14143 1284.4453 267.50195 L 1260.1973 339.60547 C 1258.7097 339.19168 1257.15 338.95312 1255.5332 338.95312 C 1245.9056 338.95312 1238.0605 346.79815 1238.0605 356.42578 C 1238.0605 359.12439 1238.6957 361.67203 1239.7949 363.95703 L 1206.8457 381.9668 L 1207.5938 331.94727 L 1274.6016 261.54883 z M 1310.1973 265.51953 L 1342.6992 319.85352 C 1337.2195 323.50025 1333.5957 329.72537 1333.5957 336.7832 C 1333.5957 337.81892 1333.6737 338.83743 1333.8242 339.83203 L 1272.4375 352.08594 C 1271.0424 346.66665 1267.1165 342.25804 1261.9902 340.20703 L 1286.2402 268.10547 C 1289.0723 268.96366 1292.0727 269.42969 1295.1816 269.42969 C 1300.6312 269.42969 1305.7499 268.0062 1310.1973 265.51953 z M 340.92383 266.55859 C 346.63209 266.55859 351.22266 271.14916 351.22266 276.85742 C 351.22266 282.56569 346.63209 287.14648 340.92383 287.14648 C 335.21556 287.14648 330.63477 282.56569 330.63477 276.85742 C 330.63477 271.14916 335.21556 266.55859 340.92383 266.55859 z M 398.50391 273.12891 C 413.97528 273.12891 426.48047 285.62823 426.48047 301.09961 C 426.48047 316.57097 413.97528 329.06836 398.50391 329.06836 C 383.03253 329.06836 370.5332 316.57097 370.5332 301.09961 C 370.5332 285.62823 383.03253 273.12891 398.50391 273.12891 z M 1496.6465 273.8125 L 1526.8359 348.44531 C 1524.7403 349.49004 1522.9787 351.1001 1521.7461 353.07812 L 1451.5664 316.57227 C 1452.832 313.86196 1453.5449 310.84397 1453.5449 307.66211 C 1453.5449 304.34408 1452.7736 301.20389 1451.4043 298.40625 L 1496.6465 273.8125 z M 1206.4883 279.29297 L 1205.7129 331.18164 L 1160.7461 378.41992 L 1138.3008 322.21484 C 1142.3652 320.20239 1145.1816 316.02057 1145.1816 311.19727 C 1145.1816 309.74479 1144.9144 308.3561 1144.4473 307.06055 L 1206.4883 279.29297 z M 328.49609 283.42969 C 329.06539 284.50039 329.7746 285.48233 330.58984 286.36719 L 253.57422 367.47656 L 254.4043 316.46094 L 328.49609 283.42969 z M 331.94922 287.67773 C 333.01393 288.56243 334.21006 289.29295 335.50391 289.83594 L 305.30078 378.5332 C 303.93656 378.15558 302.5074 377.9375 301.02539 377.9375 C 292.15873 377.9375 284.93359 385.16264 284.93359 394.0293 C 284.93359 396.51065 285.51606 398.85429 286.52539 400.95703 L 252.72852 419.61914 L 253.5293 370.26758 L 331.94922 287.67773 z M 1432.3965 290.29883 C 1442.01 290.29883 1449.7656 298.04861 1449.7656 307.66211 C 1449.7656 317.27564 1442.01 325.03125 1432.3965 325.03125 C 1422.783 325.03125 1415.0332 317.27564 1415.0332 307.66211 C 1415.0332 298.04861 1422.783 290.29883 1432.3965 290.29883 z M 1057.3223 292.37305 C 1072.5012 292.37305 1084.7676 304.6414 1084.7676 319.82031 C 1084.7676 334.99924 1072.5012 347.26563 1057.3223 347.26562 C 1042.1433 347.26562 1029.877 334.99924 1029.877 319.82031 C 1029.877 304.6414 1042.1433 292.37305 1057.3223 292.37305 z M 1132.8828 302.68555 C 1137.6078 302.68555 1141.4023 306.47232 1141.4023 311.19727 C 1141.4023 315.9222 1137.6078 319.7168 1132.8828 319.7168 C 1128.1579 319.7168 1124.3711 315.9222 1124.3711 311.19727 C 1124.3711 306.47232 1128.1579 302.68555 1132.8828 302.68555 z M 1120.8203 313.52539 C 1121.6861 318.00337 1124.9925 321.63281 1129.293 322.95508 L 1107.9102 418.5625 C 1106.7318 418.35503 1105.5219 418.24219 1104.2852 418.24219 C 1101.922 418.24219 1099.6515 418.64343 1097.5312 419.37109 L 1069.6328 348.51172 C 1080.747 343.72655 1088.5469 332.67172 1088.5469 319.82031 C 1088.5469 318.94503 1088.5009 318.07991 1088.4297 317.22266 L 1120.8203 313.52539 z M 628.57422 313.80273 C 636.75094 313.80273 643.33789 320.3897 643.33789 328.56641 C 643.33789 336.74315 636.75094 343.33008 628.57422 343.33008 C 620.39749 343.33008 613.80273 336.74315 613.80273 328.56641 C 613.80273 320.3897 620.39749 313.80273 628.57422 313.80273 z M 252.50195 317.30859 L 251.6543 369.5 L 206.13672 417.43945 L 183.52148 361.29883 C 187.85005 359.16595 190.84961 354.71846 190.84961 349.58398 C 190.84961 348.0262 190.55925 346.53757 190.05469 345.15039 L 252.50195 317.30859 z M 1353.9258 320.23242 C 1363.0887 320.23242 1370.4766 327.62027 1370.4766 336.7832 C 1370.4766 345.94614 1363.0887 353.33398 1353.9258 353.33398 C 1344.7628 353.33398 1337.377 345.94614 1337.377 336.7832 C 1337.377 327.62027 1344.7628 320.23242 1353.9258 320.23242 z M 1136.5566 322.93164 L 1159.3145 379.92383 L 1117.9512 423.37695 C 1115.6124 421.34311 1112.8295 419.81094 1109.7559 418.97461 L 1131.1328 323.35547 C 1131.7061 323.43817 1132.2874 323.49609 1132.8828 323.49609 C 1134.1613 323.49609 1135.3954 323.29749 1136.5566 322.93164 z M 102.5332 330.70703 C 117.44669 330.70703 129.49219 342.75253 129.49219 357.66602 C 129.49219 372.5795 117.44669 384.63281 102.5332 384.63281 C 87.619726 384.63281 75.568359 372.5795 75.568359 357.66602 C 75.568359 342.75253 87.619726 330.70703 102.5332 330.70703 z M 1205.6719 333.96484 L 1204.9395 383.00977 L 1170.1699 402.01562 L 1161.5176 380.35156 L 1205.6719 333.96484 z M 177.78516 340.30469 C 182.93553 340.30469 187.07031 344.43362 187.07031 349.58398 C 187.07031 354.73435 182.93553 358.86914 177.78516 358.86914 C 172.63478 358.86914 168.49805 354.73435 168.49805 349.58398 C 168.49805 344.43362 172.63478 340.30469 177.78516 340.30469 z M 1334.1953 341.68164 C 1335.0417 345.08695 1336.7626 348.14287 1339.0859 350.63086 L 1212.7891 479.93945 C 1211.9086 479.19375 1210.9258 478.56912 1209.8711 478.07227 L 1250.1699 373.04688 C 1251.8619 373.595 1253.6621 373.89844 1255.5332 373.89844 C 1265.1608 373.89844 1273.0059 366.05337 1273.0059 356.42578 C 1273.0059 355.57919 1272.9259 354.7524 1272.8086 353.9375 L 1334.1953 341.68164 z M 1255.5332 342.73242 C 1263.1182 342.73242 1269.2266 348.84076 1269.2266 356.42578 C 1269.2266 364.01076 1263.1182 370.11914 1255.5332 370.11914 C 1247.9482 370.11914 1241.8398 364.01076 1241.8398 356.42578 C 1241.8398 348.84076 1247.9482 342.73242 1255.5332 342.73242 z M 1532.3984 350.9043 C 1537.2699 350.9043 1541.1836 354.81802 1541.1836 359.68945 C 1541.1836 364.56089 1537.2699 368.4668 1532.3984 368.4668 C 1527.527 368.4668 1523.6211 364.56089 1523.6211 359.68945 C 1523.6211 354.81802 1527.527 350.9043 1532.3984 350.9043 z M 164.93945 351.91797 C 165.83091 356.81357 169.46305 360.76707 174.18164 362.12891 L 154.44141 456.00195 C 153.32616 455.81949 152.18345 455.7207 151.01758 455.7207 C 148.53436 455.7207 146.15149 456.15509 143.93555 456.94531 L 114.98438 385.76953 C 125.74864 380.98144 133.27148 370.19084 133.27148 357.66602 C 133.27148 356.87785 133.23223 356.09956 133.17383 355.32617 L 164.93945 351.91797 z M 181.77148 362.01758 L 204.70508 418.94727 L 164.85742 460.91406 C 162.42018 458.7976 159.50716 457.21365 156.28906 456.38477 L 176.03125 362.51562 C 176.60657 362.59362 177.18912 362.64844 177.78516 362.64844 C 179.17496 362.64844 180.51318 362.42315 181.77148 362.01758 z M 1240.7012 365.61133 C 1242.5362 368.56139 1245.2166 370.92635 1248.4102 372.36133 L 1208.1133 477.38281 C 1207.2518 477.12023 1206.3529 476.94928 1205.4277 476.86914 L 1206.8145 384.13477 L 1240.7012 365.61133 z M 251.61133 372.28906 L 250.82617 420.66992 L 215.33203 440.26953 L 206.91406 419.36914 L 251.61133 372.28906 z M 301.02539 381.7168 C 307.84944 381.7168 313.33789 387.20525 313.33789 394.0293 C 313.33789 400.85335 307.84944 406.34961 301.02539 406.34961 C 294.20134 406.34961 288.71289 400.85335 288.71289 394.0293 C 288.71289 387.20525 294.20134 381.7168 301.02539 381.7168 z M 1160.0859 381.85547 L 1168.502 402.92773 L 1122.0996 428.29492 C 1121.3036 426.98937 1120.3761 425.77498 1119.3223 424.67773 L 1160.0859 381.85547 z M 614.64453 383.59961 C 602.37554 383.59961 592.33457 393.32985 591.83594 405.47852 L 403.14453 405.47852 C 402.64718 395.89654 394.70493 388.24219 385.00195 388.24219 C 374.97986 388.24219 366.8125 396.40173 366.8125 406.42383 C 366.8125 416.44593 374.97986 424.61328 385.00195 424.61328 C 386.78972 424.61328 388.51453 424.34331 390.14844 423.85938 L 435.57227 552.59961 C 430.63839 554.7389 427.16602 559.65347 427.16602 565.35547 C 427.16602 566.78933 427.38414 568.17341 427.79102 569.47656 L 316.47656 612.56055 C 314.20127 607.70017 309.27628 604.31055 303.57227 604.31055 C 295.71987 604.31055 289.31055 610.71988 289.31055 618.57227 C 289.31055 626.42469 295.71987 632.82617 303.57227 632.82617 C 303.91812 632.82617 304.25785 632.79784 304.59766 632.77344 L 328.38867 803.30469 C 315.13739 805.60117 305.02539 817.16826 305.02539 831.06641 C 305.02539 846.61134 317.67186 859.25781 333.2168 859.25781 C 348.76174 859.25781 361.40234 846.61134 361.40234 831.06641 C 361.40234 827.9589 360.88954 824.97131 359.95703 822.17383 L 428.30078 796.85547 C 429.9189 800.3331 433.13063 802.928 436.99219 803.67578 L 424.71094 912.58398 C 424.21646 912.55018 423.71968 912.52539 423.2168 912.52539 C 411.22226 912.52539 401.45508 922.28673 401.45508 934.28125 C 401.45508 946.27581 411.22226 956.04297 423.2168 956.04297 C 433.48343 956.04297 442.10735 948.88421 444.38086 939.30078 L 696.11328 987.49805 L 706.73047 987.49805 C 707.94484 983.48771 711.65196 980.58789 716.07227 980.58789 C 720.49257 980.58789 724.19969 983.48771 725.41406 987.49805 L 729.30469 987.49805 C 728.5736 984.13045 726.5862 981.22176 723.85742 979.29297 L 772.58984 898.62305 C 774.90778 899.85554 777.54542 900.56055 780.3457 900.56055 C 789.49131 900.56055 796.94141 893.10457 796.94141 883.95898 C 796.94141 876.6176 792.13632 870.3732 785.51172 868.19141 L 832.04883 693.05664 C 834.31906 693.58728 836.68037 693.87931 839.10742 693.89258 L 841.37695 787.57617 C 829.87193 788.34023 820.74023 797.94204 820.74023 809.63672 C 820.74023 821.82849 830.66366 831.75391 842.85547 831.75391 C 855.04724 831.75391 864.97266 821.82849 864.97266 809.63672 C 864.97266 797.58237 855.26844 787.75154 843.26562 787.53125 L 840.99805 693.84961 C 843.20958 693.73151 845.35993 693.38324 847.42969 692.83398 L 926.06445 957.32031 C 921.08697 959.20922 917.52344 964.01737 917.52344 969.64062 C 917.52344 976.90129 923.45418 982.82422 930.71484 982.82422 C 937.97551 982.82422 943.89844 976.90129 943.89844 969.64062 C 943.89844 962.37998 937.97551 956.45508 930.71484 956.45508 C 929.73977 956.45508 928.79096 956.57084 927.875 956.77344 L 849.23438 692.29297 C 851.25229 691.62593 853.17913 690.76101 854.99609 689.72266 L 964.85547 869.88086 C 960.38185 872.9708 957.4375 878.12803 957.4375 883.95898 C 957.4375 893.38354 965.11646 901.0625 974.54102 901.0625 C 981.37474 901.0625 987.27914 897.01583 990.01758 891.20312 L 1219.2188 983.51758 C 1218.782 984.78765 1218.4853 986.12057 1218.3418 987.49805 L 1222.1445 987.49805 C 1223.0195 980.56694 1228.8987 975.23437 1236.0742 975.23438 C 1243.2499 975.23438 1249.1239 980.56694 1249.998 987.49805 L 1253.8125 987.49805 C 1252.9125 978.50771 1245.2963 971.45508 1236.0742 971.45508 C 1228.938 971.45508 1222.7767 975.68777 1219.9297 981.76367 L 990.72852 889.45508 C 991.31847 887.72724 991.65234 885.88275 991.65234 883.95898 C 991.65234 874.53443 983.96557 866.85352 974.54102 866.85352 C 971.62283 866.85352 968.87413 867.59211 966.4668 868.88867 L 856.61523 688.73438 C 858.46094 687.52824 860.17908 686.14239 861.73242 684.58984 L 1076.2324 886.74805 C 1074.4373 888.95456 1073.3555 891.76287 1073.3555 894.81641 C 1073.3555 901.86991 1079.1086 907.625 1086.1621 907.625 C 1093.2156 907.625 1098.9785 901.86991 1098.9785 894.81641 C 1098.9785 894.75841 1098.9687 894.70233 1098.9688 894.64453 L 1281.1504 878.75781 C 1282.8282 892.7267 1294.7373 903.58594 1309.1523 903.58594 C 1324.7136 903.58594 1337.375 890.93442 1337.375 875.37305 C 1337.375 872.17416 1336.833 869.10129 1335.8477 866.23242 L 1403.4121 840.54883 C 1405.195 844.35603 1408.7365 847.17966 1412.9844 847.95898 L 1401.0703 956.50781 C 1400.5969 956.47691 1400.1215 956.45508 1399.6406 956.45508 C 1387.6461 956.45508 1377.8867 966.21638 1377.8867 978.21094 C 1377.8867 981.53108 1378.6367 984.67914 1379.9727 987.49805 L 1384.2598 987.49805 C 1382.6242 984.78681 1381.668 981.61742 1381.668 978.21094 C 1381.668 968.25899 1389.6907 960.23437 1399.6426 960.23438 C 1409.5945 960.23438 1417.625 968.25899 1417.625 978.21094 C 1417.625 981.61761 1416.6663 984.78671 1415.0293 987.49805 L 1419.3145 987.49805 C 1420.6513 984.67911 1421.4023 981.53112 1421.4023 978.21094 C 1421.4023 977.67888 1421.3749 977.15347 1421.3379 976.63086 L 1542.7637 962.45898 C 1543.924 968.55009 1549.2952 973.18359 1555.7148 973.18359 C 1562.9755 973.18359 1568.9004 967.26066 1568.9004 960 C 1568.9004 958.09253 1568.4826 956.2811 1567.748 954.64062 L 1645.8281 912.91016 L 1645.8281 910.76758 L 1566.8496 952.97266 C 1565.6164 951.02683 1563.8964 949.42244 1561.8535 948.33984 L 1594.2559 874.35156 L 1645.8281 885.41797 L 1645.8281 883.48047 L 1595.0312 872.58008 L 1612.0215 833.78711 L 1645.8281 862.48633 L 1645.8281 860.01172 L 1612.8105 831.98438 L 1623.1367 808.40625 L 1645.8281 841.16211 L 1645.8281 837.8418 L 1624.0254 806.37109 L 1645.8281 756.58789 L 1645.8281 751.88281 L 1622.7637 804.54492 L 1587.4336 753.54883 C 1591.362 750.47616 1593.9043 745.7059 1593.9043 740.35156 C 1593.9043 737.31851 1593.0788 734.4777 1591.6602 732.01953 L 1645.8281 696.71094 L 1645.8281 694.45117 L 1590.623 730.44141 C 1587.566 726.29943 1582.6652 723.59375 1577.1406 723.59375 C 1570.3388 723.59375 1564.4758 727.68351 1561.8535 733.52539 L 1472.5586 699.54688 C 1473.6504 696.39761 1474.252 693.02094 1474.252 689.50391 C 1474.252 689.06966 1474.2367 688.6389 1474.2188 688.20898 L 1645.8281 675.70312 L 1645.8281 673.8125 L 1474.0859 686.32617 C 1472.4905 670.85885 1459.3867 658.75977 1443.5039 658.75977 C 1426.5478 658.75977 1412.7656 672.54781 1412.7656 689.50391 C 1412.7656 704.13644 1423.0323 716.39664 1436.7422 719.48438 L 1416.9238 821.91406 C 1416.4087 821.85246 1415.8885 821.81055 1415.3574 821.81055 C 1408.0967 821.81055 1402.1641 827.73348 1402.1641 834.99414 C 1402.1641 836.31197 1402.3651 837.58442 1402.7285 838.78711 L 1335.1816 864.4668 C 1330.9073 854.30547 1320.8493 847.15234 1309.1523 847.15234 C 1308.1943 847.15234 1307.2482 847.20124 1306.3145 847.29492 L 1283.1133 675.51367 C 1289.2765 674.23614 1293.9395 668.7587 1293.9395 662.22852 C 1293.9395 660.80925 1293.7167 659.44 1293.3086 658.15234 L 1405.0449 614.19922 C 1407.3094 618.9535 1412.1495 622.26367 1417.748 622.26367 C 1423.9657 622.26367 1429.2593 618.18819 1431.1133 612.57617 L 1518.5703 634.91992 C 1518.4166 635.75036 1518.3262 636.60274 1518.3262 637.47656 C 1518.3262 645.22747 1524.6457 651.55469 1532.3965 651.55469 C 1540.1474 651.55469 1546.4727 645.22747 1546.4727 637.47656 C 1546.4727 633.51702 1544.8162 629.93773 1542.168 627.37695 L 1605.7871 552.08594 C 1608.2179 553.88875 1611.2141 554.96875 1614.4609 554.96875 C 1622.5105 554.96875 1629.0762 548.40315 1629.0762 540.35352 C 1629.0762 532.30388 1622.5105 525.73633 1614.4609 525.73633 C 1606.4113 525.73633 1599.8438 532.30388 1599.8438 540.35352 C 1599.8438 544.47936 1601.5758 548.20727 1604.3418 550.86914 L 1540.7207 626.16211 C 1538.3845 624.43869 1535.5109 623.40625 1532.3965 623.40625 C 1526.1788 623.40625 1520.8911 627.47772 1519.0391 633.08789 L 1431.5801 610.74414 C 1431.7342 609.91284 1431.8262 609.06014 1431.8262 608.18555 C 1431.8262 600.43468 1425.4989 594.10742 1417.748 594.10742 C 1416.4246 594.10742 1415.1475 594.30395 1413.9316 594.64844 L 1368.8047 467.79688 C 1371.9199 466.50138 1374.5975 464.37647 1376.5918 461.70898 L 1482.6172 532.62891 C 1479.3286 537.83876 1477.416 544.00086 1477.416 550.60742 C 1477.416 569.2372 1492.5577 584.37891 1511.1875 584.37891 C 1529.8172 584.37891 1544.9609 569.2372 1544.9609 550.60742 C 1544.9609 540.24195 1540.2686 530.95888 1532.9004 524.75977 L 1577.0137 469.17383 C 1580.9081 472.02609 1585.7043 473.7168 1590.8906 473.7168 C 1603.8714 473.7168 1614.4395 463.15657 1614.4395 450.17578 C 1614.4395 437.19503 1603.8714 426.62891 1590.8906 426.62891 C 1578.2119 426.62891 1567.8488 436.71084 1567.373 449.27539 L 1380.2578 449.625 C 1379.7434 439.81861 1371.6149 431.98047 1361.6836 431.98047 C 1351.4223 431.98047 1343.0664 440.3421 1343.0664 450.60352 C 1343.0664 460.8649 1351.4223 469.2207 1361.6836 469.2207 C 1363.541 469.2207 1365.3327 468.93895 1367.0273 468.42969 L 1412.1504 595.2793 C 1407.1716 597.45299 1403.6719 602.42319 1403.6719 608.18555 C 1403.6719 609.6704 1403.9081 611.10138 1404.3379 612.44727 L 1292.5996 656.40039 C 1290.4082 651.83499 1285.7481 648.66016 1280.3633 648.66016 C 1272.8914 648.66016 1266.797 654.75662 1266.7969 662.22852 C 1266.7969 669.70045 1272.8914 675.79687 1280.3633 675.79688 C 1280.6575 675.79688 1280.9448 675.77055 1281.2344 675.75195 L 1304.4414 847.55273 C 1291.1175 849.80272 1280.9395 861.41759 1280.9395 875.37305 C 1280.9395 875.87791 1280.9545 876.37855 1280.9805 876.87695 L 1098.7949 892.76367 C 1097.8043 886.6808 1092.5138 882.00195 1086.1602 882.00195 C 1082.836 882.00195 1079.8098 883.29148 1077.5293 885.38281 L 863.02148 683.21289 C 864.95295 681.04048 866.59438 678.60501 867.87695 675.96289 L 1031.9258 749.32031 C 1030.9594 751.75602 1030.4219 754.407 1030.4219 757.18164 C 1030.4219 768.97724 1040.0267 778.58203 1051.8223 778.58203 C 1063.6179 778.58203 1073.2227 768.97724 1073.2227 757.18164 C 1073.2227 745.38604 1063.6179 735.78125 1051.8223 735.78125 C 1043.4716 735.78125 1036.2252 740.59867 1032.7012 747.5957 L 868.65039 674.23242 C 870.19163 670.50333 871.04688 666.42122 871.04688 662.14062 C 871.04688 661.54146 871.02704 660.94654 870.99414 660.35547 L 954.83984 653.13086 C 955.80955 659.09303 960.9906 663.67578 967.21875 663.67578 C 974.13279 663.67578 979.7832 658.03318 979.7832 651.11914 C 979.7832 644.2051 974.13279 638.55469 967.21875 638.55469 C 960.30471 638.55469 954.66211 644.2051 954.66211 651.11914 C 954.66211 651.16264 954.66697 651.20464 954.66797 651.24805 L 870.82812 658.4707 C 869.00296 642.67774 855.55897 630.38281 839.2832 630.38281 C 825.02831 630.38281 812.94449 639.81345 808.9375 652.76562 L 737.4375 632.98047 C 737.78494 631.46269 737.97461 629.88512 737.97461 628.26367 C 737.97461 616.60757 728.48815 607.11523 716.83203 607.11523 C 705.17592 607.11523 695.68359 616.60757 695.68359 628.26367 C 695.68359 628.43794 695.69257 628.60993 695.69727 628.7832 L 496.42383 642.62109 C 494.8707 626.94329 481.61835 614.66602 465.53711 614.66602 C 448.41422 614.66602 434.49023 628.58415 434.49023 645.70703 C 434.49023 660.62904 445.06623 673.12063 459.11719 676.08594 L 440.49023 779.72656 C 440.09401 779.68706 439.69336 779.66602 439.28711 779.66602 C 432.61818 779.66602 427.16602 785.11231 427.16602 791.78125 C 427.16602 792.92702 427.33633 794.03348 427.63672 795.08594 L 359.29883 820.39844 C 355.08505 810.13192 344.98667 802.88281 333.2168 802.88281 C 332.21697 802.88281 331.22911 802.93711 330.25586 803.03906 L 306.47461 632.52539 C 312.94252 631.17887 317.82617 625.43042 317.82617 618.57227 C 317.82617 617.09125 317.598 615.66144 317.17578 614.31641 L 428.49219 571.23438 C 430.71778 575.96179 435.52076 579.25586 441.07422 579.25586 C 447.25014 579.25586 452.50315 575.18833 454.30469 569.59766 L 541.3457 591.12695 C 541.1922 591.97881 541.09961 592.85115 541.09961 593.74609 C 541.09961 601.89438 547.74431 608.53906 555.89258 608.53906 C 564.04085 608.53906 570.68555 601.89438 570.68555 593.74609 C 570.68555 589.53079 568.89754 585.72803 566.05273 583.0293 L 629.95117 506.32422 C 632.17897 507.93656 634.90408 508.89844 637.85352 508.89844 C 645.31143 508.89844 651.39844 502.81143 651.39844 495.35352 C 651.39844 487.8956 645.31143 481.80664 637.85352 481.80664 C 630.3956 481.80664 624.31445 487.8956 624.31445 495.35352 C 624.31445 499.1839 625.92521 502.64508 628.49609 505.11328 L 564.59961 581.81836 C 562.15229 580.02559 559.14738 578.95313 555.89258 578.95312 C 549.29625 578.95312 543.68713 583.30934 541.78906 589.29102 L 454.75 567.76367 C 454.88821 566.97967 454.97461 566.17803 454.97461 565.35547 C 454.97461 557.70034 448.72937 551.45508 441.07422 551.45508 C 439.78402 551.45508 438.53888 551.64687 437.35156 551.97852 L 391.92773 423.23242 C 394.97182 421.97198 397.58905 419.90224 399.54102 417.30078 L 505.02539 487.96094 C 501.64038 493.30818 499.67187 499.63831 499.67188 506.42578 C 499.67188 525.52113 515.18982 541.03906 534.28516 541.03906 C 553.3805 541.03906 568.89844 525.52113 568.89844 506.42578 C 568.89844 495.8703 564.15016 486.41488 556.68359 480.0625 L 601.09961 424.78906 C 604.89198 427.59393 609.57796 429.25586 614.64453 429.25586 C 627.2308 429.25586 637.46875 419.01011 637.46875 406.42383 C 637.46875 393.83759 627.2308 383.59961 614.64453 383.59961 z M 1204.9082 385.17578 L 1203.5391 476.84766 C 1202.4142 476.91156 1201.3226 477.10515 1200.2891 477.43555 L 1170.873 403.7793 L 1204.9082 385.17578 z M 614.64453 387.37891 C 625.18819 387.37891 633.68945 395.88019 633.68945 406.42383 C 633.68945 416.9675 625.18819 425.47656 614.64453 425.47656 C 604.10087 425.47656 595.5918 416.9675 595.5918 406.42383 C 595.5918 395.88019 604.10087 387.37891 614.64453 387.37891 z M 385.00195 392.02148 C 392.98144 392.02148 399.41016 398.44434 399.41016 406.42383 C 399.41016 414.40332 392.98144 420.83398 385.00195 420.83398 C 377.02247 420.83398 370.5918 414.40332 370.5918 406.42383 C 370.5918 398.44434 377.02247 392.02148 385.00195 392.02148 z M 287.43945 402.61133 C 289.12754 405.2743 291.5665 407.40968 294.46484 408.71289 L 253.91992 515.90234 C 253.03895 515.63641 252.11919 515.46165 251.17383 515.38086 L 252.69336 421.79688 L 287.43945 402.61133 z M 1169.2051 404.69141 L 1198.5391 478.15039 C 1196.2472 479.26824 1194.3302 481.02662 1193.0137 483.19531 L 1123.2754 447.70703 C 1124.4716 445.07967 1125.1543 442.17198 1125.1543 439.10352 C 1125.1543 435.81495 1124.3685 432.71303 1123.0059 429.94336 L 1169.2051 404.69141 z M 403.14453 407.36914 L 591.83594 407.36914 C 592.10072 413.83111 595.06641 419.60666 599.63086 423.60156 L 555.21289 478.875 C 549.39738 474.44801 542.14645 471.8125 534.28516 471.8125 C 522.65194 471.8125 512.35405 477.5775 506.07617 486.39648 L 400.59375 415.73633 C 402.07776 413.26314 402.98638 410.41619 403.14453 407.36914 z M 205.48242 420.87695 L 213.66406 441.18945 L 169.02734 465.83594 C 168.22422 464.53043 167.29077 463.31513 166.23242 462.2168 L 205.48242 420.87695 z M 1104.2852 422.02148 C 1113.744 422.02148 1121.375 429.64468 1121.375 439.10352 C 1121.375 448.56231 1113.744 456.19336 1104.2852 456.19336 C 1094.8263 456.19336 1087.1973 448.56231 1087.1973 439.10352 C 1087.1973 429.64468 1094.8263 422.02148 1104.2852 422.02148 z M 250.79102 422.84766 L 249.29297 515.35938 C 248.09358 515.42327 246.93247 515.63257 245.83398 515.99023 L 216.04492 442.03516 L 250.79102 422.84766 z M 1590.8926 430.4082 C 1601.8308 430.4082 1610.6602 439.23764 1610.6602 450.17578 C 1610.6602 461.11396 1601.8308 469.9375 1590.8926 469.9375 C 1579.9544 469.9375 1571.1309 461.11396 1571.1309 450.17578 C 1571.1309 439.23764 1579.9544 430.4082 1590.8926 430.4082 z M 1361.6855 435.75977 C 1369.9044 435.75977 1376.5293 442.38471 1376.5293 450.60352 C 1376.5293 458.82229 1369.9044 465.44141 1361.6855 465.44141 C 1353.4668 465.44141 1346.8477 458.82229 1346.8477 450.60352 C 1346.8477 442.38471 1353.4668 435.75977 1361.6855 435.75977 z M 214.37695 442.95508 L 244.08398 516.70898 C 241.77909 517.83724 239.84081 519.59493 238.49219 521.76172 L 170.15234 485.85156 C 171.44126 483.12074 172.16602 480.07421 172.16602 476.86133 C 172.16602 473.49331 171.3692 470.30945 169.96094 467.48047 L 214.37695 442.95508 z M 1567.377 451.16602 C 1567.6568 457.88467 1570.7657 463.88137 1575.541 468 L 1531.4258 523.58203 C 1525.7828 519.34687 1518.7757 516.83398 1511.1895 516.83398 C 1499.841 516.83398 1489.7936 522.45881 1483.668 531.0625 L 1377.6465 460.14258 C 1379.1772 457.59426 1380.1103 454.65747 1380.2637 451.51367 L 1567.377 451.16602 z M 1053.9258 454.33984 C 1064.6667 454.33984 1073.334 463.00521 1073.334 473.74609 C 1073.334 484.48702 1064.6667 493.1543 1053.9258 493.1543 C 1043.1849 493.1543 1034.5195 484.48702 1034.5195 473.74609 C 1034.5195 463.00521 1043.1849 454.33984 1053.9258 454.33984 z M 151.01758 459.5 C 160.63109 459.5 168.38672 467.24784 168.38672 476.86133 C 168.38672 486.47486 160.63109 494.23047 151.01758 494.23047 C 141.40407 494.23047 133.64844 486.47486 133.64844 476.86133 C 133.64844 467.24784 141.40407 459.5 151.01758 459.5 z M 534.28516 475.5918 C 551.33789 475.5918 565.11914 489.37304 565.11914 506.42578 C 565.11914 523.47852 551.33789 537.25977 534.28516 537.25977 C 517.23243 537.25977 503.45117 523.47852 503.45117 506.42578 C 503.45117 489.37304 517.23243 475.5918 534.28516 475.5918 z M 1204.2871 480.58984 C 1209.5052 480.58984 1213.6934 484.77609 1213.6934 489.99414 C 1213.6934 495.21219 1209.5052 499.40625 1204.2871 499.40625 C 1199.0691 499.40625 1194.877 495.21219 1194.877 489.99414 C 1194.877 484.77609 1199.0691 480.58984 1204.2871 480.58984 z M 637.85352 485.58789 C 643.26882 485.58789 647.61914 489.93821 647.61914 495.35352 C 647.61914 500.76882 643.26882 505.11914 637.85352 505.11914 C 632.43821 505.11914 628.09375 500.76882 628.09375 495.35352 C 628.09375 489.93821 632.43821 485.58789 637.85352 485.58789 z M 100.35547 490.37891 C 87.769198 490.37891 77.523437 500.62466 77.523438 513.21094 C 77.523438 524.49349 85.759385 533.89012 96.53125 535.7168 L 73.146484 719.01953 C 72.695998 718.98593 72.24601 718.95117 71.787109 718.95117 C 61.765018 718.95117 53.599609 727.11855 53.599609 737.14062 C 53.599609 747.16268 61.765018 755.32812 71.787109 755.32812 C 81.809199 755.32812 89.96875 747.16268 89.96875 737.14062 C 89.96875 736.15662 89.868156 735.19814 89.716797 734.25586 L 221.58398 705.94531 C 223.25062 711.70929 228.57509 715.95313 234.86133 715.95312 C 235.69606 715.95312 236.51008 715.86582 237.30469 715.72266 L 266 829.90039 C 260.58051 831.681 256.64453 836.78779 256.64453 842.78906 C 256.64453 850.261 262.74096 856.36523 270.21289 856.36523 C 277.68482 856.36523 283.78906 850.261 283.78906 842.78906 C 283.78906 835.31713 277.68482 829.2207 270.21289 829.2207 C 269.39951 829.2207 268.60673 829.3069 267.83203 829.44531 L 239.13867 715.26562 C 244.66566 713.45481 248.67969 708.24537 248.67969 702.12695 C 248.67969 694.51555 242.47273 688.30859 234.86133 688.30859 C 227.24993 688.30859 221.03516 694.51555 221.03516 702.12695 C 221.03516 702.79745 221.10016 703.45213 221.19336 704.09766 L 89.322266 732.41016 C 88.450223 729.18384 86.721414 726.31009 84.380859 724.05469 L 167.08398 628.68164 C 172.95577 633.50166 180.46497 636.39844 188.64258 636.39844 C 207.41182 636.39844 222.67383 621.14616 222.67383 602.37695 C 222.67383 583.60771 207.41182 568.35352 188.64258 568.35352 C 179.65742 568.35352 171.48417 571.85486 165.39844 577.55859 L 117.06445 528.74609 C 120.85965 524.66727 123.1875 519.20636 123.1875 513.21094 C 123.1875 500.62466 112.94174 490.37891 100.35547 490.37891 z M 1069.5156 490.89453 L 1118.6875 540.74219 C 1112.7547 546.92412 1109.0977 555.30639 1109.0977 564.53711 C 1109.0977 574.56562 1113.4063 583.60046 1120.2695 589.89258 L 1038.3555 684.38672 C 1036.0147 682.55513 1033.2251 681.28291 1030.1777 680.75977 L 1052.1191 496.85742 C 1052.716 496.90372 1053.3173 496.93359 1053.9258 496.93359 C 1059.922 496.93359 1065.3946 494.64451 1069.5156 490.89453 z M 100.35547 494.1582 C 110.89913 494.1582 119.4082 502.66727 119.4082 513.21094 C 119.4082 523.75461 110.89913 532.26367 100.35547 532.26367 C 89.811806 532.26367 81.302734 523.75461 81.302734 513.21094 C 81.302734 502.66727 89.811806 494.1582 100.35547 494.1582 z M 250.01562 519.10156 C 255.44494 519.10156 259.80469 523.45934 259.80469 528.88867 C 259.80469 534.31796 255.44494 538.67773 250.01562 538.67773 C 244.58632 538.67773 240.2207 534.31796 240.2207 528.88867 C 240.2207 523.45934 244.58632 519.10156 250.01562 519.10156 z M 1511.1895 520.61328 C 1527.7766 520.61328 1541.1836 534.02025 1541.1836 550.60742 C 1541.1836 567.1946 1527.7766 580.59961 1511.1895 580.59961 C 1494.6023 580.59961 1481.1973 567.1946 1481.1973 550.60742 C 1481.1973 534.02025 1494.6023 520.61328 1511.1895 520.61328 z M 1614.4629 529.51758 C 1620.4699 529.51758 1625.2988 534.34649 1625.2988 540.35352 C 1625.2988 546.36055 1620.4699 551.18945 1614.4629 551.18945 C 1608.4559 551.18945 1603.627 546.36055 1603.627 540.35352 C 1603.627 534.34649 1608.4559 529.51758 1614.4629 529.51758 z M 115.72461 530.07617 L 164.05664 578.88867 C 158.21729 584.99932 154.62109 593.27146 154.62109 602.37695 C 154.62109 612.29103 158.8787 621.22125 165.66016 627.44336 L 82.951172 722.82031 C 80.675945 721.0405 77.974256 719.79205 75.021484 719.25781 L 98.410156 535.95508 C 99.052087 536.00958 99.699713 536.04297 100.35547 536.04297 C 106.26914 536.04297 111.66429 533.77992 115.72461 530.07617 z M 1143.4902 533.92383 C 1160.4211 533.92383 1174.1113 547.60622 1174.1113 564.53711 C 1174.1113 581.46799 1160.4211 595.15625 1143.4902 595.15625 C 1126.5594 595.15625 1112.8789 581.46799 1112.8789 564.53711 C 1112.8789 547.60622 1126.5594 533.92383 1143.4902 533.92383 z M 441.07422 555.23438 C 446.68677 555.23438 451.19531 559.74295 451.19531 565.35547 C 451.19531 570.96803 446.68677 575.47656 441.07422 575.47656 C 435.46167 575.47656 430.94727 570.96803 430.94727 565.35547 C 430.94727 559.74295 435.46167 555.23437 441.07422 555.23438 z M 1177.4355 570.10156 L 1296.4453 586.26367 C 1296.4043 586.76103 1296.3691 587.25988 1296.3691 587.76758 C 1296.3691 590.8685 1297.1535 593.78988 1298.5293 596.34766 L 1201.002 655.30664 C 1198.4972 651.75154 1194.3704 649.41406 1189.709 649.41406 C 1182.0976 649.41406 1175.8828 655.62883 1175.8828 663.24023 C 1175.8828 663.9297 1175.9508 664.60278 1176.0488 665.26562 L 1044.7676 694.00195 C 1043.8805 690.76766 1042.1385 687.88792 1039.7871 685.625 L 1121.6934 591.12891 C 1127.6298 596.00484 1135.2218 598.93555 1143.4902 598.93555 C 1160.5688 598.93555 1174.7685 586.43541 1177.4355 570.10156 z M 188.64258 572.13281 C 205.36921 572.13281 218.89454 585.65031 218.89453 602.37695 C 218.89453 619.10355 205.36921 632.61914 188.64258 632.61914 C 171.91595 632.61914 158.40039 619.10355 158.40039 602.37695 C 158.40039 585.65031 171.91595 572.13281 188.64258 572.13281 z M 1314.5508 573.35742 C 1322.5303 573.35742 1328.9609 579.78809 1328.9609 587.76758 C 1328.9609 595.74707 1322.5303 602.16992 1314.5508 602.16992 C 1306.5713 602.16992 1300.1484 595.74707 1300.1484 587.76758 C 1300.1484 587.26886 1300.1737 586.77644 1300.2227 586.29102 C 1300.9575 579.0097 1307.07 573.35742 1314.5508 573.35742 z M 555.89258 582.73242 C 561.99823 582.73242 566.90625 587.64046 566.90625 593.74609 C 566.90625 599.85177 561.99823 604.75977 555.89258 604.75977 C 549.78692 604.75977 544.87891 599.85177 544.87891 593.74609 C 544.87891 587.64046 549.78692 582.73242 555.89258 582.73242 z M 1417.75 597.88867 C 1423.4583 597.88867 1428.0488 602.47729 1428.0488 608.18555 C 1428.0488 613.89384 1423.4583 618.48242 1417.75 618.48242 C 1412.0417 618.48242 1407.4531 613.89384 1407.4531 608.18555 C 1407.4531 602.47729 1412.0417 597.88867 1417.75 597.88867 z M 303.57227 608.08984 C 309.38206 608.08984 314.04688 612.76249 314.04688 618.57227 C 314.04688 624.38208 309.38206 629.04687 303.57227 629.04688 C 297.76247 629.04688 293.08984 624.38208 293.08984 618.57227 C 293.08984 612.76249 297.76247 608.08984 303.57227 608.08984 z M 716.83203 610.89453 C 726.44554 610.89453 734.19531 618.65018 734.19531 628.26367 C 734.19531 637.8772 726.44554 645.62695 716.83203 645.62695 C 707.21852 645.62695 699.46289 637.8772 699.46289 628.26367 C 699.46289 618.65018 707.21852 610.89453 716.83203 610.89453 z M 465.53711 618.44727 C 480.61739 618.44727 492.79883 630.62675 492.79883 645.70703 C 492.79883 660.78731 480.61739 672.97656 465.53711 672.97656 C 450.45682 672.97656 438.26953 660.78731 438.26953 645.70703 C 438.26953 630.62675 450.45682 618.44727 465.53711 618.44727 z M 1532.3984 627.1875 C 1538.1067 627.1875 1542.6953 631.7683 1542.6953 637.47656 C 1542.6953 643.18486 1538.1067 647.77539 1532.3984 647.77539 C 1526.6902 647.77539 1522.1074 643.18486 1522.1074 637.47656 C 1522.1074 631.7683 1526.6902 627.1875 1532.3984 627.1875 z M 695.82422 630.66602 C 696.12786 633.33419 696.92884 635.85251 698.13477 638.12695 L 614.98828 686.88281 C 611.94944 682.32455 606.76557 679.31055 600.89258 679.31055 C 593.97838 679.31055 588.02285 683.48917 585.39648 689.44727 L 494.92969 655.67383 C 495.99304 652.54337 496.57812 649.19304 496.57812 645.70703 C 496.57812 645.30358 496.56217 644.90366 496.54688 644.50391 L 695.82422 630.66602 z M 839.2832 634.16211 C 854.75799 634.16211 867.26758 646.66586 867.26758 662.14062 C 867.26758 677.61537 854.75799 690.11719 839.2832 690.11719 C 823.80846 690.11719 811.30664 677.61537 811.30664 662.14062 C 811.30664 646.66586 823.80846 634.16211 839.2832 634.16211 z M 736.93359 634.80469 L 808.44141 654.58398 C 807.84802 657.00723 807.52539 659.53653 807.52539 662.14062 C 807.52539 676.50989 817.10999 688.6666 830.22266 692.57422 L 783.68945 867.69336 C 782.60932 867.47107 781.49022 867.35547 780.3457 867.35547 C 771.2001 867.35547 763.74414 874.81336 763.74414 883.95898 C 763.74414 889.62956 766.61439 894.64563 770.97266 897.64258 L 722.23828 978.3125 C 720.38526 977.35772 718.29284 976.80859 716.07227 976.80859 C 709.81261 976.80859 704.53217 981.10291 702.99219 986.89062 L 444.74023 937.44141 C 444.89117 936.40916 444.97266 935.35457 444.97266 934.28125 C 444.97266 933.78501 444.94882 933.2947 444.91602 932.80664 L 567.39648 919.10352 C 568.48938 924.86802 573.56696 929.25391 579.64062 929.25391 C 586.5068 929.25391 592.11523 923.65131 592.11523 916.78516 C 592.11523 914.95924 591.70751 913.22832 590.99609 911.66211 L 679.90234 863.13086 C 685.33612 872.36904 695.37692 878.58398 706.85156 878.58398 C 724.0866 878.58398 738.09961 864.57096 738.09961 847.33594 C 738.09961 830.89751 725.34913 817.40283 709.2168 816.18945 L 716.80859 649.40625 C 716.81659 649.40626 716.82423 649.40625 716.83203 649.40625 C 726.20565 649.40625 734.17147 643.26936 736.93359 634.80469 z M 699.10352 639.75 C 701.05608 642.75071 703.73839 645.23305 706.91016 646.92578 L 650.56445 765.42773 L 611.36328 709.52734 C 615.29145 706.42034 617.82617 701.62409 617.82617 696.24414 C 617.82617 693.4603 617.13661 690.83762 615.93945 688.51758 L 699.10352 639.75 z M 967.21875 642.33398 C 972.09018 642.33398 976.00391 646.24771 976.00391 651.11914 C 976.00391 655.99057 972.09018 659.89648 967.21875 659.89648 C 962.34732 659.89648 958.44141 655.99057 958.44141 651.11914 C 958.44141 646.24771 962.34732 642.33398 967.21875 642.33398 z M 708.61328 647.74414 C 710.58323 648.57827 712.70702 649.11698 714.92578 649.31641 L 707.32812 816.10156 C 707.16883 816.09956 707.01143 816.08984 706.85156 816.08984 C 700.52041 816.08984 694.62786 817.98582 689.70117 821.23242 L 651.81055 767.20508 L 708.61328 647.74414 z M 1280.3652 652.43945 C 1285.7946 652.43945 1290.1621 656.79922 1290.1621 662.22852 C 1290.1621 667.65784 1285.7946 672.01758 1280.3652 672.01758 C 1274.9359 672.01758 1270.5781 667.65784 1270.5781 662.22852 C 1270.5781 656.79922 1274.9359 652.43945 1280.3652 652.43945 z M 1189.709 653.19336 C 1195.2778 653.19336 1199.748 657.67144 1199.748 663.24023 C 1199.748 668.80903 1195.2778 673.2793 1189.709 673.2793 C 1184.1402 673.2793 1179.6621 668.80903 1179.6621 663.24023 C 1179.6621 657.67144 1184.1402 653.19336 1189.709 653.19336 z M 494.26953 657.44727 L 584.72266 691.2168 C 584.22686 692.80616 583.95898 694.49444 583.95898 696.24414 C 583.95898 701.44564 586.32446 706.10694 590.03125 709.21875 L 571.97461 733.41016 L 489.93945 664.86719 C 491.70545 662.62142 493.17079 660.12867 494.26953 657.44727 z M 1443.5059 662.53906 C 1458.4193 662.53906 1470.4707 674.59042 1470.4707 689.50391 C 1470.4707 704.41739 1458.4193 716.46289 1443.5059 716.46289 C 1428.5924 716.46289 1416.5469 704.41739 1416.5469 689.50391 C 1416.5469 674.59042 1428.5924 662.53906 1443.5059 662.53906 z M 488.72656 666.32031 L 570.83984 734.92773 L 528.17773 792.08398 L 478.44336 673.93555 C 482.38279 672.12705 485.87969 669.52135 488.72656 666.32031 z M 476.70312 674.67188 L 526.86523 793.8418 L 517.06836 806.9668 L 451.29492 793.31055 C 451.35892 792.80815 451.40234 792.30039 451.40234 791.78125 C 451.40234 786.17017 447.541 781.43856 442.3457 780.07422 L 460.98047 676.41992 C 462.46829 676.63964 463.98907 676.75586 465.53711 676.75586 C 469.4731 676.75586 473.23594 676.01321 476.70312 674.67188 z M 600.89258 683.08984 C 608.1817 683.08984 614.04688 688.95502 614.04688 696.24414 C 614.04688 703.53326 608.1817 709.40625 600.89258 709.40625 C 593.60345 709.40625 587.73828 703.53326 587.73828 696.24414 C 587.73828 688.95502 593.60345 683.08984 600.89258 683.08984 z M 1027.0703 684.25586 C 1035.1496 684.25586 1041.6582 690.76249 1041.6582 698.8418 C 1041.6582 706.9211 1035.1496 713.4375 1027.0703 713.4375 C 1018.991 713.4375 1012.4844 706.9211 1012.4844 698.8418 C 1012.4844 690.76249 1018.991 684.25586 1027.0703 684.25586 z M 234.86133 692.08789 C 240.43012 692.08789 244.90039 696.55816 244.90039 702.12695 C 244.90039 707.69575 240.43012 712.17383 234.86133 712.17383 C 229.29253 712.17383 224.81445 707.69575 224.81445 702.12695 C 224.81445 696.55816 229.29253 692.08789 234.86133 692.08789 z M 1471.8906 701.31055 L 1561.1719 735.28711 C 1560.6626 736.88656 1560.3828 738.58664 1560.3828 740.35156 C 1560.3828 745.49665 1562.7239 750.10821 1566.3906 753.1875 L 1548.3945 777.30078 L 1467.5312 708.65625 C 1469.3052 706.43629 1470.7807 703.96918 1471.8906 701.31055 z M 1466.3105 710.09961 L 1547.2637 778.81836 L 1505.0488 835.38672 L 1456.1523 717.51172 C 1460.0328 715.75407 1463.4882 713.22033 1466.3105 710.09961 z M 591.54297 710.35156 C 594.22512 712.13784 597.43881 713.18553 600.89258 713.18555 C 604.16754 713.18555 607.21942 712.23329 609.81445 710.61328 L 649.63281 767.38867 L 639.11523 789.50781 L 573.42773 734.62305 L 591.54297 710.35156 z M 1454.4043 718.24219 L 1503.7305 837.15234 L 1493.543 850.80469 L 1428.3984 836.82812 C 1428.4834 836.22685 1428.543 835.61798 1428.543 834.99414 C 1428.543 828.91779 1424.3883 823.7923 1418.7793 822.27734 L 1438.5977 719.8457 C 1440.1968 720.10324 1441.8349 720.24219 1443.5059 720.24219 C 1447.3427 720.24219 1451.0148 719.53064 1454.4043 718.24219 z M 71.787109 722.73047 C 79.766588 722.73047 86.189453 729.16116 86.189453 737.14062 C 86.189453 745.12008 79.766588 751.54883 71.787109 751.54883 C 63.807627 751.54883 57.378902 745.12008 57.378906 737.14062 C 57.378906 729.16116 63.807627 722.73047 71.787109 722.73047 z M 1577.1406 727.37305 C 1584.3311 727.37305 1590.125 733.16105 1590.125 740.35156 C 1590.125 747.54204 1584.3311 753.33594 1577.1406 753.33594 C 1569.9501 753.33594 1564.1621 747.54204 1564.1621 740.35156 C 1564.1621 733.16105 1569.9501 727.37305 1577.1406 727.37305 z M 572.29297 736.14062 L 638.27734 791.27148 L 620.59375 828.46289 L 536.10547 810.91992 L 529.02734 794.10547 L 572.29297 736.14062 z M 1051.8223 739.56055 C 1061.5753 739.56055 1069.4434 747.42865 1069.4434 757.18164 C 1069.4434 766.93464 1061.5753 774.80273 1051.8223 774.80273 C 1042.0693 774.80273 1034.2012 766.93464 1034.2012 757.18164 C 1034.2012 747.42865 1042.0693 739.56055 1051.8223 739.56055 z M 1567.9004 754.31836 C 1570.5526 756.08162 1573.728 757.11523 1577.1406 757.11523 C 1580.3429 757.11523 1583.3293 756.19357 1585.8789 754.625 L 1621.8711 806.58008 L 1611.3047 830.70508 L 1549.8359 778.52539 L 1567.9004 754.31836 z M 650.87891 769.16602 L 688.1543 822.3125 C 686.46261 823.57945 684.90634 825.01886 683.50391 826.5957 L 640.61133 790.75977 L 650.87891 769.16602 z M 1548.7051 780.04102 L 1610.5156 832.50977 L 1593.1426 872.17578 L 1513.1934 855.02148 L 1505.8906 837.41602 L 1548.7051 780.04102 z M 439.28711 783.44727 C 443.91343 783.44727 447.62305 787.15492 447.62305 791.78125 C 447.62305 796.40758 443.91343 800.12305 439.28711 800.12305 C 434.66079 800.12305 430.94727 796.40758 430.94727 791.78125 C 430.94727 787.15492 434.66079 783.44727 439.28711 783.44727 z M 842.85547 791.30078 C 853.00463 791.30078 861.19336 799.48752 861.19336 809.63672 C 861.19336 819.78588 853.00463 827.97461 842.85547 827.97461 C 832.70627 827.97461 824.51953 819.78588 824.51953 809.63672 C 824.51953 799.48752 832.70627 791.30078 842.85547 791.30078 z M 639.77344 792.52148 L 682.29297 828.04688 C 679.54882 831.5332 677.53137 835.61418 676.4668 840.06445 L 622.49609 828.85938 L 639.77344 792.52148 z M 1224.8105 794.61523 C 1230.5188 794.61523 1235.1074 799.20381 1235.1074 804.91211 C 1235.1074 810.62037 1230.5188 815.21094 1224.8105 815.21094 C 1219.1023 815.21094 1214.5117 810.62037 1214.5117 804.91211 C 1214.5117 799.20381 1219.1023 794.61523 1224.8105 794.61523 z M 450.91016 795.16602 L 515.81836 808.64062 L 493.38477 838.69531 L 448.91602 799.0957 C 449.80417 797.92959 450.48894 796.60551 450.91016 795.16602 z M 527.71484 795.86328 L 533.85742 810.45312 L 519.11133 807.39062 L 527.71484 795.86328 z M 447.66406 800.50781 L 492.25 840.2168 L 435.45508 916.30664 C 432.8481 914.52572 429.83767 913.29696 426.58984 912.78906 L 438.86914 803.88086 C 439.00915 803.88586 439.14597 803.90234 439.28711 803.90234 C 442.53357 803.90234 445.48432 802.60329 447.66406 800.50781 z M 333.2168 806.66211 C 346.71913 806.66211 357.62305 817.56408 357.62305 831.06641 C 357.62305 844.56873 346.71913 855.47852 333.2168 855.47852 C 319.71447 855.47852 308.80664 844.56873 308.80664 831.06641 C 308.80664 817.56408 319.71447 806.66211 333.2168 806.66211 z M 517.86133 809.06641 L 534.75 812.57227 L 573.95117 905.70312 C 572.86647 906.26402 571.87346 906.9757 571.00195 907.81641 L 494.80078 839.95703 L 517.86133 809.06641 z M 536.99609 813.03906 L 619.75586 830.22266 L 584.125 905.16211 C 582.7304 904.62044 581.22174 904.31055 579.64062 904.31055 C 578.26018 904.31055 576.93445 904.5468 575.69141 904.96484 L 536.99609 813.03906 z M 706.85156 819.86914 C 722.04399 819.86914 734.32031 832.14348 734.32031 847.33594 C 734.32031 862.52835 722.04399 874.80469 706.85156 874.80469 C 691.65914 874.80469 679.38477 862.52835 679.38477 847.33594 C 679.38477 832.14348 691.65914 819.86914 706.85156 819.86914 z M 1415.3594 825.58984 C 1420.5774 825.58984 1424.7637 829.77609 1424.7637 834.99414 C 1424.7637 840.21219 1420.5774 844.40629 1415.3594 844.40625 C 1410.1413 844.40625 1405.9473 840.21219 1405.9473 834.99414 C 1405.9473 829.77609 1410.1413 825.58984 1415.3594 825.58984 z M 621.66016 830.61719 L 676.08398 841.91797 C 675.77492 843.67897 675.60352 845.48746 675.60352 847.33594 C 675.60352 852.42135 676.83135 857.22157 678.99414 861.46875 L 590.08789 910 C 589.00736 908.34447 587.5454 906.96344 585.82812 905.97461 L 621.66016 830.61719 z M 270.21289 833.00195 C 275.64221 833.00195 280.00977 837.35973 280.00977 842.78906 C 280.00977 848.21839 275.64221 852.58594 270.21289 852.58594 C 264.78357 852.58594 260.42578 848.21839 260.42578 842.78906 C 260.42578 837.35973 264.78357 833.00195 270.21289 833.00195 z M 1428.0078 838.68164 L 1492.2969 852.47461 L 1469.9805 882.37695 L 1425.791 843.01953 C 1426.7799 841.73647 1427.5421 840.27312 1428.0078 838.68164 z M 1504.5723 839.18164 L 1510.9414 854.53906 L 1495.5742 851.24023 L 1504.5723 839.18164 z M 493.66602 841.47852 L 569.74609 909.23438 C 568.13947 911.33492 567.17187 913.94841 567.17188 916.78516 C 567.17188 916.9328 567.18816 917.07622 567.19336 917.22266 L 444.71289 930.92578 C 443.8714 925.51521 441.02794 920.75909 436.9668 917.4375 L 493.66602 841.47852 z M 1424.5371 844.4375 L 1468.8457 883.89844 L 1411.8809 960.23438 C 1409.2573 958.44311 1406.2256 957.20886 1402.9551 956.70703 L 1414.8613 848.16016 C 1415.028 848.16616 1415.1912 848.18555 1415.3594 848.18555 C 1418.9234 848.18555 1422.16 846.75138 1424.5371 844.4375 z M 1309.1543 850.93164 C 1322.673 850.93164 1333.5957 861.85432 1333.5957 875.37305 C 1333.5957 888.89181 1322.673 899.80664 1309.1543 899.80664 C 1295.6355 899.80664 1284.7207 888.89181 1284.7207 875.37305 C 1284.7207 861.85432 1295.6355 850.93164 1309.1543 850.93164 z M 1494.3281 852.91016 L 1511.8242 856.66406 L 1549.8047 948.23047 C 1548.5987 948.84014 1547.4973 949.62297 1546.5371 950.55664 L 1471.3984 883.63867 L 1494.3281 852.91016 z M 1514.0762 857.14844 L 1592.3672 873.94531 L 1560.1172 947.58398 C 1558.7379 947.09161 1557.2612 946.80859 1555.7168 946.80859 C 1554.2633 946.80859 1552.8667 947.05569 1551.5566 947.49414 L 1514.0762 857.14844 z M 974.54102 870.63477 C 981.92296 870.63477 987.87305 876.57704 987.87305 883.95898 C 987.87305 891.34093 981.92296 897.2832 974.54102 897.2832 C 967.15907 897.2832 961.2168 891.34093 961.2168 883.95898 C 961.2168 876.57704 967.15907 870.63477 974.54102 870.63477 z M 780.3457 871.13672 C 787.4487 871.13672 793.16016 876.85597 793.16016 883.95898 C 793.16016 891.06196 787.4487 896.78125 780.3457 896.78125 C 773.2427 896.78125 767.52344 891.06196 767.52344 883.95898 C 767.52344 876.85597 773.2427 871.13672 780.3457 871.13672 z M 1470.2637 885.16016 L 1545.2812 951.9707 C 1543.561 954.19921 1542.5254 956.98069 1542.5254 960 C 1542.5254 960.19721 1542.5467 960.38884 1542.5547 960.58398 L 1421.125 974.75 C 1420.2625 969.38341 1417.4304 964.667 1413.3945 961.36719 L 1470.2637 885.16016 z M 1086.1621 885.78125 C 1091.173 885.78125 1095.1992 889.80547 1095.1992 894.81641 C 1095.1992 899.8273 1091.173 903.8457 1086.1621 903.8457 C 1081.1512 903.8457 1077.1348 899.8273 1077.1348 894.81641 C 1077.1348 889.80547 1081.1512 885.78125 1086.1621 885.78125 z M 353.21484 886.45312 C 337.66991 886.45312 325.02344 899.09175 325.02344 914.63672 C 325.02344 915.13508 325.0368 915.63096 325.0625 916.12305 L 145.21484 931.64844 C 144.22056 925.42771 138.81808 920.63867 132.32617 920.63867 C 125.13319 920.63867 119.26758 926.51207 119.26758 933.70508 C 119.26758 940.89805 125.13319 946.77148 132.32617 946.77148 C 139.51915 946.77148 145.39258 940.89805 145.39258 933.70508 C 145.39258 933.64638 145.38381 933.58975 145.38281 933.53125 L 325.23242 918.00586 C 326.90356 931.96733 338.81058 942.82812 353.21484 942.82812 C 368.75978 942.82812 381.39844 930.18165 381.39844 914.63672 C 381.39844 899.09175 368.75978 886.45312 353.21484 886.45312 z M 353.21484 890.23242 C 366.71717 890.23242 377.61914 901.13439 377.61914 914.63672 C 377.61914 928.13904 366.71717 939.04883 353.21484 939.04883 C 339.71252 939.04883 328.80273 928.13904 328.80273 914.63672 C 328.80273 901.13439 339.71252 890.23242 353.21484 890.23242 z M 579.64062 908.08984 C 584.46419 908.08984 588.33594 911.96157 588.33594 916.78516 C 588.33594 921.6087 584.46419 925.47461 579.64062 925.47461 C 574.81708 925.47461 570.95117 921.6087 570.95117 916.78516 C 570.95117 911.96157 574.81708 908.08984 579.64062 908.08984 z M 423.2168 916.30469 C 433.16872 916.30469 441.19336 924.32934 441.19336 934.28125 C 441.19336 944.2332 433.16872 952.26367 423.2168 952.26367 C 413.26487 952.26367 405.23633 944.2332 405.23633 934.28125 C 405.23633 924.32934 413.26487 916.30469 423.2168 916.30469 z M 132.32617 924.41797 C 137.47655 924.41797 141.61328 928.55468 141.61328 933.70508 C 141.61328 938.85544 137.47655 942.99023 132.32617 942.99023 C 127.17579 942.99023 123.04883 938.85544 123.04883 933.70508 C 123.04883 928.55468 127.17579 924.41797 132.32617 924.41797 z M 1555.7168 950.58789 C 1560.9349 950.58789 1565.123 954.78195 1565.123 960 C 1565.123 965.21805 1560.9349 969.4043 1555.7168 969.4043 C 1550.4987 969.4043 1546.3066 965.21805 1546.3066 960 C 1546.3066 954.78195 1550.4987 950.58789 1555.7168 950.58789 z M 930.71484 960.23438 C 935.9329 960.23438 940.11914 964.42259 940.11914 969.64062 C 940.11914 974.85868 935.9329 979.04492 930.71484 979.04492 C 925.49679 979.04492 921.30273 974.85868 921.30273 969.64062 C 921.30273 964.42259 925.49679 960.23436 930.71484 960.23438 z "
       id="path1375"
       transform="matrix(0.26458333,0,0,0.26458333,-113.40798,18.724861)" />
  </g>
</svg>
